<svg width="1471" height="548" viewBox="0 0 1471 548" fill="none" xmlns="http://www.w3.org/2000/svg">
<g clip-path="url(#clip0_1_2)">
<rect width="1471" height="548" fill="white"/>
<path fill-rule="evenodd" clip-rule="evenodd" d="M279.397 244.588C391.997 287.535 440.763 398.852 503.248 494.722C563.282 586.831 637.043 676.249 628.554 780.291C618.917 898.405 555.401 1004.99 455.69 1077.6C340.156 1161.74 184.872 1268.18 47.512 1203.44C-91.104 1138.11 -16.5252 940.032 -95.9319 817.622C-170.566 702.571 -384.311 665.601 -386.172 534.893C-388.061 402.18 -232.969 319.509 -103.824 263.179C14.1266 211.732 154.234 196.85 279.397 244.588Z" fill="#7EB31E"/>
<path fill-rule="evenodd" clip-rule="evenodd" d="M1152.17 326.753C1088.53 400.073 998.891 442.767 903.393 453.92C801.16 465.86 695.564 452.218 615.646 389.413C530.195 322.26 467.844 221.822 468.086 111.828C468.322 4.62753 538.876 -87.4327 616.86 -162.58C689.062 -232.154 781.743 -302.532 878.577 -283.726C968.532 -266.256 979.312 -143.345 1044.34 -79.5589C1104.62 -20.432 1216 -13.4959 1237.8 68.6396C1261.68 158.62 1214.17 255.315 1152.17 326.753Z" fill="#3A88DE"/>
<path fill-rule="evenodd" clip-rule="evenodd" d="M181.602 -162.066C315.787 -182.179 463.266 -258.171 573.497 -206.059C682.465 -154.545 626.473 -44.8383 609.379 40.1649C595.123 111.06 563.759 179.251 485.579 231.15C405.046 284.611 298.455 318.843 181.602 324.141C55.3064 329.867 -96.6499 325.859 -169.656 260.857C-240.13 198.109 -159.73 115.663 -137.341 40.1649C-121.267 -14.0367 -121.085 -72.0394 -59.3186 -111.203C2.67173 -150.509 95.9351 -149.225 181.602 -162.066Z" fill="#7EB31E"/>
<path fill-rule="evenodd" clip-rule="evenodd" d="M1285.01 -101.084C1386.45 -106.788 1485.13 -101.14 1574.56 -65.1009C1709.1 -10.8762 1924.47 36.9661 1908.12 150.046C1891.3 266.344 1644.33 253.293 1518.37 323.449C1426.8 374.454 1396.69 478.533 1285.01 497.106C1156.15 518.534 1004.3 497.101 917.066 423.444C832.26 351.837 849.63 243.701 873.977 150.046C893.497 74.9567 956.698 13.7423 1036.2 -34.8305C1106.94 -78.0528 1193.68 -95.9494 1285.01 -101.084Z" fill="#3A88DE"/>
<path fill-rule="evenodd" clip-rule="evenodd" d="M1047.94 195.123C1179.61 163.427 1305.9 219.659 1414.19 283.289C1509.69 339.402 1590.82 419.193 1605.96 522.994C1619.74 617.488 1525.24 694.849 1487.72 787.478C1433.93 920.277 1478.77 1099.35 1342.55 1173.27C1203.07 1248.97 1034.73 1170.37 898.859 1107.03C764.604 1044.46 631.32 960.705 598.46 826.446C566.538 696.017 652.91 564.574 737.139 446.27C814.854 337.116 910.502 228.208 1047.94 195.123Z" fill="#3A88DE"/>
<path fill-rule="evenodd" clip-rule="evenodd" d="M695.681 327.455C789.103 338.316 884.901 228.476 965.285 296.221C1055.93 372.612 1108.33 526.455 1108 674.942C1107.67 823.092 1036.31 943.981 963.606 1051.3C888.396 1162.33 803.561 1306.44 695.681 1283.59C590.301 1261.26 563.584 1070.63 497.98 952.658C446.211 859.561 376.361 789.976 357.227 674.942C332.084 523.783 288.207 319.473 377.423 227.876C468.642 134.223 583.08 314.364 695.681 327.455Z" fill="#7EB31E"/>
</g>
<defs>
<clipPath id="clip0_1_2">
<rect width="1471" height="548" fill="white"/>
</clipPath>
</defs>
</svg>
