<svg width="1085" height="562" viewBox="0 0 1085 562" fill="none" xmlns="http://www.w3.org/2000/svg">
<g clip-path="url(#clip0_54_3304)">
<path fill-rule="evenodd" clip-rule="evenodd" d="M683.191 141.056C745.161 114.864 823.091 209.589 897.921 222.147C968.571 234.004 1030.8 161.105 1092.93 209.82C1154.43 258.048 1132.91 343.77 1142.86 414.21C1153.5 489.478 1198.26 581.689 1152.03 628.062C1105.67 674.562 1014.24 629.059 939.459 618.222C864.869 607.412 786.151 621.117 723.051 565.894C656.057 507.263 628.204 418.723 620.752 339.299C613.389 260.821 618.25 168.505 683.191 141.056Z" fill="#C0EEF2"/>
<path fill-rule="evenodd" clip-rule="evenodd" d="M468.956 159.009C535.25 98.8725 630.1 58.1073 704.747 69.5538C774.708 80.2816 793.347 151.854 813.802 211.888C828.901 256.199 814.983 306.641 803.235 358.603C789.666 418.621 791.551 481.761 741.389 532.182C682.68 591.193 600.603 635.277 526.05 637.219C449.852 639.203 389.653 599.332 361.52 542.074C336.116 490.37 369.981 421.699 388.214 356.688C407.503 287.913 408.425 213.919 468.956 159.009Z" fill="#3A88DE"/>
<path fill-rule="evenodd" clip-rule="evenodd" d="M-154.858 65.3454C-147.622 6.39944 -15.2822 -32.6703 82.6609 -72.0073C151.733 -99.7488 229.223 -115.381 312.316 -122.286C393.559 -129.038 473.474 -128.618 539.999 -110.012C617.137 -88.4378 688.443 -58.3214 702.88 -13.0525C718.625 36.318 686.253 91.1604 617.81 133.974C548.666 177.225 446.531 201.918 342.883 212.137C237.528 222.525 135.654 215.017 50.5112 189.907C-46.3909 161.329 -162.231 125.415 -154.858 65.3454Z" fill="#6CB9EB"/>
<path fill-rule="evenodd" clip-rule="evenodd" d="M411.35 159.124C496.346 217.135 585.31 293.225 585.456 398.503C585.608 508.786 509.581 617.916 412.068 677.408C325.133 730.446 223.756 689.382 125.823 678.922C39.3921 669.69 -57.1196 681.4 -116.214 620.981C-177.266 558.559 -180.116 462.121 -174.086 372.288C-167.806 278.731 -161.241 168.719 -82.1091 112.927C-5.37703 58.8266 90.2568 113.737 180.626 122.197C261.573 129.775 345.88 114.439 411.35 159.124Z" fill="#7EB31E"/>
<path fill-rule="evenodd" clip-rule="evenodd" d="M1004.26 -158.795C1121.99 -120.019 1198.39 -30.8417 1240.72 41.7011C1275.22 100.847 1222 136.618 1204.37 184.17C1186.64 231.952 1207.06 297.035 1138.81 316.435C1060.91 338.576 942.466 333.913 835.554 288.997C732.208 245.579 689.224 170.46 635.016 104.779C586.279 45.7262 524.604 -17.9211 543.563 -64.794C562.387 -111.33 656.477 -112.183 728.74 -126.928C817.087 -144.954 888.138 -197.043 1004.26 -158.795Z" fill="#D3EC62"/>
</g>
<defs>
<clipPath id="clip0_54_3304">
<rect width="1085" height="562" fill="white"/>
</clipPath>
</defs>
</svg>
