<svg width="1085" height="498" viewBox="0 0 1085 498" fill="none" xmlns="http://www.w3.org/2000/svg">
<g clip-path="url(#clip0_54_2698)">
<path fill-rule="evenodd" clip-rule="evenodd" d="M-116.858 443.73C-109.622 384.784 22.7178 345.715 120.661 306.378C189.733 278.636 267.223 263.004 350.316 256.099C431.559 249.347 511.474 249.767 577.999 268.373C655.137 289.947 726.443 320.064 740.88 365.332C756.625 414.703 724.253 469.545 655.81 512.359C586.666 555.61 484.531 580.303 380.883 590.522C275.528 600.91 173.654 593.402 88.5112 568.292C-8.39085 539.714 -124.231 503.8 -116.858 443.73Z" fill="#6CB9EB"/>
<path fill-rule="evenodd" clip-rule="evenodd" d="M444.35 -147.876C529.346 -89.8648 618.31 -13.7755 618.456 91.5028C618.608 201.786 542.581 310.916 445.068 370.408C358.133 423.446 256.756 382.382 158.823 371.922C72.3921 362.69 -24.1196 374.4 -83.2137 313.981C-144.266 251.559 -147.116 155.121 -141.086 65.2884C-134.806 -28.2687 -128.241 -138.281 -49.1091 -194.073C27.623 -248.173 123.257 -193.263 213.626 -184.803C294.573 -177.225 378.88 -192.561 444.35 -147.876Z" fill="#7EB31E"/>
<path fill-rule="evenodd" clip-rule="evenodd" d="M683.191 141.056C745.161 114.864 823.091 209.589 897.921 222.147C968.571 234.004 1030.8 161.105 1092.93 209.82C1154.43 258.048 1132.91 343.77 1142.86 414.21C1153.5 489.478 1198.26 581.689 1152.03 628.062C1105.67 674.562 1014.24 629.059 939.459 618.222C864.869 607.412 786.151 621.117 723.051 565.894C656.057 507.263 628.204 418.723 620.752 339.299C613.389 260.821 618.25 168.505 683.191 141.056Z" fill="#C0EEF2"/>
<path fill-rule="evenodd" clip-rule="evenodd" d="M989.3 -164.419C1112.83 -123.676 1193.21 -30.6293 1237.82 44.9942C1274.19 106.652 1218.52 143.692 1200.2 193.111C1181.78 242.769 1203.4 310.557 1131.93 330.513C1050.35 353.289 926.184 348.038 813.971 300.943C705.501 255.418 660.194 177.112 603.153 108.588C551.87 46.98 487.009 -19.453 506.725 -68.1606C526.298 -116.518 624.918 -117.09 700.611 -132.188C793.154 -150.647 867.452 -204.607 989.3 -164.419Z" fill="#D3EC62"/>
<path fill-rule="evenodd" clip-rule="evenodd" d="M620.164 -160.917C709.167 -170.399 809.811 -147.397 863.351 -94.1379C913.531 -44.222 886.384 24.5753 867.507 85.1244C853.574 129.816 812.591 162.349 772.464 197.39C726.116 237.864 690.409 289.972 620.164 301.119C537.952 314.164 445.667 301.374 384.309 258.983C321.595 215.656 296.484 147.958 307.523 85.1244C317.491 28.3855 385.334 -7.11049 438.393 -48.8666C494.524 -93.0411 538.899 -152.26 620.164 -160.917Z" fill="#3A88DE"/>
</g>
<defs>
<clipPath id="clip0_54_2698">
<rect width="1085" height="498" fill="white"/>
</clipPath>
</defs>
</svg>
