<svg width="1280" height="1000" viewBox="0 0 1280 1000" fill="none" xmlns="http://www.w3.org/2000/svg">
<g clip-path="url(#clip0_1_2)">
<rect width="1280" height="1000" fill="white"/>
<path fill-rule="evenodd" clip-rule="evenodd" d="M1176.66 214.123C1308.33 182.427 1434.62 238.659 1542.91 302.289C1638.41 358.402 1719.54 438.193 1734.68 541.994C1748.46 636.488 1653.96 713.849 1616.44 806.478C1562.65 939.277 1607.49 1118.35 1471.27 1192.27C1331.79 1267.97 1163.45 1189.37 1027.58 1126.03C893.323 1063.46 760.039 979.705 727.179 845.446C695.257 715.017 781.63 583.574 865.859 465.27C943.573 356.116 1039.22 247.208 1176.66 214.123Z" fill="#3A88DE"/>
<path fill-rule="evenodd" clip-rule="evenodd" d="M279.397 244.588C391.997 287.535 440.763 398.852 503.248 494.722C563.282 586.831 637.043 676.249 628.554 780.291C618.917 898.405 555.401 1004.99 455.69 1077.6C340.156 1161.74 184.872 1268.18 47.512 1203.44C-91.104 1138.11 -16.5252 940.032 -95.9319 817.622C-170.566 702.571 -384.311 665.601 -386.172 534.893C-388.061 402.18 -232.969 319.509 -103.824 263.179C14.1266 211.732 154.234 196.85 279.397 244.588Z" fill="#3A88DE"/>
<path fill-rule="evenodd" clip-rule="evenodd" d="M181.602 -162.066C315.787 -182.179 463.266 -258.171 573.497 -206.059C682.465 -154.545 626.473 -44.8383 609.379 40.1649C595.123 111.06 563.759 179.251 485.579 231.15C405.046 284.611 298.455 318.843 181.602 324.141C55.3064 329.867 -96.6499 325.859 -169.656 260.857C-240.13 198.109 -159.73 115.663 -137.341 40.1649C-121.267 -14.0367 -121.085 -72.0394 -59.3186 -111.203C2.67172 -150.509 95.9351 -149.225 181.602 -162.066Z" fill="#3A88DE"/>
<path fill-rule="evenodd" clip-rule="evenodd" d="M1434.01 -90.0844C1535.45 -95.788 1634.13 -90.1401 1723.56 -54.1009C1858.1 0.123772 2073.47 47.966 2057.12 161.046C2040.3 277.344 1793.33 264.293 1667.37 334.449C1575.8 385.454 1545.69 489.533 1434.01 508.106C1305.15 529.534 1153.3 508.101 1066.07 434.444C981.26 362.837 998.63 254.701 1022.98 161.046C1042.5 85.9567 1105.7 24.7423 1185.2 -23.8305C1255.94 -67.0528 1342.68 -84.9494 1434.01 -90.0844Z" fill="#3A88DE"/>
<path fill-rule="evenodd" clip-rule="evenodd" d="M695.681 327.455C789.103 338.316 884.901 228.476 965.285 296.221C1055.93 372.612 1108.33 526.455 1108 674.942C1107.67 823.092 1036.31 943.981 963.606 1051.3C888.396 1162.33 803.561 1306.44 695.681 1283.59C590.301 1261.26 563.584 1070.63 497.98 952.658C446.211 859.561 376.361 789.976 357.227 674.942C332.084 523.783 288.207 319.473 377.423 227.876C468.642 134.223 583.08 314.364 695.681 327.455Z" fill="#3A88DE"/>
<path fill-rule="evenodd" clip-rule="evenodd" d="M1152.17 326.753C1088.53 400.073 998.891 442.767 903.393 453.92C801.16 465.86 695.564 452.218 615.646 389.413C530.195 322.26 467.844 221.822 468.086 111.828C468.322 4.62753 538.876 -87.4328 616.86 -162.58C689.062 -232.154 781.743 -302.532 878.577 -283.726C968.532 -266.256 979.312 -143.345 1044.34 -79.5588C1104.62 -20.432 1216 -13.4959 1237.8 68.6396C1261.68 158.62 1214.17 255.315 1152.17 326.753Z" fill="#3A88DE"/>
</g>
<defs>
<clipPath id="clip0_1_2">
<rect width="1280" height="1000" fill="white"/>
</clipPath>
</defs>
</svg>
