<svg width="1332" height="382" viewBox="0 0 1332 382" fill="none" xmlns="http://www.w3.org/2000/svg">
<g clip-path="url(#clip0_201_3)" filter="url(#filter0_d_201_3)">
<rect width="1324" height="374" transform="translate(4)" fill="white"/>
<path fill-rule="evenodd" clip-rule="evenodd" d="M148.839 -140.952C242.746 -138.37 294.927 -29.316 347.121 52.3559C386.885 114.576 411.67 185.199 404.885 259.696C398.708 327.507 353.881 378.252 312.633 430.973C264.022 493.107 225.586 584.986 148.839 586.966C71.7961 588.954 24.5256 502.88 -23.2412 439.639C-63.5676 386.248 -92.0793 327.414 -98.3513 259.696C-105.448 183.073 -100.059 105.849 -60.148 41.1614C-9.04258 -41.6706 54.6038 -143.542 148.839 -140.952Z" fill="#D3EC62"/>
<path fill-rule="evenodd" clip-rule="evenodd" d="M463.488 -134.445C531.685 -134.511 606.797 -262.459 658.897 -183.533C710.557 -105.273 677.989 50.704 666.367 172.894C657.013 271.232 643.888 374.983 600.038 435.273C559.621 490.842 505.966 461.655 455.8 462.402C404.247 463.17 346.203 501.303 307.769 439.625C268.143 376.035 277.734 264.333 272.231 167.817C265.347 47.0568 221.532 -102.986 272.263 -183.163C323.42 -264.011 396.433 -134.381 463.488 -134.445Z" fill="#7EB31E"/>
<path fill-rule="evenodd" clip-rule="evenodd" d="M1031.51 200.499C1030.15 107.706 1044.25 13.7586 1083.37 -47.9075C1120.02 -105.685 1174.89 -97.6846 1225.74 -105.683C1282.63 -114.632 1344.14 -155.284 1391.54 -96.3855C1441.22 -34.6648 1460.61 80.1224 1456.82 181.433C1453.41 272.395 1406.43 327.877 1373.06 397.007C1336.93 471.838 1314.5 580.092 1257.15 595.015C1196.51 610.795 1135.1 547.515 1091 470.405C1049.62 398.052 1032.96 298.785 1031.51 200.499Z" fill="#C0EEF2"/>
<path fill-rule="evenodd" clip-rule="evenodd" d="M942.95 -61.2651C1002.24 -83.732 1068.45 -152.196 1117.41 -91.5202C1167.26 -29.7267 1165.03 99.3335 1155.69 202.422C1147.66 291.067 1112.81 362.609 1071.21 418.531C1034.7 467.612 989.605 484.568 942.95 488.386C893.05 492.469 837.289 499.49 801.596 440.593C765.717 381.39 763.517 286.402 769.647 202.422C775.021 128.791 799.879 66.1366 832.556 16.4168C863.324 -30.3972 902.504 -45.9391 942.95 -61.2651Z" fill="#6CB9EB"/>
<path fill-rule="evenodd" clip-rule="evenodd" d="M569.505 182.481C579.133 105.478 562.756 10.6171 620.257 -36.7543C678.816 -84.9983 758.645 -55.8752 819.391 -23.3875C871.628 4.54858 902.455 61.7407 920.815 123.986C936.929 178.616 929.525 237.152 913.28 294.908C895.904 356.682 878.025 426.214 826.933 457.757C775.576 489.462 715.288 472.72 665.211 448.056C621.306 426.433 592.047 383.261 574.001 333.185C557.01 286.035 562.937 235.008 569.505 182.481Z" fill="#3A88DE"/>
</g>
<defs>
<filter id="filter0_d_201_3" x="0" y="0" width="1332" height="382" filterUnits="userSpaceOnUse" color-interpolation-filters="sRGB">
<feFlood flood-opacity="0" result="BackgroundImageFix"/>
<feColorMatrix in="SourceAlpha" type="matrix" values="0 0 0 0 0 0 0 0 0 0 0 0 0 0 0 0 0 0 127 0" result="hardAlpha"/>
<feOffset dy="4"/>
<feGaussianBlur stdDeviation="2"/>
<feComposite in2="hardAlpha" operator="out"/>
<feColorMatrix type="matrix" values="0 0 0 0 0 0 0 0 0 0 0 0 0 0 0 0 0 0 0.25 0"/>
<feBlend mode="normal" in2="BackgroundImageFix" result="effect1_dropShadow_201_3"/>
<feBlend mode="normal" in="SourceGraphic" in2="effect1_dropShadow_201_3" result="shape"/>
</filter>
<clipPath id="clip0_201_3">
<rect width="1324" height="374" fill="white" transform="translate(4)"/>
</clipPath>
</defs>
</svg>
