<svg width="1600" height="764" viewBox="0 0 1600 764" fill="none" xmlns="http://www.w3.org/2000/svg">
<g clip-path="url(#clip0_1_2)">
<rect width="1600" height="764" fill="white"/>
<path fill-rule="evenodd" clip-rule="evenodd" d="M1239.48 174.233C1343.44 149.997 1445.57 203.023 1533.58 262.063C1611.19 314.127 1678.02 386.638 1692.96 478.449C1706.57 562.028 1633.48 627.506 1606.18 708.013C1567.05 823.434 1607.74 982.346 1501.33 1043.63C1392.37 1106.39 1256.13 1032.5 1146.17 972.952C1037.52 914.117 929.05 836.664 899.142 717.543C870.088 601.821 935.205 488.501 998.98 386.69C1057.82 292.753 1130.95 199.533 1239.48 174.233Z" fill="#3A88DE"/>
<path fill-rule="evenodd" clip-rule="evenodd" d="M312.146 274.683C403.921 310.614 442.457 406.923 492.446 489.6C540.473 569.032 599.792 645.942 591.472 736.664C582.026 839.654 528.548 933.307 445.832 997.85C349.991 1072.63 221.261 1167.36 109.466 1112.77C-3.35205 1057.68 60.393 884.207 -3.12496 778.638C-62.825 679.415 -237.623 650.01 -237.441 536.202C-237.257 420.648 -108.994 346.624 -2.35463 295.879C95.0419 249.534 210.131 234.743 312.146 274.683Z" fill="#7EB31E"/>
<path fill-rule="evenodd" clip-rule="evenodd" d="M181.602 -162.066C315.787 -182.179 463.266 -258.171 573.497 -206.059C682.465 -154.545 626.473 -44.8383 609.379 40.1649C595.123 111.06 563.759 179.251 485.579 231.15C405.046 284.611 298.455 318.843 181.602 324.141C55.3064 329.867 -96.6499 325.859 -169.656 260.857C-240.13 198.109 -159.73 115.663 -137.341 40.1649C-121.267 -14.0367 -121.085 -72.0394 -59.3186 -111.203C2.67173 -150.509 95.9351 -149.225 181.602 -162.066Z" fill="#7EB31E"/>
<path fill-rule="evenodd" clip-rule="evenodd" d="M1434.01 -90.0844C1535.45 -95.788 1634.13 -90.1401 1723.56 -54.1009C1858.1 0.123775 2073.47 47.9661 2057.12 161.046C2040.3 277.344 1793.33 264.293 1667.37 334.449C1575.8 385.454 1545.69 489.533 1434.01 508.106C1305.15 529.534 1153.3 508.101 1066.07 434.444C981.26 362.837 998.63 254.701 1022.98 161.046C1042.5 85.9567 1105.7 24.7423 1185.2 -23.8305C1255.94 -67.0528 1342.68 -84.9494 1434.01 -90.0844Z" fill="#3A88DE"/>
<path fill-rule="evenodd" clip-rule="evenodd" d="M695.681 283.982C789.103 291.11 884.901 219.03 965.285 263.486C1055.93 313.615 1108.33 414.57 1108 512.01C1107.67 609.23 1036.31 688.56 963.606 758.987C888.396 831.842 803.561 926.413 695.681 911.415C590.301 896.765 563.584 771.672 497.98 694.254C446.211 633.162 376.361 587.498 357.227 512.01C332.084 412.817 288.207 278.745 377.423 218.637C468.642 157.179 583.08 275.392 695.681 283.982Z" fill="#7EB31E"/>
<path fill-rule="evenodd" clip-rule="evenodd" d="M1152.17 326.753C1088.53 400.073 998.891 442.767 903.393 453.92C801.16 465.86 695.564 452.218 615.646 389.413C530.195 322.26 467.844 221.822 468.086 111.828C468.322 4.62753 538.876 -87.4327 616.86 -162.58C689.062 -232.154 781.743 -302.532 878.577 -283.726C968.532 -266.256 979.312 -143.345 1044.34 -79.5589C1104.62 -20.432 1216 -13.4959 1237.8 68.6396C1261.68 158.62 1214.17 255.315 1152.17 326.753Z" fill="#3A88DE"/>
</g>
<defs>
<clipPath id="clip0_1_2">
<rect width="1600" height="764" fill="white"/>
</clipPath>
</defs>
</svg>
