<svg width="520" height="328" viewBox="0 0 520 328" fill="none" xmlns="http://www.w3.org/2000/svg">
<path fill-rule="evenodd" clip-rule="evenodd" d="M197.016 53.6853C197.016 55.8093 195.684 57.5733 193.812 58.2573C193.956 58.9413 194.064 59.6613 194.064 60.3813C194.064 63.1533 192.876 65.6013 190.968 67.2933C191.256 67.9413 191.436 68.6253 191.436 69.3813C191.436 70.6053 190.968 71.7213 190.248 72.5493C191.4 73.6293 192.156 75.1413 192.156 76.8333C192.156 80.0013 189.564 82.5573 186.432 82.5573C183.804 82.5573 181.608 80.8293 180.924 78.4533C179.628 79.5693 178.044 80.2893 176.316 80.5773C174.84 83.7813 171.6 86.0493 167.82 86.0493C167.772 86.0493 167.724 86.0493 167.676 86.0493C167.316 88.3893 166.02 90.4773 164.22 91.8813C164.544 92.4573 164.724 93.1413 164.724 93.8253C164.724 96.1293 162.852 97.9653 160.584 97.9653C159.252 97.9653 158.1 97.3533 157.344 96.4173C156.192 96.9573 154.968 97.2813 153.636 97.3533C153.312 100.701 150.468 103.329 147.048 103.329C143.376 103.329 140.424 100.377 140.424 96.7053C140.424 96.4173 140.436 96.1413 140.46 95.8773C136.896 95.7693 134.052 92.8533 134.052 89.2533C134.052 87.6333 134.592 86.1573 135.564 85.0053C130.956 84.4293 127.392 80.5413 127.392 75.7893C127.392 70.6413 131.568 66.4653 136.716 66.4653C137.436 66.4653 138.132 66.5373 138.804 66.6813C138.696 66.3573 138.66 66.0333 138.66 65.7093C138.66 63.6933 140.28 62.0373 142.296 62.0373C142.728 62.0373 143.088 62.1093 143.448 62.2173C143.448 62.0973 143.448 61.9533 143.448 61.7853C143.448 60.1653 144.024 58.6893 144.996 57.5373C143.484 56.7093 142.476 55.0893 142.476 53.2533C142.476 50.5893 144.672 48.3933 147.372 48.3933C147.984 48.3933 148.56 48.5013 149.1 48.7173C149.172 43.6053 153.312 39.5013 158.424 39.5013C160.368 39.5013 162.168 40.0773 163.644 41.0853C164.868 37.3413 168.36 34.6053 172.536 34.6053C175.308 34.6053 177.828 35.8293 179.52 37.7733C180.888 36.9813 182.508 36.5133 184.2 36.5133C189.348 36.5133 193.524 40.6893 193.524 45.8373C193.524 46.9173 193.344 47.9253 193.02 48.8973C195.288 49.3293 197.016 51.3093 197.016 53.6853Z" fill="#A8BBBF"/>
<path d="M236.544 26.5053C235.896 25.4253 234.852 24.7413 233.7 24.5253C234.204 23.3733 234.204 21.9693 233.484 20.7813C232.332 18.8013 229.776 18.1533 227.832 19.3053C227.04 19.7733 226.464 20.4573 226.14 21.2133C224.124 20.0253 221.748 19.4853 219.408 19.7013C219.228 18.6573 218.868 17.5773 218.292 16.6053C215.664 12.1773 209.94 10.6653 205.512 13.2933C203.46 14.5173 202.056 16.3893 201.372 18.4773C199.068 17.8653 196.476 18.1173 194.244 19.4493C189.816 22.0773 188.34 27.7653 190.932 32.2293C191.688 33.4893 192.696 34.4973 193.848 35.2533C193.38 36.4053 193.452 37.7013 194.136 38.8173C195.288 40.7973 197.808 41.4453 199.788 40.2933C200.4 39.9333 200.868 39.4653 201.228 38.8893C203.352 39.7533 205.8 39.7893 208.032 38.9253C208.056 38.9493 208.08 38.9853 208.104 39.0333C210.012 42.2733 213.576 43.9293 217.104 43.5693C219.984 47.0613 225.024 48.0693 229.056 45.6933C233.484 43.1013 234.96 37.3773 232.368 32.9493C232.296 32.8533 232.236 32.7573 232.188 32.6613C233.124 32.8413 234.168 32.6973 235.068 32.1573C237.012 31.0053 237.696 28.4853 236.544 26.5053Z" fill="#A8BBBF"/>
<g style="mix-blend-mode:multiply" opacity="0.1">
<path d="M402.072 327.141H154.392C150.468 327.141 147.264 323.937 147.264 320.013C147.264 316.089 150.468 312.885 154.392 312.885H402.072C405.996 312.885 409.2 316.089 409.2 320.013C409.2 323.937 405.996 327.141 402.072 327.141Z" fill="black"/>
</g>
<path fill-rule="evenodd" clip-rule="evenodd" d="M254.652 51.0933C254.652 53.5773 253.068 55.6653 250.872 56.4933C251.052 57.2853 251.16 58.1133 251.16 58.9773C251.16 62.1813 249.756 65.0973 247.56 67.0773C247.884 67.8333 248.1 68.6613 248.1 69.5253C248.1 72.6933 245.508 75.2493 242.376 75.2493C241.224 75.2493 240.18 74.9253 239.316 74.3493C238.956 75.8613 238.272 77.2653 237.372 78.4533C237.66 78.6453 237.948 78.8613 238.236 79.1013C238.74 78.5973 239.46 78.3093 240.216 78.3093C241.872 78.3093 243.168 79.6413 243.168 81.2613C243.168 82.3773 242.556 83.3133 241.656 83.8173C242.088 85.0053 242.376 86.3013 242.376 87.6333C242.376 92.1333 239.64 95.9853 235.788 97.6773C236.688 98.4693 237.264 99.6573 237.264 100.953C237.264 103.329 235.356 105.237 232.98 105.237C232.836 105.237 232.704 105.237 232.584 105.237C231.324 109.881 227.076 113.301 222 113.301C219.228 113.301 216.672 112.257 214.764 110.529C214.764 110.721 214.764 110.925 214.764 111.141C214.764 115.425 211.308 118.917 206.988 118.917C202.704 118.917 199.212 115.425 199.212 111.141C199.212 110.805 199.236 110.469 199.284 110.133C195.108 110.025 191.724 106.569 191.724 102.357C191.724 100.485 192.408 98.7573 193.524 97.3893C188.124 96.7053 183.948 92.1333 183.948 86.5533C183.948 82.7373 185.892 79.3893 188.844 77.4093C188.664 76.6173 188.556 75.7893 188.556 74.9253C188.556 72.9453 189.096 71.1093 189.996 69.4893C187.836 69.2733 186.108 67.4373 186.108 65.2053C186.108 62.8293 188.052 60.8853 190.428 60.8853C190.884 60.9093 191.328 60.9813 191.76 61.1013C191.736 60.9573 191.724 60.8013 191.724 60.6333C191.724 58.7253 192.408 56.9613 193.56 55.6293C191.796 54.6213 190.608 52.7493 190.608 50.5893C190.608 47.4213 193.164 44.8653 196.332 44.8653C197.052 44.8653 197.772 45.0093 198.384 45.2613C198.456 39.2493 203.316 34.4253 209.328 34.4253C211.596 34.4253 213.72 35.1093 215.484 36.2973C216.888 31.9053 221.028 28.7013 225.888 28.7013C229.164 28.7013 232.116 30.1413 234.096 32.4453C235.716 31.4733 237.588 30.9333 239.604 30.9333C245.652 30.9333 250.548 35.8293 250.548 41.8773C250.548 43.1373 250.332 44.3613 249.936 45.4773C252.6 45.9453 254.652 48.2853 254.652 51.0933Z" fill="#B3C7CC"/>
<path d="M293.172 15.4533C292.2 15.4533 291.3 15.8493 290.688 16.5333C289.536 15.1293 287.772 14.2653 285.828 14.2653C283.524 14.2653 281.472 15.5253 280.392 17.3973C279.276 16.4253 277.836 15.8493 276.288 15.8493C275.1 15.8493 273.984 16.1733 273.048 16.7493C273.12 16.4613 273.192 16.1733 273.192 15.8493C273.192 13.9413 271.608 12.3933 269.7 12.3933C267.792 12.3933 266.208 13.9413 266.208 15.8493C266.208 15.9573 266.244 16.0293 266.244 16.1373C265.56 15.9573 264.84 15.8493 264.084 15.8493C261.42 15.8493 259.008 17.0733 257.388 18.9453C257.196 18.9213 256.992 18.9093 256.776 18.9093C254.22 18.9093 252.168 20.9973 252.168 23.5533C252.168 24.3453 252.384 25.1373 252.744 25.7853C251.808 26.3973 251.16 27.4773 251.16 28.7013C251.16 30.6093 252.708 32.1933 254.652 32.1933C255.84 32.1933 256.92 31.5453 257.532 30.6093C259.152 32.4093 261.492 33.5253 264.084 33.5253C266.028 33.5253 267.792 32.9133 269.232 31.8693C269.988 33.3813 271.572 34.4253 273.372 34.4253C275.928 34.4253 277.98 32.3733 277.98 29.8173C277.98 29.2773 277.908 28.7733 277.728 28.3053C279.168 27.9453 280.428 27.1173 281.292 26.0013C281.652 28.1613 283.56 29.8173 285.828 29.8173C288.384 29.8173 290.472 27.7293 290.472 25.1733C290.472 25.0773 290.46 24.9693 290.436 24.8493C291.156 24.0933 291.66 23.1933 291.912 22.1493C292.308 22.2933 292.74 22.4013 293.172 22.4013C295.116 22.4013 296.664 20.8533 296.664 18.9093C296.664 17.0013 295.116 15.4533 293.172 15.4533Z" fill="#B3C7CC"/>
<path d="M128.508 199.233L177.18 91.9894L225.888 199.233" stroke="#004A59" stroke-width="4" stroke-linecap="round" stroke-linejoin="round"/>
<path d="M152.592 119.529H141.396L140.712 134.865H153.24L152.592 119.529Z" fill="#649091"/>
<path d="M151.836 102.717H142.116L141.396 119.529H152.592L151.836 102.717Z" fill="#93BFC1"/>
<path d="M140.712 134.865L139.992 151.641H153.996L153.24 134.865H140.712Z" fill="#4F7273"/>
<path d="M151.908 103.797H142.08C141.396 103.797 140.82 103.221 140.82 102.501V102.213C140.82 101.529 141.396 100.953 142.08 100.953H151.908C152.592 100.953 153.168 101.529 153.168 102.213V102.501C153.168 103.221 152.592 103.797 151.908 103.797Z" fill="#649091"/>
<path d="M178.152 148.149H133.044V199.233H178.152V148.149Z" fill="#649091"/>
<path d="M174.048 159.309H142.008V152.145H174.048V159.309Z" fill="#A4CED9"/>
<path d="M174.048 169.317H142.008V162.153H174.048V169.317Z" fill="#A4CED9"/>
<path d="M174.048 179.469H142.008V172.305H174.048V179.469Z" fill="#A4CED9"/>
<path d="M151.98 184.653H142.008V199.233H151.98V184.653Z" fill="#004857"/>
<path d="M138.372 148.149H133.044V199.233H138.372V148.149Z" fill="#93BFC1"/>
<path d="M214.98 135.909H199.032L198.06 153.513H215.952L214.98 135.909Z" fill="#93BFC1"/>
<path d="M213.936 116.685H200.076L199.032 135.909H214.98L213.936 116.685Z" fill="#AFD9DB"/>
<path d="M198.06 153.513L197.016 172.737H216.996L215.952 153.513H198.06Z" fill="#B32233"/>
<path d="M214.188 117.873H199.824C198.924 117.873 198.204 117.153 198.204 116.253C198.204 115.353 198.924 114.633 199.824 114.633H214.188C215.088 114.633 215.808 115.353 215.808 116.253C215.808 117.153 215.088 117.873 214.188 117.873Z" fill="#93BFC1"/>
<path d="M219.732 165.537H170.736V199.233H222V167.805C222 166.545 220.992 165.537 219.732 165.537Z" fill="#649091"/>
<path d="M209.328 171.477H222V169.137H209.328V171.477Z" fill="#A4CED9"/>
<path d="M209.328 176.661H222V174.321H209.328V176.661Z" fill="#A4CED9"/>
<path d="M209.328 181.809H222V179.469H209.328V181.809Z" fill="#A4CED9"/>
<path d="M193.164 171.477H205.836V169.137H193.164V171.477Z" fill="#A4CED9"/>
<path d="M193.164 176.661H205.836V174.321H193.164V176.661Z" fill="#A4CED9"/>
<path d="M193.164 181.809H205.836V179.469H193.164V181.809Z" fill="#A4CED9"/>
<path d="M222.936 184.653H169.8C168.576 184.653 167.604 185.661 167.604 186.849V199.233H225.132V186.849C225.132 185.661 224.16 184.653 222.936 184.653Z" fill="#4F7273"/>
<path d="M213.864 184.653H203.856V199.233H213.864V184.653Z" fill="#004857"/>
<path d="M192.48 141.885L161.916 154.449V162.405H192.48V141.885Z" fill="#7EA4A6"/>
<path d="M192.552 159.021H161.844C160.62 159.021 159.648 159.993 159.648 161.181V199.233H194.712V161.181C194.712 159.993 193.74 159.021 192.552 159.021Z" fill="#93BFC1"/>
<path d="M195.576 183.357H158.82C158.028 183.357 157.38 184.005 157.38 184.833V199.233H197.016V184.833C197.016 184.005 196.368 183.357 195.576 183.357Z" fill="#5A8182"/>
<path d="M166.596 176.661C164.616 176.661 162.996 178.281 162.996 180.261V199.233H170.232V180.261C170.232 178.281 168.612 176.661 166.596 176.661Z" fill="#004A59"/>
<path d="M170.556 164.817H162.672V162.657H170.556V164.817Z" fill="#E0F9FF"/>
<path d="M191.724 164.817H183.84V162.657H191.724V164.817Z" fill="#E0F9FF"/>
<path d="M181.14 164.817H173.256V162.657H181.14V164.817Z" fill="#E0F9FF"/>
<path d="M170.556 169.353H162.672V167.193H170.556V169.353Z" fill="#E0F9FF"/>
<path d="M191.724 169.353H183.84V167.193H191.724V169.353Z" fill="#E0F9FF"/>
<path d="M181.14 169.353H173.256V167.193H181.14V169.353Z" fill="#E0F9FF"/>
<path d="M170.556 173.889H162.672V171.729H170.556V173.889Z" fill="#E0F9FF"/>
<path d="M191.724 173.889H183.84V171.729H191.724V173.889Z" fill="#E0F9FF"/>
<path d="M181.14 173.889H173.256V171.729H181.14V173.889Z" fill="#E0F9FF"/>
<path d="M191.724 178.425H183.84V176.265H191.724V178.425Z" fill="#E0F9FF"/>
<path d="M181.14 178.425H173.256V176.265H181.14V178.425Z" fill="#E0F9FF"/>
<path d="M225.888 199.233V214.209C225.888 225.621 217.608 234.981 207.528 234.981H146.868C136.752 234.981 128.508 225.621 128.508 214.209V199.233H225.888Z" fill="#004A59"/>
<g style="mix-blend-mode:multiply" opacity="0.1">
<path d="M146.868 208.305H207.528C215.304 208.305 222 213.849 224.664 221.661C225.456 219.321 225.888 216.837 225.888 214.209V199.233H128.508V214.209C128.508 216.837 128.94 219.321 129.732 221.661C132.396 213.849 139.092 208.305 146.868 208.305Z" fill="black"/>
</g>
<path d="M226.716 203.913H127.68C125.088 203.913 123 201.825 123 199.233C123 196.641 125.088 194.553 127.68 194.553H226.716C229.308 194.553 231.396 196.641 231.396 199.233C231.396 201.825 229.308 203.913 226.716 203.913Z" fill="#007891"/>
<path d="M330.576 199.233L379.284 91.9894L427.956 199.233" stroke="#004A59" stroke-width="4" stroke-linecap="round" stroke-linejoin="round"/>
<path d="M398.796 185.661C398.58 185.589 398.436 185.337 398.508 185.121L412.836 136.665C412.908 136.413 413.16 136.305 413.376 136.377C413.628 136.413 413.772 136.665 413.7 136.917L399.336 185.373C399.3 185.589 399.048 185.733 398.796 185.661Z" fill="#29874F"/>
<path d="M411.396 128.997C410.388 132.381 410.928 135.909 412.62 138.933C415.68 137.313 418.056 134.649 419.064 131.265C420.072 127.845 419.532 124.317 417.84 121.329C414.78 122.913 412.404 125.577 411.396 128.997Z" fill="#29874F"/>
<path d="M415.644 139.365C413.088 140.985 411.396 143.361 410.64 145.953C413.304 146.349 416.184 145.809 418.74 144.189C421.26 142.569 422.988 140.193 423.744 137.601C421.08 137.169 418.164 137.745 415.644 139.365Z" fill="#29874F"/>
<path d="M416.076 146.637C413.16 147.285 410.712 148.905 409.128 151.101C411.468 152.397 414.384 152.865 417.336 152.217C420.252 151.569 422.7 149.949 424.284 147.753C421.944 146.457 419.028 145.989 416.076 146.637Z" fill="#29874F"/>
<path d="M413.448 153.513C410.784 154.089 408.552 155.601 407.076 157.581C409.236 158.769 411.9 159.237 414.6 158.625C417.3 158.049 419.532 156.537 420.972 154.521C418.812 153.333 416.148 152.901 413.448 153.513Z" fill="#29874F"/>
<path d="M411.396 160.497C408.696 161.073 406.464 162.585 405.024 164.565C407.184 165.753 409.848 166.221 412.512 165.609C415.212 165.033 417.444 163.521 418.92 161.541C416.76 160.317 414.096 159.885 411.396 160.497Z" fill="#29874F"/>
<path d="M409.416 167.157C406.716 167.769 404.484 169.281 403.044 171.261C405.204 172.449 407.868 172.881 410.532 172.305C413.232 171.693 415.464 170.181 416.94 168.201C414.78 167.013 412.116 166.581 409.416 167.157Z" fill="#29874F"/>
<path d="M406.176 173.817C404.016 174.321 402.216 175.509 401.028 177.129C402.792 178.101 404.916 178.461 407.112 177.957C409.272 177.489 411.072 176.265 412.26 174.681C410.496 173.709 408.372 173.349 406.176 173.817Z" fill="#29874F"/>
<path d="M404.016 179.685C402.036 180.117 400.38 181.233 399.3 182.709C400.92 183.573 402.864 183.897 404.88 183.465C406.86 183.033 408.516 181.917 409.596 180.441C407.976 179.541 406.032 179.217 404.016 179.685Z" fill="#29874F"/>
<path d="M410.568 136.773C411.792 139.509 411.936 142.461 411.144 145.017C408.696 143.937 406.572 141.885 405.312 139.149C404.088 136.413 403.944 133.461 404.736 130.869C407.184 131.985 409.308 134.037 410.568 136.773Z" fill="#29874F"/>
<path d="M406.212 142.605C408.336 144.765 409.488 147.465 409.632 150.165C406.932 149.985 404.232 148.797 402.144 146.637C400.02 144.513 398.868 141.813 398.724 139.113C401.424 139.293 404.088 140.481 406.212 142.605Z" fill="#29874F"/>
<path d="M404.7 149.805C406.608 151.785 407.652 154.269 407.832 156.717C405.348 156.537 402.864 155.493 400.956 153.513C399.012 151.569 397.968 149.085 397.824 146.601C400.272 146.781 402.756 147.861 404.7 149.805Z" fill="#29874F"/>
<path d="M402.612 156.789C404.556 158.769 405.6 161.253 405.744 163.701C403.296 163.521 400.812 162.477 398.868 160.497C396.924 158.553 395.88 156.069 395.736 153.585C398.22 153.765 400.668 154.845 402.612 156.789Z" fill="#29874F"/>
<path d="M400.632 163.485C402.576 165.429 403.62 167.913 403.764 170.397C401.316 170.217 398.832 169.137 396.888 167.193C394.944 165.213 393.9 162.729 393.756 160.281C396.24 160.425 398.688 161.505 400.632 163.485Z" fill="#29874F"/>
<path d="M399.732 170.829C401.28 172.413 402.144 174.429 402.252 176.409C400.272 176.265 398.256 175.401 396.708 173.817C395.124 172.233 394.296 170.217 394.188 168.237C396.168 168.381 398.148 169.245 399.732 170.829Z" fill="#29874F"/>
<path d="M398.364 176.913C399.804 178.353 400.56 180.189 400.668 182.025C398.832 181.881 397.032 181.089 395.592 179.649C394.152 178.209 393.36 176.337 393.252 174.537C395.088 174.645 396.924 175.473 398.364 176.913Z" fill="#29874F"/>
<path d="M352.428 195.165C352.212 195.273 351.96 195.165 351.852 194.949L332.304 148.329C332.232 148.113 332.34 147.861 332.556 147.753C332.772 147.645 333.06 147.753 333.132 148.005L352.68 194.589C352.752 194.805 352.644 195.093 352.428 195.165Z" fill="#29874F"/>
<path d="M326.364 143.289C327.732 146.565 330.36 148.977 333.6 150.201C334.968 147.033 335.112 143.469 333.744 140.193C332.376 136.917 329.712 134.541 326.508 133.281C325.14 136.449 324.96 140.013 326.364 143.289Z" fill="#29874F"/>
<path d="M336.192 148.653C335.256 151.497 335.436 154.449 336.48 156.933C338.82 155.565 340.728 153.297 341.664 150.453C342.6 147.573 342.42 144.657 341.34 142.173C339.036 143.541 337.128 145.809 336.192 148.653Z" fill="#29874F"/>
<path d="M341.16 153.981C339.288 156.357 338.424 159.165 338.568 161.865C341.232 161.397 343.788 159.921 345.66 157.581C347.496 155.205 348.36 152.397 348.216 149.697C345.552 150.165 342.996 151.641 341.16 153.981Z" fill="#29874F"/>
<path d="M343.464 161.001C341.736 163.161 340.98 165.717 341.088 168.201C343.536 167.769 345.876 166.401 347.568 164.241C349.296 162.081 350.052 159.525 349.944 157.041C347.496 157.473 345.156 158.841 343.464 161.001Z" fill="#29874F"/>
<path d="M346.272 167.697C344.544 169.857 343.788 172.449 343.896 174.933C346.344 174.465 348.684 173.133 350.376 170.973C352.104 168.813 352.86 166.221 352.752 163.773C350.304 164.205 347.964 165.537 346.272 167.697Z" fill="#29874F"/>
<path d="M348.972 174.141C347.244 176.301 346.488 178.857 346.596 181.341C349.044 180.909 351.384 179.541 353.076 177.381C354.804 175.221 355.56 172.665 355.452 170.181C353.004 170.613 350.664 171.981 348.972 174.141Z" fill="#29874F"/>
<path d="M350.664 181.341C349.296 183.069 348.684 185.157 348.756 187.137C350.736 186.813 352.608 185.697 354.012 183.969C355.38 182.241 355.992 180.153 355.92 178.137C353.94 178.497 352.068 179.577 350.664 181.341Z" fill="#29874F"/>
<path d="M352.68 187.209C351.42 188.829 350.844 190.737 350.952 192.573C352.752 192.249 354.48 191.241 355.74 189.657C357 188.037 357.576 186.129 357.504 184.293C355.704 184.617 353.976 185.625 352.68 187.209Z" fill="#29874F"/>
<path d="M330.612 149.877C333.312 151.209 335.292 153.405 336.3 155.889C333.708 156.573 330.756 156.357 328.092 155.025C325.392 153.693 323.412 151.497 322.368 148.977C324.996 148.293 327.912 148.545 330.612 149.877Z" fill="#29874F"/>
<path d="M330.972 157.149C333.96 157.473 336.552 158.841 338.388 160.821C336.192 162.369 333.348 163.161 330.36 162.837C327.372 162.513 324.744 161.145 322.944 159.165C325.14 157.617 327.984 156.825 330.972 157.149Z" fill="#29874F"/>
<path d="M334.32 163.701C337.056 163.989 339.432 165.249 341.124 167.049C339.108 168.489 336.516 169.209 333.78 168.921C331.008 168.633 328.632 167.373 326.976 165.537C328.992 164.133 331.584 163.377 334.32 163.701Z" fill="#29874F"/>
<path d="M337.128 170.397C339.864 170.685 342.276 171.945 343.932 173.781C341.916 175.185 339.324 175.941 336.588 175.653C333.852 175.329 331.44 174.069 329.784 172.269C331.8 170.829 334.392 170.109 337.128 170.397Z" fill="#29874F"/>
<path d="M339.828 176.841C342.564 177.129 344.94 178.389 346.632 180.189C344.616 181.629 342.024 182.349 339.288 182.061C336.516 181.773 334.14 180.513 332.484 178.677C334.5 177.273 337.092 176.553 339.828 176.841Z" fill="#29874F"/>
<path d="M343.752 183.105C345.984 183.357 347.892 184.365 349.26 185.841C347.604 186.993 345.516 187.569 343.32 187.317C341.088 187.101 339.18 186.057 337.812 184.617C339.468 183.465 341.556 182.853 343.752 183.105Z" fill="#29874F"/>
<path d="M346.56 188.685C348.576 188.901 350.34 189.837 351.6 191.169C350.088 192.213 348.18 192.753 346.128 192.537C344.112 192.321 342.348 191.385 341.124 190.053C342.6 189.009 344.508 188.469 346.56 188.685Z" fill="#29874F"/>
<path d="M322.044 188.469C327.876 199.593 337.092 207.621 347.316 211.545C349.944 200.925 348.684 188.757 342.888 177.633C337.092 166.509 327.84 158.481 317.616 154.557C314.988 165.177 316.248 177.345 322.044 188.469Z" fill="#2F9C5B"/>
<path d="M331.332 183.645C337.128 194.769 342.816 204.633 347.316 211.545C344.22 203.913 339.432 193.581 333.6 182.457C327.804 171.333 322.116 161.469 317.616 154.557C320.712 162.225 325.536 172.521 331.332 183.645Z" fill="#247846"/>
<path d="M418.92 171.261L414.96 168.201C413.736 170.073 412.62 172.017 411.648 174.105C410.28 176.985 409.2 179.937 408.444 182.853L411.792 186.417L407.688 186.057C406.5 192.249 406.572 198.333 407.796 203.841C411 202.257 414.06 200.169 416.904 197.649L416.76 191.781L418.884 195.777C422.376 192.249 425.472 188.001 427.92 183.141C426.12 180.657 424.608 178.569 424.536 178.461C424.392 178.353 426.696 179.289 429.216 180.369C431.088 175.977 432.312 171.513 432.852 167.157C430.98 166.149 429.576 165.393 429.576 165.393C429.576 165.393 431.124 164.205 433.212 162.585C433.32 159.057 432.996 155.601 432.24 152.361C426.732 155.097 421.548 159.381 417.3 164.889L418.92 171.261Z" fill="#29874F"/>
<path d="M419.1 177.669C414.348 187.713 410.352 197.001 407.796 203.841C411.504 197.541 416.184 188.613 420.936 178.533C425.724 168.489 429.684 159.201 432.24 152.361C428.568 158.661 423.888 167.625 419.1 177.669Z" fill="#206B3E"/>
<path d="M353.904 159.885L348.9 159.993C349.116 162.225 349.512 164.457 350.016 166.689C350.772 169.785 351.78 172.737 353.004 175.509L357.864 176.157L354.48 178.461C357.432 184.041 361.284 188.721 365.712 192.213C367.188 189.009 368.268 185.445 368.916 181.701L365.1 177.237L369.276 179.001C369.78 174.033 369.528 168.813 368.376 163.485C365.424 162.657 362.94 161.973 362.796 161.973C362.616 161.973 365.028 161.253 367.62 160.497C366.36 155.925 364.488 151.713 362.184 147.933C360.096 148.329 358.512 148.617 358.512 148.617C358.512 148.617 358.98 146.745 359.592 144.153C357.468 141.345 355.056 138.861 352.428 136.809C349.836 142.425 348.504 149.013 348.648 155.961L353.904 159.885Z" fill="#2F9C5B"/>
<path d="M358.08 164.745C360.672 175.581 363.408 185.301 365.712 192.213C364.632 184.977 362.652 175.113 360.06 164.277C357.468 153.441 354.732 143.757 352.428 136.809C353.508 144.045 355.488 153.945 358.08 164.745Z" fill="#247846"/>
<path d="M422.268 184.149C415.356 189.729 410.856 197.001 409.2 204.237C416.616 204.165 424.68 201.321 431.592 195.741C438.54 190.125 443.004 182.889 444.66 175.653C437.244 175.725 429.18 178.569 422.268 184.149Z" fill="#2F9C5B"/>
<path d="M426.408 189.297C419.496 194.913 413.412 200.205 409.2 204.237C414.06 200.997 420.504 196.173 427.452 190.593C434.364 184.977 440.448 179.685 444.66 175.653C439.8 178.893 433.356 183.717 426.408 189.297Z" fill="#247846"/>
<path d="M336.768 199.233C336.768 182.133 355.776 168.273 379.284 168.273C402.756 168.273 421.8 182.133 421.8 199.233H336.768Z" fill="#31A660"/>
<path d="M330.216 199.233C330.216 188.973 338.532 180.657 348.756 180.657C359.016 180.657 367.332 188.973 367.332 199.233H330.216Z" fill="#3AC271"/>
<g style="mix-blend-mode:multiply" opacity="0.1">
<path d="M390.048 172.053C390.048 173.637 385.224 174.933 379.284 174.933C373.308 174.933 368.484 173.637 368.484 172.053C368.484 170.469 373.308 169.173 379.284 169.173C385.224 169.173 390.048 170.469 390.048 172.053Z" fill="black"/>
</g>
<path d="M381.444 164.205L380.22 165.429L366.648 151.857L367.872 150.633L381.444 164.205Z" fill="#8A635E"/>
<path d="M380.472 164.061L379.248 162.837L392.82 149.301L394.008 150.525L380.472 164.061Z" fill="#8A635E"/>
<path d="M379.284 172.593C378.06 172.593 377.124 171.621 377.124 170.433V149.913H381.444V170.433C381.444 171.621 380.472 172.593 379.284 172.593Z" fill="#8A635E"/>
<path d="M399.444 137.349C399.444 148.509 390.408 157.545 379.284 157.545C368.124 157.545 359.088 148.509 359.088 137.349C359.088 126.225 368.124 117.153 379.284 117.153C390.408 117.153 399.444 126.225 399.444 137.349Z" fill="#3AC271"/>
<path opacity="0.1" d="M380.94 130.977C380.94 135.405 377.34 139.041 372.876 139.041C368.412 139.041 364.812 135.405 364.812 130.977C364.812 126.513 368.412 122.877 372.876 122.877C377.34 122.877 380.94 126.513 380.94 130.977Z" fill="white"/>
<path opacity="0.1" d="M392.928 146.673C392.928 149.085 390.984 151.029 388.572 151.029C386.196 151.029 384.252 149.085 384.252 146.673C384.252 144.297 386.196 142.353 388.572 142.353C390.984 142.353 392.928 144.297 392.928 146.673Z" fill="white"/>
<path d="M394.476 199.233C394.476 188.973 401.964 180.657 411.216 180.657C420.468 180.657 427.956 188.973 427.956 199.233H394.476Z" fill="#3AC271"/>
<g style="mix-blend-mode:multiply" opacity="0.1">
<path d="M418.56 184.905C418.56 186.489 415.284 187.749 411.216 187.749C407.184 187.749 403.908 186.489 403.908 184.905C403.908 183.321 407.184 182.025 411.216 182.025C415.284 182.025 418.56 183.321 418.56 184.905Z" fill="black"/>
</g>
<path d="M411.216 185.157C410.172 185.157 409.344 184.293 409.344 183.249V162.477H413.088V183.249C413.088 184.293 412.26 185.157 411.216 185.157Z" fill="#8A635E"/>
<path d="M422.124 162.837C422.124 168.309 417.264 172.737 411.216 172.737C405.204 172.737 400.308 168.309 400.308 162.837C400.308 157.365 405.204 142.173 411.216 142.173C417.264 142.173 422.124 157.365 422.124 162.837Z" fill="#3AC271"/>
<path opacity="0.1" d="M409.992 152.649C409.056 155.889 407.364 158.265 406.284 157.941C405.204 157.617 405.096 154.737 406.068 151.497C407.04 148.221 408.696 145.881 409.776 146.205C410.892 146.529 410.964 149.409 409.992 152.649Z" fill="white"/>
<path d="M427.956 199.233V214.209C427.956 225.621 419.712 234.981 409.596 234.981H348.936C338.856 234.981 330.576 225.621 330.576 214.209V199.233H427.956Z" fill="#004A59"/>
<g style="mix-blend-mode:multiply" opacity="0.1">
<path d="M330.576 199.233V214.209C330.576 216.837 331.008 219.321 331.8 221.661C334.464 213.849 341.16 208.305 348.936 208.305H409.596C417.372 208.305 424.068 213.849 426.732 221.661C427.524 219.321 427.956 216.837 427.956 214.209V199.233H330.576Z" fill="black"/>
</g>
<path d="M428.784 203.913H329.748C327.156 203.913 325.068 201.825 325.068 199.233C325.068 196.641 327.156 194.553 329.748 194.553H428.784C431.376 194.553 433.464 196.641 433.464 199.233C433.464 201.825 431.376 203.913 428.784 203.913Z" fill="#007891"/>
<path d="M379.284 94.2933H177.18V89.7213H379.284V94.2933Z" fill="#004A59"/>
<path d="M185.064 91.9894C185.064 96.3454 181.536 99.8734 177.18 99.8734C172.86 99.8734 169.332 96.3454 169.332 91.9894C169.332 87.6334 172.86 84.1414 177.18 84.1414C181.536 84.1414 185.064 87.6334 185.064 91.9894Z" fill="#004A59"/>
<path d="M181.536 91.9894C181.536 94.4014 179.592 96.3454 177.18 96.3454C174.804 96.3454 172.86 94.4014 172.86 91.9894C172.86 89.6134 174.804 87.6334 177.18 87.6334C179.592 87.6334 181.536 89.6134 181.536 91.9894Z" fill="#007891"/>
<path d="M387.132 91.9894C387.132 96.3454 383.604 99.8734 379.284 99.8734C374.928 99.8734 371.4 96.3454 371.4 91.9894C371.4 87.6334 374.928 84.1414 379.284 84.1414C383.604 84.1414 387.132 87.6334 387.132 91.9894Z" fill="#004A59"/>
<path d="M383.604 91.9894C383.604 94.4014 381.66 96.3454 379.284 96.3454C376.872 96.3454 374.928 94.4014 374.928 91.9894C374.928 89.6134 376.872 87.6334 379.284 87.6334C381.66 87.6334 383.604 89.6134 383.604 91.9894Z" fill="#007891"/>
<path d="M282.336 281.241H274.128V64.6654H282.336V281.241Z" fill="#004A59"/>
<path d="M288.996 272.385C288.996 278.325 284.172 283.113 278.232 283.113C272.328 283.113 267.504 278.325 267.504 272.385C267.504 266.445 272.328 261.657 278.232 261.657C284.172 261.657 288.996 266.445 288.996 272.385Z" fill="#004A59"/>
<path d="M165.84 316.413V290.061C165.84 280.341 176.352 272.385 189.204 272.385H367.296C380.148 272.385 390.66 280.341 390.66 290.061V316.413H165.84Z" fill="#005668"/>
<g style="mix-blend-mode:multiply" opacity="0.1">
<path d="M367.296 308.169H189.204C176.352 308.169 165.84 300.213 165.84 290.493V290.061V316.413H390.66V290.493C390.66 300.213 380.148 308.169 367.296 308.169Z" fill="black"/>
</g>
<path d="M390.732 321.777H165.732C162.816 321.777 160.404 319.365 160.404 316.413C160.404 313.497 162.816 311.085 165.732 311.085H390.732C393.684 311.085 396.096 313.497 396.096 316.413C396.096 319.365 393.684 321.777 390.732 321.777Z" fill="#007891"/>
<path d="M288.996 91.9893C288.996 97.9293 284.172 102.753 278.232 102.753C272.328 102.753 267.504 97.9293 267.504 91.9893C267.504 86.0853 272.328 81.2614 278.232 81.2614C284.172 81.2614 288.996 86.0853 288.996 91.9893Z" fill="#004A59"/>
<path d="M285.324 91.9893C285.324 95.9133 282.156 99.0814 278.232 99.0814C274.344 99.0814 271.176 95.9133 271.176 91.9893C271.176 88.1013 274.344 84.9333 278.232 84.9333C282.156 84.9333 285.324 88.1013 285.324 91.9893Z" fill="#007891"/>
<path d="M287.232 64.6654C287.232 69.6334 283.2 73.6654 278.232 73.6654C273.264 73.6654 269.232 69.6334 269.232 64.6654C269.232 59.6974 273.264 55.6654 278.232 55.6654C283.2 55.6654 287.232 59.6974 287.232 64.6654Z" fill="#004A59"/>
<path d="M278.232 64.5934C276.864 64.5934 275.748 63.4414 275.748 62.0734V40.1134C275.748 38.7454 276.864 37.6294 278.232 37.6294C279.6 37.6294 280.716 38.7454 280.716 40.1134V62.0734C280.716 63.4414 279.6 64.5934 278.232 64.5934Z" fill="#007891"/>
<path d="M287.412 58.9773H269.088C267.36 58.9773 265.992 57.5733 265.992 55.8453C265.992 51.8133 269.268 48.5013 273.336 48.5013H283.164C287.196 48.5013 290.508 51.8133 290.508 55.8453C290.508 57.5733 289.104 58.9773 287.412 58.9773Z" fill="#007891"/>
<path d="M291.444 66.1414H265.056C263.04 66.1414 261.42 64.4854 261.42 62.5054V59.3014C261.42 57.3214 263.04 55.6654 265.056 55.6654H291.444C293.424 55.6654 295.08 57.3214 295.08 59.3014V62.5054C295.08 64.4854 293.424 66.1414 291.444 66.1414Z" fill="#004A59"/>
<path d="M287.988 112.941H268.512C267.108 112.941 265.992 111.789 265.992 110.385V108.513C265.992 107.145 267.108 105.993 268.512 105.993H287.988C289.356 105.993 290.508 107.145 290.508 108.513V110.385C290.508 111.789 289.356 112.941 287.988 112.941Z" fill="#004A59"/>
<path d="M284.136 122.013H272.364C271.356 122.013 270.528 121.221 270.528 120.213V118.089C270.528 117.081 271.356 116.253 272.364 116.253H284.136C285.144 116.253 285.972 117.081 285.972 118.089V120.213C285.972 121.221 285.144 122.013 284.136 122.013Z" fill="#004A59"/>
<path d="M79.344 37.908C79.848 36.9 80.136 35.748 80.136 34.56C80.136 30.42 76.788 27.072 72.684 27.072C71.172 27.072 69.804 27.54 68.616 28.296C68.64 28.128 68.652 27.96 68.652 27.792C68.652 17.424 60.228 9 49.86 9C44.028 9 38.772 11.664 35.352 15.876C33.912 15.3 32.328 14.976 30.708 14.976C23.832 14.976 18.252 20.376 17.928 27.144C17.64 27.096 17.352 27.072 17.064 27.072C12.924 27.072 9.612 30.42 9.612 34.56C9.612 36.036 10.044 37.404 10.8 38.556C2.448 39.996 0 42.048 0 44.388C0 48.672 8.496 52.128 47.412 52.128C86.292 52.128 94.788 48.672 94.788 44.388C94.788 41.688 91.44 39.312 79.344 37.908Z" fill="white" fill-opacity="0.6"/>
<path fill-rule="evenodd" clip-rule="evenodd" d="M509.712 33.084C509.712 37.656 498.444 41.328 446.856 41.328C395.232 41.328 384 37.656 384 33.084C384 30.636 387.276 28.44 398.436 26.928C397.644 25.812 397.176 24.48 397.176 23.004C397.176 19.296 400.164 16.272 403.872 16.272C405.24 16.272 406.5 16.668 407.544 17.352C407.52 17.208 407.508 17.064 407.508 16.92C407.508 7.56 415.104 0 424.428 0C430.188 0 435.3 2.88 438.324 7.308C440.736 4.932 444.048 3.492 447.72 3.492C455.136 3.492 461.148 9.504 461.148 16.92C461.148 16.944 461.136 16.98 461.112 17.028C461.94 16.668 462.84 16.452 463.776 16.452C465.252 16.452 466.62 16.956 467.736 17.748C470.148 13.752 474.54 11.052 479.544 11.052C487.176 11.052 493.368 17.244 493.368 24.84C493.368 25.452 493.296 26.064 493.224 26.676C506.04 28.188 509.712 30.492 509.712 33.084ZM409.992 25.812C410.016 25.812 410.04 25.812 410.064 25.812C410.04 25.788 410.028 25.764 410.028 25.74C410.004 25.764 409.992 25.788 409.992 25.812Z" fill="white" fill-opacity="0.6"/>
<path d="M79.344 179.908C79.848 178.9 80.136 177.748 80.136 176.56C80.136 172.42 76.788 169.072 72.684 169.072C71.172 169.072 69.804 169.54 68.616 170.296C68.64 170.128 68.652 169.96 68.652 169.792C68.652 159.424 60.228 151 49.86 151C44.028 151 38.808 153.664 35.352 157.876C33.912 157.3 32.328 156.976 30.708 156.976C23.832 156.976 18.252 162.376 17.928 169.144C17.64 169.096 17.352 169.072 17.064 169.072C12.96 169.072 9.61198 172.42 9.61198 176.56C9.61198 178.036 10.044 179.404 10.8 180.592C2.448 181.996 0 184.084 0 186.388C0 190.672 8.49598 194.128 47.412 194.128C86.292 194.128 94.788 190.672 94.788 186.388C94.788 183.688 91.44 181.312 79.344 179.908Z" fill="white" fill-opacity="0.6"/>
<path d="M509.024 101.592C509.744 100.404 510.212 99.036 510.212 97.56C510.212 93.42 506.864 90.072 502.724 90.072C502.436 90.072 502.148 90.096 501.86 90.144C501.536 83.376 495.956 77.976 489.116 77.976C487.46 77.976 485.876 78.3 484.436 78.876C481.016 74.664 475.796 72 469.928 72C459.56 72 451.136 80.424 451.136 90.792C451.16 90.96 451.172 91.128 451.172 91.296C449.984 90.54 448.616 90.072 447.104 90.072C443 90.072 439.652 93.42 439.652 97.56C439.652 98.748 439.94 99.9 440.48 100.908C428.348 102.312 425 104.688 425 107.388C425 111.672 433.496 115.128 472.412 115.128C511.292 115.128 519.788 111.672 519.788 107.388C519.788 105.084 517.34 102.996 509.024 101.592Z" fill="white" fill-opacity="0.6"/>
<path fill-rule="evenodd" clip-rule="evenodd" d="M491.46 263.296C491.46 267.184 481.848 270.352 437.748 270.352C393.648 270.352 384 267.184 384 263.296C384 261.064 387.168 259.084 398.076 257.788C398.04 257.284 397.968 256.78 397.968 256.24C397.968 249.724 403.26 244.432 409.776 244.432C414.06 244.432 417.804 246.736 419.892 250.192C420.828 249.472 422.016 249.076 423.276 249.076C424.068 249.076 424.824 249.256 425.544 249.544C425.544 249.52 425.544 249.496 425.544 249.472C425.544 243.1 430.656 237.988 436.992 237.988C440.124 237.988 442.968 239.212 445.02 241.264C447.648 237.484 451.968 235 456.9 235C464.892 235 471.372 241.48 471.372 249.472C471.372 249.58 471.336 249.724 471.336 249.832C472.236 249.256 473.316 248.932 474.468 248.932C477.636 248.932 480.192 251.488 480.192 254.656C480.192 255.916 479.796 257.068 479.112 258.004C488.652 259.3 491.46 261.208 491.46 263.296ZM469.212 256.996C469.212 257.02 469.2 257.044 469.176 257.068C469.2 257.068 469.224 257.068 469.248 257.068C469.248 257.044 469.236 257.02 469.212 256.996Z" fill="white" fill-opacity="0.6"/>
</svg>
