<svg width="207" height="202" viewBox="0 0 207 202" fill="none" xmlns="http://www.w3.org/2000/svg">
<path d="M204.25 111.8C204.25 167.45 159.25 201.6 103.6 201.6C47.95 201.6 2.85001 162.4 2.85001 106.75C2.85001 51.1 45.05 0.0499878 100.7 0.0499878C156.35 0.0499878 204.25 56.15 204.25 111.8Z" fill="#F99061"/>
<path d="M104.3 197.7C103.8 197.7 103.4 197.3 103.4 196.8C103.4 196.3 103.8 195.9 104.3 195.9C104.867 195.9 105.45 195.9 106.05 195.9C106.5 195.95 106.95 196.25 106.95 196.75C106.95 197.25 106.55 197.65 106.05 197.65C105.483 197.683 104.9 197.7 104.3 197.7ZM99 197.6C98.9667 197.6 98.95 197.6 98.95 197.6C98.35 197.567 97.75 197.533 97.15 197.5C96.65 197.45 96.3 197.05 96.35 196.55C96.35 196.1 96.75 195.65 97.25 195.75C97.85 195.783 98.4333 195.8 99 195.8C99.5 195.85 99.9 196.25 99.85 196.75C99.85 197.2 99.45 197.6 99 197.6ZM111.35 197.45C110.9 197.45 110.5 197.1 110.45 196.6C110.45 196.15 110.8 195.7 111.3 195.7C111.9 195.667 112.483 195.617 113.05 195.55C113.45 195.5 113.95 195.9 114 196.4C114.05 196.85 113.7 197.3 113.2 197.35C112.6 197.383 112 197.417 111.4 197.45C111.4 197.45 111.383 197.45 111.35 197.45ZM91.9 197.05C91.9 197.05 91.8833 197.05 91.85 197.05C91.25 196.983 90.65 196.917 90.05 196.85C89.55 196.8 89.25 196.35 89.3 195.9C89.35 195.4 89.8 195.05 90.25 195.1C90.85 195.167 91.4333 195.233 92 195.3C92.5 195.35 92.85 195.8 92.8 196.3C92.75 196.75 92.35 197.05 91.9 197.05ZM118.4 196.8C117.95 196.8 117.6 196.5 117.55 196.05C117.45 195.55 117.8 195.1 118.3 195.05C118.867 194.983 119.45 194.917 120.05 194.85C120.5 194.75 120.95 195.1 121.05 195.6C121.1 196.1 120.75 196.5 120.3 196.6C119.7 196.667 119.1 196.733 118.5 196.8C118.467 196.8 118.433 196.8 118.4 196.8ZM84.9 196.1C84.8667 196.1 84.8167 196.1 84.75 196.1C84.1833 196 83.6 195.883 83 195.75C82.55 195.65 82.2 195.2 82.3 194.75C82.4 194.25 82.85 193.95 83.35 194C83.9167 194.133 84.4833 194.25 85.05 194.35C85.55 194.4 85.85 194.9 85.8 195.35C85.7 195.8 85.35 196.1 84.9 196.1ZM125.4 195.75C125 195.75 124.6 195.45 124.55 195.05C124.45 194.55 124.75 194.1 125.25 194C125.817 193.9 126.4 193.8 127 193.7C127.45 193.6 127.9 193.9 128 194.4C128.1 194.85 127.8 195.35 127.3 195.4C126.733 195.533 126.15 195.65 125.55 195.75C125.517 195.75 125.467 195.75 125.4 195.75ZM78 194.65C77.9333 194.65 77.8667 194.633 77.8 194.6C77.2 194.467 76.6167 194.333 76.05 194.2C75.55 194.05 75.3 193.6 75.4 193.1C75.55 192.65 76 192.35 76.5 192.45C77.0667 192.617 77.6333 192.767 78.2 192.9C78.65 193 78.95 193.5 78.85 193.95C78.75 194.4 78.4 194.65 78 194.65ZM132.35 194.3C131.95 194.3 131.55 194 131.45 193.6C131.35 193.15 131.65 192.65 132.1 192.55C132.667 192.417 133.233 192.267 133.8 192.1C134.3 192 134.75 192.25 134.9 192.75C135 193.2 134.75 193.7 134.25 193.8C133.683 193.967 133.117 194.117 132.55 194.25C132.483 194.283 132.417 194.3 132.35 194.3ZM71.15 192.75C71.0833 192.75 71 192.733 70.9 192.7C70.3333 192.5 69.7667 192.317 69.2 192.15C68.75 192 68.5 191.5 68.65 191C68.8 190.55 69.3 190.3 69.75 190.45C70.3167 190.65 70.8833 190.833 71.45 191C71.9 191.15 72.15 191.65 72 192.1C71.9 192.5 71.55 192.75 71.15 192.75ZM139.15 192.35C138.75 192.35 138.4 192.15 138.3 191.75C138.15 191.3 138.4 190.8 138.85 190.65C139.417 190.45 139.983 190.267 140.55 190.1C141 189.95 141.5 190.2 141.65 190.65C141.8 191.1 141.55 191.6 141.1 191.75C140.533 191.95 139.967 192.15 139.4 192.35C139.3 192.35 139.217 192.35 139.15 192.35ZM64.5 190.35C64.4 190.35 64.3 190.333 64.2 190.3C63.6333 190.067 63.0833 189.833 62.55 189.6C62.1 189.4 61.85 188.9 62.05 188.45C62.25 188 62.75 187.8 63.2 188C63.7667 188.2 64.3167 188.417 64.85 188.65C65.3 188.8 65.5 189.35 65.35 189.8C65.2 190.15 64.85 190.35 64.5 190.35ZM145.8 190C145.45 190 145.1 189.8 145 189.45C144.8 189 145.05 188.45 145.5 188.3C146.033 188.067 146.567 187.85 147.1 187.65C147.55 187.45 148.1 187.65 148.25 188.1C148.45 188.55 148.25 189.05 147.8 189.25C147.233 189.483 146.683 189.717 146.15 189.95C146.017 189.983 145.9 190 145.8 190ZM58.05 187.5C57.9167 187.5 57.7833 187.467 57.65 187.4C57.1167 187.133 56.5833 186.867 56.05 186.6C55.6 186.4 55.45 185.85 55.65 185.4C55.9 185 56.4 184.8 56.85 185.05C57.3833 185.317 57.9 185.567 58.4 185.8C58.85 186 59.05 186.55 58.85 187C58.7 187.3 58.35 187.5 58.05 187.5ZM152.3 187.15C151.95 187.15 151.65 186.95 151.5 186.65C151.3 186.2 151.45 185.7 151.9 185.45C152.433 185.217 152.967 184.967 153.5 184.7C153.9 184.5 154.45 184.65 154.65 185.1C154.9 185.55 154.7 186.05 154.25 186.3C153.75 186.567 153.217 186.817 152.65 187.05C152.55 187.117 152.433 187.15 152.3 187.15ZM51.8 184.15C51.6333 184.15 51.4833 184.117 51.35 184.05C50.8167 183.75 50.3 183.45 49.8 183.15C49.4 182.9 49.25 182.35 49.5 181.9C49.75 181.5 50.3 181.35 50.7 181.6C51.2 181.933 51.7167 182.233 52.25 182.5C52.65 182.75 52.8 183.3 52.55 183.75C52.4 184 52.1 184.15 51.8 184.15ZM158.55 183.85C158.25 183.85 157.95 183.7 157.8 183.4C157.55 183 157.7 182.45 158.1 182.2C158.6 181.9 159.1 181.6 159.6 181.3C160.05 181.05 160.6 181.2 160.85 181.6C161.1 182.05 160.95 182.6 160.5 182.85C160 183.15 159.5 183.45 159 183.75C158.867 183.817 158.717 183.85 158.55 183.85ZM45.8 180.4C45.6333 180.4 45.4667 180.35 45.3 180.25C44.8 179.883 44.3167 179.533 43.85 179.2C43.45 178.9 43.35 178.35 43.6 177.95C43.9 177.55 44.45 177.45 44.85 177.75C45.3167 178.083 45.8 178.417 46.3 178.75C46.7 179.05 46.8 179.6 46.5 180C46.35 180.25 46.05 180.4 45.8 180.4ZM164.55 180.05C164.25 180.05 163.95 179.95 163.8 179.7C163.5 179.3 163.6 178.75 164 178.45C164.5 178.117 164.983 177.783 165.45 177.45C165.85 177.15 166.4 177.25 166.7 177.65C167 178.05 166.9 178.6 166.5 178.9C166 179.233 165.517 179.567 165.05 179.9C164.883 180 164.717 180.05 164.55 180.05ZM40.1 176.15C39.9 176.15 39.7 176.1 39.55 175.95C39.0833 175.583 38.6167 175.2 38.15 174.8C37.8 174.5 37.75 173.95 38.05 173.55C38.4 173.2 38.95 173.15 39.3 173.45C39.7667 173.817 40.2167 174.183 40.65 174.55C41.05 174.9 41.1 175.45 40.8 175.8C40.6 176.05 40.35 176.15 40.1 176.15ZM170.2 175.8C169.95 175.8 169.65 175.7 169.5 175.5C169.2 175.1 169.25 174.55 169.6 174.25C170.067 173.883 170.517 173.517 170.95 173.15C171.35 172.8 171.9 172.85 172.2 173.25C172.55 173.6 172.5 174.15 172.1 174.5C171.667 174.867 171.217 175.233 170.75 175.6C170.55 175.75 170.4 175.8 170.2 175.8ZM34.8 171.5C34.55 171.5 34.35 171.4 34.15 171.25C33.7167 170.85 33.3 170.433 32.9 170C32.55 169.65 32.55 169.1 32.9 168.75C33.2 168.4 33.8 168.4 34.15 168.75C34.55 169.15 34.9667 169.55 35.4 169.95C35.75 170.3 35.75 170.85 35.4 171.2C35.25 171.4 35 171.5 34.8 171.5ZM175.45 171.1C175.25 171.1 175 171.05 174.8 170.85C174.5 170.5 174.5 169.95 174.85 169.6C175.25 169.2 175.667 168.783 176.1 168.35C176.4 168 177 168 177.35 168.35C177.7 168.7 177.7 169.25 177.35 169.6C176.917 170.033 176.483 170.45 176.05 170.85C175.9 171.05 175.7 171.1 175.45 171.1ZM29.85 166.4C29.6 166.4 29.35 166.3 29.2 166.1C28.8 165.667 28.4 165.233 28 164.8C27.7 164.4 27.7 163.85 28.1 163.55C28.45 163.2 29 163.25 29.35 163.65C29.7167 164.083 30.1 164.517 30.5 164.95C30.8 165.3 30.8 165.85 30.45 166.2C30.25 166.35 30.05 166.4 29.85 166.4ZM180.3 165.95C180.1 165.95 179.9 165.9 179.7 165.75C179.35 165.45 179.3 164.9 179.6 164.5C180 164.067 180.383 163.617 180.75 163.15C181.05 162.8 181.6 162.75 182 163.05C182.35 163.35 182.45 163.9 182.1 164.3C181.733 164.767 181.35 165.217 180.95 165.65C180.8 165.85 180.55 165.95 180.3 165.95ZM25.35 160.95C25.05 160.95 24.8 160.85 24.6 160.6C24.2667 160.133 23.9167 159.667 23.55 159.2C23.25 158.8 23.35 158.25 23.75 157.95C24.15 157.65 24.7 157.75 25 158.15C25.3333 158.617 25.6833 159.083 26.05 159.55C26.35 159.95 26.25 160.5 25.85 160.8C25.6833 160.9 25.5167 160.95 25.35 160.95ZM184.65 160.4C184.483 160.4 184.317 160.35 184.15 160.25C183.75 159.95 183.65 159.4 183.95 159C184.283 158.533 184.617 158.05 184.95 157.55C185.2 157.15 185.75 157.05 186.15 157.35C186.6 157.6 186.7 158.15 186.4 158.55C186.067 159.05 185.733 159.55 185.4 160.05C185.2 160.3 184.95 160.4 184.65 160.4ZM21.3 155.2C21 155.2 20.7 155.05 20.55 154.75C20.2167 154.25 19.9 153.75 19.6 153.25C19.35 152.85 19.45 152.3 19.9 152.05C20.3 151.8 20.85 151.9 21.1 152.35C21.4 152.85 21.7167 153.333 22.05 153.8C22.3 154.25 22.15 154.75 21.75 155.05C21.6167 155.15 21.4667 155.2 21.3 155.2ZM188.5 154.45C188.367 154.45 188.217 154.417 188.05 154.35C187.65 154.1 187.5 153.55 187.75 153.15C188.05 152.617 188.333 152.1 188.6 151.6C188.85 151.15 189.4 151.05 189.8 151.25C190.25 151.5 190.4 152.05 190.15 152.45C189.883 152.983 189.6 153.5 189.3 154C189.1 154.3 188.8 154.45 188.5 154.45ZM17.75 149.1C17.4 149.1 17.1 148.9 16.95 148.6C16.6833 148.067 16.4167 147.533 16.15 147C15.9 146.6 16.1 146.05 16.5 145.85C16.95 145.6 17.5 145.8 17.7 146.2C17.9667 146.733 18.2333 147.267 18.5 147.8C18.75 148.2 18.6 148.75 18.15 149C18.0167 149.067 17.8833 149.1 17.75 149.1ZM191.8 148.2C191.667 148.2 191.533 148.167 191.4 148.1C191 147.9 190.8 147.35 191 146.95C191.233 146.417 191.467 145.883 191.7 145.35C191.9 144.9 192.45 144.7 192.9 144.9C193.35 145.1 193.55 145.6 193.35 146.05C193.117 146.583 192.867 147.133 192.6 147.7C192.45 148 192.15 148.2 191.8 148.2ZM14.7 142.7C14.35 142.7 14 142.5 13.9 142.15C13.6667 141.617 13.4333 141.067 13.2 140.5C13 140.05 13.25 139.55 13.7 139.35C14.15 139.15 14.65 139.4 14.85 139.85C15.05 140.383 15.2667 140.917 15.5 141.45C15.7 141.9 15.5 142.45 15.05 142.6C14.9167 142.667 14.8 142.7 14.7 142.7ZM194.5 141.65C194.4 141.65 194.3 141.633 194.2 141.6C193.75 141.45 193.5 140.95 193.65 140.45C193.85 139.917 194.05 139.367 194.25 138.8C194.4 138.35 194.9 138.1 195.35 138.25C195.8 138.4 196.05 138.9 195.9 139.4C195.733 139.967 195.533 140.517 195.3 141.05C195.2 141.45 194.85 141.65 194.5 141.65ZM12.2 136.05C11.8 136.05 11.45 135.85 11.35 135.45C11.15 134.883 10.9667 134.317 10.8 133.75C10.65 133.3 10.9 132.8 11.4 132.65C11.85 132.5 12.35 132.8 12.5 133.25C12.6667 133.817 12.85 134.367 13.05 134.9C13.2 135.35 12.95 135.9 12.45 136.05C12.3833 136.083 12.3 136.083 12.2 136.05ZM196.6 134.9C196.533 134.9 196.45 134.883 196.35 134.85C195.9 134.75 195.6 134.25 195.75 133.8C195.883 133.233 196.017 132.667 196.15 132.1C196.3 131.6 196.75 131.35 197.25 131.45C197.7 131.55 198 132.05 197.9 132.5C197.767 133.1 197.617 133.683 197.45 134.25C197.35 134.65 197 134.9 196.6 134.9ZM10.25 129.3C9.85 129.3 9.45001 129 9.35001 128.6C9.21667 128.033 9.08335 127.45 8.95001 126.85C8.85001 126.4 9.14999 125.9 9.64999 125.8C10.15 125.7 10.6 126 10.7 126.5C10.8333 127.067 10.9667 127.633 11.1 128.2C11.2 128.65 10.9 129.15 10.45 129.25C10.3833 129.283 10.3167 129.3 10.25 129.3ZM198.1 128C198.067 128 198.017 128 197.95 128C197.5 127.9 197.15 127.45 197.25 126.95C197.35 126.383 197.45 125.817 197.55 125.25C197.6 124.75 198.05 124.4 198.55 124.5C199 124.55 199.35 125 199.3 125.5C199.2 126.1 199.1 126.683 199 127.25C198.9 127.7 198.55 128 198.1 128ZM8.85001 122.35C8.40001 122.35 8.05001 122.05 7.95001 121.6C7.85001 121 7.76668 120.417 7.70001 119.85C7.60001 119.35 7.95001 118.9 8.45001 118.85C8.90001 118.8 9.35001 119.1 9.45001 119.6C9.51668 120.167 9.60001 120.733 9.70001 121.3C9.80001 121.8 9.45001 122.25 8.95001 122.35C8.91668 122.35 8.88334 122.35 8.85001 122.35ZM199.05 121C199.017 121 198.983 121 198.95 121C198.5 120.95 198.15 120.5 198.15 120C198.217 119.433 198.267 118.85 198.3 118.25C198.35 117.8 198.8 117.4 199.25 117.45C199.75 117.5 200.1 117.9 200.1 118.4C200.033 119 199.983 119.6 199.95 120.2C199.9 120.65 199.5 121 199.05 121ZM7.95001 115.3C7.50001 115.3 7.15001 114.95 7.10001 114.5C7.03334 113.933 6.98335 113.35 6.95001 112.75C6.90001 112.25 7.29999 111.8 7.79999 111.8C8.19999 111.75 8.70001 112.15 8.70001 112.6C8.76668 113.2 8.81667 113.783 8.85001 114.35C8.90001 114.85 8.54999 115.3 8.04999 115.3C8.01665 115.3 7.98335 115.3 7.95001 115.3ZM199.45 113.9C198.95 113.9 198.55 113.5 198.55 113C198.583 112.433 198.6 111.85 198.6 111.25C198.6 110.65 198.583 110.067 198.55 109.5C198.55 109 198.95 108.6 199.45 108.6C199.95 108.6 200.3 109 200.35 109.45C200.35 110.05 200.35 110.65 200.35 111.25C200.35 111.85 200.35 112.45 200.35 113.05C200.3 113.55 199.95 113.9 199.45 113.9ZM7.64999 108.25C7.14999 108.25 6.75 107.85 6.75 107.4V106.45V105.6C6.75 105.1 7.14999 104.7 7.64999 104.7C8.14999 104.7 8.54999 105.1 8.54999 105.6L8.5 106.45L8.54999 107.35C8.54999 107.85 8.14999 108.25 7.64999 108.25ZM199.2 105.05C198.75 105.05 198.35 104.7 198.3 104.25C198.267 103.65 198.217 103.067 198.15 102.5C198.1 102 198.45 101.6 198.95 101.55C199.45 101.5 199.9 101.85 199.95 102.35C199.983 102.917 200.033 103.5 200.1 104.1C200.1 104.6 199.75 105 199.25 105.05C199.25 105.05 199.233 105.05 199.2 105.05ZM7.79999 101.15C7.79999 101.15 7.78333 101.15 7.75 101.15C7.3 101.15 6.90001 100.7 6.95001 100.25C6.98335 99.65 7.01665 99.05 7.04999 98.45C7.09999 97.95 7.55 97.6 8 97.65C8.5 97.65 8.84999 98.1 8.79999 98.6C8.76665 99.1667 8.73335 99.75 8.70001 100.35C8.70001 100.8 8.29999 101.15 7.79999 101.15ZM198.4 98C198 98 197.6 97.7 197.55 97.25C197.45 96.6833 197.35 96.1167 197.25 95.55C197.2 95.05 197.5 94.6 198 94.5C198.45 94.45 198.9 94.75 199 95.25C199.1 95.8167 199.2 96.4 199.3 97C199.35 97.5 199 97.95 198.55 98C198.483 98 198.433 98 198.4 98ZM8.5 94.1C8.43333 94.1 8.38334 94.1 8.35001 94.1C7.90001 94.05 7.55001 93.6 7.60001 93.1C7.66667 92.5 7.75001 91.9167 7.85001 91.35C7.90001 90.85 8.35001 90.55 8.85001 90.6C9.30001 90.65 9.65001 91.1 9.60001 91.6C9.50001 92.1667 9.41667 92.75 9.35001 93.35C9.30001 93.8 8.9 94.1 8.5 94.1ZM197.1 91.05C196.7 91.05 196.35 90.8 196.25 90.35C196.117 89.7833 195.983 89.2167 195.85 88.65C195.75 88.15 196.05 87.7 196.5 87.6C197 87.45 197.45 87.75 197.6 88.25C197.733 88.8167 197.867 89.4 198 90C198.1 90.45 197.8 90.95 197.3 91.05C197.233 91.05 197.167 91.05 197.1 91.05ZM9.60001 87.1C9.53334 87.1 9.48335 87.1 9.45001 87.1C8.95001 87 8.65001 86.55 8.70001 86.05C8.83335 85.45 8.96667 84.8667 9.10001 84.3C9.20001 83.8 9.64999 83.5 10.15 83.6C10.6 83.7 10.9 84.2 10.8 84.65C10.7 85.2167 10.5833 85.8 10.45 86.4C10.4 86.8 10 87.1 9.60001 87.1ZM195.35 84.2C195 84.2 194.65 83.95 194.5 83.55C194.333 82.9833 194.167 82.4167 194 81.85C193.85 81.4 194.15 80.9 194.6 80.75C195.05 80.6 195.55 80.9 195.7 81.35C195.867 81.9167 196.033 82.4833 196.2 83.05C196.35 83.55 196.1 84 195.6 84.15C195.533 84.1833 195.45 84.2 195.35 84.2ZM11.15 80.2C11.0833 80.2 11.0167 80.1833 10.95 80.15C10.5 80.05 10.2 79.55 10.3 79.1C10.4667 78.5 10.6333 77.9167 10.8 77.35C10.9 76.9 11.4 76.6 11.9 76.75C12.35 76.85 12.65 77.35 12.5 77.85C12.3333 78.4167 12.1833 78.9833 12.05 79.55C11.95 79.95 11.55 80.2 11.15 80.2ZM193.15 77.45C192.8 77.45 192.45 77.25 192.35 76.85C192.15 76.3167 191.933 75.7667 191.7 75.2C191.55 74.75 191.75 74.25 192.25 74.1C192.7 73.9 193.2 74.15 193.35 74.6C193.583 75.1667 193.8 75.7167 194 76.25C194.15 76.75 193.9 77.25 193.45 77.4C193.35 77.4333 193.25 77.45 193.15 77.45ZM13.2 73.4C13.1 73.4 13 73.3833 12.9 73.35C12.45 73.2 12.2 72.7 12.35 72.25C12.55 71.6833 12.75 71.1167 12.95 70.55C13.1 70.1 13.6 69.85 14.1 70C14.55 70.15 14.8 70.65 14.6 71.15C14.4 71.6833 14.2167 72.2333 14.05 72.8C13.9 73.15 13.55 73.4 13.2 73.4ZM190.55 70.85C190.2 70.85 189.85 70.65 189.7 70.35C189.467 69.8167 189.233 69.2833 189 68.75C188.8 68.3 189 67.75 189.45 67.55C189.9 67.35 190.4 67.55 190.6 68C190.867 68.5333 191.117 69.0833 191.35 69.65C191.55 70.1 191.35 70.6 190.9 70.8C190.767 70.8333 190.65 70.85 190.55 70.85ZM15.7 66.75C15.5667 66.75 15.45 66.7333 15.35 66.7C14.9 66.5 14.65 66 14.85 65.55C15.0833 64.9833 15.3167 64.4333 15.55 63.9C15.75 63.45 16.25 63.2 16.7 63.4C17.15 63.6 17.35 64.15 17.15 64.6C16.95 65.1333 16.7333 65.6667 16.5 66.2C16.35 66.55 16 66.75 15.7 66.75ZM187.5 64.45C187.2 64.45 186.85 64.3 186.7 64C186.433 63.4667 186.167 62.9333 185.9 62.4C185.7 62 185.85 61.45 186.25 61.25C186.7 61 187.25 61.15 187.45 61.6C187.75 62.1333 188.033 62.6667 188.3 63.2C188.5 63.6 188.35 64.15 187.9 64.35C187.767 64.4167 187.633 64.45 187.5 64.45ZM18.6 60.3C18.4667 60.3 18.3333 60.2667 18.2 60.2C17.75 60 17.55 59.45 17.8 59C18.0333 58.4667 18.3 57.9333 18.6 57.4C18.8 56.95 19.35 56.8 19.75 57C20.2 57.25 20.4 57.75 20.15 58.2C19.8833 58.7333 19.6167 59.2667 19.35 59.8C19.2 60.1 18.9 60.3 18.6 60.3ZM184.1 58.25C183.8 58.25 183.5 58.1 183.35 57.8C183.05 57.3 182.75 56.8 182.45 56.3C182.2 55.9 182.3 55.35 182.75 55.1C183.15 54.85 183.7 54.95 183.95 55.4C184.25 55.9 184.55 56.4167 184.85 56.95C185.1 57.35 184.95 57.9 184.55 58.15C184.417 58.2167 184.267 58.25 184.1 58.25ZM21.9 54C21.7333 54 21.5833 53.9667 21.45 53.9C21.05 53.65 20.9 53.1 21.15 52.7C21.45 52.1667 21.75 51.65 22.05 51.15C22.3 50.75 22.85 50.6 23.25 50.85C23.65 51.1 23.8 51.65 23.55 52.05C23.25 52.55 22.95 53.05 22.65 53.55C22.5 53.85 22.2 54 21.9 54ZM180.3 52.25C180.05 52.25 179.75 52.15 179.6 51.85C179.267 51.3833 178.933 50.9167 178.6 50.45C178.3 50 178.4 49.45 178.8 49.2C179.2 48.9 179.75 49 180.05 49.4C180.383 49.9 180.717 50.4 181.05 50.9C181.35 51.3 181.2 51.85 180.8 52.1C180.667 52.2 180.5 52.25 180.3 52.25ZM25.65 48C25.45 48 25.2833 47.95 25.15 47.85C24.75 47.55 24.6 47 24.9 46.6C25.2333 46.1 25.5667 45.6167 25.9 45.15C26.15 44.75 26.75 44.65 27.15 44.9C27.55 45.2 27.65 45.75 27.35 46.15C27.0167 46.6167 26.6833 47.1 26.35 47.6C26.2 47.85 25.9 48 25.65 48ZM176.2 46.5C175.95 46.5 175.65 46.4 175.5 46.15C175.133 45.6833 174.767 45.2333 174.4 44.8C174.1 44.4 174.2 43.85 174.55 43.55C174.95 43.25 175.5 43.3 175.8 43.7C176.167 44.1667 176.533 44.6333 176.9 45.1C177.2 45.5 177.1 46.05 176.75 46.35C176.583 46.45 176.4 46.5 176.2 46.5ZM29.75 42.25C29.55 42.25 29.3667 42.1833 29.2 42.05C28.85 41.75 28.75 41.2 29.05 40.8C29.4167 40.3333 29.7833 39.8667 30.15 39.4C30.45 39 31 38.95 31.4 39.25C31.8 39.55 31.85 40.1 31.55 40.5C31.1833 40.9667 30.8167 41.4333 30.45 41.9C30.3 42.1 30 42.25 29.75 42.25ZM171.75 41C171.5 41 171.25 40.9 171.05 40.7C170.683 40.2667 170.3 39.8333 169.9 39.4C169.6 39.05 169.6 38.45 170 38.15C170.35 37.8 170.9 37.85 171.25 38.2C171.65 38.6667 172.033 39.1167 172.4 39.55C172.75 39.95 172.7 40.5 172.3 40.8C172.15 40.95 171.95 41 171.75 41ZM34.25 36.75C34.05 36.75 33.85 36.7 33.7 36.55C33.3 36.2 33.3 35.65 33.6 35.3C34 34.8333 34.4 34.3833 34.8 33.95C35.15 33.6 35.7 33.55 36.05 33.9C36.4 34.25 36.45 34.8 36.1 35.15C35.7 35.5833 35.3167 36.0167 34.95 36.45C34.75 36.65 34.5 36.75 34.25 36.75ZM166.95 35.8C166.75 35.8 166.5 35.7 166.35 35.55C165.917 35.1167 165.5 34.7 165.1 34.3C164.75 33.95 164.75 33.4 165.1 33.05C165.45 32.7 166 32.7 166.35 33.05C166.75 33.45 167.167 33.8667 167.6 34.3C167.95 34.65 167.95 35.2 167.6 35.55C167.4 35.75 167.2 35.8 166.95 35.8ZM39.15 31.65C38.9 31.65 38.7 31.55 38.5 31.35C38.15 31 38.2 30.45 38.55 30.1C38.95 29.7 39.3667 29.2833 39.8 28.85C40.15 28.55 40.75 28.55 41.05 28.9C41.4 29.25 41.4 29.8 41.05 30.15C40.6167 30.55 40.1833 30.95 39.75 31.35C39.6 31.55 39.35 31.65 39.15 31.65ZM161.85 30.9C161.65 30.9 161.45 30.85 161.25 30.7C160.817 30.3 160.383 29.9 159.95 29.5C159.6 29.2 159.55 28.65 159.9 28.25C160.2 27.9 160.75 27.85 161.15 28.2C161.583 28.5667 162.017 28.95 162.45 29.35C162.85 29.7 162.85 30.25 162.5 30.6C162.35 30.8 162.1 30.9 161.85 30.9ZM44.4 26.85C44.15 26.85 43.9 26.75 43.7 26.55C43.4 26.15 43.45 25.6 43.8 25.3C44.2667 24.9 44.7333 24.5167 45.2 24.15C45.55 23.85 46.15 23.9 46.45 24.3C46.75 24.65 46.7 25.2 46.3 25.5C45.8667 25.9 45.4167 26.2833 44.95 26.65C44.8 26.8 44.6 26.85 44.4 26.85ZM156.5 26.35C156.3 26.35 156.117 26.2833 155.95 26.15C155.483 25.7833 155.017 25.4167 154.55 25.05C154.15 24.75 154.1 24.2 154.4 23.85C154.7 23.45 155.25 23.35 155.65 23.65C156.117 24.0167 156.583 24.3833 157.05 24.75C157.4 25.05 157.45 25.6 157.15 26C157 26.2 156.75 26.35 156.5 26.35ZM49.95 22.5C49.7 22.5 49.4 22.35 49.25 22.1C48.95 21.7 49.05 21.15 49.45 20.9C49.9167 20.5333 50.4 20.1833 50.9 19.85C51.3 19.55 51.85 19.65 52.15 20.05C52.4 20.45 52.3 21 51.9 21.3C51.4333 21.6333 50.9667 21.9667 50.5 22.3C50.3333 22.4333 50.15 22.5 49.95 22.5ZM150.8 22.15C150.633 22.15 150.467 22.1 150.3 22C149.833 21.6667 149.35 21.3333 148.85 21C148.45 20.75 148.35 20.2 148.6 19.75C148.9 19.35 149.45 19.25 149.85 19.5C150.317 19.8333 150.8 20.1667 151.3 20.5C151.7 20.8 151.8 21.35 151.55 21.75C151.35 22 151.1 22.15 150.8 22.15ZM55.85 18.55C55.55 18.55 55.25 18.4 55.1 18.15C54.85 17.7 54.95 17.15 55.4 16.9C55.9 16.6 56.4 16.3 56.9 16C57.35 15.75 57.85 15.9 58.1 16.3C58.35 16.75 58.25 17.3 57.8 17.5C57.3 17.8 56.8 18.1 56.3 18.4C56.1667 18.5 56.0167 18.55 55.85 18.55ZM144.85 18.3C144.683 18.3 144.533 18.2667 144.4 18.2C143.9 17.9 143.4 17.6 142.9 17.3C142.45 17.1 142.3 16.55 142.55 16.1C142.8 15.7 143.35 15.55 143.75 15.8C144.283 16.0667 144.8 16.3667 145.3 16.7C145.75 16.9 145.85 17.45 145.6 17.9C145.45 18.15 145.15 18.3 144.85 18.3ZM62 15.1C61.7 15.1 61.4 14.9 61.2 14.6C61 14.2 61.15 13.65 61.6 13.4C62.1333 13.1333 62.6667 12.8833 63.2 12.65C63.65 12.4 64.2 12.6 64.4 13.05C64.6 13.5 64.4 14 63.95 14.2C63.45 14.4667 62.9333 14.7333 62.4 15C62.2667 15.0667 62.1333 15.1 62 15.1ZM138.65 14.95C138.517 14.95 138.383 14.9167 138.25 14.85C137.75 14.5833 137.233 14.3333 136.7 14.1C136.25 13.9 136.05 13.35 136.25 12.9C136.5 12.45 137 12.3 137.45 12.5C137.983 12.7333 138.517 12.9833 139.05 13.25C139.5 13.5 139.65 14 139.45 14.45C139.3 14.75 139 14.95 138.65 14.95ZM68.45 12.15C68.1 12.15 67.75 11.95 67.6 11.6C67.4 11.15 67.65 10.65 68.1 10.45C68.6333 10.2167 69.1833 10 69.75 9.8C70.2 9.6 70.7 9.85 70.9 10.3C71.05 10.75 70.85 11.25 70.4 11.45C69.8333 11.65 69.2833 11.8667 68.75 12.1C68.65 12.1333 68.55 12.15 68.45 12.15ZM132.2 12.05C132.1 12.05 132 12.0167 131.9 11.95C131.333 11.75 130.783 11.55 130.25 11.35C129.8 11.15 129.55 10.65 129.75 10.2C129.9 9.75 130.45 9.5 130.9 9.65C131.433 9.88333 131.983 10.1167 132.55 10.35C133 10.5 133.2 11.05 133.05 11.5C132.9 11.85 132.55 12.05 132.2 12.05ZM75.05 9.7C74.7 9.7 74.35 9.5 74.2 9.1C74.1 8.65 74.35 8.15 74.8 8C75.3667 7.83333 75.9333 7.65 76.5 7.45C77 7.35 77.45 7.6 77.6 8.05C77.75 8.55 77.5 9.05 77 9.15C76.4333 9.31667 75.8833 9.5 75.35 9.7C75.25 9.7 75.15 9.7 75.05 9.7ZM125.55 9.65C125.483 9.65 125.4 9.63333 125.3 9.6C124.733 9.43333 124.183 9.26666 123.65 9.1C123.15 8.95 122.9 8.45 123.05 8C123.15 7.5 123.65 7.25 124.15 7.4C124.717 7.56667 125.283 7.73333 125.85 7.9C126.3 8.05 126.55 8.55 126.4 9C126.3 9.4 125.95 9.65 125.55 9.65ZM81.9 7.85C81.5 7.85 81.1 7.6 81.05 7.2C80.9 6.7 81.2 6.25 81.7 6.1C82.2667 5.96667 82.85 5.85 83.45 5.75C83.9 5.65 84.4 5.95 84.5 6.4C84.6 6.9 84.3 7.35 83.8 7.45C83.2333 7.58333 82.6667 7.71667 82.1 7.85C82.0333 7.85 81.9667 7.85 81.9 7.85ZM118.75 7.8C118.683 7.8 118.617 7.78333 118.55 7.75C117.983 7.61667 117.417 7.5 116.85 7.4C116.35 7.3 116.05 6.8 116.15 6.35C116.25 5.85 116.7 5.55 117.2 5.65C117.767 5.78333 118.35 5.91667 118.95 6.05C119.4 6.15 119.7 6.6 119.6 7.1C119.5 7.5 119.15 7.8 118.75 7.8ZM88.85 6.6C88.4 6.6 88.05 6.25 87.95 5.8C87.9 5.35 88.25 4.9 88.7 4.8C89.3 4.73333 89.9 4.66667 90.5 4.6C90.95 4.5 91.4 4.85 91.5 5.35C91.55 5.85 91.2 6.3 90.7 6.35C90.1333 6.41667 89.55 6.48333 88.95 6.55C88.9167 6.58333 88.8833 6.6 88.85 6.6ZM111.8 6.5C111.767 6.5 111.717 6.5 111.65 6.5C111.083 6.4 110.5 6.31667 109.9 6.25C109.45 6.2 109.1 5.75 109.15 5.3C109.2 4.8 109.65 4.45 110.15 4.5C110.717 4.56667 111.3 4.65 111.9 4.75C112.4 4.8 112.75 5.25 112.65 5.75C112.6 6.2 112.2 6.5 111.8 6.5ZM95.9 5.9C95.4 5.9 95.05 5.5 95 5.05C94.95 4.55 95.35 4.15 95.85 4.1C96.4167 4.06667 97 4.05 97.6 4.05C98.1 4 98.5 4.4 98.55 4.9C98.55 5.35 98.2 5.8 97.7 5.8C97.1 5.83333 96.5167 5.86667 95.95 5.9C95.9167 5.9 95.9 5.9 95.9 5.9ZM104.75 5.85C104.717 5.85 104.7 5.85 104.7 5.85C104.1 5.81667 103.517 5.78333 102.95 5.75C102.45 5.75 102.05 5.35 102.1 4.85C102.1 4.35 102.55 4 103 4C103.6 4 104.183 4.01667 104.75 4.05C105.25 4.1 105.65 4.5 105.6 5C105.6 5.45 105.2 5.85 104.75 5.85Z" fill="#455A29"/>
<path d="M44.3 70.55C57.35 36.4 92.95 25.95 127.1 38.95C161.25 52 179.75 86.6 166.75 120.75C153.7 154.9 115.9 176.35 81.75 163.35C47.6 150.3 31.3 104.7 44.3 70.55Z" fill="#AE4022"/>
<path fill-rule="evenodd" clip-rule="evenodd" d="M102.6 170.8C95.1 170.8 87.65 169.45 80.55 166.75C63.65 160.3 49.65 145.5 42.15 126.15C34.8 107.25 34.4 86.4 41.05 68.9C47.65 51.7 59.85 39.45 76.4 33.6C92 28.05 110.45 28.75 128.4 35.6C165.55 49.8 183.5 86.85 170.15 121.9C163.5 139.4 150.2 154.35 133.75 162.95C123.7 168.2 113.1 170.8 102.6 170.8ZM41.8 69.2C27.8 105.95 46.75 153 80.8 166C97.7 172.45 116.35 171.1 133.35 162.25C149.65 153.75 162.8 138.95 169.45 121.6C175.9 104.6 175.1 86.55 167.2 70.7C159.45 55.2 145.6 43 128.1 36.35C90.2 21.9 54.7 35.4 41.8 69.2Z" fill="#AE4022"/>
<path d="M177.15 126.25C177.017 126.25 176.9 126.233 176.8 126.2C175.9 126 175.35 125.15 175.5 124.25C184.55 80.85 167.15 45.1 130.15 31C89.1 15.35 50.65 29.95 36.75 66.45C31.1 81.25 29.55 102.6 33 118.45C33.2 119.35 32.65 120.25 31.75 120.45C30.85 120.65 29.95 120.05 29.75 119.15C26.15 102.5 27.7 80.85 33.65 65.3C48.25 26.95 88.45 11.55 131.3 27.9C169.95 42.65 188.15 79.8 178.75 124.9C178.6 125.7 177.9 126.25 177.15 126.25Z" fill="#D25A31"/>
<path d="M1.25001 136.55C0.150008 135.3 0.699996 133.35 2.3 132.9C14.3 129.3 57.2 117.6 104.1 118.4C151.25 119.2 193.6 134 205.1 138.35C206.55 138.9 206.9 140.75 205.75 141.75L197.2 149.45L200.8 159.35C201.4 160.9 199.95 162.45 198.35 162C185.25 158.05 141.15 145.8 100.8 145.15C66.55 144.6 21 153.95 7.9 156.85C6.25 157.2 4.80001 155.65 5.25001 154.05L7.9 144.25L1.25001 136.55Z" fill="#70200E"/>
<path d="M59.3 167.6C52.25 164.15 45.85 159.5 40.4 153.8C39.7 153.05 38.5 154.2 39.25 154.95C44.8 160.75 51.3 165.55 58.5 169.05C59.45 169.5 60.25 168.1 59.3 167.6Z" fill="#70200E"/>
<path d="M163.85 159.55C156.4 166.45 147.65 171.8 138.1 175.25C137.1 175.6 137.55 177.2 138.55 176.85C148.35 173.3 157.4 167.85 165 160.7C165.8 160 164.6 158.85 163.85 159.55Z" fill="#70200E"/>
<path d="M139.45 80.4C138.05 77.6 134.15 76.7 131.25 77.85C128.3 78.95 126.25 81.6 124.75 84.4C126.1 80.9 127.5 77.15 126.9 73.45C126.35 69.75 123.05 66.15 119.3 66.65C117.05 67 115.15 68.75 114.1 70.8C113.05 72.85 112.65 75.15 112.3 77.4C113.1 72.95 113.05 68.2 111.25 64C109.4 59.85 105.6 56.4 101.1 55.85C95.95 55.25 90.95 58.55 88.2 62.9C85.45 67.25 84.55 72.55 84.2 77.7C83.15 74.35 78.55 72.95 75.5 74.7C72.45 76.4 71.15 80.45 72 83.85C72.55 85.9 73.7 87.65 75.2 89.15C73.95 91 73.3 93.25 73.55 95.45C74.1 100.2 78.7 104.1 83.5 103.85C86.3 103.7 88.95 102.3 91.05 100.4C92.05 99.5 93 98.45 93.8 97.35C92.7 100.25 92.95 103.7 94.85 106.2C97.55 109.9 103.3 110.9 107.15 108.4C110.9 105.95 112.35 101 112.15 96.5C113.2 100.5 116.7 103.75 120.75 104.6C124.8 105.4 129.3 103.75 131.85 100.45C133.05 98.9 133.85 96.95 133.7 95C133.6 93 132.4 91.05 130.55 90.35C133.15 90.2 135.85 89.4 137.75 87.6C139.7 85.8 140.6 82.8 139.45 80.4Z" fill="#FFE0D4"/>
<path d="M136.5 101.4C138.45 99.75 141.05 98.65 143.6 99C147.05 99.5 149.9 102.6 153.4 102.35C151.65 105.8 149.35 109.15 145.85 110.85C143.55 111.95 140.8 112.25 138.3 111.65C137.05 111.3 135.8 110.75 134.75 110C133.95 109.45 132.45 108.5 132.15 107.55C131.8 106.6 133.15 105.3 133.65 104.6C134.5 103.45 135.4 102.35 136.5 101.4Z" fill="#9CB3E6"/>
<path d="M127.1 114.35C126.95 114.25 126.85 114 126.95 113.8C127.9 110.95 129.8 108.4 132.3 106.75C134.85 105.05 137.9 104.2 140.9 104.4C141.6 104.45 142.3 104.55 142.95 104.6C143.8 104.75 144.6 104.85 145.4 104.85C146.55 104.9 148.15 104.7 149.2 103.65C149.4 103.45 149.75 103.45 149.95 103.65C150.15 103.85 150.15 104.2 149.95 104.4C148.6 105.7 146.7 105.9 145.35 105.9C144.5 105.85 143.65 105.75 142.8 105.65C142.15 105.55 141.5 105.45 140.85 105.4C138.05 105.25 135.2 106 132.9 107.6C130.6 109.15 128.8 111.45 127.9 114.15C127.85 114.4 127.55 114.55 127.25 114.45C127.217 114.417 127.167 114.383 127.1 114.35Z" fill="#1C2D0B"/>
<path d="M64.55 72.95C66.2 70.95 67.25 68.3 66.8 65.75C66.2 62.35 63.1 59.55 63.25 56.05C59.85 57.85 56.55 60.3 54.95 63.75C53.85 66.1 53.65 68.85 54.3 71.35C54.65 72.6 55.25 73.8 56 74.9C56.55 75.65 57.6 77.15 58.55 77.45C59.5 77.75 60.75 76.4 61.45 75.85C62.6 75 63.65 74.05 64.55 72.95Z" fill="#FFC626"/>
<path d="M51.8 82.6C51.95 82.75 52.15 82.85 52.4 82.75C55.25 81.75 57.7 79.75 59.35 77.25C61 74.7 61.75 71.6 61.5 68.6C61.45 67.9 61.35 67.25 61.2 66.55C61.1 65.7 60.95 64.95 60.9 64.15C60.85 63 61 61.35 62.05 60.3C62.25 60.05 62.2 59.75 62 59.55C61.8 59.35 61.5 59.35 61.3 59.6C60.05 60.95 59.85 62.8 59.9 64.2C59.95 65.05 60.05 65.9 60.2 66.7C60.3 67.35 60.4 68 60.45 68.7C60.7 71.5 60 74.3 58.45 76.65C56.95 79 54.65 80.85 52.05 81.8C51.75 81.9 51.65 82.2 51.7 82.45C51.7334 82.5166 51.7667 82.5666 51.8 82.6Z" fill="#1C2D0B"/>
<path d="M152.75 78.45C151.15 78.85 149.6 79.8 148.8 81.25C147.8 83.25 148.3 85.9 146.9 87.65C149.35 88.05 151.95 88.05 154.15 86.9C155.6 86.1 156.8 84.8 157.4 83.25C157.7 82.45 157.9 81.6 157.9 80.75C157.9 80.15 157.95 79 157.6 78.45C157.2 77.95 156.05 78.15 155.45 78.15C154.55 78.15 153.65 78.2 152.75 78.45Z" fill="#FFC626"/>
<path d="M163.05 78.4C163.05 78.25 162.95 78.15 162.8 78.1C160.95 77.5 158.95 77.6 157.1 78.25C155.25 78.95 153.7 80.2 152.65 81.85C152.4 82.25 152.2 82.65 152 83.05C151.75 83.5 151.5 83.95 151.2 84.4C150.8 85 150.1 85.75 149.15 85.95C148.95 85.95 148.85 86.15 148.85 86.3C148.9 86.5 149.1 86.6 149.25 86.6C150.45 86.4 151.25 85.5 151.75 84.75C152.05 84.3 152.35 83.8 152.6 83.35C152.8 82.95 153 82.6 153.2 82.2C154.15 80.7 155.65 79.5 157.35 78.85C159 78.25 160.9 78.2 162.6 78.75C162.8 78.8 163 78.7 163.05 78.5C163.05 78.4666 163.05 78.4333 163.05 78.4Z" fill="#1C2D0B"/>
<path d="M78.7 49.9C80.1 50.85 81.25 52.25 81.45 53.9C81.7 56.15 80.3 58.45 81 60.55C78.6 60.05 76.1 59.2 74.45 57.3C73.35 56.05 72.7 54.4 72.7 52.75C72.65 51.9 72.8 51.05 73.1 50.25C73.3 49.7 73.65 48.6 74.2 48.2C74.7 47.85 75.75 48.45 76.25 48.65C77.15 49 77.95 49.4 78.7 49.9Z" fill="#9CB3E6"/>
<path d="M69.1 46.25C69.15 46.15 69.25 46.05 69.4 46.05C71.35 46.15 73.25 46.95 74.7 48.2C76.2 49.5 77.2 51.25 77.6 53.15C77.7 53.55 77.75 54 77.85 54.45C77.9 55 77.95 55.5 78.1 56C78.25 56.7 78.65 57.7 79.5 58.15C79.65 58.25 79.7 58.45 79.6 58.65C79.5 58.8 79.3 58.85 79.15 58.75C78.15 58.15 77.65 57 77.45 56.15C77.3 55.6 77.25 55.05 77.15 54.55C77.1 54.1 77.05 53.7 76.95 53.25C76.6 51.5 75.65 49.9 74.3 48.7C72.9 47.55 71.15 46.85 69.35 46.75C69.2 46.7 69.05 46.55 69.05 46.4C69.05 46.3333 69.0667 46.2833 69.1 46.25Z" fill="#1C2D0B"/>
<path d="M62.85 111.5C64.85 112.2 67.15 112.2 68.95 111.15C71.35 109.7 72.6 106.55 75.25 105.65C72.9 103.6 70.15 101.8 67 101.6C64.9 101.45 62.8 102.05 61.1 103.3C60.25 103.95 59.5 104.75 58.9 105.6C58.5 106.25 57.65 107.45 57.7 108.25C57.75 109.1 59.15 109.65 59.75 110C60.75 110.65 61.75 111.15 62.85 111.5Z" fill="#92A564"/>
<path d="M51.85 104.7C51.75 104.8 51.8 105 51.9 105.15C53.5 107 55.7 108.3 58.1 108.8C60.5 109.3 63.05 109 65.25 107.95C65.75 107.7 66.25 107.4 66.75 107.15C67.3 106.8 67.9 106.5 68.5 106.2C69.35 105.85 70.6 105.5 71.7 105.95C71.95 106.05 72.15 105.95 72.25 105.75C72.35 105.5 72.25 105.25 72.05 105.2C70.65 104.6 69.15 105 68.15 105.45C67.5 105.75 66.9 106.1 66.3 106.4C65.85 106.7 65.4 106.95 64.9 107.2C62.85 108.2 60.5 108.45 58.25 108C56.05 107.55 54 106.35 52.55 104.6C52.4 104.45 52.1 104.4 51.95 104.55C51.9167 104.583 51.8833 104.633 51.85 104.7Z" fill="#1C2D0B"/>
<path d="M72.2 172.5L71.1 178.1L68.4 171.65L66.1 171.1L63.9 180.05L66.35 180.65L67.6 175.1L70.35 181.5L72.8 182L74.5 172.95L72.2 172.5ZM82.35 174.25L76.5 173.3L74.9 182.4L81.05 183.35L81.3 181.6L77.65 181.05L77.95 179.05L81.15 179.5L81.4 177.8L78.25 177.3L78.55 175.5L82.1 176L82.35 174.25ZM83.4 176.25L86 176.55L85.1 183.9L87.55 184.2L88.3 176.8L90.9 177.05L91.05 175.25L83.65 174.45L83.4 176.25ZM102.35 175.85L95.6 175.6L95.5 177.45L99.65 177.65L95.15 183.1L95.05 184.8L102.2 185.05L102.25 183.25L97.95 183.1L102.35 177.55V175.85ZM110.1 175.8L104.2 175.9L104.15 185.1L110.35 185L110.3 183.25L106.6 183.3V181.3L109.85 181.2L109.8 179.5L106.6 179.55L106.55 177.7L110.15 177.6L110.1 175.8ZM117.25 178.45C117.3 179.15 116.9 179.6 116 179.7L114.5 179.75L114.4 177.5L115.85 177.4C116.75 177.35 117.2 177.75 117.25 178.45ZM111.95 175.75L112.35 184.95L114.8 184.85L114.6 181.35H115.2L117.5 184.65L120.25 184.45L117.65 181C119.15 180.45 119.75 179.3 119.65 178.15C119.5 176.55 118.2 175.35 115.85 175.55L111.95 175.75ZM131.3 178.45C130.9 175.7 128.45 174.1 125.7 174.45C123 174.8 121 176.95 121.25 179.7C121.5 182.45 124.05 184.15 126.9 183.8C129.75 183.45 131.75 181.15 131.3 178.45ZM123.7 179.45C123.5 177.8 124.4 176.65 125.95 176.5C127.5 176.3 128.65 177.15 128.9 178.8C129.1 180.4 128.2 181.6 126.65 181.8C125 182 123.9 181.05 123.7 179.45Z" fill="#70200E"/>
<path d="M37.9 139.9C38.2 139.8 38.65 139.75 39.35 139.6C39.7 139.55 40.1 139.45 40.55 139.35C41 139.25 41.5 139.2 42.05 139.05C42.35 139 42.65 138.95 43.05 138.85C43.4 138.8 43.85 138.7 44.3 138.65C44.3 139.05 44.3 139.5 44.35 139.95C44.4 140.35 44.5 140.9 44.6 141.55C44.6 141.55 43.9 141.65 42.9 141.8C42.4 141.9 41.8 142 41.2 142.1C40.55 142.2 39.9 142.3 39.2 142.4C38.55 142.55 37.9 142.65 37.25 142.75C36.6 142.85 36.05 143 35.55 143.05C34.5 143.25 33.85 143.4 33.85 143.4C33.85 143.4 33.7 142.6 33.55 141.85C33.45 141.1 33.3 140.35 33.3 140.35C33.75 139.95 34.25 139.5 34.8 139C35.05 138.75 35.35 138.45 35.7 138.1C36.05 137.75 36.45 137.35 36.9 136.95C37.3 136.55 37.65 136.2 37.9 135.9C38.2 135.65 38.45 135.4 38.65 135.25C38.25 135.3 37.7 135.4 36.95 135.55C36.55 135.65 36.15 135.75 35.7 135.85C35.2 135.95 34.7 136.05 34.15 136.2C33.35 136.35 32.85 136.45 32.6 136.55C32.45 135.85 32.35 135.3 32.25 134.85C32.15 134.4 32.05 133.95 31.9 133.5C31.9 133.5 32.6 133.4 33.65 133.2C34.15 133.1 34.75 133 35.4 132.9C36.05 132.75 36.75 132.65 37.45 132.5C38.15 132.4 38.85 132.3 39.5 132.2C40.15 132.05 40.8 131.95 41.3 131.9C42.35 131.7 43.05 131.6 43.05 131.6C43.05 131.6 43.15 132.35 43.3 133.15C43.4 133.9 43.55 134.65 43.55 134.65C43.3 134.85 43 135.15 42.55 135.55C42.35 135.75 42.1 135.95 41.85 136.2C41.6 136.45 41.35 136.7 41.05 137C40.7 137.3 40.4 137.6 40.1 137.9C39.8 138.15 39.5 138.45 39.25 138.65C38.75 139.15 38.3 139.55 37.9 139.9ZM48.95 136.85L49.15 138.3C49.6 138.25 50.05 138.15 50.45 138.1C50.9 138.05 51.3 138 51.65 137.95C52.05 137.9 52.45 137.8 52.8 137.75C53.15 137.7 53.5 137.65 53.8 137.6C54.45 137.5 55.05 137.45 55.55 137.35C56.1 137.25 56.55 137.2 56.95 137.15C56.95 137.5 56.95 137.9 56.95 138.3C57 138.7 57.05 139.2 57.15 139.8C57.15 139.8 56.45 139.9 55.45 140C54.9 140.1 54.3 140.15 53.65 140.25C53.05 140.35 52.35 140.4 51.65 140.5C51 140.6 50.3 140.7 49.65 140.8C49 140.9 48.45 140.95 47.9 141.05C46.9 141.2 46.2 141.3 46.2 141.3C46.15 140.85 46.1 140.4 46.05 140C46 139.55 45.95 139.15 45.9 138.7C45.85 138.3 45.8 137.9 45.75 137.5C45.7 137.1 45.65 136.7 45.55 136.3C45.5 135.9 45.45 135.55 45.4 135.15C45.3 134.75 45.25 134.3 45.2 133.9C45.1 133.5 45.05 133.1 44.95 132.65C44.9 132.25 44.8 131.8 44.7 131.35C44.7 131.35 45.4 131.25 46.45 131.1C47 131 47.6 130.95 48.25 130.85C48.9 130.75 49.6 130.65 50.3 130.55C51 130.45 51.7 130.35 52.4 130.3C53.05 130.2 53.65 130.1 54.2 130.05C55.25 129.9 55.95 129.85 55.95 129.85C55.95 129.85 56 130.45 56.1 131.05C56.15 131.7 56.25 132.3 56.25 132.3C56.25 132.3 55.75 132.4 55 132.45C54.65 132.5 54.25 132.55 53.75 132.6C53.3 132.7 52.85 132.75 52.35 132.8C51.85 132.85 51.4 132.95 50.9 133C50.45 133.05 50.05 133.1 49.7 133.15C48.95 133.25 48.45 133.35 48.45 133.35L48.65 134.65C49.1 134.6 49.8 134.5 50.7 134.4C51.05 134.35 51.45 134.3 51.85 134.2C52.2 134.15 52.6 134.1 53 134.05C53.4 134 53.8 133.95 54.2 133.9C54.6 133.8 55 133.75 55.4 133.7C55.4 133.7 55.45 134.3 55.55 134.85C55.6 135.45 55.65 136.05 55.65 136.05C55.25 136.1 54.85 136.15 54.45 136.15C54.05 136.2 53.7 136.25 53.3 136.3C52.9 136.35 52.5 136.4 52.1 136.45C51.75 136.5 51.35 136.55 51 136.6C50.1 136.7 49.4 136.8 48.95 136.85ZM69.5 131.8C69.55 132.2 69.55 132.6 69.45 132.95C69.4 133.25 69.25 133.6 69.1 133.9C68.9 134.2 68.65 134.45 68.3 134.65C68 134.9 67.6 135.1 67.1 135.25C67.25 135.4 67.35 135.5 67.4 135.6C67.4 135.6 68.05 136.3 68.7 137.05C69.3 137.75 69.95 138.5 69.95 138.5C69.95 138.5 69 138.6 68.05 138.65C67.1 138.75 66.1 138.85 66.1 138.85C65.85 138.5 65.55 138.05 65.2 137.55C65 137.3 64.8 137.05 64.55 136.75C64.35 136.45 64.1 136.15 63.85 135.85C63.85 135.85 63.3 135.9 62.8 135.95C62.25 136 61.75 136.05 61.75 136.05C61.75 136.05 61.85 136.85 61.9 137.65C62 138.45 62.1 139.25 62.1 139.25C62.1 139.25 61.25 139.35 60.4 139.45C59.6 139.5 58.75 139.6 58.75 139.6C58.7 139.15 58.7 138.75 58.65 138.3C58.6 137.85 58.6 137.45 58.55 137.05C58.5 136.6 58.45 136.2 58.4 135.8C58.4 135.4 58.35 135 58.3 134.6C58.25 134.25 58.2 133.85 58.15 133.45C58.1 133.05 58.05 132.6 58 132.2C57.95 131.8 57.85 131.35 57.8 130.95C57.75 130.5 57.65 130.1 57.6 129.65C57.6 129.65 58.45 129.55 59.3 129.45C60.15 129.35 61 129.25 61 129.25C61 129.25 61.75 129.2 62.5 129.1C63.25 129.05 64 128.95 64 128.95C64.5 128.9 64.95 128.9 65.35 128.9C65.75 128.9 66.15 128.9 66.5 128.95C67.2 129.05 67.75 129.2 68.15 129.5C68.55 129.75 68.9 130.05 69.1 130.45C69.35 130.85 69.5 131.3 69.5 131.8ZM63.25 131.7L61.3 131.9L61.45 133.5L63.4 133.3C64.2 133.2 64.8 133.1 65.25 133.05C65.65 132.95 65.95 132.8 66.1 132.7C66.25 132.55 66.3 132.4 66.3 132.2C66.25 132 66.15 131.85 66 131.75C65.85 131.65 65.55 131.6 65.1 131.6C64.7 131.6 64.05 131.65 63.25 131.7ZM77.85 138.05C77.3 138.1 76.8 138.1 76.35 138.05C75.85 138.05 75.45 138 75.05 137.9C74.65 137.8 74.25 137.7 73.9 137.55C73.6 137.4 73.25 137.2 73 137C72.7 136.8 72.5 136.55 72.25 136.3C72.05 136.05 71.85 135.75 71.7 135.45C71.55 135.15 71.45 134.8 71.35 134.45C71.25 134.05 71.2 133.7 71.15 133.25C71.1 132.85 71.1 132.45 71.15 132.1C71.2 131.75 71.25 131.4 71.35 131.05C71.45 130.7 71.6 130.4 71.8 130.1C71.95 129.85 72.15 129.55 72.4 129.3C72.65 129.05 72.9 128.85 73.25 128.65C73.55 128.45 73.95 128.25 74.35 128.15C74.75 128 75.15 127.85 75.65 127.8C76.15 127.7 76.65 127.65 77.2 127.6C77.75 127.55 78.3 127.55 78.8 127.6C79.25 127.6 79.7 127.65 80.15 127.75C80.55 127.85 80.95 128 81.25 128.15C81.6 128.3 81.9 128.5 82.2 128.7C82.45 128.9 82.7 129.15 82.9 129.4C83.1 129.7 83.3 130 83.45 130.3C83.6 130.6 83.7 130.95 83.8 131.3C83.85 131.65 83.9 132.05 83.95 132.45C83.95 132.9 83.95 133.3 83.9 133.65C83.85 134.05 83.75 134.4 83.65 134.7C83.55 135.05 83.4 135.35 83.2 135.6C83.05 135.9 82.85 136.15 82.6 136.4C82.35 136.65 82.05 136.85 81.75 137.05C81.45 137.25 81.1 137.4 80.7 137.55C80.3 137.7 79.85 137.8 79.4 137.85C78.9 137.95 78.4 138 77.85 138.05ZM77.7 135.25C78.2 135.2 78.65 135.1 79.05 135C79.4 134.9 79.7 134.7 79.95 134.5C80.15 134.3 80.3 134.05 80.4 133.75C80.5 133.4 80.55 133.05 80.55 132.65C80.5 131.85 80.2 131.25 79.7 130.85C79.5 130.7 79.15 130.55 78.75 130.45C78.4 130.4 77.9 130.4 77.4 130.4C76.85 130.45 76.4 130.5 76 130.65C75.65 130.75 75.35 130.95 75.15 131.15C74.7 131.6 74.5 132.2 74.55 133C74.6 133.4 74.65 133.8 74.8 134.05C74.95 134.35 75.15 134.6 75.4 134.8C75.65 134.95 75.95 135.1 76.35 135.15C76.7 135.25 77.15 135.25 77.7 135.25ZM95.05 137.4C94.55 137.4 94.05 137.35 93.55 137.3C93.1 137.25 92.65 137.2 92.3 137.1C91.9 137 91.5 136.85 91.2 136.7C90.85 136.55 90.55 136.35 90.3 136.15C89.8 135.7 89.4 135.2 89.1 134.55C89 134.25 88.9 133.95 88.8 133.55C88.75 133.2 88.7 132.8 88.65 132.4C88.65 132 88.65 131.6 88.75 131.25C88.8 130.85 88.85 130.5 89 130.2C89.1 129.85 89.25 129.55 89.45 129.25C89.6 128.95 89.85 128.7 90.1 128.45C90.35 128.2 90.65 128 90.95 127.8C91.3 127.6 91.65 127.45 92.05 127.3C92.45 127.2 92.9 127.1 93.35 127C93.85 126.95 94.35 126.9 94.9 126.9C95.3 126.9 95.65 126.9 96 126.95C96.35 126.95 96.7 127 97 127.05C97.65 127.2 98.25 127.35 98.75 127.6C99.25 127.85 99.7 128.15 100.1 128.55C100.5 128.9 100.8 129.35 101.05 129.85C100.6 130 100.15 130.2 99.65 130.4C99.15 130.6 98.6 130.85 98 131.15C97.75 130.65 97.3 130.25 96.7 130C96.1 129.75 95.45 129.65 94.85 129.65C94.4 129.65 94 129.75 93.65 129.85C93.3 130 93 130.15 92.8 130.4C92.35 130.9 92.15 131.45 92.15 132.15C92.15 132.9 92.4 133.5 92.9 133.95C93.15 134.15 93.45 134.35 93.85 134.45C94.2 134.55 94.65 134.6 95.15 134.6C95.9 134.6 96.55 134.45 97 134.2C97.5 133.95 97.8 133.5 98.05 132.95C98.4 133.15 98.85 133.4 99.35 133.6C99.85 133.85 100.45 134.05 101.05 134.35C100.8 134.9 100.5 135.35 100.1 135.75C99.7 136.15 99.2 136.45 98.65 136.65C98.1 136.9 97.55 137.05 96.95 137.2C96.35 137.3 95.7 137.35 95.05 137.4ZM115.15 137.5C115.15 137.5 114.2 137.45 113.3 137.4C112.4 137.4 111.45 137.35 111.45 137.35C111.4 137.1 111.3 136.8 111.2 136.45C111.05 136.1 110.95 135.75 110.8 135.35C110.8 135.35 110.5 135.35 110.1 135.35C109.65 135.3 109.1 135.3 108.55 135.3C107.95 135.3 107.4 135.25 106.95 135.25C106.55 135.25 106.25 135.25 106.25 135.25C106.25 135.25 106.1 135.75 105.9 136.25C105.7 136.75 105.5 137.2 105.5 137.2C105.5 137.2 104.65 137.2 103.75 137.2C102.85 137.2 101.95 137.2 101.95 137.2C101.95 137.2 102.2 136.55 102.6 135.65C102.8 135.15 103 134.6 103.25 134C103.5 133.45 103.75 132.8 104 132.2C104.25 131.55 104.5 130.95 104.75 130.35C105 129.75 105.25 129.2 105.4 128.75C105.8 127.8 106.1 127.2 106.1 127.2C106.1 127.2 106.4 127.2 106.9 127.2C107.4 127.2 108.1 127.2 108.75 127.25C109.4 127.25 110.1 127.25 110.6 127.25C111.1 127.3 111.45 127.3 111.45 127.3C111.45 127.3 111.65 127.95 112 128.9C112.2 129.35 112.4 129.9 112.65 130.5C112.85 131.1 113.1 131.75 113.3 132.4C113.55 133 113.75 133.65 114 134.25C114.2 134.85 114.4 135.4 114.55 135.9C114.9 136.85 115.15 137.5 115.15 137.5ZM107.1 133.1C107.1 133.1 107.85 133.1 108.6 133.15C109.3 133.15 110.05 133.15 110.05 133.15C109.9 132.7 109.7 132.2 109.55 131.7C109.35 131.2 109.15 130.7 109 130.25L108.65 129.35C108.5 129.75 108.25 130.25 108 130.9C107.9 131.2 107.75 131.55 107.6 131.9C107.45 132.3 107.3 132.7 107.1 133.1ZM128.1 131.5C128.05 131.9 128 132.25 127.85 132.6C127.7 132.9 127.55 133.2 127.3 133.5C127.1 133.75 126.8 133.95 126.45 134.15C126.1 134.3 125.65 134.45 125.15 134.55C125.25 134.7 125.35 134.8 125.4 134.9C125.4 134.9 125.9 135.7 126.45 136.55C126.95 137.35 127.45 138.15 127.45 138.15C127.45 138.15 126.5 138.1 125.55 138.05C124.6 137.95 123.6 137.9 123.6 137.9C123.45 137.5 123.2 137.05 122.9 136.5C122.75 136.2 122.6 135.9 122.4 135.6C122.25 135.3 122.05 134.95 121.85 134.6C121.85 134.6 121.3 134.55 120.8 134.55C120.25 134.5 119.75 134.45 119.75 134.45C119.75 134.45 119.7 135.25 119.65 136.05C119.6 136.9 119.6 137.7 119.6 137.7C119.6 137.7 118.75 137.65 117.9 137.6C117.05 137.55 116.25 137.5 116.25 137.5C116.3 137.05 116.3 136.65 116.35 136.2C116.4 135.75 116.4 135.35 116.45 134.95C116.45 134.5 116.5 134.1 116.5 133.7C116.55 133.3 116.55 132.9 116.55 132.5C116.6 132.1 116.6 131.7 116.6 131.3C116.6 130.9 116.65 130.5 116.65 130.1C116.65 129.65 116.65 129.25 116.65 128.8C116.65 128.35 116.65 127.95 116.65 127.5C116.65 127.5 117.5 127.5 118.4 127.55C119.25 127.6 120.1 127.65 120.1 127.65C120.1 127.65 120.85 127.7 121.6 127.75C122.35 127.75 123.05 127.8 123.05 127.8C123.55 127.85 124 127.9 124.45 127.95C124.85 128 125.2 128.1 125.55 128.2C126.2 128.4 126.75 128.65 127.1 129C127.45 129.3 127.75 129.7 127.9 130.1C128.05 130.5 128.15 131 128.1 131.5ZM121.9 130.4L119.95 130.3L119.9 131.9L121.8 132C122.65 132.05 123.25 132.05 123.65 132.05C124.1 132 124.4 131.95 124.55 131.85C124.7 131.75 124.8 131.6 124.85 131.35C124.85 131.15 124.75 131 124.65 130.9C124.5 130.75 124.2 130.65 123.8 130.6C123.35 130.5 122.75 130.45 121.9 130.4ZM137.85 134.05C138.4 134.1 138.85 134.2 139.25 134.35C139.65 134.45 140 134.6 140.25 134.8C140.75 135.2 140.95 135.75 140.9 136.4C140.8 137 140.6 137.55 140.3 137.95C139.95 138.35 139.4 138.65 138.6 138.8C138.2 138.9 137.75 138.9 137.25 138.95C136.7 138.95 136.1 138.9 135.45 138.85C135.45 138.85 135.05 138.8 134.45 138.75C134.15 138.7 133.8 138.7 133.4 138.65C133.05 138.6 132.65 138.6 132.25 138.55C131.85 138.5 131.45 138.5 131.1 138.45C130.7 138.4 130.35 138.4 130.05 138.35C129.5 138.3 129.1 138.3 129.1 138.3C129.15 137.85 129.2 137.4 129.25 137C129.3 136.55 129.3 136.1 129.35 135.7C129.4 135.3 129.45 134.9 129.5 134.5C129.5 134.05 129.55 133.7 129.6 133.3C129.6 132.9 129.65 132.5 129.65 132.1C129.7 131.7 129.7 131.3 129.75 130.85C129.75 130.45 129.8 130 129.8 129.6C129.85 129.15 129.85 128.7 129.85 128.25C129.85 128.25 130.7 128.35 131.55 128.4C132.4 128.5 133.25 128.55 133.25 128.55C133.25 128.55 134.05 128.65 134.8 128.7C135.6 128.75 136.35 128.85 136.35 128.85C136.95 128.9 137.5 129 137.95 129.05C138.4 129.15 138.8 129.3 139.15 129.4C139.85 129.65 140.3 130 140.55 130.4C140.8 130.75 140.85 131.25 140.8 131.8C140.75 132.35 140.5 132.85 140.05 133.2C139.8 133.4 139.5 133.6 139.15 133.7C138.8 133.85 138.35 133.95 137.85 134.05ZM135.8 131.35C135.8 131.35 135.1 131.25 134.45 131.2C133.75 131.15 133.05 131.05 133.05 131.05L132.95 132.35C132.95 132.35 133.65 132.4 134.3 132.5C135 132.55 135.7 132.6 135.7 132.6C136.3 132.65 136.7 132.65 136.95 132.55C137.2 132.5 137.35 132.35 137.35 132.05C137.4 131.85 137.25 131.7 137.05 131.6C136.8 131.45 136.4 131.4 135.8 131.35ZM132.6 136.05C132.6 136.05 133.3 136.1 134 136.15C134.65 136.2 135.35 136.3 135.35 136.3C135.85 136.35 136.2 136.35 136.45 136.35C136.75 136.3 136.95 136.25 137.05 136.2C137.2 136.1 137.25 135.95 137.3 135.75C137.3 135.5 137.2 135.35 136.9 135.2C136.65 135.05 136.2 134.95 135.5 134.9C135.5 134.9 134.8 134.85 134.1 134.75C133.4 134.7 132.75 134.65 132.75 134.65L132.6 136.05ZM148.3 140.45C147.75 140.35 147.25 140.3 146.8 140.15C146.35 140.05 145.9 139.9 145.55 139.75C145.15 139.6 144.8 139.4 144.5 139.2C144.2 139 143.95 138.75 143.7 138.5C143.5 138.25 143.3 137.95 143.15 137.65C142.95 137.35 142.85 137.05 142.75 136.7C142.65 136.35 142.6 136 142.6 135.65C142.55 135.25 142.6 134.85 142.6 134.45C142.65 134.05 142.75 133.65 142.85 133.3C142.95 132.95 143.1 132.6 143.25 132.3C143.4 132 143.6 131.75 143.85 131.5C144.05 131.25 144.3 131 144.6 130.8C144.9 130.6 145.2 130.45 145.55 130.3C145.9 130.2 146.3 130.1 146.75 130C147.15 129.95 147.6 129.95 148.1 129.95C148.6 129.95 149.1 129.95 149.65 130.05C150.2 130.1 150.75 130.2 151.2 130.35C151.7 130.45 152.1 130.6 152.5 130.8C152.9 130.95 153.25 131.15 153.55 131.35C153.85 131.6 154.1 131.85 154.35 132.1C154.55 132.35 154.75 132.65 154.9 132.95C155.05 133.25 155.2 133.55 155.25 133.9C155.35 134.25 155.4 134.6 155.4 134.95C155.4 135.35 155.4 135.7 155.35 136.15C155.25 136.55 155.2 136.9 155.05 137.3C154.95 137.65 154.8 137.95 154.65 138.25C154.45 138.55 154.25 138.85 154 139.1C153.8 139.35 153.55 139.55 153.25 139.75C152.95 139.95 152.65 140.1 152.3 140.2C151.95 140.35 151.6 140.4 151.15 140.5C150.75 140.55 150.3 140.55 149.85 140.55C149.35 140.55 148.85 140.5 148.3 140.45ZM148.65 137.65C149.2 137.7 149.65 137.7 150.05 137.65C150.4 137.65 150.75 137.55 151 137.35C151.25 137.2 151.45 137 151.65 136.7C151.8 136.4 151.9 136.05 151.95 135.65C152.05 134.85 151.9 134.2 151.5 133.75C151.3 133.5 151 133.35 150.65 133.2C150.25 133.05 149.8 132.9 149.3 132.85C148.75 132.8 148.3 132.75 147.9 132.8C147.5 132.85 147.2 133 146.95 133.15C146.4 133.5 146.1 134.05 146 134.85C145.95 135.25 145.95 135.65 146.05 135.95C146.15 136.25 146.25 136.55 146.5 136.75C146.7 137 146.95 137.15 147.35 137.3C147.7 137.45 148.15 137.55 148.65 137.65ZM166.15 132.9C166.15 132.9 167 133.05 167.9 133.2C168.75 133.35 169.65 133.55 169.65 133.55C169.55 133.9 169.45 134.3 169.4 134.7C169.3 135.1 169.2 135.5 169.15 135.9C169.05 136.3 168.95 136.7 168.9 137.15C168.8 137.55 168.7 138 168.65 138.45C168.55 138.9 168.45 139.3 168.4 139.75C168.3 140.15 168.25 140.6 168.2 141C168.1 141.4 168.05 141.8 168 142.2C167.9 142.6 167.85 143 167.8 143.4C167.8 143.4 167.5 143.35 167 143.25C166.55 143.15 165.95 143.05 165.3 142.95C164.7 142.85 164.05 142.7 163.6 142.65C163.1 142.55 162.8 142.5 162.8 142.5C162.8 142.5 162.65 142 162.45 141.25C162.35 140.85 162.25 140.45 162.15 139.95C162 139.5 161.85 139 161.75 138.5C161.6 138 161.45 137.5 161.35 137C161.2 136.55 161.1 136.1 160.95 135.7C160.75 134.95 160.6 134.45 160.6 134.45C160.6 134.45 160.55 134.95 160.45 135.65C160.45 136 160.35 136.4 160.3 136.85C160.25 137.3 160.2 137.75 160.15 138.2C160.1 138.7 160 139.15 159.95 139.6C159.9 140.05 159.85 140.45 159.8 140.8C159.7 141.5 159.65 141.95 159.65 141.95C159.65 141.95 158.75 141.85 157.85 141.7C156.95 141.55 156.05 141.4 156.05 141.4C156.15 140.95 156.2 140.55 156.3 140.1C156.4 139.7 156.45 139.25 156.55 138.85C156.6 138.45 156.7 138.05 156.75 137.65C156.8 137.25 156.85 136.85 156.95 136.45C157 136.05 157.05 135.7 157.1 135.3C157.15 134.9 157.2 134.45 157.25 134.05C157.3 133.65 157.35 133.2 157.4 132.8C157.5 132.35 157.55 131.9 157.55 131.5C157.55 131.5 157.9 131.55 158.4 131.6C158.9 131.7 159.55 131.8 160.25 131.9C160.9 132 161.55 132.1 162.05 132.2C162.55 132.3 162.9 132.35 162.9 132.35C162.9 132.35 163 132.85 163.2 133.6C163.3 134 163.45 134.45 163.55 134.95C163.7 135.4 163.85 135.95 163.95 136.45C164.1 136.95 164.25 137.5 164.35 137.95C164.5 138.45 164.6 138.9 164.7 139.3C164.9 140.05 165 140.6 165 140.6C165 140.6 165.1 140.1 165.2 139.4C165.25 139 165.3 138.6 165.35 138.15C165.45 137.7 165.5 137.2 165.55 136.75C165.65 136.25 165.7 135.8 165.8 135.35C165.85 134.85 165.9 134.45 165.95 134.1C166.05 133.35 166.15 132.9 166.15 132.9Z" fill="white"/>
</svg>
