<svg version="1.2" xmlns="http://www.w3.org/2000/svg" viewBox="0 0 1000 1000" width="1000" height="1000">
	<title>26408504_7207433-ai</title>
	<defs>
		<clipPath clipPathUnits="userSpaceOnUse" id="cp1">
			<path d="m0 1000h1000v-1000h-1000z"/>
		</clipPath>
	</defs>
	<style>
		.s0 { fill: #ffffff } 
		.s1 { fill: #1c2d0b } 
		.s2 { fill: #70200e } 
		.s3 { fill: #2f4219 } 
		.s4 { fill: #556c34 } 
		.s5 { fill: #748e4a } 
		.s6 { fill: #647d3f } 
		.s7 { fill: #455a29 } 
		.s8 { fill: #7b94ca } 
		.s9 { fill: #ae4022 } 
		.s10 { fill: #d25a31 } 
		.s11 { opacity: .5;mix-blend-mode: soft-light;fill: #ffffff } 
		.s12 { fill: #41579e } 
		.s13 { fill: #314593 } 
		.s14 { fill: #121e5b } 
		.s15 { fill: #9cb3e6 } 
		.s16 { fill: #6079b4 } 
		.s17 { fill: #c9dcff } 
		.s18 { fill: #1b3080 } 
	</style>
	<g id="OBJECTS">
		<g id="&lt;Group&gt;">
			<path id="&lt;Path&gt;" class="s0" d="m867.3 223.3c-4.4-2.9-10.6-3-15 0 0.3-1.5-0.4-3.2-1.7-4-1.3-0.9-2.9-0.9-4.2 0 0.4-2.5 0.7-5.1 0.3-7.6-0.3-2.5-1.5-4.9-3.5-6.4-3-2.2-7.1-1.7-10.7-0.6-2.3 0.7-4.7 1.8-6.2 3.7-1.3 1.8-1.8 4-1.7 6.2 0 2.1 0.5 4.3 1.1 6.4-3.2-2.3-7.4-3-11.1-1.8-0.9 0.3-1.7 0.6-2.3 1.3-0.7 1-0.8 2.4-0.3 3.6 0.4 1.1 1.2 2.1 2 3-4.3-1.1-8.9-1.6-13.2-0.4-4.3 1.2-8.2 4.5-9.1 8.9-1.1 5.1 2.1 10.5 6.8 12.8 4.1 2.1 9 2.1 13.5 0.8 0.7 1.3 1.8 2.4 3 3.3 1.9 1.3 4.1 2.2 6.4 2.7 4.5 1.1 9.4 1.1 13.7-0.6 4.4-1.7 8-5.4 9.1-9.9 1.1 2 3.4 3.3 5.7 3.1 2.3-0.2 4.4-1.8 5.2-4 1.7 2.1 5 2 7.7 1.8 2.6-0.3 5.3-0.6 7.4-2.2 1.9-1.5 2.9-3.9 3.3-6.3 0.7-5.2-1.7-10.9-6.2-13.8z"/>
			<path id="&lt;Path&gt;" class="s0" d="m713 182.9c-4.9-6.8-13.7-9.4-22-10.5-8-1-16.8-0.7-23.2 4.1 3.3-6.3 0.6-15.1-5.7-18.6-6.3-3.4-15.1-1-18.8 5.1-1.1-9.5-2.5-19.8-9.4-26.5-6.3-6.2-16.5-7.8-24.7-4.3-8.2 3.5-14 11.6-15.3 20.4-0.8 5.7 0.2 11.6 2.6 16.9-1.2 0.4-2.4 1-3.4 1.9-2.7 2.3-4 6.3-3.2 9.8-9.9-5.2-22.8-5.7-32.1 0.6-9.2 6.4-13.1 20.3-6.8 29.6 5.8 8.5 17.2 10.8 27.5 11 9.2 0.2 19.6-1.3 24.8-8.8-1.6 9 4.9 18.2 13.5 21.3 8.5 3.1 18.4 1 26.1-3.9 7.6-4.9 13.4-12.3 18.1-20.1 1.1 2.9 4.2 4.9 7.3 4.6 3.1-0.3 5.8-2.9 6.3-5.9 6 4.4 13.6 6.8 21 6 7.4-0.8 14.5-5.1 18.2-11.6 3.7-6.4 3.5-15.1-0.8-21.1z"/>
			<path id="&lt;Path&gt;" class="s0" d="m190.2 487.3c-3.8-4-9.9-4.9-15.4-4.8-5.3 0.2-11.1 1.1-14.8 4.9 1.6-4.5-1-9.9-5.5-11.6-4.4-1.7-10 0.8-11.8 5.1-1.6-6.1-3.6-12.7-8.7-16.4-4.7-3.5-11.6-3.5-16.6-0.5-5 3.1-8 9-8.1 14.9 0 3.8 1.3 7.5 3.3 10.8-0.7 0.3-1.4 0.9-2 1.5-1.5 1.8-2 4.5-1.1 6.8-7.1-2.5-15.5-1.6-21 3.5-5.4 5-6.7 14.5-1.6 20 4.6 5 12.3 5.4 19 4.6 6.1-0.8 12.7-2.8 15.4-8.2-0.1 6.1 5 11.4 10.9 12.7 5.9 1.2 12.2-1.2 16.7-5.1 4.6-4 7.6-9.4 10-14.9 1 1.8 3.2 2.8 5.2 2.3 2-0.5 3.5-2.4 3.5-4.5 4.4 2.4 9.6 3.2 14.4 2 4.7-1.3 9-4.7 10.8-9.3 1.8-4.7 0.9-10.3-2.6-13.8z"/>
			<path id="&lt;Path&gt;" class="s0" d="m254 178.5c-5.3-11.6-19.7-18-31.8-14.2 4.1-4.3 8.3-8.8 10.8-14.1 2.6-5.4 3.4-12 0.7-17.3-3.6-7.3-12.8-10.4-20.9-9.4-8.1 1-15.4 5.3-22.4 9.4 1.4-12.2 1-25-4.1-36.1-5.1-11.2-15.5-20.5-27.8-21.8-11.1-1.1-22 4.5-29.7 12.6-12.7 13.6-16.9 34.4-10.5 51.9-1.3-3.2-5.9-4.3-8.8-2.4-2.9 1.8-3.9 6-2.6 9.2q0.2 0.5 0.4 0.9c-10.1-5.4-23.6-4.7-32.7 2.5-11.4 9.2-14.1 27.6-5.7 39.6 7.2 10.3 21.5 14.6 33.4 10.9 2.8 10.4 11.8 19.1 22.5 20.6 13.5 1.9 27.6-8.1 30.4-21.4 3.5 5 8.6 9.4 14.7 10.1 6.1 0.8 13-3.2 13.8-9.3 5 9.7 16.9 13.1 27.7 14.9 11 1.7 23 2.5 32.4-3.4 10.8-6.6 15.5-21.7 10.2-33.2z"/>
			<path id="&lt;Path&gt;" class="s0" d="m934.7 502.6c-4-8.8-15-13.7-24.2-10.8 3.2-3.3 6.3-6.6 8.2-10.7 2-4.1 2.6-9 0.6-13.1-2.8-5.5-9.8-7.9-15.9-7.1-6.2 0.7-11.7 4-17 7.1 1.1-9.2 0.7-19-3.2-27.5-3.8-8.4-11.7-15.5-21-16.4-8.4-0.9-16.8 3.4-22.5 9.5-9.7 10.3-12.9 26.1-8.1 39.4-1-2.5-4.4-3.3-6.6-1.9-2.2 1.5-3 4.6-2 7.1q0.1 0.3 0.3 0.7c-7.7-4.1-17.9-3.7-24.8 1.9-8.7 6.9-10.7 20.9-4.3 30 5.4 7.8 16.3 11.1 25.3 8.3 2.1 7.8 8.9 14.5 17.1 15.6 10.2 1.5 20.9-6.1 23-16.2 2.7 3.8 6.6 7.1 11.2 7.7 4.7 0.6 9.9-2.5 10.5-7.1 3.8 7.3 12.9 10 21 11.3 8.3 1.3 17.5 1.9 24.7-2.6 8.1-5 11.6-16.5 7.7-25.2z"/>
			<path id="&lt;Path&gt;" class="s0" d="m476.1 311.5c-3-5.2-10.7-7.2-15.5-3.7 0.5-2.4-1-5-3.4-5.8-2.3-0.7-5.1 0.6-6 2.8 2.2-7 0.2-15.2-5.1-20.3-5.4-5-13.9-6.4-20.5-3.1-6.6 3.3-10.5 11.3-8.9 18.4-1.6-2.2-4.7-3.1-7.3-2.2-2.5 0.9-4.3 3.7-4.1 6.4-4.2-3.8-10.3-5.7-15.9-4.6-5.6 1.1-10.5 5.4-12.2 10.8-1.6 5.5 0.3 12 4.9 15.3 4.6 3.4 11.6 3.2 15.8-0.7-1 1.8-0.1 4.2 1.6 5.3 1.7 1.2 3.9 1.2 5.8 0.5 2-0.7 3.6-2 5.2-3.3-0.1 7.4 6.1 13.9 13.2 15.3 5.5 1.1 11.2-0.4 15.9-3.4 2.7 2.6 7.1 3.5 10.6 2.1 4.1-1.8 6.7-6.5 5.9-10.9 5.6 2.2 12.4 1.4 16.9-2.6 4.5-3.9 6.1-11.1 3.1-16.3z"/>
		</g>
		<g id="&lt;Clip Group&gt;" clip-path="url(#cp1)">
		</g>
		<g id="&lt;Group&gt;">
			<g id="&lt;Group&gt;">
				<g id="&lt;Group&gt;">
					<g id="&lt;Group&gt;">
						<path id="&lt;Path&gt;" class="s1" d="m943.4 387c-5.8-6.8-15.8-9.3-24.5-7 1.4-1.8 2.1-4 1.9-6.2-1.8-2-4.9-2.5-7.2-1.2 6.5-4.6 9.6-13.5 7.4-21.1-2.2-7.7-9.6-13.5-17.5-14-8-0.4-16 4.6-19 12-2.1-9.8-12.3-17.1-22.3-15.8-9.9 1.2-18 10.9-17.5 20.9-2.6-1.8-5.4-3.6-8.5-3.2-3 0.5-5.5 4.5-3.3 6.7-8.2-4.3-18.4-7.9-26.3-3.3-6.5 3.8-9.2 12.2-8.3 19.6 1.3 10.3 9.1 19.5 19 22.6-3.7 1.1-6.4 4.8-6.2 8.7 0.1 3.8 3.1 7.3 6.8 8.2-4.8 7.1-3.4 17.7 3.1 23.3 6.6 5.5 17.3 5.3 23.5-0.6-1.6 3.7-0.2 8.6 3.2 10.8 2.1 1.3 4.6 1.6 7 1 1.5 7 7.7 13.1 15 13.5 9.4 0.5 18.1-8.8 17-18.2 2.5 5.3 5.9 11 11.5 12.1 6.1 1.2 12-3.9 14-9.7 1.9-5.9 1-12.3 0-18.4 1.7 3.5 7.5 3.4 9.8 0.2 2.4-3.1 1.7-7.8-0.6-11 7.5 4.9 18.6 2.3 23.7-5.1 5.2-7.3 4.2-18.1-1.7-24.8z"/>
						<path id="&lt;Path&gt;" class="s2" d="m898 406c-1.3-1.1-2.9-2.4-4.3-3.5-5.4 5.1-10.1 10.9-14.1 17.1-1-14-1.7-28-2-42.1q-4.8 0.5-9.6 0.9c-0.9 18.8-3.5 37.5-7.6 55.9-7.1-5.8-14.9-10.7-23.2-14.6-0.6 1.1-1.2 2.2-1.8 3.3 8.9 6.8 16.2 15.7 21.5 25.6-4.5 16.5-10.3 32.7-17.4 48.2l49.7 2.1q-4.6-27.5-7.4-55.2c4.7-12.9 10.1-25.5 16.2-37.7z"/>
						<path id="&lt;Path&gt;" class="s3" d="m946.3 367.2c-5.6-5.8-15.3-7.2-22.3-3.2 0.4-7-3-14.1-8.6-18.2-4.8-3.5-11-4.7-16.8-3.6-0.7-5.6-4.8-10.9-10.2-13-7-2.7-15.3-0.5-20.6 4.7-5.4 5.3-7.7 13.1-7.1 20.5-2.5-1.8-6.2-1.9-8.8-0.2-2.6 1.8-3.8 5.2-3.1 8.2-5-8.8-16.3-13.6-26.2-11.1-6.1 1.6-11.8 6.1-13 12.3-1.1 6.2 3.8 13.3 10.1 13-3.5 3.8-10.6 4.7-11.3 9.7-0.4 3.2 2.4 6 5.4 6.9 3.1 0.8 6.3 0.1 9.4-0.6-4.6 2.1-9.1 4.4-12.9 7.8-3.7 3.4-6.6 7.9-7.2 12.9-0.6 5 1.4 10.5 5.6 13.2 4.2 2.8 10.6 2.1 13.6-2-1.4 4.4 1.2 9.6 5.5 11.2 4.4 1.6 9.7-0.8 11.5-5.1-0.6 3.7 4.7 6.1 7.9 4.3 3.3-1.8 4.6-5.8 5.1-9.5 1-8.1-0.7-16.6-4.9-23.6 1.2 1.6 3.3 2.6 5.3 2.4 2.4-0.4 4.4-2.4 4.7-4.7-1.2 3.7 3 7.3 6.9 7 3.9-0.3 7.1-3.2 9.5-6.2-4.5 6.6-4 16.3 1.4 22.2 5.3 6 14.8 7.7 21.9 3.9-3.9 1.4-3.8 7.6-0.5 9.9 3.4 2.3 8.2 1.3 11.5-1.1 0 5.4 4.9 10.2 10.3 10.7 5.4 0.4 10.8-3 13.2-7.8 2.5-4.9 2.3-10.8 0.1-15.8-2.1-5-6.1-9.1-10.7-12 5.7-0.5 9.5-7.6 6.8-12.6 7.7 2.4 16.8-1.1 21.1-8.1 4.2-6.9 3.1-16.6-2.6-22.4z"/>
					</g>
					<g id="&lt;Group&gt;" style="opacity: .5;mix-blend-mode: soft-light">
						<path id="&lt;Path&gt;" class="s0" d="m938.4 369.2c0 1.7-2.3 3.1-5.1 3.1-2.9 0-5.2-1.4-5.2-3.1 0-1.8 2.3-3.1 5.2-3.1 2.8 0 5.1 1.3 5.1 3.1z"/>
						<path id="&lt;Path&gt;" class="s0" d="m880 390.1c0 1.7-2.3 3.1-5.1 3.1-2.9 0-5.2-1.4-5.2-3.1 0-1.7 2.3-3.1 5.2-3.1 2.8 0 5.1 1.4 5.1 3.1z"/>
						<path id="&lt;Path&gt;" class="s0" d="m832.3 404.5c0 1.7-2.3 3.1-5.1 3.1-2.9 0-5.2-1.4-5.2-3.1 0-1.7 2.3-3.1 5.2-3.1 2.8 0 5.1 1.4 5.1 3.1z"/>
						<path id="&lt;Path&gt;" class="s0" d="m927.5 378.4c0 0.9-1.3 1.6-2.8 1.6-1.6 0-2.8-0.7-2.8-1.6 0-1 1.2-1.7 2.8-1.7 1.5 0 2.8 0.7 2.8 1.7z"/>
						<path id="&lt;Path&gt;" class="s0" d="m876.7 379.2c0 0.9-1.3 1.7-2.8 1.7-1.5 0-2.8-0.8-2.8-1.7 0-0.9 1.3-1.7 2.8-1.7 1.5 0 2.8 0.8 2.8 1.7z"/>
						<path id="&lt;Path&gt;" class="s0" d="m835.7 361.9c0 0.9-1.2 1.6-2.8 1.6-1.5 0-2.7-0.7-2.7-1.6 0-1 1.2-1.7 2.7-1.7 1.6 0 2.8 0.7 2.8 1.7z"/>
						<path id="&lt;Path&gt;" class="s0" d="m905.8 420.6c0 0.9-1.2 1.7-2.8 1.7-1.5 0-2.8-0.8-2.8-1.7 0-0.9 1.3-1.7 2.8-1.7 1.6 0 2.8 0.8 2.8 1.7z"/>
					</g>
				</g>
				<g id="&lt;Group&gt;">
					<g id="&lt;Group&gt;">
						<path id="&lt;Path&gt;" class="s1" d="m555.9 437.3c5.1-5.1 13.2-6.7 20.1-4.4-1-1.5-1.5-3.3-1.3-5.1 1.6-1.5 4.2-1.7 6-0.5-5-4.1-7.1-11.4-5-17.4 2.2-6.1 8.4-10.5 14.9-10.4 6.4 0 12.6 4.5 14.6 10.6 2.2-7.8 10.8-13.2 18.8-11.7 7.9 1.5 13.9 9.7 13.1 17.8 2.1-1.3 4.5-2.6 6.9-2.2 2.4 0.5 4.2 3.9 2.4 5.6 6.8-3.1 15.1-5.5 21.3-1.3 5.1 3.3 6.8 10.2 5.7 16.1-1.6 8.3-8.3 15.3-16.4 17.3 2.9 1 4.9 4.2 4.6 7.3-0.3 3.1-2.9 5.8-5.9 6.3 3.5 5.9 1.8 14.4-3.7 18.5-5.6 4.2-14.2 3.5-18.9-1.6 1.1 3.1-0.3 6.9-3.1 8.5-1.7 1-3.8 1.1-5.7 0.5-1.5 5.6-6.9 10.2-12.8 10.2-7.6-0.1-14.1-8.1-12.7-15.6-2.3 4.1-5.3 8.6-9.9 9.2-5 0.7-9.5-3.7-10.8-8.5-1.3-4.9-0.1-10 1-14.9-1.6 2.8-6.3 2.4-8-0.2-1.7-2.7-1-6.4 1.1-8.9-6.3 3.6-15.1 0.9-18.9-5.2-3.8-6.2-2.5-14.8 2.6-20z"/>
						<path id="&lt;Path&gt;" class="s2" d="m591.5 454.9c1.2-0.8 2.5-1.8 3.7-2.6 4 4.4 7.6 9.2 10.4 14.5 1.6-11.3 2.8-22.5 3.8-33.8q3.8 0.6 7.7 1.2c-0.2 15.2 0.9 30.4 3.3 45.3 6-4.2 12.6-7.8 19.4-10.5 0.5 0.9 0.9 1.8 1.3 2.7-7.5 5.1-13.8 11.8-18.5 19.6 2.8 13.5 6.6 26.8 11.5 39.7l-40.1-0.8q5-21.9 8.7-44.1c-3.1-10.6-6.8-21-11.2-31.2z"/>
						<path id="&lt;Path&gt;" class="s3" d="m554.5 421.3c4.9-4.4 12.7-5.1 18.2-1.5 0-5.7 3.1-11.2 7.8-14.3 4-2.5 9.1-3.2 13.7-2 0.9-4.5 4.4-8.6 8.9-10 5.7-1.8 12.4 0.4 16.4 4.9 4 4.4 5.5 10.9 4.7 16.8 2.1-1.3 5-1.2 7 0.3 2 1.5 2.9 4.4 2.1 6.8 4.5-6.9 13.9-10.2 21.7-7.7 4.8 1.6 9.2 5.5 9.8 10.6 0.6 5-3.7 10.5-8.7 9.9 2.6 3.3 8.3 4.3 8.6 8.4 0.2 2.6-2.2 4.8-4.7 5.3-2.5 0.5-5.1-0.2-7.6-1 3.6 1.9 7.2 4.1 10 7 2.9 2.9 5 6.7 5.2 10.7 0.3 4.1-1.6 8.4-5.2 10.4-3.5 2-8.6 1.1-10.8-2.3 0.9 3.6-1.5 7.7-5 8.7-3.6 1.1-7.8-1.1-9-4.6 0.3 3-4.1 4.6-6.6 3-2.5-1.6-3.4-4.9-3.6-7.9-0.4-6.6 1.4-13.3 5.1-18.8-1 1.3-2.8 2-4.4 1.7-1.9-0.4-3.4-2.1-3.5-4 0.7 3-2.9 5.7-6 5.3-3.1-0.4-5.5-2.9-7.3-5.5 3.3 5.6 2.4 13.3-2.2 17.9-4.6 4.5-12.4 5.4-17.8 2 3 1.3 2.6 6.3-0.2 8-2.8 1.7-6.6 0.6-9.1-1.5-0.3 4.4-4.5 8-8.9 8.1-4.4 0.1-8.5-2.9-10.3-6.9-1.7-4.1-1.2-8.9 0.7-12.8 2-3.9 5.4-6.9 9.3-9.1-4.5-0.7-7.3-6.6-4.8-10.4-6.4 1.5-13.6-1.8-16.6-7.6-3.1-5.8-1.7-13.5 3.1-17.9z"/>
					</g>
					<g id="&lt;Group&gt;" style="opacity: .5;mix-blend-mode: soft-light">
						<path id="&lt;Path&gt;" class="s0" d="m560.8 423.2c-0.1 1.4 1.7 2.6 4 2.8 2.3 0.1 4.2-0.9 4.3-2.3 0.1-1.3-1.7-2.6-4-2.7-2.3-0.2-4.2 0.8-4.3 2.2z"/>
						<path id="&lt;Path&gt;" class="s0" d="m606.8 443c-0.1 1.4 1.7 2.6 4 2.7 2.3 0.2 4.2-0.8 4.3-2.2 0.1-1.4-1.7-2.6-4-2.8-2.3-0.1-4.2 0.9-4.3 2.3z"/>
						<path id="&lt;Path&gt;" class="s0" d="m644.5 457c-0.1 1.4 1.7 2.6 4 2.7 2.3 0.2 4.2-0.8 4.3-2.2 0.1-1.4-1.7-2.6-4-2.8-2.3-0.1-4.2 0.9-4.3 2.3z"/>
						<path id="&lt;Path&gt;" class="s0" d="m569.2 431.2c-0.1 0.7 0.9 1.4 2.2 1.5 1.2 0 2.2-0.5 2.3-1.2 0-0.8-0.9-1.5-2.2-1.5-1.2-0.1-2.3 0.4-2.3 1.2z"/>
						<path id="&lt;Path&gt;" class="s0" d="m610 434.4c0 0.7 1 1.4 2.2 1.5 1.2 0.1 2.3-0.5 2.3-1.2 0.1-0.8-0.9-1.4-2.1-1.5-1.3-0.1-2.3 0.4-2.4 1.2z"/>
						<path id="&lt;Path&gt;" class="s0" d="m643.9 422.5c-0.1 0.7 0.9 1.4 2.2 1.4 1.2 0.1 2.2-0.4 2.3-1.2 0-0.7-0.9-1.4-2.2-1.5-1.2 0-2.3 0.5-2.3 1.3z"/>
						<path id="&lt;Path&gt;" class="s0" d="m584.5 466.3c0 0.7 0.9 1.4 2.2 1.5 1.2 0 2.3-0.5 2.3-1.3 0.1-0.7-0.9-1.4-2.1-1.4-1.3-0.1-2.3 0.4-2.4 1.2z"/>
					</g>
				</g>
				<path id="&lt;Path&gt;" class="s4" d="m880.9 488.4c-29.4-13.5-63.2-15.3-94.9-9.1-31.8 6.2-61.5 20.1-89.2 36.8l3.8 46.5c80.7-4.4 161.1-4.9 241.8-3.6-7.8-31.3-32.1-57.2-61.5-70.6z"/>
				<g id="&lt;Group&gt;">
					<path id="&lt;Path&gt;" class="s3" d="m815.3 328.8c-5.4-10.5-15.7-18.1-27-21.5 5.6-3.2 6.2-11.5 3-17-3.3-5.6-9.1-9-14.7-12.1 3.2-5.1 5.8-10.5 6.8-16.3 0.9-5.9-0.1-12.2-3.7-16.9-5.1-6.5-14.4-8.6-22.5-7.1-8.1 1.5-15.4 6-22.4 10.4-0.4-5.1-6.2-8.3-11.3-7.8-5.1 0.5-9.5 3.7-13.6 6.7-2.9-15.9-19.9-27.9-35.9-25.1-15.9 2.9-27.8 20-25 35.9-3.2-2-7.7-1.3-10.2 1.5-2.5 2.8-2.7 7.4-0.3 10.3-8.8-2.8-19.3-5.4-26.5 0.4-6.4 5.4-6.7 15.7-2.8 23.1 3.9 7.4 10.9 12.6 17.7 17.6-5.9-0.4-10.7 6.1-9.7 11.8 1.1 5.8 6.7 10.1 12.5 10.8-8.6 1.9-14.1 12-12 20.6 2.1 8.6 10.4 14.9 19.1 15.9 8.8 1.1 17.7-2.6 24.3-8.5-1.7 4 3 8.3 7.3 7.9 4.3-0.3 7.8-3.5 10.9-6.5-1.6 5.2 0.6 11.2 5.1 14.1 4.6 2.9 11 2.3 15-1.2l13.2 10.7c3.8 10.4 16 17.1 26.9 14.5 10.8-2.5 18.8-13.9 17.5-25 2.8 4.7 8.7 7.4 14.1 6.4 5.4-1 9.9-5.6 10.8-11 10.7 5.1 24.6 0.7 31.5-8.9 6.9-9.6 7.2-23.1 1.9-33.7z"/>
					<path id="&lt;Path&gt;" class="s2" d="m759.9 304.8c-2.3-1.1-4.9-2.3-7.3-3.5-11.2 16-20.6 33.3-27.8 51.4-4.9-28.4-11.8-56.5-20.9-84-3.6 0.9-6.9 2.1-10.5 2.9 4.9 41 5.3 82.6 1.5 123.8-13.6-10.6-28.1-20-43.2-28.3-1.2 2-2.4 3.8-3.7 5.8 16.4 13.6 31.2 29.1 44.1 46.1-4.3 32-11.2 63.7-20.7 94.5l60.3-11.9c2.5-33.5 2.3-67.2-0.7-100.6q7.7-28.4 15.4-56.8c3.7-13.4 7.5-26.8 13.5-39.4z"/>
					<path id="&lt;Path&gt;" class="s4" d="m780.8 309.9c-2.2-11.6-15-20-26.5-17.3 1.1-5-0.9-10.5-4.9-13.5-4.1-3.1-9.9-3.5-14.3-1.1 6.4-8.1 4.9-21-2.4-28.3-7.3-7.4-19.2-9.2-28.9-5.7-6.6 2.4-12.1 7-16.3 12.6-4.6-2.8-10.2-3.8-15.4-2.5-8.3 2.1-14.8 10.1-15.2 18.7-1.9-3.8-7.3-5.3-10.9-3.1-3.6 2.2-4.7 7.7-2.1 11.1-6.5-1.5-13.3-2.5-19.9-1.2-6.5 1.4-12.8 5.5-15.1 11.8-2.3 6.3 0.7 14.4 7.1 16.4-4.8-0.1-9 5.1-7.8 9.7 1.2 4.7 7.4 7.2 11.5 4.8-3.7 4.6-9.4 7.3-13.6 11.5-4.2 4.2-6.5 11.7-2.2 15.9 3.5 3.3 9.1 2.5 13.8 1.4-3 4.5-5.7 9.4-6.4 14.7-0.7 5.4 1 11.4 5.4 14.5 4.4 3.2 11.5 2.5 14.2-2.2 0.8 4.6 5.4 8.3 10.1 8 4.7-0.3 8.8-4.5 9.1-9.1 2.9 3.3 8.9 1 10.7-3 1.7-4.1 0.5-8.8-0.9-13 2.6 1.9 6.5 1.5 8.7-0.7 2.2-2.3 2.4-6.2 0.5-8.7 3.5 5.6 11.1 8 17.4 6.1 6.3-2 11.2-7.6 12.9-14 1.8-6.4 0.7-13.4-2.1-19.4 2.3 1.8 5.7 1.8 8.1 0.2 1.6-1.2 2.6-3.1 2.9-5.1 0.6 3.2 2.7 6.1 5.6 7.5 3.6 1.9 8.4 1.3 11.5-1.4-0.4 5.1 0.5 10.3 3.4 14.5 2.9 4.1 7.9 6.9 12.9 6.5 5-0.5 9.7-4.5 10.2-9.6 1 2.1 3.4 3.5 5.7 3.2 2.3-0.2 4.4-2.1 4.9-4.4 11.6-1.7 20.5-14.2 18.3-25.8z"/>
					<path id="&lt;Path&gt;" class="s5" d="m841.2 350.8c-2.8-8-8.5-15-16-18.8-7.5-3.9-16.9-4.2-24.3-0.2 2.6-5.1 1.1-12-3.5-15.5-4.5-3.5-11.5-3.2-15.8 0.7 1.3-6.9-1.8-14.4-7.6-18.4-5.8-4-13.9-4.2-19.9-0.5-2.9 1.8-5.2 4.4-6.7 7.5-2.4-0.8-4.9-1.3-7.4-1.3-6.6-0.2-13.3 2.5-17.1 7.8-3.8 5.3-3.9 13.2 0.5 18-2.9-1-6.5-0.1-8.5 2.3-2 2.4-2.3 6.1-0.7 8.8-8-1.5-16.6 3.9-19 11.7-2.3 7.8 1.4 16.8 8.3 21.1 6.8 4.3 16.2 3.9 23-0.7-1.8 4.1-0.5 9.3 3 12 3.5 2.8 8.9 2.8 12.4 0 0.7 7.2 4.2 14.2 9.9 18.4 5.8 4.3 14 5.5 20.4 2.3 6.4-3.2 10.5-11.1 8.6-18 3 1.9 6.1 3.9 9.5 4.8 3.5 1 7.5 0.8 10.3-1.3 2.9-2.2 4.2-6.5 2.3-9.5 7 0.8 14.2 1.5 21.2 0 6.9-1.4 13.7-5.3 16.9-11.6 3.1-6 2.5-13.3 0.2-19.6z"/>
					<g id="&lt;Group&gt;" style="opacity: .5;mix-blend-mode: soft-light">
						<path id="&lt;Path&gt;" class="s0" d="m632.8 293.9c0 3-3.4 5.3-7.7 5.3-4.3 0-7.8-2.3-7.8-5.3 0-2.9 3.5-5.2 7.8-5.2 4.3 0 7.7 2.3 7.7 5.2z"/>
						<path id="&lt;Path&gt;" class="s0" d="m735.7 353.4c0 3-3.5 5.3-7.8 5.3-4.3 0-7.7-2.3-7.7-5.3 0-2.9 3.4-5.3 7.7-5.3 4.3 0 7.8 2.4 7.8 5.3z"/>
						<path id="&lt;Path&gt;" class="s0" d="m788.9 366.8c0 3-3.5 5.3-7.8 5.3-4.2 0-7.7-2.3-7.7-5.3 0-2.9 3.5-5.2 7.7-5.2 4.3 0 7.8 2.3 7.8 5.2z"/>
						<path id="&lt;Path&gt;" class="s0" d="m723.4 270.3c0 2.9-3.4 5.3-7.7 5.3-4.3 0-7.8-2.4-7.8-5.3 0-2.9 3.5-5.3 7.8-5.3 4.3 0 7.7 2.4 7.7 5.3z"/>
						<path id="&lt;Path&gt;" class="s0" d="m641 303.6c0 1.6-2 3-4.5 3-2.5 0-4.5-1.4-4.5-3 0-1.7 2-3.1 4.5-3.1 2.5 0 4.5 1.4 4.5 3.1z"/>
						<path id="&lt;Path&gt;" class="s0" d="m720.2 363c0 1.7-2.1 3.1-4.5 3.1-2.5 0-4.5-1.4-4.5-3.1 0-1.7 2-3 4.5-3 2.4 0 4.5 1.3 4.5 3z"/>
						<path id="&lt;Path&gt;" class="s0" d="m806.7 354.7c0 1.7-2 3.1-4.5 3.1-2.4 0-4.4-1.4-4.4-3.1 0-1.7 2-3.1 4.4-3.1 2.5 0 4.5 1.4 4.5 3.1z"/>
						<path id="&lt;Path&gt;" class="s0" d="m724.7 254.4c0 1.7-2.1 3.1-4.5 3.1-2.5 0-4.5-1.4-4.5-3.1 0-1.7 2-3.1 4.5-3.1 2.4 0 4.5 1.4 4.5 3.1z"/>
						<path id="&lt;Path&gt;" class="s0" d="m693.4 271.8c0 1.7-2 3.1-4.5 3.1-2.4 0-4.5-1.4-4.5-3.1 0-1.7 2.1-3.1 4.5-3.1 2.5 0 4.5 1.4 4.5 3.1z"/>
					</g>
				</g>
				<path id="&lt;Path&gt;" class="s6" d="m566.1 554.5c20.2-26.2 52.3-40.6 84.4-48.3 85-20.5 179 1 246.6 56.4-109.9 7-221.3 2.4-331-8.1z"/>
				<path id="&lt;Path&gt;" class="s7" d="m754.5 535.4c-1.2-1.8-2-4-1.6-6.1 0.5-2.1 2.5-4 4.6-3.7 1.5 0.2 2.7 1.2 3.4 2.5 0.8 1.3 1.1 2.8 1.4 4.2-0.1-2.6 1.1-5.1 3.1-6.7 1.1-0.9 2.7-1.5 3.9-0.8 0.8 0.4 1.2 1.2 1.4 2 0.2 0.8 0.1 1.7-0.1 2.5-0.7 2.9-2.3 5.5-4.4 7.5-2 1.8-4.8 3.9-7.5 2.4-1.6-0.9-3.1-2.3-4.2-3.8z"/>
				<path id="&lt;Path&gt;" class="s7" d="m657.5 516.8c-1.2-1.8-2.1-4-1.6-6.1 0.4-2.1 2.4-4 4.6-3.7 1.4 0.2 2.6 1.2 3.4 2.5 0.7 1.3 1 2.7 1.4 4.2-0.1-2.6 1.1-5.2 3.1-6.8 1.1-0.8 2.6-1.4 3.9-0.7 0.7 0.4 1.2 1.2 1.4 2 0.1 0.8 0 1.7-0.2 2.5-0.6 2.9-2.2 5.5-4.4 7.5-1.9 1.8-4.8 3.9-7.4 2.4-1.7-0.9-3.1-2.3-4.2-3.8z"/>
				<path id="&lt;Path&gt;" class="s7" d="m794.2 483c-1.2-1.8-2-4-1.6-6.1 0.5-2.1 2.5-4 4.6-3.7 1.5 0.2 2.7 1.2 3.4 2.5 0.8 1.3 1.1 2.7 1.4 4.2-0.1-2.6 1.1-5.2 3.1-6.8 1.1-0.8 2.7-1.4 3.9-0.7 0.8 0.4 1.2 1.2 1.4 2 0.2 0.8 0.1 1.7-0.1 2.5-0.7 2.9-2.3 5.5-4.4 7.5-2 1.8-4.8 3.9-7.5 2.4-1.6-0.9-3.1-2.3-4.2-3.8z"/>
				<path id="&lt;Path&gt;" class="s7" d="m868.4 507.4c-1.2-1.8-2-4-1.6-6.1 0.4-2.1 2.4-4 4.6-3.7 1.4 0.1 2.7 1.2 3.4 2.5 0.8 1.3 1.1 2.7 1.4 4.2-0.1-2.6 1.1-5.2 3.1-6.8 1.1-0.8 2.7-1.4 3.9-0.8 0.7 0.4 1.2 1.2 1.4 2.1 0.1 0.8 0 1.7-0.1 2.5-0.7 2.9-2.3 5.5-4.4 7.5-2 1.7-4.9 3.9-7.5 2.4-1.6-0.9-3.1-2.3-4.2-3.8z"/>
				<path id="&lt;Path&gt;" class="s7" d="m614.2 543c-1.3-1.7-2.1-3.9-1.7-6.1 0.5-2.1 2.5-3.9 4.6-3.7 1.5 0.2 2.7 1.3 3.5 2.5 0.7 1.3 1 2.8 1.3 4.2 0-2.5 1.2-5.1 3.2-6.7 1.1-0.9 2.6-1.5 3.8-0.8 0.8 0.4 1.3 1.2 1.4 2 0.2 0.9 0.1 1.7-0.1 2.5-0.6 2.9-2.2 5.5-4.4 7.5-2 1.8-4.8 3.9-7.4 2.5-1.7-1-3.1-2.3-4.2-3.9z"/>
			</g>
			<g id="&lt;Group&gt;">
				<path id="&lt;Path&gt;" class="s8" d="m499.3 196.8c-6.3-8.8-18.2-11-28.9-11.9 5.8-11.8 2.2-27.4-8.1-35.5-10.2-8.2-26.2-8.1-36.4 0.1-3.4-9-10.9-16.4-20-19.7-7.1-2.5-15-2.4-22.1 0-9.1-13.5-24.9-22.5-41.2-22.7-20.2-0.3-39.8 12.8-47.3 31.5-7.8-8.8-24.3-6.6-29.6 3.8-17.3-14.5-39.8-24.8-62.2-21.5-22.4 3.2-42.9 23.2-41.2 45.8-6.1-1.8-13-0.1-17.5 4.3-4.5 4.4-6.3 11.3-4.7 17.3-15.9-2.4-32.9 5.5-41.3 19.2-8.5 13.6-8 32.3 1.2 45.5-9.7-0.9-19.3 8.1-18.9 17.9 0.4 9.8 10.7 18 20.3 16.3-5.9 4.6-4.2 14.7 1.4 19.7 5.5 5 13.4 6.3 20.8 7.4-4 3-5.9 8.6-4.5 13.4 1.3 4.8 5.8 8.6 10.8 9.1-6.9 6.7-7.1 19-0.5 26 16.1 2.2 33.1 2.5 49.3 1.5 3.5-10 0.1-22.1-8-29 7.4-5.8 12.4-14.5 13.7-23.8 1.3-9.3-1.3-19-6.9-26.5 7.9-4.5 13.1-12.7 15.7-21.4 2.6-8.7 3-17.9 3.4-26.9 3.6 4.4 9 7.4 14.7 8-5.9 9.9-4.2 23.7 3.9 31.9 11 0.3 21.9 0.5 32.9 0.9 3 0.1 6.4 0 8.6-2.1 3.7-3.5 1.2-9.7-1.4-14.1 13.4-3.1 24.6-14.6 27.1-28.2 1.2 9 7.9 17 16.5 19.7-2.3 9.9 2.4 20.6 11 25.9-4.8 5.3-7.4 12.6-7.2 19.8 0.3 7.2 3.6 14.2 8.9 19.1 21.4 0.3 42.9 2.8 63.9 6.7 1.5-8.7-1.2-17.9-7-24.5 6.6-5.8 9.9-14.6 9.3-23.3 6.9 1.2 13.9 2.4 20.7 1.3 6.9-1.1 13.6-5.1 16.2-11.6 6.8 12.6 20.5 21.2 34.8 21.7 14.3 0.6 28.7-7 36.4-19 7.7-12.1 8.4-28.3 1.9-41 6.3-1.5 11.8-6.4 14.1-12.5 2.3-6.1 1.3-13.4-2.6-18.6z"/>
				<g id="&lt;Group&gt;">
					<path id="&lt;Path&gt;" class="s9" d="m259.1 561.9c0 0 38.2-118.1 38.7-156.7l-1.6-20.8-1.7-23.1-0.7-9.6-1.7-23.1-1.7-22.6c0 0 59.5-3.9 102.1 4.8l-0.5 22.6-0.5 23-0.2 9.6-0.5 22.9-0.5 24.9c0 0 10.9 107.7 23.9 141.2z"/>
					<path id="&lt;Path&gt;" class="s10" d="m392 333.4l-0.5 23q-48.8-2.4-97.7-4.7l-1.7-23.1q50 2.4 99.9 4.8z"/>
					<path id="&lt;Path&gt;" class="s10" d="m391.3 366l-0.5 22.9q-47.2-2.2-94.6-4.5l-1.7-23.1q48.4 2.4 96.8 4.7z"/>
					<path id="&lt;Path&gt;" class="s11" d="m318 318.7c-14.2 4-13 60.2 4.3 63.1 17.3 2.9 7.6-66.5-4.3-63.1z"/>
				</g>
				<g id="&lt;Group&gt;">
					<path id="&lt;Path&gt;" class="s9" d="m77.9 561.9c0 0 32.7-100.9 33-133.9l-1.3-17.8-1.4-19.7-0.7-8.2-1.4-19.7-1.4-19.3c0 0 50.8-3.4 87.2 4l-0.5 19.3-0.4 19.7-0.2 8.2-0.3 19.6-0.5 21.2c0 0 9.3 92.1 20.4 120.7z"/>
					<path id="&lt;Path&gt;" class="s10" d="m191.4 366.6l-0.4 19.7q-41.7-2-83.5-4l-1.4-19.7q42.7 2 85.3 4z"/>
					<path id="&lt;Path&gt;" class="s10" d="m190.8 394.5l-0.3 19.6q-40.4-1.9-80.9-3.9l-1.4-19.7q41.3 2 82.6 4z"/>
					<path id="&lt;Path&gt;" class="s11" d="m125.3 357.4c-14.3 4-13.1 60.2 4.2 63.1 17.3 2.9 7.7-66.5-4.2-63.1z"/>
				</g>
				<g id="&lt;Group&gt;">
					<path id="&lt;Path&gt;" class="s12" d="m207 283.9l7.9 278.5h53.2v-280.5z"/>
					<path id="&lt;Path&gt;" class="s11" d="m220.2 311c-14.2 4-13 60.2 4.3 63.1 17.3 2.9 7.6-66.5-4.3-63.1z"/>
					<path id="&lt;Path&gt;" class="s13" d="m199.6 263.4l3.1 31.6c30.3 2.9 70.4 0.9 70.4 0.9l2.6-34.5c-17.6-4-76.1 2-76.1 2z"/>
					<path id="&lt;Compound Path&gt;" fill-rule="evenodd" class="s14" d="m307.4 552.7h-134.2l-0.9 9.9-6-0.5 11.6-133.1q0 0 0 0l10.7-122.9h92l0.4 2.6 8.5 64.3q0 0 0 0l25.3 189-6.1 0.8zm-128.9-60.3h112.4l-107.3-58.3zm105.4-116h-83.9l90.2 47.4zm-11.1-6l-80.4-37-3.3 37zm-88.4 55.8h97.4l-93.2-49zm114.8 63.7l-7.7-57.6h-98.5zm-104.8-177.8l-1.3 14.9 89.9 41.4-7.5-56.3zm100.3 234.5l-116.6-46.9-3.8 43.3c0.8 0.6 1.4 1.5 1.4 2.6v1zm11.9-1.7l-6.2-46.5h-109.3z"/>
				</g>
				<g id="&lt;Group&gt;">
					<g id="&lt;Group&gt;">
						<g id="&lt;Group&gt;">
							<path id="&lt;Path&gt;" class="s15" d="m232.9 420.7l-130.5-36.7q-1.6 90-9.9 170.8h152.2c-0.6-44.9-4.5-89.6-11.8-134.1z"/>
							<path id="&lt;Path&gt;" class="s2" d="m239.8 428.1l-145.2-42.2 2.9-10 145.2 42.2z"/>
						</g>
						<path id="&lt;Path&gt;" class="s14" d="m118.7 423.7l0.9 40.4h24.4v-41.6z"/>
						<path id="&lt;Path&gt;" class="s14" d="m157.5 431.8l0.9 40.4h24.4v-41.6z"/>
						<path id="&lt;Path&gt;" class="s14" d="m196.4 439.9l0.9 40.3h24.4v-41.6z"/>
						<path id="&lt;Path&gt;" class="s16" d="m96.4 497.3l-0.2-6 148.4-3.8 0.2 6z"/>
					</g>
					<g id="&lt;Group&gt;">
						<g id="&lt;Group&gt;">
							<path id="&lt;Path&gt;" class="s17" d="m364.2 420.7l-130.4-36.7q-1.7 90-10 170.8h152.2c-0.6-44.9-4.4-89.6-11.8-134.1z"/>
							<path id="&lt;Path&gt;" class="s2" d="m371.1 428.1l-145.2-42.2 3-10 145.1 42.2z"/>
						</g>
						<path id="&lt;Path&gt;" class="s14" d="m250 423.7l0.9 40.4h24.4v-41.6z"/>
						<path id="&lt;Path&gt;" class="s11" d="m260.9 410.5c-22.6 4.8-20.7 72.7 6.7 76.2 27.5 3.5 12.1-80.3-6.7-76.2z"/>
						<path id="&lt;Path&gt;" class="s14" d="m288.9 431.8l0.9 40.4h24.4v-41.6z"/>
						<path id="&lt;Path&gt;" class="s14" d="m327.7 439.9l0.9 40.3h24.4v-41.6z"/>
						<path id="&lt;Path&gt;" class="s16" d="m227.7 497.3l-0.1-6 148.3-3.8 0.2 6z"/>
					</g>
				</g>
				<g id="&lt;Group&gt;">
					<path id="&lt;Path&gt;" class="s2" d="m69.3 561.9q-0.1 0-0.3 0c-1.4-0.2-2.5-1.5-2.3-3l7.4-61.6c0.2-1.3 1.3-2.3 2.6-2.3h343.7c1.4 0 2.6 1 2.7 2.4l3.7 58.3c0.1 1.5-1 2.7-2.5 2.8-1.4 0.1-2.7-1-2.8-2.4l-3.5-55.9h-338.9l-7.2 59.4c-0.1 1.3-1.3 2.3-2.6 2.3z"/>
					<path id="&lt;Path&gt;" class="s2" d="m123.2 561.9c-1.4 0-2.6-1.2-2.6-2.6v-61.7c0-1.5 1.2-2.6 2.6-2.6 1.5 0 2.7 1.1 2.7 2.6v61.7c0 1.4-1.2 2.6-2.7 2.6z"/>
					<path id="&lt;Path&gt;" class="s2" d="m185.9 561.9c-1.4 0-2.6-1.2-2.6-2.6v-61.7c0-1.5 1.2-2.6 2.6-2.6 1.5 0 2.7 1.1 2.7 2.6v61.7c0 1.4-1.2 2.6-2.7 2.6z"/>
					<path id="&lt;Path&gt;" class="s2" d="m248.6 561.9c-1.5 0-2.7-1.2-2.7-2.6v-61.7c0-1.5 1.2-2.6 2.7-2.6 1.4 0 2.6 1.1 2.6 2.6v61.7c0 1.4-1.2 2.6-2.6 2.6z"/>
					<path id="&lt;Path&gt;" class="s2" d="m311.3 561.9c-1.5 0-2.7-1.2-2.7-2.6v-61.7c0-1.5 1.2-2.6 2.7-2.6 1.4 0 2.6 1.1 2.6 2.6v61.7c0 1.4-1.2 2.6-2.6 2.6z"/>
					<path id="&lt;Path&gt;" class="s2" d="m373.9 561.9c-1.4 0-2.6-1.2-2.6-2.6v-61.7c0-1.5 1.2-2.6 2.6-2.6 1.5 0 2.7 1.1 2.7 2.6v61.7c0 1.4-1.2 2.6-2.7 2.6z"/>
				</g>
			</g>
			<g id="&lt;Group&gt;">
				<path id="&lt;Path&gt;" class="s14" d="m479.6 780.8c-69.9-14.9-130.9-21.9-170.6-33-23.8-25.8-51.7-67.1-71.6-100.7l10.6-4.3 83.2 86.2 154.6 19.4z"/>
				<g id="&lt;Group&gt;">
					<path id="&lt;Path&gt;" class="s13" d="m202.4 618.6c0 0 5.2 18.5 9.7 21.4 4.5 2.9 54.6 3.7 58.8 1.6 4.2-2.1 9.5-21.6 9.5-21.6z"/>
					<path id="&lt;Path&gt;" class="s12" d="m257.3 642.7c0 8.3-6.7 15-15 15-8.3 0-15.1-6.7-15.1-15 0-8.3 6.8-15.1 15.1-15.1 8.3 0 15 6.8 15 15.1z"/>
					<path id="&lt;Path&gt;" class="s12" d="m56.2 559.4l385.3-2.3c0 0-21.9 70.6-199.5 70.6-160.5 0-185.8-68.3-185.8-68.3z"/>
					<path id="&lt;Path&gt;" class="s11" d="m113.5 581.1c-10 12.5 34.6 38.6 52 24 17.4-14.7-39.3-39.8-52-24z"/>
					<path id="&lt;Path&gt;" class="s13" d="m439 552.4q-191.5 0.2-382.9 0.4c-15.5 0.1-15.5 11.9 0 11.9q191.4-0.2 382.9-0.5c15.5 0 15.5-11.8 0-11.8z"/>
				</g>
			</g>
			<g id="&lt;Group&gt;">
				<path id="&lt;Path&gt;" class="s14" d="m517.3 780.8c69.8-14.9 130.6-21.9 170.2-33 23.8-25.8 51.5-67.1 71.5-100.7l-10.6-4.3-83 86.2-154.3 19.4z"/>
				<g id="&lt;Group&gt;">
					<path id="&lt;Path&gt;" class="s13" d="m793.8 618.6c0 0-5.1 18.5-9.6 21.4-4.5 2.9-54.5 3.7-58.7 1.6-4.2-2.1-9.5-21.6-9.5-21.6z"/>
					<path id="&lt;Path&gt;" class="s12" d="m739 642.7c0 8.3 6.8 15 15.1 15 8.2 0 15-6.7 15-15 0-8.3-6.8-15.1-15-15.1-8.3 0-15.1 6.8-15.1 15.1z"/>
					<path id="&lt;Path&gt;" class="s12" d="m939.7 559.4l-384.4-2.3c0 0 21.8 70.6 199 70.6 160.2 0 185.4-68.3 185.4-68.3z"/>
					<path id="&lt;Path&gt;" class="s11" d="m882.5 581.1c10 12.5-34.4 38.6-51.8 24-17.3-14.7 39.1-39.8 51.8-24z"/>
					<path id="&lt;Path&gt;" class="s13" d="m557.8 552.4q191 0.2 382 0.4c15.5 0.1 15.5 11.9 0 11.9q-191-0.2-382-0.5c-15.4 0-15.5-11.8 0-11.8z"/>
				</g>
			</g>
			<path id="&lt;Path&gt;" class="s13" d="m504.1 731c-35.5 2.3-37.1 55.8-37.1 55.8l72.2-1.8c0 0 0.3-56.2-35.1-54z"/>
			<path id="&lt;Path&gt;" class="s18" d="m340.5 886.8c-15.4-9.9 23.9-86 52.7-98.7 15.7-6.9 216.1-10.6 229 0 12.9 10.6 45 83.7 40.1 98.7-4.9 15-307.4 9.4-321.8 0z"/>
			<path id="&lt;Path&gt;" class="s14" d="m660.6 868.1c-107.4 13-216 13.1-323.4 0.4-7.7-0.9-14.2 7.1-14.2 14.2 0 8.4 6.5 13.3 14.2 14.2 107.4 12.7 216 12.5 323.4-0.4 7.6-1 14.2-5.9 14.2-14.2 0-7-6.5-15.1-14.2-14.2z"/>
			<path id="&lt;Path&gt;" class="s11" d="m387.8 810.4c-2.4-21.2 93-27.3 97.9-13.8 4.8 13.6-95.4 35.2-97.9 13.8z"/>
			<path id="&lt;Path&gt;" class="s14" d="m489.7 763.2c-0.8-5 1.5-10.4 5.8-13.1 2.5-1.7 5.5-2.4 8.5-2.3 2.3 0.2 4.5 0.8 6.4 2.1 1.5 1.1 2.7 2.7 3.5 4.4 4 8.1-0.8 18.5-10 19.9q-1 0.2-2.1 0.1c-4.8-0.1-8.9-3.2-11-7.5q-0.8-1.7-1.1-3.6z"/>
		</g>
	</g>
</svg>