<svg width="512" height="398" viewBox="0 0 512 398" fill="none" xmlns="http://www.w3.org/2000/svg">
<path d="M462.053 222.573C476.949 228.102 491.055 235.268 491.055 235.268C492.24 192.161 471.419 167.221 450.373 160.281C433.39 154.639 423.346 159.773 423.346 159.773C445.464 173.033 458.498 193.966 458.498 193.966C444.9 179.296 419.679 164.005 419.679 164.005C414.431 197.634 436.775 213.15 462.053 222.573Z" fill="#296E0E"/>
<path d="M475.933 167.447C490.265 164.174 504.766 162.538 504.766 162.538C483.776 128.74 455 120.164 435.308 125.524C419.34 129.812 414.262 138.897 414.262 138.897C438.016 137.825 458.668 147.304 458.668 147.304C440.725 142.903 413.529 143.975 413.529 143.975C426.675 172.525 451.727 173.089 475.933 167.447Z" fill="#50A31A"/>
<path d="M459.909 120.841C470.065 113.675 480.842 107.751 480.842 107.751C453.589 88.059 428.368 90.5981 414.657 101.093C403.598 109.613 402.47 118.358 402.47 118.358C420.694 109.895 439.935 110.628 439.935 110.628C424.531 112.942 403.598 122.534 403.598 122.534C423.008 140.646 442.812 133.029 459.909 120.841Z" fill="#92E537"/>
<path d="M176.719 191.483C161.766 185.898 147.717 178.732 147.717 178.732C146.476 221.839 167.352 246.779 188.398 253.719C205.382 259.361 215.425 254.227 215.425 254.227C193.307 240.967 180.273 220.034 180.273 220.034C193.872 234.76 219.093 249.995 219.093 249.995C224.34 216.366 201.997 200.85 176.719 191.483Z" fill="#296E0E"/>
<path d="M162.839 246.553C148.507 249.825 134.006 251.462 134.006 251.462C154.996 285.26 183.772 293.836 203.464 288.476C219.431 284.187 224.51 275.103 224.51 275.103C200.755 276.175 180.048 266.753 180.048 266.753C197.99 271.097 225.187 270.025 225.187 270.025C212.096 241.475 187.044 240.911 162.839 246.553Z" fill="#50A31A"/>
<path d="M178.863 293.159C168.707 300.325 157.873 306.249 157.873 306.249C185.182 325.941 210.404 323.402 224.115 312.907C235.174 304.387 236.302 295.641 236.302 295.641C218.021 304.161 198.837 303.372 198.837 303.372C214.24 301.058 235.174 291.466 235.174 291.466C215.764 273.354 195.959 280.971 178.863 293.159Z" fill="#92E537"/>
<path d="M409.24 318.888C415.898 333.332 420.751 348.398 420.751 348.398C452.122 318.775 455 286.388 445.069 266.583C437.001 250.559 426.28 247.117 426.28 247.117C432.543 272.113 426.957 296.149 426.957 296.149C427.747 276.175 420.694 247.512 420.694 247.512C393.216 267.599 398.069 294.344 409.24 318.888Z" fill="#296E0E"/>
<path d="M459.175 288.645C471.645 296.375 483.043 305.459 483.043 305.459C492.07 266.753 477.852 240.346 460.078 230.19C445.803 222.009 435.76 224.773 435.76 224.773C453.307 240.854 461.263 262.126 461.263 262.126C451.671 246.384 431.641 227.877 431.641 227.877C420.751 257.33 438.073 275.442 459.175 288.645Z" fill="#50A31A"/>
<path d="M479.657 245.481C491.901 247.569 503.75 251.01 503.75 251.01C498.39 217.777 478.754 201.753 461.602 199.496C447.778 197.634 440.838 203.05 440.838 203.05C459.74 209.99 472.773 224.096 472.773 224.096C460.191 214.843 438.637 206.831 438.637 206.831C439.596 233.35 458.95 241.926 479.657 245.481Z" fill="#92E537"/>
<path d="M227.161 140.082C227.161 123.38 240.703 109.839 257.404 109.839H381.762C398.407 109.839 411.949 123.38 411.949 140.082V325.038C411.949 341.74 398.407 355.281 381.762 355.281H257.404C240.703 355.281 227.161 341.74 227.161 325.038V140.082Z" fill="#F7CC7F"/>
<path d="M243.806 130.038H397.053V167.447H243.806V130.038Z" fill="#3CB4C5"/>
<g style="mix-blend-mode:multiply" opacity="0.5">
<path d="M247.869 135.398H397.053V130.038H243.806V167.447H247.869V135.398Z" fill="#3CB4C5"/>
</g>
<path d="M243.806 180.481C243.806 179.183 244.822 178.168 246.12 178.168H285.447C286.745 178.168 287.76 179.183 287.76 180.481V189.283C287.76 190.581 286.745 191.653 285.447 191.653H246.12C244.822 191.653 243.806 190.581 243.806 189.283V180.481Z" fill="#F47458"/>
<path d="M298.424 180.481C298.424 179.183 299.496 178.168 300.794 178.168H340.121C341.363 178.168 342.435 179.183 342.435 180.481V189.283C342.435 190.581 341.363 191.653 340.121 191.653H300.794C299.496 191.653 298.424 190.581 298.424 189.283V180.481Z" fill="#F47458"/>
<path d="M353.099 180.481C353.099 179.183 354.115 178.168 355.412 178.168H394.74C396.037 178.168 397.053 179.183 397.053 180.481V189.283C397.053 190.581 396.037 191.653 394.74 191.653H355.412C354.115 191.653 353.099 190.581 353.099 189.283V180.481Z" fill="#F47458"/>
<path d="M243.806 207.508C243.806 204.63 246.12 202.317 248.997 202.317H272.639C275.516 202.317 277.83 204.63 277.83 207.508V227.313C277.83 230.19 275.516 232.56 272.639 232.56H248.997C246.12 232.56 243.806 230.19 243.806 227.313V207.508Z" fill="#F47458"/>
<path d="M283.529 207.508C283.529 204.63 285.898 202.317 288.776 202.317H312.361C315.239 202.317 317.609 204.63 317.609 207.508V227.313C317.609 230.19 315.239 232.56 312.361 232.56H288.776C285.898 232.56 283.529 230.19 283.529 227.313V207.508Z" fill="#FAE0B2"/>
<path d="M323.307 207.508C323.307 204.63 325.621 202.317 328.498 202.317H352.14C355.017 202.317 357.331 204.63 357.331 207.508V227.313C357.331 230.19 355.017 232.56 352.14 232.56H328.498C325.621 232.56 323.307 230.19 323.307 227.313V207.508Z" fill="#FAE0B2"/>
<path d="M243.806 244.804C243.806 241.926 246.12 239.613 248.997 239.613H272.639C275.516 239.613 277.83 241.926 277.83 244.804V264.609C277.83 267.486 275.516 269.799 272.639 269.799H248.997C246.12 269.799 243.806 267.486 243.806 264.609V244.804Z" fill="#F47458"/>
<path d="M283.529 244.804C283.529 241.926 285.898 239.613 288.776 239.613H312.361C315.239 239.613 317.609 241.926 317.609 244.804V264.609C317.609 267.486 315.239 269.799 312.361 269.799H288.776C285.898 269.799 283.529 267.486 283.529 264.609V244.804Z" fill="#FAE0B2"/>
<path d="M323.307 244.804C323.307 241.926 325.621 239.613 328.498 239.613H352.14C355.017 239.613 357.331 241.926 357.331 244.804V264.609C357.331 267.486 355.017 269.799 352.14 269.799H328.498C325.621 269.799 323.307 267.486 323.307 264.609V244.804Z" fill="#FAE0B2"/>
<path d="M390.113 202.317H369.97C366.133 202.317 363.03 205.251 363.03 208.918V218.228V225.958V263.254C363.03 266.866 366.133 269.8 369.97 269.8H390.113C393.95 269.8 397.053 266.866 397.053 263.254V225.958V218.228V208.918C397.053 205.251 393.95 202.317 390.113 202.317Z" fill="#FAE0B2"/>
<path d="M243.806 282.1C243.806 279.222 246.12 276.852 248.997 276.852H272.639C275.516 276.852 277.83 279.222 277.83 282.1V301.905C277.83 304.782 275.516 307.095 272.639 307.095H248.997C246.12 307.095 243.806 304.782 243.806 301.905V282.1Z" fill="#F47458"/>
<path d="M283.529 282.1C283.529 279.222 285.898 276.852 288.776 276.852H312.361C315.239 276.852 317.609 279.222 317.609 282.1V301.905C317.609 304.782 315.239 307.095 312.361 307.095H288.776C285.898 307.095 283.529 304.782 283.529 301.905V282.1Z" fill="#FAE0B2"/>
<path d="M323.307 282.1C323.307 279.222 325.621 276.852 328.498 276.852H352.14C355.017 276.852 357.331 279.222 357.331 282.1V301.905C357.331 304.782 355.017 307.095 352.14 307.095H328.498C325.621 307.095 323.307 304.782 323.307 301.905V282.1Z" fill="#FAE0B2"/>
<path d="M363.03 282.1C363.03 279.222 365.343 276.852 368.22 276.852H391.862C394.74 276.852 397.053 279.222 397.053 282.1V301.905C397.053 304.782 394.74 307.095 391.862 307.095H368.22C365.343 307.095 363.03 304.782 363.03 301.905V282.1Z" fill="#FAE0B2"/>
<path d="M243.806 319.339C243.806 316.462 246.12 314.148 248.997 314.148H272.639C275.516 314.148 277.83 316.462 277.83 319.339V339.144C277.83 342.022 275.516 344.392 272.639 344.392H248.997C246.12 344.392 243.806 342.022 243.806 339.144V319.339Z" fill="#F47458"/>
<path d="M283.529 319.339C283.529 316.462 285.898 314.148 288.776 314.148H312.361C315.239 314.148 317.609 316.462 317.609 319.339V339.144C317.609 342.022 315.239 344.392 312.361 344.392H288.776C285.898 344.392 283.529 342.022 283.529 339.144V319.339Z" fill="#FAE0B2"/>
<path d="M323.307 319.339C323.307 316.462 325.621 314.148 328.498 314.148H352.14C355.017 314.148 357.331 316.462 357.331 319.339V339.144C357.331 342.022 355.017 344.392 352.14 344.392H328.498C325.621 344.392 323.307 342.022 323.307 339.144V319.339Z" fill="#FAE0B2"/>
<path d="M363.03 319.339C363.03 316.462 365.343 314.148 368.22 314.148H391.862C394.74 314.148 397.053 316.462 397.053 319.339V339.144C397.053 342.022 394.74 344.392 391.862 344.392H368.22C365.343 344.392 363.03 342.022 363.03 339.144V319.339Z" fill="#E87B50"/>
<path d="M266.658 284.018V285.542L258.815 301.171H256.276L264.119 285.993V285.937H255.26V284.018H266.658Z" fill="white"/>
<path fill-rule="evenodd" clip-rule="evenodd" d="M294.588 296.826C294.588 294.682 295.942 293.159 298.199 292.256L298.142 292.143C296.168 291.24 295.321 289.773 295.321 288.306C295.321 285.598 297.691 283.736 300.907 283.736C304.405 283.736 306.154 285.824 306.154 287.968C306.154 289.435 305.365 290.958 303.164 291.974V292.03C305.421 292.877 306.775 294.4 306.775 296.488C306.775 299.478 304.123 301.453 300.681 301.453C296.901 301.453 294.588 299.309 294.588 296.826ZM304.349 296.714C304.349 294.626 302.769 293.61 300.343 292.99C298.255 293.554 297.127 294.852 297.127 296.488C297.014 298.237 298.424 299.76 300.738 299.76C302.882 299.76 304.349 298.463 304.349 296.714ZM297.578 288.137C297.578 289.886 298.989 290.789 301.02 291.297C302.6 290.789 303.785 289.773 303.785 288.194C303.785 286.839 302.938 285.429 300.738 285.429C298.707 285.429 297.578 286.67 297.578 288.137Z" fill="white"/>
<path fill-rule="evenodd" clip-rule="evenodd" d="M306.832 329.213C306.832 335.082 304.518 338.298 300.569 338.298C297.014 338.298 294.644 335.138 294.588 329.496C294.588 323.74 297.183 320.581 300.851 320.581C304.631 320.581 306.832 323.797 306.832 329.213ZM297.014 329.496C297.014 333.953 298.481 336.492 300.681 336.492C303.164 336.492 304.405 333.727 304.405 329.326C304.405 325.151 303.22 322.386 300.738 322.386C298.594 322.386 297.014 324.812 297.014 329.496Z" fill="white"/>
<path fill-rule="evenodd" clip-rule="evenodd" d="M336.567 299.535C337.075 299.591 337.695 299.535 338.542 299.478C339.952 299.253 341.306 298.745 342.322 297.786C343.507 296.77 344.353 295.247 344.692 293.215H344.635C343.62 294.4 342.153 295.077 340.347 295.077C337.131 295.077 335.043 292.764 335.043 289.83C335.043 286.614 337.526 283.736 341.194 283.736C344.861 283.736 347.174 286.614 347.174 290.958C347.174 294.739 345.82 297.391 344.071 299.027C342.661 300.325 340.742 301.115 338.824 301.284C337.921 301.453 337.131 301.453 336.567 301.453V299.535ZM337.47 289.661C337.47 291.805 338.824 293.272 340.911 293.272C342.548 293.272 343.845 292.538 344.466 291.523C344.635 291.297 344.692 291.015 344.692 290.676C344.692 287.742 343.563 285.485 341.024 285.485C338.937 285.485 337.47 287.234 337.47 289.661Z" fill="white"/>
<path fill-rule="evenodd" clip-rule="evenodd" d="M262.483 263.142V258.515H254.076V256.991L262.144 246.045H264.796V256.653H267.335V258.515H264.796V263.142H262.483ZM262.483 256.653V250.954C262.483 250.051 262.501 249.148 262.539 248.246H262.483C261.918 249.261 261.467 249.995 260.959 250.785L256.558 256.653H262.483Z" fill="white"/>
<path d="M305.59 247.964H298.707L298.029 252.365C298.424 252.308 298.819 252.252 299.496 252.252C300.907 252.252 302.261 252.59 303.39 253.211C304.8 253.944 305.985 255.468 305.985 257.612C305.985 260.941 303.164 263.48 299.271 263.48C297.296 263.48 295.603 262.916 294.757 262.408L295.378 260.659C296.111 261.054 297.578 261.562 299.214 261.562C301.528 261.562 303.503 260.151 303.503 257.894C303.446 255.637 301.923 254.057 298.312 254.057C297.296 254.057 296.45 254.17 295.829 254.283L296.957 246.045H305.59V247.964Z" fill="white"/>
<path fill-rule="evenodd" clip-rule="evenodd" d="M345.425 247.681C344.918 247.625 344.297 247.681 343.62 247.794C339.783 248.359 337.752 251.067 337.357 253.888H337.413C338.26 252.76 339.783 251.857 341.758 251.857C344.974 251.857 347.231 254.057 347.231 257.443C347.231 260.546 344.974 263.48 341.25 263.48C337.357 263.48 334.818 260.602 334.818 256.145C334.818 252.76 336.115 250.108 337.865 248.415C339.388 247.061 341.363 246.158 343.676 245.876C344.41 245.819 344.974 245.763 345.425 245.763V247.681ZM344.748 257.556C344.748 255.129 343.281 253.662 341.024 253.662C339.557 253.662 338.203 254.509 337.526 255.75C337.357 256.032 337.244 256.371 337.244 256.766C337.3 259.587 338.655 261.674 341.25 261.674C343.338 261.674 344.748 260.038 344.748 257.556Z" fill="white"/>
<path d="M260.226 211.796H260.169L257.066 213.376L256.558 211.627L260.508 209.595H262.595V226.748H260.226V211.796Z" fill="white"/>
<path d="M294.813 226.748V225.338L296.732 223.532C301.359 219.413 303.446 217.156 303.446 214.617C303.446 212.868 302.6 211.232 299.891 211.232C298.255 211.232 296.901 212.022 296.055 212.699L295.265 211.063C296.506 210.047 298.312 209.313 300.399 209.313C304.293 209.313 305.929 211.852 305.929 214.279C305.929 217.438 303.503 220.034 299.666 223.476L298.255 224.773V224.83H306.324V226.748H294.813Z" fill="white"/>
<path d="M335.72 224.096C336.398 224.491 338.034 225.168 339.727 225.168C342.886 225.168 343.845 223.25 343.789 221.839C343.789 219.413 341.476 218.398 339.162 218.398H337.808V216.648H339.162C340.911 216.648 343.168 215.802 343.168 213.771C343.168 212.417 342.266 211.175 340.009 211.175C338.542 211.175 337.187 211.796 336.398 212.304L335.777 210.611C336.68 209.99 338.542 209.313 340.46 209.313C344.015 209.313 345.651 211.345 345.651 213.432C345.651 215.181 344.523 216.648 342.322 217.438V217.495C344.523 217.89 346.328 219.47 346.328 221.896C346.328 224.604 344.071 227.03 339.727 227.03C337.752 227.03 335.946 226.41 335.043 225.845L335.72 224.096Z" fill="white"/>
<path d="M260.846 337.79C259.605 337.79 258.646 336.887 258.646 335.702C258.646 334.574 259.605 333.671 260.846 333.671C262.031 333.671 262.99 334.574 262.99 335.702C262.99 336.887 262.031 337.79 260.846 337.79Z" fill="white"/>
<path d="M392.99 237.187H381.536V226.297H378.602V237.187H367.148V239.951H378.602V250.841H381.536V239.951H392.99V237.187Z" fill="white"/>
<path d="M347.908 335.702L341.871 329.947L347.908 324.192L346.385 322.725L340.291 328.48L334.253 322.725L332.674 324.192L338.767 329.947L332.674 335.702L334.253 337.169L340.291 331.414L346.385 337.169L347.908 335.702Z" fill="white"/>
<path d="M369.744 291.41H388.928V294.174H369.744V291.41Z" fill="white"/>
<path d="M370.477 323.628H389.661V326.392H370.477V323.628Z" fill="white"/>
<path d="M370.477 330.624H389.661V333.445H370.477V330.624Z" fill="white"/>
<path d="M226.654 256.201C220.334 251.349 203.859 258.063 201.376 261.167C198.95 264.214 194.041 296.544 197.652 298.745C201.263 301.002 212.435 305.516 217.118 301.51C221.745 297.56 226.654 256.201 226.654 256.201Z" fill="#20407A"/>
<path d="M230.152 255.299C230.152 255.299 240.872 250.108 242.339 247.569C243.75 244.973 249.787 236.622 249.787 236.622C249.787 236.622 252.891 236.679 253.737 238.033C252.721 241.588 249.674 251.462 245.668 254.396C241.662 257.273 231.168 263.311 231.168 263.311L230.152 255.299Z" fill="#BD6B4F"/>
<path d="M252.608 241.249C251.085 240.854 249.223 240.064 247.812 239.444C248.377 238.71 248.828 238.089 248.885 237.807C249.336 236.566 246.628 231.544 247.079 231.093C247.869 230.867 249.336 233.463 249.618 233.181C249.9 232.955 250.126 227.087 251.029 227.087C251.875 227.087 251.198 231.431 251.762 231.488C252.383 231.544 252.947 231.714 253.568 231.939C254.188 232.165 254.922 232.503 255.204 232.955C255.486 233.406 255.937 234.14 254.978 235.889C253.624 238.315 253.906 237.751 253.116 240.064C253.003 240.233 252.891 240.628 252.608 241.249Z" fill="#BD6B4F"/>
<path d="M232.522 317.365C232.522 317.365 232.86 323.684 232.86 327.521C232.86 331.358 226.597 346.479 227.161 348.623C227.726 350.767 221.237 350.485 221.237 350.485C221.237 350.485 220.786 338.749 222.478 333.22C224.171 327.69 222.478 316.293 222.478 316.293L232.522 317.365Z" fill="#BD6B4F"/>
<path d="M216.78 314.318C216.78 314.318 214.692 324.756 212.999 327.126C211.306 329.496 202.053 345.802 202.053 347.833C202.053 349.921 196.298 348.228 196.298 348.228C196.298 348.228 201.207 330.455 203.125 325.038C205.1 319.678 205.833 315.164 205.833 315.164L216.78 314.318Z" fill="#BD6B4F"/>
<path d="M234.497 300.494C235.174 304.331 241.042 324.079 241.042 324.079C232.014 326.449 206.059 327.916 196.411 321.991C196.411 321.991 204.028 294.739 208.485 289.717L216.78 288.419L231.562 286.896C231.562 286.896 234.045 297.786 234.497 300.494Z" fill="#07085B"/>
<path d="M237.036 355.281H219.206C219.206 355.281 218.867 349.187 220.052 348.003C221.293 346.874 220.955 348.172 222.986 348.905C225.074 349.639 226.372 347.833 227.274 346.987C228.233 346.084 227.556 349.808 231.506 349.808C235.399 349.808 237.938 353.589 237.036 355.281Z" fill="#FAFCFF"/>
<path d="M202.279 347.213C203.181 347.382 206.059 349.639 207.018 352.065C207.977 354.435 207.752 355.338 207.752 355.338C207.752 355.338 204.761 356.579 199.119 356.184C193.477 355.789 194.323 355.225 194.323 355.225C194.323 355.225 194.718 349.695 195.733 348.003C196.693 346.366 200.642 346.818 202.279 347.213Z" fill="#FAFCFF"/>
<path d="M203.915 278.319C203.915 278.319 200.53 285.88 201.545 288.532C202.561 291.184 205.213 300.832 205.213 300.832C205.213 300.832 202.956 302.694 201.432 302.412C199.345 299.422 193.872 290.958 194.21 286.388C194.605 281.818 196.749 274.37 196.749 274.37L203.915 278.319Z" fill="#BD6B4F"/>
<path d="M199.683 299.591C200.981 298.801 202.786 298.011 204.141 297.447C204.31 298.35 204.536 299.027 204.648 299.253C205.382 300.381 210.911 301.792 210.911 302.356C210.968 302.92 207.921 302.356 207.921 302.694C207.921 303.033 212.04 306.983 211.476 307.603C210.855 308.224 207.752 304.444 207.413 304.839C207.018 305.233 210.742 309.635 209.727 309.86C208.711 310.029 206.68 305.741 206.115 305.967C205.551 306.249 207.695 310.142 207.244 310.537C206.849 310.989 206.454 310.029 205.89 309.014C205.326 307.942 204.648 306.475 204.423 306.701C204.197 306.926 205.043 309.86 204.479 310.199C203.915 310.481 201.319 302.074 200.304 300.663C200.191 300.494 199.965 300.155 199.683 299.591Z" fill="#BD6B4F"/>
<path d="M194.21 277.586C194.21 277.586 197.201 281.705 203.576 283.567C204.253 280.351 204.931 278.771 205.043 278.827C205.438 278.884 206.793 284.018 208.316 289.943C213.394 292.764 231.901 291.353 231.901 288.419C231.901 286.162 228.798 268.558 232.127 266.076C233.312 265.173 242.396 258.74 242.396 258.74C242.396 258.74 239.744 252.421 237.092 249.938C237.092 249.938 231.506 252.082 226.597 253.944C220.109 256.371 214.861 257.556 211.25 259.135C198.95 264.383 196.749 267.994 194.21 277.586Z" fill="#9BC1F9"/>
<path d="M210.855 259.305C214.184 268.784 212.435 285.711 207.639 290.733C206.285 287.629 208.993 278.094 205.043 261.957C204.931 261.11 210.517 258.402 210.855 259.305Z" fill="#466EB6"/>
<path d="M219.883 256.089C224.792 261.054 231.055 281.366 231.224 282.269C230.998 266.075 225.469 256.653 224.34 254.734C223.663 254.283 219.826 255.581 219.883 256.089Z" fill="#466EB6"/>
<path d="M219.883 252.252C219.714 255.186 220.56 257.612 221.068 258.571C221.068 258.571 217.908 261.505 212.604 259.812C212.886 257.161 212.604 254.227 211.814 250.954L219.883 252.252Z" fill="#BD6B4F"/>
<path d="M220.109 255.75C219.939 254.734 219.826 253.549 219.883 252.252L211.814 250.954C212.002 251.782 212.172 252.59 212.322 253.38C214.861 255.129 217.682 256.089 220.109 255.75Z" fill="#A1543A"/>
<path d="M220.334 237.074C223.268 239.613 227.387 248.189 223.945 252.139C219.544 257.161 211.758 253.944 207.018 247.399C202.335 240.911 215.82 233.124 220.334 237.074Z" fill="#BD6B4F"/>
<path d="M211.476 240.403C211.476 240.403 208.09 240.516 209.388 243.506C210.742 246.553 213.168 247.569 211.871 248.81C210.968 249.6 211.758 251.405 212.153 252.421C212.322 252.929 211.419 251.8 210.122 251.744C207.018 251.462 204.761 250.559 203.802 247.117C203.802 247.117 201.037 243.506 201.714 239.274C202.222 236.171 204.874 235.72 204.874 235.72C204.874 235.72 205.608 234.309 209.106 232.729C214.015 230.529 221.35 229.005 221.35 233.293C221.35 235.945 222.535 239.839 211.476 240.403Z" fill="#0E2E35"/>
<path d="M207.526 237.694C202.73 230.811 193.251 233.971 192.292 238.936C191.445 243.168 187.778 245.086 181.628 245.312C173.39 245.65 176.098 256.822 180.894 257.443C175.534 266.019 193.872 271.323 193.307 262.859C200.022 261.731 203.181 258.233 201.827 253.662C200.473 249.092 199.796 237.356 204.366 239.444C209.162 240.854 207.526 237.694 207.526 237.694Z" fill="#0E2E35"/>
<path d="M212.435 246.44C212.153 246.327 208.937 244.973 207.921 246.609C207.075 247.964 208.655 250.785 211.137 250.785C213.563 250.785 215.482 247.907 212.435 246.44Z" fill="#BD6B4F"/>
<path d="M219.206 355.281C219.206 355.281 219.149 353.983 219.206 352.516C221.293 353.363 232.691 353.25 236.866 353.137C237.261 353.927 237.318 354.717 237.036 355.281H219.206Z" fill="#466EB6"/>
<path d="M199.119 356.184C193.477 355.789 194.323 355.225 194.323 355.225C194.323 355.225 194.436 353.927 194.661 352.404C198.555 355.733 204.705 354.04 207.413 353.081C207.921 354.717 207.752 355.338 207.752 355.338C207.752 355.338 204.761 356.579 199.119 356.184Z" fill="#466EB6"/>
<path d="M447.439 335.477C447.439 335.477 448.398 342.022 450.148 344.166C450.712 344.899 451.784 345.746 452.461 347.043C453.533 349.075 452.912 352.065 452.122 353.701C451.727 354.548 452.179 354.548 451.22 354.773C448.511 355.62 445.577 354.266 444.449 351.727C443.772 350.372 443.207 348.51 443.095 346.141C442.813 340.16 440.838 337.169 440.838 337.169L447.439 335.477Z" fill="#BD6B4F"/>
<path d="M417.478 338.467C417.478 338.467 416.858 345.858 417.365 348.285C417.591 349.582 419.115 352.234 418.437 353.476C417.76 354.661 416.97 354.943 416.97 354.943L399.253 355.225C398.294 355.225 398.915 354.661 399.705 354.096C401.003 353.25 402.018 352.629 406.081 350.767C406.363 350.654 407.322 350.09 407.661 349.865C408.507 349.357 409.41 348.567 410.2 347.72C411.441 346.366 411.554 339.878 411.554 339.878L417.478 338.467Z" fill="#BD6B4F"/>
<path d="M403.655 239.951C403.655 239.951 401.398 252.026 402.865 259.869C404.332 267.768 411.328 340.893 411.328 340.893L419.171 341.288C419.171 341.288 420.807 310.763 420.469 306.531C420.187 302.299 417.873 295.19 417.873 295.19L418.663 270.533L408.846 238.146L403.655 239.951Z" fill="#13375B"/>
<path d="M426.563 237.469C426.563 237.469 432.713 246.271 434.18 253.549C435.647 260.828 433.108 283.172 435.929 292.707C437.452 297.898 443.207 305.854 444.054 312.512C444.957 319.227 448.398 336.718 448.398 336.718L440.612 338.185L422.5 294.513L408.281 255.016L404.614 234.704L426.563 237.469Z" fill="#355389"/>
<path d="M443.885 350.429C448.116 351.162 450.994 348.793 452.461 347.043C453.533 349.018 454.041 352.009 453.251 353.701C452.574 355.112 450.486 355.112 448.906 355.168C447.214 355.225 445.859 354.322 445.013 352.911C444.618 352.234 444.223 351.444 443.885 350.429Z" fill="#355389"/>
<path d="M407.661 349.865C412.344 350.993 415.786 350.203 417.704 349.47C418.212 350.824 418.889 352.516 418.55 353.476C418.099 354.661 417.478 354.943 416.97 354.943C412.682 355.056 401.285 355.225 398.069 355.281C397.561 355.281 397.335 354.773 397.617 354.435C398.464 353.532 407.322 350.09 407.661 349.865Z" fill="#355389"/>
<path d="M402.075 175.459C401.849 170.268 402.639 165.19 405.122 160.394C407.209 156.219 412.4 153.905 417.14 153.905C432.205 153.849 434.123 172.694 443.715 179.973C446.649 182.174 449.922 183.979 452.687 186.405C462.956 195.207 458.329 211.57 448.906 219.357C442.418 224.717 432.148 227.764 424.08 223.589C419.904 221.388 416.745 217.72 414.431 213.714C411.215 208.072 409.128 201.527 406.871 195.49C404.444 189.057 402.357 182.343 402.075 175.459Z" fill="#0E2E35"/>
<path d="M409.353 191.709C409.353 191.709 411.667 194.812 410.708 199.439C409.748 204.01 395.191 218.285 393.329 219.187C391.354 220.147 390.113 219.808 389.21 219.3C381.536 215.181 370.703 193.12 369.405 191.54C368.333 190.186 368.333 190.186 368.333 190.186L369.405 186.462L390.621 208.58C390.621 208.58 407.999 190.186 409.353 191.709Z" fill="#BD6B4F"/>
<path d="M411.949 187.929C411.949 187.929 410.256 188.549 409.805 188.832C406.419 190.863 395.304 202.26 395.304 202.26C395.304 202.26 401.115 208.241 403.711 210.78L418.494 200.229L411.949 187.929Z" fill="#6E9DE0"/>
<path d="M422.387 185.954C422.387 185.954 431.076 185.446 434.518 188.944C437.96 192.499 426.901 220.429 426.28 224.943C425.66 229.4 429.44 241.362 429.44 241.362C429.44 241.362 409.071 245.255 403.26 241.588C403.26 241.588 402.639 209.257 403.26 206.097C403.88 202.881 409.071 189.791 410.313 188.549C411.554 187.252 422.387 185.954 422.387 185.954Z" fill="#9BC1F9"/>
<path d="M419.51 175.008C419.51 175.008 419.566 175.234 419.622 175.685C420.017 177.66 421.541 184.148 422.5 185.954C423.741 188.155 418.381 195.038 413.19 194.192C411.667 193.966 414.488 187.872 414.375 187.195C414.093 185.954 413.754 184.261 413.359 182.512C413.19 181.553 412.964 180.594 412.739 179.635C412.231 176.983 411.78 174.839 411.78 174.839L419.51 175.008Z" fill="#BD6B4F"/>
<path d="M419.622 175.685C419.566 175.234 419.51 175.008 419.51 175.008L411.78 174.839C411.78 174.839 412.231 176.983 412.739 179.635C412.964 180.594 413.19 181.553 413.359 182.512C414.544 182.343 415.842 181.779 417.083 180.763C418.438 179.635 419.34 178.28 419.905 176.813C419.792 176.362 419.698 175.986 419.622 175.685Z" fill="#A1543A"/>
<path d="M414.319 158.363C414.319 158.363 417.93 157.968 420.243 160.789C422.556 163.554 424.983 172.243 419.34 176.926C413.642 181.609 407.999 176.306 407.153 170.663C406.306 165.021 406.024 158.137 414.319 158.363Z" fill="#BD6B4F"/>
<path d="M405.46 170.55C406.137 171.792 407.322 172.525 407.999 172.13C408.733 171.735 408.789 170.381 408.112 169.14C407.435 167.898 406.306 167.221 405.573 167.616C404.839 168.011 404.783 169.309 405.46 170.55Z" fill="#BD6B4F"/>
<path d="M413.867 157.46C413.867 157.46 418.776 165.698 422.274 166.036C425.773 166.431 426.224 170.776 426.224 170.776C426.224 170.776 424.983 160.733 421.484 158.758C418.043 156.839 413.867 157.46 413.867 157.46Z" fill="#0E2E35"/>
<path d="M421.372 168.124C421.089 169.591 421.654 171.002 422.613 171.171C423.628 171.397 424.644 170.268 424.926 168.801C425.208 167.334 424.644 166.036 423.628 165.811C422.669 165.642 421.654 166.657 421.372 168.124Z" fill="#BD6B4F"/>
<path d="M397.504 237.751L420.469 238.259L421.654 208.128L397.391 208.241L397.504 237.751Z" fill="#F47458"/>
<path d="M397.448 221.049C397.504 220.937 399.253 221.727 400.664 221.444C400.946 221.388 399.931 220.598 399.761 220.372C399.761 220.316 397.73 219.131 397.899 218.285C398.069 217.438 399.818 218.003 399.818 218.003C399.818 218.003 404.727 220.147 405.46 220.824C406.137 221.501 406.419 222.009 406.476 222.065C406.777 222.14 407.04 222.197 407.266 222.234C411.78 222.799 419.227 221.783 430.569 220.09V214.504C432.995 214.617 437.17 214.222 439.089 214.053C438.976 218.285 439.032 225.733 438.073 227.143C437.396 228.159 431.415 228.836 424.757 229.287C416.293 229.908 414.093 229.457 406.701 229.005C404.501 228.836 401.398 229.457 400.269 229.457C398.52 229.513 397.899 229.682 397.053 228.836C396.319 228.102 396.376 226.297 396.545 225.168C396.771 223.081 396.827 222.291 397.448 221.049Z" fill="#BD6B4F"/>
<path d="M430.286 186.744C430.286 186.744 435.195 187.59 437.565 191.709C439.089 194.417 440.781 207 440.273 216.366C436.944 215.689 431.415 215.576 427.973 215.576C428.142 207.169 428.594 186.462 430.286 186.744Z" fill="#6E9DE0"/>
<path d="M385.655 204.235C385.655 204.235 374.032 190.581 371.719 188.437C369.405 186.293 360.095 180.029 359.813 180.65C359.531 181.327 364.891 186.236 364.835 186.462C364.722 186.631 363.876 188.042 363.537 188.775C363.255 189.565 363.199 191.371 363.424 191.935C363.707 192.499 365.625 193.458 366.641 193.853C367.713 194.192 369.293 194.023 370.534 195.095C371.832 196.167 381.988 210.442 381.988 210.442L385.655 204.235Z" fill="#BD6B4F"/>
<path d="M303.841 349.639C298.255 364.591 291.089 378.697 291.089 378.697C334.197 379.882 359.136 359.005 366.133 338.016C371.719 320.976 366.584 310.932 366.584 310.932C353.381 333.05 332.391 346.141 332.391 346.141C347.118 332.542 362.409 307.265 362.409 307.265C328.724 302.074 313.264 324.417 303.841 349.639Z" fill="#296E0E"/>
<path d="M358.911 363.576C362.24 377.907 363.876 392.352 363.876 392.352C397.674 371.362 406.194 342.642 400.89 322.894C396.545 306.983 387.517 301.848 387.517 301.848C388.533 325.602 379.11 346.31 379.11 346.31C383.455 328.367 382.383 301.171 382.383 301.171C353.889 314.261 353.325 339.37 358.911 363.576Z" fill="#50A31A"/>
<path d="M405.517 347.551C412.739 357.707 418.663 368.484 418.663 368.484C438.299 341.232 435.816 315.954 425.265 302.243C416.801 291.184 408.056 290.112 408.056 290.112C416.519 308.337 415.786 327.577 415.786 327.577C413.416 312.117 403.824 291.24 403.824 291.24C385.712 310.65 393.385 330.398 405.517 347.551Z" fill="#92E537"/>
<path d="M207.526 296.883C193.025 303.541 178.016 308.393 178.016 308.393C207.639 339.765 240.026 342.586 259.774 332.655C275.799 324.643 279.24 313.866 279.24 313.866C254.245 320.186 230.208 314.6 230.208 314.6C250.239 315.39 278.902 308.337 278.902 308.337C258.759 280.858 232.014 285.654 207.526 296.883Z" fill="#296E0E"/>
<path d="M236.641 345.689C228.854 358.102 219.77 369.5 219.77 369.5C258.477 378.584 284.883 364.309 295.039 346.592C303.277 332.26 300.456 322.273 300.456 322.273C284.431 339.821 263.103 347.72 263.103 347.72C278.902 338.185 297.352 318.155 297.352 318.155C267.899 307.265 249.787 324.587 236.641 345.689Z" fill="#50A31A"/>
<path d="M280.933 367.3C278.845 379.543 275.404 391.392 275.404 391.392C308.581 385.976 324.661 366.397 326.918 349.244C328.724 335.42 323.307 328.48 323.307 328.48C316.424 347.326 302.261 360.416 302.261 360.416C311.515 347.833 319.527 326.28 319.527 326.28C293.008 327.182 284.431 346.592 280.933 367.3Z" fill="#92E537"/>
<path d="M334.931 64.3611C340.46 49.4089 347.682 35.3594 347.682 35.3594C304.518 34.1181 279.635 54.9948 272.639 76.0408C267.053 93.0243 272.188 103.068 272.188 103.068C285.391 80.9497 306.324 67.8594 306.324 67.8594C291.654 81.4575 276.363 106.735 276.363 106.735C309.991 111.926 325.508 89.5825 334.931 64.3611Z" fill="#296E0E"/>
<path d="M279.861 50.4245C276.532 36.1493 274.896 21.6484 274.896 21.6484C241.098 42.638 232.522 71.3576 237.882 91.1059C242.17 107.017 251.254 112.152 251.254 112.152C250.182 88.3976 259.661 67.6901 259.661 67.6901C255.26 85.6328 256.389 112.829 256.389 112.829C284.883 99.7387 285.447 74.6302 279.861 50.4245Z" fill="#50A31A"/>
<path d="M233.255 66.4488C226.033 56.349 220.109 45.5156 220.109 45.5156C200.417 72.8247 202.956 98.046 213.451 111.757C221.97 122.816 230.716 123.888 230.716 123.888C222.253 105.663 222.986 86.4227 222.986 86.4227C225.356 101.883 234.948 122.816 234.948 122.816C253.003 103.406 245.386 83.6016 233.255 66.4488Z" fill="#92E537"/>
<path d="M431.246 117.117C445.746 110.516 460.755 105.607 460.755 105.607C431.133 74.2917 398.746 71.4141 378.941 81.3446C362.973 89.3568 359.475 100.134 359.475 100.134C384.527 93.8142 408.563 99.4002 408.563 99.4002C388.533 98.6103 359.87 105.663 359.87 105.663C379.957 133.142 406.758 128.346 431.246 117.117Z" fill="#296E0E"/>
<path d="M402.131 68.3672C409.918 55.8976 419.002 44.5 419.002 44.5C380.239 35.4158 353.889 49.691 343.733 67.408C335.495 81.7396 338.26 91.783 338.26 91.783C354.34 74.1788 375.668 66.2795 375.668 66.2795C359.87 75.8715 341.419 95.8455 341.419 95.8455C370.872 106.735 388.984 89.4132 402.131 68.3672Z" fill="#50A31A"/>
<path d="M357.839 46.7005C359.926 34.4566 363.368 22.6076 363.368 22.6076C330.191 28.0243 314.11 47.6033 311.853 64.7561C310.048 78.5799 315.464 85.52 315.464 85.52C322.348 66.6745 336.454 53.5842 336.454 53.5842C327.2 66.1667 319.245 87.7205 319.245 87.7205C345.707 86.8177 354.34 67.408 357.839 46.7005Z" fill="#92E537"/>
<path d="M229.475 95.112C222.873 80.6675 218.021 65.6024 218.021 65.6024C186.649 95.2248 183.772 127.612 193.702 147.417C201.771 163.441 212.491 166.883 212.491 166.883C206.228 141.887 211.814 117.851 211.814 117.851C211.024 137.825 218.077 166.488 218.077 166.488C245.556 146.401 240.703 119.656 229.475 95.112Z" fill="#296E0E"/>
<path d="M180.725 124.227C168.255 116.497 156.858 107.412 156.858 107.412C147.773 146.119 162.049 172.525 179.766 182.681C194.097 190.863 204.141 188.098 204.141 188.098C186.593 172.074 178.637 150.746 178.637 150.746C188.229 166.488 208.26 184.995 208.26 184.995C219.149 155.542 201.827 137.43 180.725 124.227Z" fill="#50A31A"/>
<path d="M159.115 168.519C146.814 166.431 135.022 162.99 135.022 162.99C140.382 196.223 160.017 212.247 177.114 214.504C190.994 216.366 197.934 210.95 197.934 210.95C179.032 204.01 165.998 189.904 165.998 189.904C178.524 199.157 200.135 207.169 200.135 207.169C199.175 180.65 179.822 172.074 159.115 168.519Z" fill="#92E537"/>
</svg>
