<svg width="203" height="200" viewBox="0 0 203 200" fill="none" xmlns="http://www.w3.org/2000/svg">
<path d="M86.4 5.75001C60.3 22.3 30.8 45.95 9.65 69.35C6.35 73 5 78 5.9 82.85C13.85 125 25.05 166.5 39.75 191.3C42.5 195.95 47.4 198.85 52.8 199.05C95.05 200.5 134.55 200.85 158.5 194.5C162.9 193.35 166.65 190.35 168.65 186.25C185.5 151.85 197.7 117.4 202.75 82.95C203.45 77.95 201.75 72.95 198.15 69.45C173.75 45.65 150.5 21.85 117.05 4.35001C107.35 -0.749986 95.65 -0.0999923 86.4 5.75001Z" fill="#C3D498"/>
<path d="M94 195.8H92.3C91.8 195.8 91.45 195.45 91.45 194.95C91.45 194.5 91.8 194.1 92.3 194.1H94V194.95V195.8ZM99.2 195.8C98.75 195.8 98.35 195.45 98.35 194.95C98.35 194.5 98.7 194.1 99.2 194.1H100.9C101.3 194.1 101.8 194.45 101.8 194.95C101.8 195.4 101.4 195.8 100.95 195.8H99.2ZM87.1 195.75H85.4C84.9 195.75 84.55 195.35 84.55 194.9C84.55 194.4 84.9 194.1 85.4 194.05H87.1V194.9V195.75ZM106.1 195.75C105.65 195.75 105.25 195.35 105.25 194.9C105.25 194.4 105.6 194 106.1 194H107.8C108.3 194 108.7 194.35 108.7 194.8C108.7 195.3 108.3 195.7 107.85 195.7L106.1 195.75ZM80.25 195.65C80.2167 195.65 80.2 195.65 80.2 195.65L78.5 195.6C78.05 195.6 77.65 195.2 77.65 194.75C77.65 194.3 78.05 193.85 78.5 193.9L80.25 193.95C80.7 193.95 81.1 194.35 81.1 194.8C81.1 195.3 80.7 195.65 80.25 195.65ZM113 195.55C112.55 195.55 112.15 195.2 112.15 194.75C112.15 194.25 112.5 193.85 112.95 193.85L114.7 193.8C115.15 193.8 115.55 194.15 115.6 194.6C115.6 195.1 115.25 195.5 114.75 195.5L113.05 195.55C113.017 195.55 113 195.55 113 195.55ZM73.35 195.5C73.3167 195.5 73.3 195.5 73.3 195.5L71.65 195.45C71.15 195.45 70.75 195.05 70.75 194.6C70.8 194.1 71.1 193.75 71.65 193.75L73.35 193.8C73.85 193.8 74.2 194.2 74.2 194.65C74.2 195.15 73.8 195.5 73.35 195.5ZM66.45 195.3C66.4167 195.3 66.4 195.3 66.4 195.3L64.7 195.25C64.2 195.25 63.85 194.85 63.85 194.4C63.85 193.9 64.25 193.6 64.75 193.55L66.45 193.6C66.95 193.6 67.3 194 67.3 194.5C67.3 194.95 66.9 195.3 66.45 195.3ZM119.9 195.3C119.45 195.3 119.05 194.95 119.05 194.5C119 194 119.4 193.6 119.85 193.6L121.6 193.5C122.05 193.45 122.45 193.85 122.5 194.3C122.5 194.8 122.15 195.2 121.65 195.2L119.95 195.3C119.917 195.3 119.9 195.3 119.9 195.3ZM59.55 195.1C59.5167 195.1 59.5 195.1 59.5 195.1L57.85 195.05C57.35 195.05 56.95 194.65 57 194.15C57 193.7 57.4 193.35 57.85 193.35L59.55 193.4C60.05 193.4 60.4 193.8 60.4 194.3C60.4 194.75 60 195.1 59.55 195.1ZM126.8 194.9C126.35 194.9 125.95 194.55 125.95 194.1C125.9 193.6 126.25 193.2 126.75 193.2L128.45 193.05C128.9 193.05 129.35 193.35 129.35 193.85C129.4 194.3 129.05 194.75 128.55 194.75L126.85 194.9C126.817 194.9 126.8 194.9 126.8 194.9ZM52.65 194.6C52.5833 194.6 52.5333 194.6 52.5 194.6C51.9 194.467 51.3 194.3 50.7 194.1C50.3 193.95 50.05 193.45 50.2 193C50.35 192.55 50.85 192.35 51.3 192.5C51.8 192.667 52.3167 192.8 52.85 192.9C53.3 193 53.6 193.5 53.5 193.95C53.4 194.35 53.05 194.6 52.65 194.6ZM133.65 194.3C133.2 194.3 132.85 194 132.8 193.55C132.75 193.1 133.1 192.65 133.6 192.6C134.167 192.567 134.733 192.517 135.3 192.45C135.75 192.4 136.2 192.75 136.25 193.2C136.3 193.65 135.95 194.1 135.45 194.15C134.883 194.217 134.317 194.267 133.75 194.3C133.717 194.3 133.683 194.3 133.65 194.3ZM140.5 193.55C140.1 193.55 139.7 193.25 139.65 192.8C139.6 192.35 139.95 191.9 140.4 191.85C140.967 191.783 141.533 191.7 142.1 191.6C142.55 191.55 143 191.85 143.05 192.35C143.15 192.8 142.8 193.25 142.35 193.3C141.783 193.4 141.217 193.483 140.65 193.55C140.583 193.55 140.533 193.55 140.5 193.55ZM147.35 192.5C146.95 192.5 146.55 192.2 146.5 191.8C146.4 191.35 146.7 190.9 147.2 190.8C147.767 190.7 148.317 190.6 148.85 190.5C149.35 190.4 149.8 190.7 149.85 191.15C149.95 191.65 149.65 192.1 149.2 192.2C148.633 192.3 148.067 192.4 147.5 192.5C147.433 192.5 147.383 192.5 147.35 192.5ZM46.5 191.65C46.3 191.65 46.1 191.6 45.95 191.45C45.4833 191.083 45.0333 190.683 44.6 190.25C44.3 189.9 44.3 189.35 44.6 189.05C44.95 188.7 45.5 188.7 45.85 189.05C46.2167 189.417 46.6167 189.783 47.05 190.15C47.4 190.45 47.45 190.95 47.15 191.35C47 191.55 46.75 191.65 46.5 191.65ZM154.1 191.1C153.7 191.1 153.35 190.85 153.25 190.45C153.15 190 153.45 189.5 153.9 189.4C154.467 189.267 155.017 189.133 155.55 189C156 188.85 156.45 189.15 156.6 189.6C156.7 190.05 156.45 190.55 156 190.65C155.433 190.783 154.867 190.933 154.3 191.1C154.233 191.1 154.167 191.1 154.1 191.1ZM160.45 188.55C160.2 188.55 159.9 188.45 159.75 188.2C159.5 187.8 159.6 187.25 160 187C160.433 186.7 160.85 186.367 161.25 186C161.65 185.7 162.15 185.75 162.5 186.1C162.8 186.45 162.75 187 162.4 187.3C161.933 187.7 161.45 188.067 160.95 188.4C160.783 188.5 160.617 188.55 160.45 188.55ZM42.2 186.3C41.95 186.3 41.65 186.15 41.5 185.9C41.2 185.4 40.9 184.883 40.6 184.35C40.4 183.95 40.55 183.45 40.95 183.2C41.35 182.95 41.9 183.1 42.15 183.55C42.4167 184.05 42.6833 184.533 42.95 185C43.2 185.45 43.05 185.95 42.65 186.2C42.5167 186.267 42.3667 186.3 42.2 186.3ZM165.1 183.55C164.933 183.55 164.783 183.517 164.65 183.45C164.25 183.2 164.1 182.65 164.35 182.25C164.483 182.05 164.6 181.833 164.7 181.6L165.1 180.75C165.3 180.35 165.85 180.15 166.25 180.35C166.65 180.6 166.85 181.1 166.65 181.5L166.25 182.35C166.117 182.583 165.983 182.833 165.85 183.1C165.7 183.4 165.4 183.55 165.1 183.55ZM38.95 180.25C38.65 180.25 38.35 180.05 38.2 179.75C37.9333 179.25 37.6833 178.733 37.45 178.2C37.2 177.8 37.4 177.25 37.8 177.05C38.25 176.85 38.75 177 38.95 177.45C39.2167 177.983 39.4833 178.5 39.75 179C39.95 179.4 39.75 179.9 39.35 180.15C39.2167 180.217 39.0833 180.25 38.95 180.25ZM168.1 177.35C168 177.35 167.883 177.317 167.75 177.25C167.3 177.05 167.15 176.55 167.35 176.1L168.05 174.55C168.25 174.1 168.8 173.95 169.2 174.15C169.65 174.35 169.85 174.85 169.65 175.25L168.9 176.85C168.75 177.15 168.45 177.35 168.1 177.35ZM36 174C35.7 174 35.35 173.8 35.2 173.5C34.9667 172.967 34.7333 172.433 34.5 171.9C34.35 171.45 34.55 170.95 34.95 170.75C35.4 170.6 35.9 170.8 36.1 171.2C36.3333 171.733 36.5667 172.267 36.8 172.8C37 173.2 36.8 173.7 36.35 173.9C36.25 173.967 36.1333 174 36 174ZM171 171.05C170.9 171.05 170.783 171.033 170.65 171C170.25 170.8 170.05 170.3 170.25 169.85L170.95 168.3C171.15 167.85 171.65 167.65 172.1 167.85C172.5 168.05 172.7 168.55 172.5 169L171.8 170.55C171.65 170.9 171.35 171.05 171 171.05ZM33.3 167.65C32.95 167.65 32.65 167.45 32.5 167.1C32.3 166.567 32.0833 166.033 31.85 165.5C31.7 165.05 31.9 164.55 32.35 164.4C32.75 164.2 33.3 164.45 33.45 164.85C33.65 165.383 33.8667 165.917 34.1 166.45C34.25 166.9 34.05 167.4 33.65 167.6C33.5167 167.633 33.4 167.65 33.3 167.65ZM173.85 164.75C173.717 164.75 173.6 164.733 173.5 164.7C173.05 164.5 172.85 164 173.05 163.55L173.75 161.95C173.95 161.55 174.45 161.35 174.85 161.55C175.3 161.7 175.5 162.2 175.3 162.65L174.65 164.25C174.5 164.55 174.15 164.75 173.85 164.75ZM30.8 161.2C30.45 161.2 30.15 161 30 160.65L29.4 159.05C29.25 158.6 29.45 158.1 29.9 157.95C30.35 157.75 30.85 158 31 158.45L31.6 160.05C31.75 160.5 31.55 161 31.1 161.15C31 161.183 30.9 161.2 30.8 161.2ZM176.55 158.4C176.45 158.4 176.333 158.383 176.2 158.35C175.8 158.15 175.6 157.65 175.75 157.2L176.45 155.65C176.6 155.2 177.1 155 177.55 155.15C178 155.35 178.2 155.85 178 156.3L177.35 157.9C177.2 158.2 176.9 158.4 176.55 158.4ZM28.5 154.7C28.15 154.7 27.8 154.5 27.65 154.15L27.1 152.5C26.95 152.05 27.2 151.55 27.65 151.4C28.1 151.25 28.6 151.5 28.75 151.95L29.3 153.6C29.45 154 29.2 154.5 28.75 154.65C28.65 154.683 28.5667 154.7 28.5 154.7ZM179.15 152C179.05 152 178.95 151.983 178.85 151.95C178.4 151.8 178.2 151.3 178.35 150.85L179 149.25C179.15 148.8 179.65 148.55 180.1 148.75C180.55 148.9 180.75 149.4 180.6 149.85L179.95 151.45C179.8 151.8 179.5 152 179.15 152ZM26.3 148.15C25.95 148.15 25.6 147.95 25.5 147.55L25 145.9C24.85 145.45 25.1 145 25.55 144.85C26 144.7 26.5 144.95 26.6 145.4L27.15 147.05C27.3 147.5 27.05 148 26.6 148.1C26.5 148.133 26.4 148.15 26.3 148.15ZM181.65 145.55C181.55 145.55 181.45 145.533 181.35 145.5C180.9 145.35 180.7 144.85 180.85 144.4L181.45 142.8C181.6 142.35 182.1 142.1 182.55 142.3C183 142.45 183.25 142.95 183.05 143.4L182.45 145C182.35 145.35 182 145.55 181.65 145.55ZM24.3 141.55C23.9 141.55 23.55 141.35 23.45 140.95L22.95 139.3C22.85 138.85 23.1 138.35 23.55 138.25C24 138.1 24.5 138.35 24.6 138.8L25.1 140.45C25.25 140.9 25 141.4 24.55 141.55C24.45 141.55 24.3667 141.55 24.3 141.55ZM184 139.1C183.933 139.1 183.85 139.083 183.75 139.05C183.3 138.9 183.05 138.4 183.2 137.95L183.8 136.3C183.95 135.85 184.45 135.65 184.9 135.8C185.3 135.95 185.55 136.45 185.4 136.9L184.85 138.5C184.7 138.85 184.35 139.1 184 139.1ZM22.35 134.95C22 134.95 21.65 134.7 21.55 134.3L21.1 132.65C20.95 132.2 21.2 131.7 21.7 131.6C22.15 131.5 22.6 131.75 22.75 132.2L23.2 133.85C23.3 134.3 23.05 134.8 22.6 134.9C22.5333 134.933 22.45 134.95 22.35 134.95ZM186.25 132.55C186.183 132.55 186.1 132.533 186 132.5C185.55 132.35 185.3 131.85 185.45 131.4L186 129.8C186.15 129.35 186.6 129.1 187.05 129.25C187.5 129.4 187.75 129.85 187.6 130.3L187.05 131.95C186.95 132.3 186.6 132.55 186.25 132.55ZM20.55 128.3C20.2 128.3 19.85 128.05 19.75 127.65L19.3 125.95C19.2 125.5 19.45 125.05 19.9 124.9C20.35 124.8 20.85 125.1 20.95 125.55L21.4 127.2C21.5 127.65 21.25 128.15 20.8 128.25C20.7 128.283 20.6167 128.3 20.55 128.3ZM188.35 125.95C188.283 125.983 188.2 125.983 188.1 125.95C187.65 125.8 187.4 125.3 187.55 124.85L188.05 123.2C188.2 122.75 188.65 122.5 189.1 122.65C189.6 122.8 189.85 123.25 189.7 123.7L189.2 125.35C189.1 125.75 188.75 125.95 188.35 125.95ZM18.85 121.6C18.45 121.6 18.1 121.35 18 120.95L17.6 119.25C17.5 118.8 17.75 118.35 18.25 118.25C18.7 118.1 19.15 118.4 19.25 118.85L19.7 120.55C19.8 121 19.5 121.45 19.05 121.55C18.9833 121.583 18.9167 121.6 18.85 121.6ZM190.35 119.35C190.25 119.35 190.167 119.333 190.1 119.3C189.65 119.2 189.35 118.7 189.5 118.25L189.95 116.6C190.1 116.15 190.55 115.9 191.05 116C191.5 116.15 191.75 116.6 191.6 117.05L191.15 118.75C191.05 119.1 190.7 119.35 190.35 119.35ZM17.2 114.9C16.85 114.9 16.5 114.6 16.4 114.25L16 112.55C15.9 112.1 16.15 111.6 16.65 111.5C17.1 111.4 17.55 111.7 17.65 112.15L18.05 113.85C18.15 114.3 17.9 114.75 17.4 114.85C17.3333 114.883 17.2667 114.9 17.2 114.9ZM192.15 112.7C192.083 112.7 192 112.683 191.9 112.65C191.45 112.55 191.2 112.1 191.3 111.6L191.75 109.95C191.85 109.5 192.3 109.2 192.8 109.35C193.25 109.45 193.5 109.9 193.4 110.35L192.95 112.05C192.85 112.45 192.5 112.7 192.15 112.7ZM15.7 108.15C15.3 108.15 14.95 107.9 14.85 107.5L14.45 105.8C14.35 105.35 14.65 104.9 15.1 104.8C15.6 104.7 16.05 104.95 16.15 105.45L16.5 107.1C16.6 107.6 16.35 108.05 15.85 108.15C15.7833 108.15 15.7333 108.15 15.7 108.15ZM193.8 106C193.733 106 193.667 105.983 193.6 105.95C193.15 105.85 192.85 105.4 192.95 104.95L193.35 103.25C193.45 102.8 193.9 102.5 194.35 102.6C194.85 102.7 195.1 103.15 195 103.65L194.6 105.3C194.55 105.7 194.2 106 193.8 106ZM14.2 101.4C13.8 101.4 13.45 101.15 13.35 100.75L13 99.0499C12.9 98.5499 13.2 98.1 13.65 98C14.15 97.95 14.6 98.2 14.7 98.7L15.05 100.35C15.15 100.85 14.85 101.3 14.4 101.4C14.3333 101.4 14.2667 101.4 14.2 101.4ZM195.25 99.25C195.217 99.25 195.167 99.2333 195.1 99.2C194.65 99.15 194.35 98.7 194.45 98.2L194.75 96.5C194.85 96.05 195.35 95.75 195.8 95.85C196.25 95.95 196.55 96.4 196.45 96.85L196.1 98.5499C196.05 98.95 195.65 99.25 195.25 99.25ZM12.8 94.65C12.4 94.65 12.05 94.35 11.95 93.95L11.6 92.25C11.55 91.8 11.85 91.35 12.3 91.25C12.75 91.15 13.2 91.45 13.3 91.95L13.65 93.6C13.75 94.1 13.45 94.55 12.95 94.65C12.9167 94.65 12.8667 94.65 12.8 94.65ZM196.6 92.45C196.533 92.45 196.467 92.45 196.4 92.45C195.95 92.35 195.65 91.9 195.75 91.45L196 89.75C196.1 89.3 196.55 88.95 197 89.0499C197.5 89.1499 197.8 89.6 197.7 90.0499L197.4 91.75C197.35 92.15 197 92.45 196.6 92.45ZM11.45 87.85C11.05 87.85 10.7 87.6 10.6 87.2L10.3 85.5C10.2 85 10.5 84.55 10.95 84.5C11.45 84.4 11.9 84.7 12 85.15L12.3 86.85C12.4 87.3 12.1 87.75 11.6 87.85C11.5667 87.85 11.5167 87.85 11.45 87.85ZM197.7 85.65C197.667 85.65 197.617 85.65 197.55 85.65C197.1 85.55 196.8 85.15 196.85 84.65L197 83.65C197.033 83.45 197.05 83.2333 197.05 83C197.1 82.55 197.55 82.2 198 82.25C198.5 82.3 198.85 82.7 198.8 83.15C198.767 83.4166 198.733 83.6666 198.7 83.9L198.55 84.9C198.5 85.35 198.1 85.65 197.7 85.65ZM10.55 81.0499C10.05 80.9999 9.7 80.6 9.7 80.15C9.73333 79.55 9.8 78.95 9.9 78.35C9.95 77.85 10.4 77.55 10.9 77.65C11.35 77.7 11.65 78.15 11.6 78.6C11.5 79.1333 11.45 79.6833 11.45 80.25C11.4 80.7 11.05 81.0499 10.55 81.0499ZM197.55 78.7999C197.15 78.7999 196.8 78.55 196.7 78.15C196.567 77.65 196.4 77.1333 196.2 76.6C196.05 76.2 196.25 75.7 196.7 75.5C197.15 75.35 197.65 75.55 197.8 76C198.033 76.5666 198.217 77.15 198.35 77.75C198.5 78.2 198.2 78.6499 197.75 78.7999C197.683 78.7999 197.617 78.7999 197.55 78.7999ZM12.4 74.45C12.2667 74.45 12.1333 74.4166 12 74.35C11.6 74.1 11.45 73.6 11.65 73.2C11.95 72.6666 12.2833 72.15 12.65 71.65C12.9 71.25 13.45 71.15 13.85 71.45C14.2 71.7 14.3 72.25 14.05 72.65C13.7167 73.0833 13.4167 73.5333 13.15 74C13 74.3 12.7 74.45 12.4 74.45ZM194.35 72.75C194.1 72.75 193.85 72.65 193.7 72.45C193.433 72.15 193.15 71.85 192.85 71.5499L192.55 71.25C192.2 70.95 192.2 70.3999 192.55 70.0499C192.9 69.7 193.4 69.7 193.75 70.0499L194.05 70.35C194.383 70.65 194.7 70.9833 195 71.35C195.3 71.7 195.25 72.2499 194.9 72.5499C194.75 72.7 194.55 72.75 194.35 72.75ZM16.75 69.1C16.55 69.1 16.35 69.05 16.15 68.9C15.8 68.55 15.8 68.05 16.15 67.7L17.3 66.4C17.65 66.05 18.2 66.05 18.5 66.4C18.85 66.7 18.9 67.25 18.55 67.6L17.4 68.85C17.2 69.05 17 69.1 16.75 69.1ZM189.45 67.9C189.25 67.9 189 67.8 188.85 67.65L187.6 66.45C187.3 66.1 187.25 65.55 187.6 65.25C187.95 64.9 188.5 64.9 188.8 65.2L190.05 66.45C190.4 66.75 190.4 67.3 190.05 67.65C189.9 67.8 189.7 67.9 189.45 67.9ZM21.5 64.15C21.3 64.15 21.1 64.05 20.9 63.9C20.6 63.55 20.6 63 20.9 62.7L22.15 61.45C22.45 61.1 23 61.1 23.35 61.45C23.7 61.8 23.7 62.3 23.35 62.65L22.15 63.9C21.95 64.05 21.75 64.15 21.5 64.15ZM184.5 63.1C184.3 63.1 184.1 63 183.9 62.85L182.7 61.65C182.35 61.3 182.35 60.75 182.65 60.4C183 60.1 183.55 60.05 183.9 60.4L185.1 61.6C185.45 61.95 185.45 62.4999 185.15 62.7999C184.95 62.9999 184.75 63.1 184.5 63.1ZM26.4 59.25C26.2 59.25 25.95 59.2 25.8 59C25.45 58.65 25.5 58.1499 25.8 57.7999L27.05 56.6C27.4 56.25 27.95 56.3 28.25 56.6C28.6 56.95 28.6 57.5 28.25 57.85L27 59.0499C26.85 59.1999 26.65 59.25 26.4 59.25ZM179.55 58.25C179.35 58.25 179.15 58.1999 178.95 58.0499L177.75 56.85C177.4 56.5 177.35 55.95 177.7 55.6C178.05 55.3 178.55 55.25 178.9 55.6L180.15 56.7999C180.5 57.1499 180.5 57.65 180.2 58C180 58.2 179.8 58.25 179.55 58.25ZM31.4 54.5C31.2 54.5 30.95 54.4 30.8 54.25C30.45 53.9 30.5 53.3499 30.85 53.0499L32.1 51.85C32.45 51.55 33 51.55 33.3 51.9C33.65 52.25 33.6 52.8 33.25 53.1L32 54.2999C31.85 54.4499 31.6 54.5 31.4 54.5ZM174.6 53.5C174.35 53.5 174.15 53.4 174 53.25L172.75 52.1C172.4 51.75 172.4 51.2 172.7 50.85C173.05 50.55 173.55 50.5 173.9 50.85L175.15 52C175.5 52.35 175.55 52.9 175.2 53.25C175.05 53.4 174.8 53.5 174.6 53.5ZM36.5 49.85C36.3 49.85 36.05 49.7499 35.85 49.5499C35.55 49.1999 35.6 48.65 35.95 48.35L37.25 47.2C37.6 46.9 38.15 46.8999 38.45 47.2999C38.75 47.6499 38.7 48.15 38.35 48.5L37.1 49.65C36.9 49.8 36.7 49.85 36.5 49.85ZM169.55 48.7999C169.35 48.7999 169.15 48.6999 168.95 48.5499L167.7 47.4C167.35 47.1 167.35 46.55 167.65 46.2C167.95 45.85 168.5 45.8 168.85 46.15L170.15 47.2999C170.45 47.6499 170.5 48.15 170.15 48.5C170 48.7 169.8 48.7999 169.55 48.7999ZM41.7 45.2999C41.45 45.2999 41.2 45.2 41.05 45C40.75 44.65 40.8 44.0999 41.15 43.7999L42.45 42.65C42.8 42.35 43.35 42.4 43.65 42.75C43.95 43.1 43.95 43.65 43.55 43.95L42.25 45.1C42.1 45.25 41.9 45.2999 41.7 45.2999ZM164.45 44.15C164.25 44.15 164.05 44.1 163.85 43.95L162.6 42.7999C162.25 42.4999 162.2 41.95 162.5 41.6C162.85 41.25 163.35 41.2 163.75 41.5L165 42.65C165.35 42.95 165.4 43.5 165.1 43.85C164.9 44.05 164.7 44.15 164.45 44.15ZM46.95 40.85C46.7 40.85 46.45 40.75 46.3 40.5C46 40.15 46.05 39.5999 46.4 39.2999L47.75 38.2C48.1 37.9 48.65 37.95 48.95 38.35C49.25 38.7 49.2 39.2499 48.85 39.5499L47.5 40.65C47.3333 40.7833 47.15 40.85 46.95 40.85ZM159.25 39.6C159.05 39.6 158.85 39.55 158.7 39.4L157.4 38.2999C157.05 37.9999 157 37.45 157.3 37.1C157.6 36.7 158.15 36.65 158.5 37L159.8 38.1C160.2 38.4 160.2 38.9499 159.9 39.2999C159.75 39.4999 159.5 39.6 159.25 39.6ZM52.3 36.45C52.05 36.45 51.8 36.35 51.65 36.15C51.35 35.75 51.4 35.25 51.75 34.95L53.1 33.85C53.5 33.55 54.05 33.6 54.3 34C54.6 34.35 54.55 34.9 54.2 35.2L52.85 36.25C52.7 36.4 52.5 36.45 52.3 36.45ZM154 35.15C153.8 35.15 153.6 35.1 153.45 35L152.1 33.9C151.75 33.6 151.7 33.05 152 32.7C152.3 32.3 152.8 32.2499 153.2 32.5499L154.55 33.65C154.9 33.95 154.95 34.5 154.65 34.85C154.5 35.05 154.25 35.15 154 35.15ZM57.7 32.2C57.45 32.2 57.2 32.05 57.05 31.85C56.75 31.5 56.8 30.95 57.2 30.65L58.55 29.6C58.95 29.3 59.45 29.4 59.75 29.75C60.05 30.15 60 30.65 59.6 30.95L58.25 32C58.0833 32.1333 57.9 32.2 57.7 32.2ZM148.6 30.85C148.4 30.85 148.25 30.8 148.1 30.7L146.7 29.65C146.35 29.35 146.25 28.8 146.55 28.45C146.85 28.05 147.4 27.9999 147.75 28.2999L149.15 29.35C149.5 29.65 149.55 30.1499 149.3 30.5499C149.1 30.7499 148.85 30.85 148.6 30.85ZM63.2 28C62.95 28 62.7 27.9 62.5 27.65C62.25 27.3 62.3 26.75 62.7 26.45L64.05 25.45C64.45 25.15 65 25.25 65.25 25.6C65.55 26 65.45 26.5499 65.1 26.7999L63.7 27.85C63.5667 27.95 63.4 28 63.2 28ZM143.1 26.7C142.933 26.7 142.767 26.6499 142.6 26.5499L141.2 25.5499C140.85 25.2499 140.75 24.75 141 24.35C141.3 23.95 141.85 23.85 142.2 24.15L143.6 25.15C144 25.45 144.1 26 143.8 26.35C143.65 26.6 143.35 26.7 143.1 26.7ZM68.75 23.9C68.5 23.9 68.25 23.7999 68.05 23.5499C67.8 23.1999 67.85 22.65 68.25 22.35L69.65 21.35C70.05 21.1 70.6 21.1499 70.85 21.5499C71.15 21.9499 71.05 22.5 70.65 22.75L69.25 23.75C69.0833 23.85 68.9167 23.9 68.75 23.9ZM137.5 22.7C137.333 22.7 137.167 22.6499 137 22.5499L135.6 21.6C135.2 21.35 135.1 20.8 135.35 20.4C135.6 20 136.15 19.9 136.55 20.2L137.95 21.15C138.35 21.4 138.45 21.95 138.2 22.35C138.05 22.6 137.75 22.7 137.5 22.7ZM74.4 19.95C74.1 19.95 73.85 19.7999 73.7 19.5499C73.4 19.1499 73.5 18.65 73.9 18.35L75.3 17.4C75.7 17.1 76.25 17.2 76.5 17.6C76.8 18 76.7 18.5499 76.3 18.7999L74.85 19.75C74.7167 19.8833 74.5667 19.95 74.4 19.95ZM131.75 18.9C131.583 18.9 131.433 18.85 131.3 18.75L129.85 17.85C129.45 17.6 129.3 17.05 129.55 16.65C129.8 16.25 130.35 16.15 130.75 16.4L132.2 17.2999C132.6 17.5999 132.7 18.1 132.45 18.5C132.3 18.75 132 18.9 131.75 18.9ZM80.1 16.0499C79.8 16.0499 79.55 15.9 79.35 15.65C79.1 15.25 79.2 14.75 79.6 14.45L81.05 13.5C81.45 13.25 81.95 13.35 82.25 13.75C82.5 14.15 82.4 14.7 82 14.95L80.55 15.9C80.4167 16 80.2667 16.0499 80.1 16.0499ZM125.9 15.25C125.733 15.2833 125.583 15.25 125.45 15.15L123.95 14.2999C123.55 14.0499 123.4 13.5 123.65 13.1C123.9 12.7 124.4 12.5499 124.8 12.7999L126.3 13.7C126.7 13.9 126.85 14.45 126.6 14.85C126.45 15.15 126.15 15.25 125.9 15.25ZM85.85 12.25C85.55 12.25 85.3 12.1 85.15 11.85C84.9 11.45 85 10.95 85.4 10.7L86.85 9.74996C86.85 9.74996 86.8667 9.74996 86.9 9.74996L87.3 9.44997C87.3 9.44997 87.3167 9.44997 87.35 9.44997L88.8 8.54995C89.2 8.24995 89.7 8.39995 89.95 8.79995C90.2 9.19995 90.1 9.69997 89.7 9.94997L89.3 10.2C89.3 10.2333 89.2833 10.25 89.25 10.25L87.8 11.2C87.7667 11.2 87.75 11.2 87.75 11.2L86.3 12.1C86.1667 12.2 86.0167 12.25 85.85 12.25ZM119.9 11.85C119.767 11.85 119.633 11.8166 119.5 11.75L117.95 10.9C117.55 10.7 117.4 10.2 117.6 9.74996C117.85 9.34996 118.35 9.19995 118.8 9.39995L120.3 10.25C120.7 10.45 120.85 11 120.65 11.4C120.5 11.7 120.2 11.85 119.9 11.85ZM91.85 8.94997C91.5 8.94997 91.2 8.74997 91.05 8.44997C90.9 7.99997 91.1 7.49995 91.55 7.29995C92.0833 7.09995 92.6333 6.89997 93.2 6.69997C93.65 6.54997 94.15 6.74997 94.3 7.19997C94.45 7.64997 94.2 8.14995 93.75 8.29995C93.2167 8.49995 92.7 8.69995 92.2 8.89995C92.1 8.93329 91.9833 8.94997 91.85 8.94997ZM113.75 8.74996C113.617 8.74996 113.5 8.7333 113.4 8.69997C112.9 8.49997 112.383 8.29997 111.85 8.09997C111.4 7.94997 111.15 7.49995 111.3 7.04995C111.45 6.59995 111.95 6.34996 112.4 6.49996C112.933 6.66663 113.483 6.86663 114.05 7.09997C114.5 7.24997 114.7 7.74997 114.55 8.19997C114.4 8.54997 114.05 8.74996 113.75 8.74996ZM98.5 7.09997C98.05 7.09997 97.7 6.79995 97.65 6.39995C97.55 5.89995 97.9 5.44995 98.35 5.39995C98.95 5.29995 99.5333 5.21662 100.1 5.14995C100.55 5.09995 101 5.44997 101.05 5.94997C101.1 6.39997 100.75 6.79997 100.3 6.84997C99.7333 6.91663 99.1667 6.99997 98.6 7.09997C98.5667 7.09997 98.5333 7.09997 98.5 7.09997ZM107.1 6.99996C107.033 6.99996 106.983 6.99996 106.95 6.99996C106.417 6.93329 105.867 6.86661 105.3 6.79995C104.8 6.79995 104.45 6.34995 104.5 5.89995C104.55 5.39995 104.95 5.04997 105.45 5.09997C106.017 5.1333 106.6 5.19995 107.2 5.29995C107.65 5.34995 108 5.79996 107.95 6.24996C107.85 6.69996 107.5 6.99996 107.1 6.99996Z" fill="#455A29"/>
<path d="M92.05 37.4501C74.2 48.7001 54.05 64.9 39.6 80.85C37.35 83.35 36.45 86.8 37.05 90.1C42.5 118.9 50.1 147.25 60.2 164.2C62.05 167.35 65.4 169.35 69.1 169.5C98 170.5 124.95 170.7 141.3 166.4C144.35 165.6 146.9 163.55 148.3 160.75C159.8 137.25 168.1 113.7 171.55 90.15C172.05 86.75 170.85 83.3 168.4 80.9501C151.75 64.7001 135.85 48.4501 113 36.4501C106.35 33.0001 98.4 33.4501 92.05 37.4501Z" fill="#748E4A"/>
<path fill-rule="evenodd" clip-rule="evenodd" d="M97.85 172.6C88.2 172.6 78.1 172.35 68 171.95C64.05 171.85 60.5 169.7 58.5 166.3C49.4 151.05 41.15 124.6 34.6 89.8C33.9 86.25 34.95 82.55 37.3 79.95C51.35 64.45 71.6 47.7 91.45 35.1C98.15 30.85 106.55 30.5 113.45 34.1C135.55 45.65 151 60.75 167.35 76.75L170.65 80C173.3 82.55 174.55 86.25 174 89.85C170.7 112.6 162.85 136.45 150 162.75C148.55 165.7 145.85 167.9 142.55 168.75C131.5 171.7 115.5 172.6 97.85 172.6ZM103.4 32.4C99.4 32.4 95.4 33.55 91.9 35.75C72.05 48.3 51.9 65 37.9 80.45C35.7 82.9 34.75 86.35 35.35 89.65C41.9 124.35 50.15 150.7 59.15 165.9C61.05 169.1 64.35 171.05 68.05 171.2C96.6 172.2 125.35 172.5 142.35 168C145.4 167.2 147.9 165.15 149.3 162.4C162.1 136.2 169.95 112.4 173.25 89.75C173.75 86.35 172.55 82.95 170.1 80.55L166.8 77.3C150.5 61.35 135.05 46.3 113.1 34.8C110.05 33.2 106.75 32.4 103.4 32.4Z" fill="#748E4A"/>
<path d="M171.2 130.85C170.967 130.85 170.733 130.817 170.5 130.75C169.4 130.35 168.8 129.15 169.2 128.05C173.8 114.4 177.05 100.95 178.9 88.15C179.4 85 178.3 81.75 175.95 79.45L172.3 75.9C154.35 58.35 137.35 41.75 113.25 29.1C106.45 25.55 98.1 25.95 91.45 30.1C69.65 43.9 47.45 62.2999 32.1 79.2999C30 81.5999 29.1 84.85 29.7 88C32.4 102.5 35.45 115.75 38.65 127.45C38.95 128.55 38.3 129.7 37.15 130C36.05 130.35 34.9 129.65 34.6 128.55C31.35 116.75 28.3 103.4 25.55 88.7999C24.7 84.3499 26 79.75 28.95 76.45C44.6 59.2 67.1 40.5499 89.25 26.5499C97.1 21.5999 107.05 21.1 115.2 25.4C139.85 38.3 157.85 55.9 175.25 72.9L178.9 76.45C182.15 79.65 183.75 84.25 183.1 88.7999C181.2 101.85 177.85 115.5 173.15 129.4C172.9 130.3 172.05 130.85 171.2 130.85Z" fill="#92A564"/>
<path d="M96.85 134.05C97.1 113.9 98.55 92.8 101.1 70.95H103.6C105.167 97.75 106.283 118.783 106.95 134.05H96.85Z" fill="#455A29"/>
<path d="M101 41.85C101.2 41.05 101.8 40.05 102.55 40.3C103.1 40.5 103.3 41.15 103.4 41.7C104.35 46.5 105.15 51.5 105.45 56.45C105.7 60.45 105.95 64.5 104.95 68.45C104.717 69.5166 104.383 70.5666 103.95 71.6C103.65 72.4 103.15 73.45 102.15 73.5C101.6 73.55 101 72.65 100.7 72.25C100.3 71.65 100.05 70.95 99.8 70.3C99.4 68.9 99.2 67.45 99.1 66.05C98.8 63.3 99 60.55 99 57.8C99 57.7 99 57.6166 99 57.55C99 52.25 99.55 46.95 101 41.85Z" fill="#455A29"/>
<path d="M76.45 88.8999C75.65 89.1499 74.5 89.1999 74.3 88.3999C74.15 87.8499 74.55 87.3499 75 86.9499C78.55 83.5999 82.35 80.2499 86.4 77.3999C89.65 75.0499 93 72.6999 96.85 71.3999C97.8833 71.0666 98.9333 70.7999 100 70.5999C100.85 70.4499 102.05 70.2999 102.6 71.0999C102.95 71.5499 102.5 72.5499 102.3 72.9999C102 73.6499 101.6 74.2499 101.15 74.7999C100.2 75.8999 99.05 76.7999 97.9 77.6999C95.75 79.3499 93.3 80.6999 90.95 82.1499C90.8833 82.1832 90.8167 82.2166 90.75 82.2499C86.3 85.0499 81.5 87.3999 76.45 88.8999Z" fill="#455A29"/>
<path d="M128.75 86.3C129.35 86.9 129.9 87.85 129.3 88.45C128.9 88.8 128.25 88.65 127.7 88.5C123.05 86.9 118.35 85.1 113.9 82.9C110.3 81.1 106.65 79.25 103.75 76.45C102.95 75.6833 102.2 74.8666 101.5 74C101 73.35 100.3 72.4 100.75 71.5C101 70.95 102.1 70.9 102.6 70.85C103.3 70.85 104 70.9 104.7 71.05C106.1 71.4 107.45 71.95 108.75 72.55C111.25 73.7 113.55 75.25 115.95 76.6C116.017 76.6333 116.083 76.6833 116.15 76.75C120.75 79.35 125.05 82.5 128.75 86.3Z" fill="#455A29"/>
<path d="M100.2 71.3C99.7 71.9 99.65 72.85 100.1 73.45C100.5 74 101.25 74.3 101.9 74.25C102.6 74.2 103.25 73.85 103.65 73.3C104.05 72.7 104.1 71.95 103.8 71.3C103.15 69.9 101 70.2 100.2 71.3Z" fill="#C3D498"/>
<path d="M69.25 135.75C67.85 123.05 67 109.75 66.9 95.7999L68.4 95.4999C71.45 112.25 73.95 125.4 75.6 134.95L69.25 135.75Z" fill="#FFC626"/>
<path d="M59.65 79.4499C59.6 78.9499 59.7 78.1999 60.2 78.1499C60.6 78.1499 60.85 78.4499 61.05 78.7499C62.75 81.3499 64.45 84.0999 65.8 86.8999C66.9 89.1999 68 91.4999 68.4 94.0499C68.5 94.7499 68.55 95.4499 68.55 96.1499C68.55 96.6499 68.55 97.3999 68 97.6999C67.65 97.8499 67.1 97.4499 66.8 97.2999C66.45 97.0499 66.1 96.6999 65.8 96.3499C65.25 95.6499 64.8 94.8499 64.35 94.0499C63.55 92.4999 63 90.8499 62.35 89.2499C62.3167 89.2166 62.3 89.1666 62.3 89.0999C61 85.9999 60.05 82.7999 59.65 79.4499Z" fill="#FFC626"/>
<path d="M56.65 112.9C56.25 113.2 55.55 113.5 55.25 113.1C55.05 112.8 55.15 112.4 55.3 112.1C56.6 109.3 58 106.4 59.7 103.75C61.05 101.6 62.4 99.3999 64.35 97.7499C64.8833 97.2832 65.4333 96.8666 66 96.4999C66.45 96.1999 67.1 95.8499 67.65 96.1499C68 96.3499 67.95 97.0499 67.95 97.3499C67.9 97.7999 67.8 98.2499 67.7 98.6999C67.4 99.5499 66.95 100.35 66.5 101.15C65.6 102.65 64.5 104 63.5 105.4C63.4667 105.467 63.4333 105.517 63.4 105.55C61.5 108.25 59.25 110.8 56.65 112.9Z" fill="#FFC626"/>
<path d="M86.6 98.7499C87.1 98.9499 87.65 99.3999 87.45 99.8999C87.3 100.2 86.85 100.25 86.5 100.3C83.45 100.5 80.2 100.55 77.1 100.35C74.55 100.15 72 99.9499 69.6 99.0499C68.9667 98.7833 68.3333 98.4833 67.7 98.1499C67.25 97.8499 66.6 97.4999 66.65 96.8499C66.7 96.4999 67.3 96.1999 67.6 96.0499C68 95.8499 68.45 95.6999 68.9 95.6499C69.8 95.4999 70.7 95.4999 71.6 95.5499C73.35 95.5999 75.05 95.9499 76.8 96.1999C76.8333 96.1999 76.8833 96.1999 76.95 96.1999C80.25 96.6499 83.5 97.4499 86.6 98.7499Z" fill="#FFC626"/>
<path d="M66 97.9999C66.2 98.3999 66.6 98.7499 67.1 98.8499C67.7 99.0499 68.4 98.7999 68.75 98.2999C69.15 97.7999 69.15 97.0499 68.8 96.5499C67.8 95.1999 65.3 96.2999 66 97.9999Z" fill="#455A29"/>
<path d="M134.4 135.75C135.8 123.05 136.65 109.75 136.75 95.7999L135.25 95.4999C132.2 112.25 129.65 125.4 128.05 134.95L134.4 135.75Z" fill="#FFC626"/>
<path d="M141.3 77.8499C141.3 77.3499 141.1 76.6499 140.55 76.6499C140.2 76.6999 140 77.0499 139.85 77.3999C138.55 80.1999 137.35 83.1499 136.4 86.1499C135.7 88.5999 134.95 91.0499 134.95 93.6499C134.95 94.3166 135 94.9999 135.1 95.6999C135.2 96.2499 135.3 96.9499 135.9 97.1499C136.3 97.2499 136.75 96.7999 137 96.5499C137.35 96.2499 137.6 95.8999 137.85 95.4999C138.3 94.7499 138.65 93.8499 138.9 92.9999C139.5 91.3499 139.8 89.6499 140.2 87.9499C140.2 87.8833 140.2 87.8332 140.2 87.7999C141 84.5499 141.45 81.1999 141.3 77.8499Z" fill="#FFC626"/>
<path d="M149.45 110.4C149.95 110.7 150.65 110.9 150.9 110.4C151.05 110.1 150.85 109.75 150.65 109.45C148.95 106.85 147.1 104.25 145.05 101.85C143.4 99.9499 141.7 97.9999 139.5 96.6499C138.933 96.2832 138.317 95.9499 137.65 95.6499C137.2 95.4499 136.5 95.1999 136 95.5999C135.7 95.8499 135.85 96.4999 135.9 96.7999C136 97.2499 136.15 97.6999 136.35 98.0999C136.8 98.8999 137.35 99.6499 137.9 100.35C139 101.7 140.3 102.85 141.55 104.1C141.583 104.133 141.617 104.167 141.65 104.2C144 106.6 146.6 108.75 149.45 110.4Z" fill="#FFC626"/>
<path d="M117.7 101.1C117.25 101.35 116.75 101.9 117.05 102.3C117.25 102.6 117.65 102.6 118 102.6C121.1 102.3 124.25 101.9 127.3 101.2C129.8 100.6 132.3 99.9999 134.55 98.7499C135.15 98.3832 135.717 97.9832 136.25 97.5499C136.65 97.1999 137.25 96.7499 137.1 96.0999C137 95.7499 136.35 95.5499 136.05 95.4499C135.6 95.3499 135.15 95.2999 134.7 95.2499C133.8 95.2499 132.9 95.3999 132 95.5999C130.3 95.8999 128.65 96.4999 127 96.9999C126.933 97.0332 126.883 97.0499 126.85 97.0499C123.65 97.9999 120.5 99.2999 117.7 101.1Z" fill="#FFC626"/>
<path d="M137.6 97.9999C137.45 98.3999 137 98.7499 136.55 98.8499C135.95 99.0499 135.25 98.7999 134.85 98.2999C134.5 97.7999 134.5 97.0499 134.85 96.5499C135.85 95.1999 138.35 96.2999 137.6 97.9999Z" fill="#455A29"/>
<path d="M0.599996 146.75C-0.500004 145.55 -4.52995e-06 143.65 1.5 143.15C13.2 139.3 54.9 126.75 100.9 126.35C147.1 125.95 189 139.4 200.4 143.35C201.8 143.85 202.15 145.65 201.1 146.7L192.9 154.45L196.7 164.05C197.3 165.55 195.9 167.1 194.35 166.7C181.4 163.15 137.9 152.25 98.35 152.65C64.8 153 20.35 163.3 7.65 166.45C6 166.85 4.55 165.4 4.95 163.75L7.29999 154.1L0.599996 146.75Z" fill="#1C2D0B"/>
<path d="M62.05 181.85C54.1 180.25 48.1 173.75 47 165.75C46.85 164.5 45 165 45.15 166.25C46.3 174.9 53 182 61.5 183.75C62.75 184 63.25 182.1 62.05 181.85Z" fill="#1C2D0B"/>
<path d="M159.9 164.8C157.1 172.4 150.05 178 142.05 179.15C140.85 179.35 141.35 181.25 142.6 181.05C151.25 179.75 158.75 173.5 161.75 165.3C162.2 164.15 160.3 163.6 159.9 164.8Z" fill="#1C2D0B"/>
<path d="M76.65 177.8V183.5L72.9 177.8H70.65V187H72.9V181.3L76.65 187H78.9V177.8H76.65ZM86.45 177.8H80.85V187H86.45V185.2H83.05V183.2H86.1V181.45H83.05V179.6H86.45V177.8ZM87.75 179.6H90.2V187H92.45V179.6H94.9V177.8H87.75V179.6ZM105.8 177.8H99.3V179.65H103.2L99.3 185.3V187H105.8V185.15H101.85L105.8 179.5V177.8ZM113.2 177.8H107.6V187H113.2V185.2H109.85V183.2H112.85V181.45H109.85V179.6H113.2V177.8ZM119.85 180.8C119.85 181.5 119.5 181.95 118.65 181.95H117.25V179.65H118.65C119.5 179.65 119.85 180.1 119.85 180.8ZM115 177.8V187H117.25V183.55H117.8L119.7 187H122.25L120.1 183.35C121.55 182.95 122.15 181.85 122.15 180.7C122.15 179.1 121.05 177.8 118.75 177.8H115ZM132.95 182.35C132.95 179.6 130.9 177.65 128.25 177.65C125.65 177.65 123.5 179.6 123.5 182.35C123.5 185.15 125.65 187.1 128.25 187.1C130.85 187.1 132.95 185.15 132.95 182.35ZM125.8 182.35C125.8 180.75 126.75 179.7 128.25 179.7C129.7 179.7 130.7 180.75 130.7 182.35C130.7 184 129.7 185.05 128.25 185.05C126.75 185.05 125.8 184 125.8 182.35Z" fill="#1C2D0B"/>
<path d="M41.15 151.8C40.65 151.9 40.15 151.95 39.65 152C39.2 152.05 38.75 152.05 38.35 152C37.95 151.95 37.55 151.9 37.2 151.8C36.85 151.7 36.55 151.55 36.25 151.4C35.65 151.05 35.2 150.6 34.8 150.05C34.6 149.75 34.45 149.45 34.3 149.1C34.2 148.8 34.05 148.4 34 148C33.9 147.6 33.85 147.2 33.85 146.85C33.8 146.45 33.85 146.1 33.9 145.75C33.95 145.4 34.05 145.05 34.2 144.75C34.35 144.45 34.5 144.15 34.7 143.85C34.9 143.55 35.15 143.3 35.45 143.05C35.75 142.8 36.05 142.6 36.45 142.4C36.8 142.2 37.25 142.05 37.7 141.85C38.15 141.7 38.65 141.6 39.2 141.5C39.55 141.4 39.95 141.35 40.3 141.35C40.65 141.3 41 141.3 41.3 141.3C41.95 141.3 42.55 141.35 43.1 141.55C43.65 141.7 44.15 141.9 44.6 142.2C45.05 142.5 45.45 142.9 45.8 143.35C45.4 143.55 44.95 143.8 44.5 144.1C44 144.4 43.55 144.75 43 145.15C42.65 144.7 42.15 144.4 41.5 144.25C40.85 144.1 40.25 144.1 39.6 144.25C39.15 144.3 38.75 144.45 38.45 144.65C38.15 144.8 37.9 145.05 37.7 145.3C37.35 145.85 37.25 146.45 37.4 147.15C37.5 147.85 37.9 148.4 38.45 148.8C38.7 148.95 39.05 149.05 39.45 149.1C39.8 149.15 40.25 149.15 40.75 149.05C41.55 148.9 42.1 148.65 42.55 148.3C42.95 148 43.2 147.5 43.35 146.95C43.75 147.05 44.25 147.2 44.75 147.35C45.3 147.45 45.9 147.6 46.55 147.75C46.4 148.35 46.15 148.85 45.85 149.3C45.5 149.75 45.1 150.15 44.6 150.45C44.1 150.8 43.55 151.05 43 151.3C42.4 151.5 41.8 151.65 41.15 151.8ZM54.35 149.5C53.8 149.6 53.3 149.65 52.85 149.65C52.35 149.7 51.9 149.65 51.5 149.6C51.1 149.55 50.7 149.5 50.35 149.35C50 149.25 49.7 149.1 49.4 148.9C49.1 148.75 48.85 148.5 48.6 148.3C48.35 148.05 48.15 147.75 48 147.5C47.8 147.2 47.65 146.85 47.5 146.5C47.4 146.15 47.3 145.75 47.25 145.35C47.15 144.95 47.15 144.55 47.15 144.2C47.15 143.8 47.15 143.45 47.25 143.15C47.3 142.8 47.4 142.45 47.55 142.15C47.7 141.85 47.9 141.55 48.1 141.3C48.35 141.05 48.6 140.8 48.9 140.55C49.2 140.35 49.55 140.15 49.95 139.95C50.3 139.75 50.75 139.6 51.2 139.5C51.7 139.35 52.2 139.25 52.75 139.15C53.3 139.05 53.85 139 54.3 139C54.8 139 55.25 139 55.7 139.05C56.1 139.1 56.5 139.2 56.85 139.35C57.2 139.45 57.55 139.6 57.8 139.8C58.1 140 58.4 140.2 58.6 140.45C58.85 140.7 59.05 141 59.2 141.3C59.4 141.6 59.55 141.9 59.65 142.25C59.75 142.6 59.85 143 59.9 143.4C59.95 143.85 59.95 144.2 59.95 144.6C59.95 144.95 59.9 145.35 59.8 145.65C59.75 146 59.6 146.3 59.45 146.6C59.3 146.9 59.15 147.2 58.9 147.45C58.7 147.7 58.45 147.95 58.15 148.2C57.85 148.4 57.5 148.6 57.1 148.75C56.75 148.95 56.3 149.1 55.85 149.2C55.4 149.35 54.9 149.45 54.35 149.5ZM53.9 146.75C54.45 146.65 54.9 146.55 55.25 146.4C55.6 146.25 55.9 146.05 56.1 145.8C56.3 145.6 56.45 145.3 56.5 145C56.6 144.65 56.6 144.3 56.5 143.9C56.4 143.1 56.1 142.5 55.55 142.2C55.3 142.05 54.95 141.95 54.55 141.9C54.2 141.85 53.7 141.85 53.2 141.95C52.65 142.05 52.2 142.15 51.85 142.3C51.5 142.45 51.2 142.65 51 142.9C50.6 143.35 50.45 144 50.6 144.8C50.65 145.2 50.75 145.55 50.95 145.85C51.1 146.1 51.3 146.35 51.6 146.5C51.85 146.65 52.15 146.75 52.55 146.8C52.95 146.85 53.4 146.8 53.9 146.75ZM65.3 145.45C65.7 145.35 66.05 145.3 66.4 145.25C66.75 145.15 67.1 145.1 67.45 145.05C68.15 144.9 68.75 144.8 69.35 144.7C69.95 144.6 70.5 144.45 71 144.35C71.5 144.25 71.95 144.15 72.4 144.1C72.25 144.55 72.2 145.1 72.15 145.65C72.15 146.15 72.15 146.65 72.2 147.1C72.2 147.1 71.55 147.15 70.6 147.25C70.15 147.3 69.6 147.35 69 147.45C68.4 147.5 67.8 147.55 67.15 147.65C66.55 147.7 65.9 147.8 65.3 147.85C64.7 147.95 64.15 148 63.7 148.05C62.75 148.2 62.15 148.25 62.15 148.25L62.1 148C62 147.55 62.05 147.1 62.1 146.7C62.2 146.3 62.35 145.9 62.6 145.55C62.8 145.2 63.1 144.8 63.45 144.45C63.8 144.1 64.2 143.75 64.65 143.45C64.9 143.25 65.3 142.95 65.9 142.65C66.65 142.2 67.25 141.85 67.65 141.55C68.05 141.25 68.2 140.95 68.2 140.7C68.15 140.4 68 140.2 67.7 140.05C67.4 139.85 67 139.85 66.4 139.9C65.8 139.95 65.35 140.2 65.05 140.5C64.75 140.85 64.65 141.25 64.7 141.75C64.75 141.9 64.75 142.05 64.8 142.2C64.2 142.2 63.6 142.2 63 142.2C62.45 142.25 61.85 142.25 61.3 142.3C61.2 141.95 61.25 141.55 61.3 141.2C61.35 140.85 61.45 140.5 61.65 140.15C61.8 139.8 62.05 139.5 62.35 139.2C62.6 138.9 62.95 138.65 63.35 138.4C63.8 138.15 64.25 137.95 64.75 137.8C65.3 137.65 65.85 137.55 66.5 137.45C67.05 137.4 67.6 137.35 68.1 137.4C68.55 137.4 69 137.5 69.4 137.6C69.8 137.7 70.15 137.85 70.45 138C70.75 138.15 71 138.35 71.2 138.55C71.6 138.95 71.85 139.4 71.9 139.9C71.95 140.45 71.9 140.9 71.65 141.35C71.45 141.75 71.15 142.15 70.7 142.5C70.45 142.7 70.2 142.9 69.9 143.1C69.6 143.25 69.3 143.5 68.9 143.7C68.8 143.8 68.65 143.85 68.4 143.95C68.15 144.05 67.95 144.1 67.9 144.15C67.25 144.4 66.75 144.65 66.35 144.8C66 145 65.6 145.2 65.3 145.45ZM85.05 135.95C85.05 135.95 85.95 135.85 86.85 135.8C87.75 135.75 88.65 135.7 88.65 135.7C88.65 136.1 88.65 136.5 88.65 136.9C88.65 137.3 88.7 137.7 88.7 138.15C88.7 138.55 88.7 139 88.75 139.4C88.75 139.85 88.8 140.3 88.8 140.7C88.85 141.15 88.85 141.6 88.9 142.05C88.9 142.45 88.95 142.9 89 143.3C89 143.75 89.05 144.15 89.1 144.55C89.1 144.95 89.15 145.35 89.2 145.75C89.2 145.75 88.9 145.75 88.4 145.8C87.95 145.8 87.3 145.85 86.65 145.9C86.05 145.9 85.4 145.95 84.9 146C84.45 146.05 84.15 146.05 84.15 146.05C84.15 146.05 83.9 145.6 83.5 144.9C83.35 144.55 83.1 144.15 82.9 143.75C82.65 143.3 82.4 142.85 82.15 142.4C81.9 141.95 81.65 141.5 81.4 141.05C81.15 140.65 80.95 140.25 80.75 139.9C80.35 139.25 80.1 138.75 80.1 138.75C80.1 138.75 80.15 139.25 80.25 139.95C80.3 140.3 80.35 140.7 80.4 141.15C80.45 141.6 80.5 142.05 80.55 142.55C80.6 143 80.65 143.45 80.7 143.9C80.75 144.35 80.8 144.75 80.85 145.1C80.9 145.8 80.95 146.3 80.95 146.3C80.95 146.3 80.05 146.35 79.15 146.45C78.25 146.5 77.35 146.6 77.35 146.6C77.3 146.15 77.3 145.7 77.3 145.25C77.25 144.85 77.25 144.4 77.2 144C77.15 143.6 77.15 143.15 77.1 142.75C77.1 142.35 77.05 141.95 77 141.6C77 141.2 76.95 140.8 76.9 140.4C76.85 140 76.8 139.6 76.75 139.15C76.7 138.75 76.65 138.35 76.6 137.9C76.55 137.45 76.5 137.05 76.45 136.6C76.45 136.6 76.8 136.55 77.3 136.5C77.8 136.5 78.45 136.4 79.1 136.35C79.8 136.3 80.45 136.25 80.95 136.2C81.45 136.2 81.8 136.15 81.8 136.15C81.8 136.15 82.05 136.6 82.45 137.35C82.6 137.7 82.85 138.1 83.1 138.55C83.3 138.95 83.55 139.45 83.85 139.9C84.1 140.35 84.35 140.85 84.55 141.3C84.8 141.7 85 142.15 85.2 142.5C85.6 143.2 85.8 143.65 85.8 143.65C85.8 143.65 85.8 143.2 85.7 142.45C85.65 142.1 85.65 141.65 85.6 141.2C85.55 140.75 85.5 140.3 85.45 139.8C85.4 139.3 85.35 138.85 85.3 138.35C85.25 137.9 85.25 137.5 85.2 137.15C85.1 136.4 85.05 135.95 85.05 135.95ZM93.85 141.5L93.9 142.95C94.35 142.95 94.8 142.9 95.2 142.9C95.65 142.9 96.05 142.85 96.45 142.85C96.8 142.8 97.2 142.8 97.55 142.8C97.9 142.75 98.25 142.75 98.6 142.75C99.25 142.7 99.8 142.7 100.35 142.65C100.9 142.6 101.35 142.6 101.75 142.55C101.7 142.95 101.65 143.35 101.65 143.75C101.65 144.15 101.65 144.65 101.65 145.25C101.65 145.25 101 145.25 99.95 145.3C99.45 145.3 98.85 145.3 98.2 145.35C97.55 145.35 96.85 145.4 96.15 145.4C95.5 145.45 94.8 145.45 94.15 145.5C93.5 145.5 92.9 145.55 92.4 145.55C91.35 145.6 90.7 145.65 90.7 145.65C90.65 145.2 90.65 144.75 90.65 144.35C90.65 143.9 90.65 143.45 90.65 143.05C90.6 142.65 90.6 142.2 90.6 141.8C90.55 141.4 90.55 141 90.55 140.65C90.5 140.25 90.5 139.85 90.45 139.45C90.45 139.05 90.4 138.6 90.4 138.2C90.35 137.8 90.3 137.35 90.25 136.95C90.25 136.5 90.2 136.05 90.15 135.6C90.15 135.6 90.85 135.6 91.9 135.55C92.45 135.5 93.05 135.45 93.75 135.45C94.4 135.4 95.1 135.4 95.8 135.35C96.5 135.35 97.2 135.3 97.9 135.3C98.55 135.25 99.15 135.25 99.7 135.25C100.75 135.2 101.45 135.2 101.45 135.2C101.45 135.2 101.45 135.8 101.5 136.45C101.5 137.05 101.5 137.7 101.5 137.7C101.5 137.7 101 137.7 100.3 137.75C99.9 137.75 99.5 137.75 99.05 137.75C98.6 137.8 98.1 137.8 97.6 137.8C97.1 137.8 96.6 137.85 96.15 137.85C95.7 137.85 95.3 137.9 94.9 137.9C94.2 137.95 93.7 137.95 93.7 137.95L93.75 139.3C94.2 139.25 94.9 139.25 95.8 139.2C96.15 139.2 96.55 139.2 96.95 139.15C97.35 139.15 97.75 139.15 98.1 139.1C98.5 139.1 98.9 139.05 99.3 139.05C99.7 139.05 100.1 139 100.55 139C100.55 139 100.55 139.6 100.55 140.15C100.55 140.75 100.6 141.35 100.6 141.35C100.2 141.35 99.8 141.35 99.4 141.35C99 141.35 98.6 141.35 98.2 141.35C97.8 141.35 97.4 141.4 97 141.4C96.65 141.4 96.25 141.4 95.9 141.45C95 141.45 94.3 141.5 93.85 141.5ZM111.7 140.35C111.7 140.35 111.7 140.05 111.7 139.55C111.7 139.05 111.7 138.4 111.7 137.75C111.75 137.05 111.75 136.4 111.75 135.9C111.75 135.4 111.75 135.1 111.75 135.1C111.75 135.1 112.65 135.1 113.55 135.1C114.45 135.1 115.35 135.15 115.35 135.15C115.35 135.15 115.35 135.5 115.35 136C115.35 136.5 115.3 137.2 115.3 137.9C115.3 138.6 115.3 139.25 115.3 139.8C115.25 140.3 115.25 140.65 115.25 140.65C115.25 141.3 115.1 141.95 114.85 142.5C114.6 143.05 114.25 143.55 113.8 144C113.55 144.2 113.25 144.4 112.95 144.55C112.65 144.75 112.3 144.85 111.9 144.95C111.5 145.1 111.1 145.15 110.6 145.2C110.15 145.25 109.65 145.3 109.1 145.3C108.5 145.3 108 145.25 107.55 145.2C107.05 145.15 106.65 145.1 106.25 145C105.5 144.8 104.9 144.5 104.5 144.05C104.05 143.65 103.75 143.15 103.55 142.6C103.35 142.05 103.25 141.45 103.2 140.75C103.2 140.75 103.2 140.4 103.2 139.9C103.2 139.35 103.2 138.65 103.15 137.95C103.15 137.25 103.15 136.55 103.15 136C103.15 135.5 103.1 135.15 103.1 135.15C103.1 135.15 104.05 135.15 104.95 135.1C105.85 135.1 106.75 135.1 106.75 135.1C106.75 135.1 106.75 135.45 106.75 135.95C106.75 136.45 106.75 137.1 106.75 137.8C106.75 138.45 106.75 139.15 106.75 139.65C106.75 140.15 106.75 140.5 106.75 140.5C106.8 140.9 106.8 141.25 106.85 141.5C106.95 141.75 107.15 141.95 107.45 142.2C107.8 142.4 108.35 142.5 109.1 142.5C109.95 142.5 110.55 142.4 110.9 142.2C111.3 141.95 111.5 141.7 111.6 141.4C111.65 141.15 111.7 140.8 111.7 140.35ZM129.35 135.6C129.35 135.6 129.35 136.35 129.3 137.05C129.25 137.8 129.2 138.5 129.2 138.5C128.85 138.5 128.45 138.45 128.1 138.45C127.7 138.4 127.35 138.4 127 138.35C126.6 138.35 126.25 138.3 125.9 138.3C125.55 138.25 125.15 138.25 124.8 138.25C124.8 138.25 124.8 138.7 124.75 139.35C124.75 139.7 124.75 140.1 124.75 140.5C124.7 140.95 124.7 141.4 124.65 141.85C124.65 142.3 124.65 142.75 124.6 143.15C124.6 143.6 124.6 144 124.55 144.35C124.55 145 124.55 145.45 124.55 145.45C124.55 145.45 123.65 145.4 122.75 145.4C121.85 145.35 121 145.35 121 145.35C121 145.35 121 144.9 121 144.2C121.05 143.85 121.05 143.45 121.05 143.05C121.05 142.6 121.1 142.15 121.1 141.7C121.1 141.25 121.15 140.8 121.15 140.4C121.15 139.95 121.15 139.55 121.15 139.25C121.2 138.55 121.2 138.1 121.2 138.1C120.85 138.1 120.5 138.1 120.15 138.1C119.75 138.1 119.4 138.1 119.05 138.05C118.65 138.05 118.3 138.05 117.95 138.05C117.55 138.05 117.2 138.1 116.8 138.1C116.8 138.1 116.85 137.35 116.85 136.65C116.85 135.9 116.85 135.15 116.85 135.15C116.85 135.15 117.65 135.2 118.85 135.2C119.4 135.25 120.1 135.25 120.85 135.25C121.2 135.3 121.55 135.3 121.95 135.3C122.35 135.3 122.75 135.35 123.1 135.35C123.5 135.35 123.9 135.35 124.3 135.4C124.65 135.4 125.05 135.4 125.4 135.45C126.15 135.45 126.85 135.5 127.4 135.5C128.6 135.6 129.35 135.6 129.35 135.6ZM142.25 139.9C142.25 140.3 142.15 140.65 142 141C141.9 141.3 141.7 141.6 141.45 141.85C141.25 142.1 140.95 142.35 140.6 142.5C140.25 142.65 139.8 142.8 139.3 142.9C139.4 143.05 139.5 143.15 139.5 143.25C139.5 143.25 140.05 144.05 140.55 144.9C141.05 145.7 141.55 146.55 141.55 146.55C141.55 146.55 140.6 146.45 139.65 146.4C138.65 146.3 137.7 146.25 137.7 146.25C137.55 145.85 137.3 145.35 137 144.8C136.85 144.55 136.7 144.25 136.55 143.9C136.35 143.6 136.15 143.25 135.95 142.9C135.95 142.9 135.45 142.85 134.95 142.8C134.4 142.75 133.9 142.75 133.9 142.75C133.9 142.75 133.8 143.55 133.75 144.35C133.7 145.15 133.65 145.95 133.65 145.95C133.65 145.95 132.85 145.9 132 145.85C131.15 145.8 130.35 145.75 130.35 145.75C130.35 145.3 130.4 144.85 130.45 144.4C130.5 144 130.55 143.55 130.55 143.15C130.6 142.75 130.6 142.3 130.65 141.9C130.7 141.5 130.7 141.1 130.75 140.75C130.75 140.35 130.75 139.95 130.8 139.55C130.8 139.15 130.8 138.7 130.85 138.3C130.85 137.9 130.85 137.45 130.85 137.05C130.9 136.6 130.9 136.15 130.9 135.7C130.9 135.7 131.75 135.75 132.6 135.8C133.45 135.85 134.35 135.9 134.35 135.9L134.3 135.95C134.3 135.95 135.05 136 135.8 136.05C136.55 136.1 137.3 136.15 137.3 136.15C137.8 136.15 138.25 136.2 138.65 136.3C139.05 136.35 139.45 136.45 139.8 136.55C140.45 136.75 140.95 137 141.3 137.35C141.7 137.7 141.95 138.05 142.1 138.5C142.25 138.9 142.3 139.35 142.25 139.9ZM136.1 138.7L134.15 138.6L134.05 140.15L136 140.3C136.8 140.35 137.4 140.35 137.85 140.35C138.25 140.35 138.55 140.25 138.75 140.15C138.9 140.05 139 139.9 139 139.7C139 139.5 138.95 139.35 138.8 139.2C138.65 139.1 138.4 139 137.95 138.9C137.55 138.85 136.95 138.75 136.1 138.7ZM154.85 147.95C154.85 147.95 153.95 147.85 153.05 147.75C152.15 147.65 151.2 147.55 151.2 147.55C151.15 147.25 151.1 146.95 151 146.6C150.95 146.25 150.85 145.9 150.7 145.5C150.7 145.5 150.45 145.45 150 145.4C149.6 145.35 149.05 145.3 148.45 145.25C147.9 145.15 147.35 145.1 146.9 145.05C146.5 145 146.2 145 146.2 145C146.2 145 145.95 145.45 145.75 145.95C145.5 146.4 145.3 146.9 145.3 146.9C145.3 146.9 144.4 146.8 143.5 146.75C142.65 146.65 141.75 146.55 141.75 146.55C141.75 146.55 142.05 145.95 142.5 145.05C142.75 144.6 143 144.1 143.3 143.5C143.6 142.95 143.9 142.35 144.2 141.75C144.5 141.15 144.8 140.55 145.1 139.95C145.4 139.4 145.7 138.9 145.9 138.45C146.4 137.55 146.7 136.95 146.7 136.95C146.7 136.95 147.05 136.95 147.55 137C148.05 137.05 148.7 137.15 149.35 137.2C150.05 137.3 150.7 137.35 151.2 137.4C151.7 137.45 152.05 137.5 152.05 137.5C152.05 137.5 152.2 138.15 152.5 139.15C152.65 139.6 152.8 140.2 152.95 140.8C153.1 141.4 153.3 142.05 153.5 142.75C153.65 143.4 153.85 144.05 154 144.65C154.15 145.25 154.3 145.85 154.45 146.35C154.7 147.3 154.85 147.95 154.85 147.95ZM147.25 142.95C147.25 142.95 147.95 143 148.7 143.1C149.4 143.15 150.15 143.25 150.15 143.25C150 142.75 149.9 142.25 149.75 141.75C149.65 141.25 149.5 140.75 149.35 140.25L149.1 139.3C148.9 139.7 148.6 140.2 148.3 140.8C148.15 141.1 148 141.45 147.8 141.8C147.65 142.15 147.45 142.5 147.25 142.95ZM160.5 138.55C160.5 138.55 160.45 139 160.35 139.7C160.3 140 160.25 140.4 160.2 140.85C160.1 141.25 160.05 141.7 160 142.15C159.95 142.6 159.85 143.05 159.8 143.45C159.75 143.9 159.7 144.3 159.65 144.6C159.55 145.3 159.5 145.75 159.5 145.75C160.2 145.85 160.85 145.9 161.45 146C162.1 146.1 162.7 146.15 163.25 146.25C163.85 146.3 164.4 146.35 164.9 146.45C165.4 146.5 165.9 146.55 166.35 146.6C166.15 147.05 166 147.5 165.9 147.9C165.8 148.35 165.7 148.85 165.6 149.45C165.6 149.45 165 149.35 164.05 149.25C163.6 149.15 163.05 149.1 162.45 149C161.9 148.9 161.25 148.8 160.65 148.75C160.05 148.65 159.4 148.55 158.85 148.5C158.25 148.4 157.7 148.35 157.25 148.25C156.3 148.15 155.7 148.05 155.7 148.05C155.75 147.6 155.85 147.2 155.9 146.75C155.95 146.35 156.05 145.9 156.1 145.5C156.15 145.1 156.2 144.65 156.3 144.25C156.35 143.85 156.4 143.5 156.45 143.1C156.5 142.7 156.55 142.3 156.6 141.9C156.65 141.5 156.65 141.1 156.7 140.7C156.75 140.25 156.8 139.85 156.85 139.4C156.9 139 156.9 138.55 156.95 138.1C156.95 138.1 157.85 138.2 158.7 138.3C159.6 138.45 160.5 138.55 160.5 138.55Z" fill="white"/>
</svg>
