<svg width="1085" height="498" viewBox="0 0 1085 498" fill="none" xmlns="http://www.w3.org/2000/svg">
<g clip-path="url(#clip0_54_3002)">
<path fill-rule="evenodd" clip-rule="evenodd" d="M912.463 427.777C903.702 485.802 810.647 512.465 741.105 542.575C692.062 563.81 638.044 572.209 580.757 571.4C524.746 570.609 470.108 562.8 425.804 538.122C374.432 509.506 327.603 472.925 320.655 426.515C313.077 375.9 338.767 324.286 388.354 287.986C438.449 251.314 509.912 236.173 581.474 235.583C654.214 234.983 723.416 251.88 780.034 284.757C844.473 322.174 921.391 368.648 912.463 427.777Z" fill="#6CB9EB"/>
<path fill-rule="evenodd" clip-rule="evenodd" d="M1296.89 122.708C1307.67 186.1 1197.12 244.96 1167.18 314.288C1138.91 379.743 1195.03 451.013 1132.95 502.315C1071.49 553.105 993.259 518.567 922.424 516.553C846.733 514.401 746.484 542.036 712.36 490.357C678.142 438.536 744.041 358.763 772.298 289.198C800.482 219.814 805.813 142.486 874.449 91.3187C947.322 36.9927 1039.99 24.8904 1118.97 30.7587C1197.01 36.5571 1285.6 56.2769 1296.89 122.708Z" fill="#C0EEF2"/>
<path fill-rule="evenodd" clip-rule="evenodd" d="M791.665 -159.651C921.625 -165.076 1029.65 -106.343 1098.05 -51.3031C1153.83 -6.42776 1114.8 47.8591 1115.07 100.566C1115.35 153.529 1159.48 209.341 1099.63 253.215C1031.32 303.29 913.276 342.153 791.665 337.644C674.11 333.285 604.104 275.981 526.567 231.968C456.855 192.396 372.738 153.097 374.014 100.566C375.282 48.413 467.367 13.1081 532.877 -27.7078C612.969 -77.6092 663.472 -154.299 791.665 -159.651Z" fill="#D3EC62"/>
<path fill-rule="evenodd" clip-rule="evenodd" d="M463.35 -181.184C548.346 -123.172 637.31 -47.083 637.456 58.1953C637.608 168.479 561.581 277.608 464.068 337.1C377.133 390.139 275.756 349.075 177.823 338.614C91.3921 329.382 -5.11959 341.092 -64.2137 280.673C-125.266 218.252 -128.116 121.814 -122.086 31.9809C-115.806 -61.5762 -109.241 -171.589 -30.1091 -227.381C46.623 -281.481 142.257 -226.571 232.626 -218.11C313.573 -210.532 397.88 -225.868 463.35 -181.184Z" fill="#7EB31E"/>
<path fill-rule="evenodd" clip-rule="evenodd" d="M199.164 176.083C288.167 166.601 388.811 189.603 442.351 242.862C492.531 292.778 465.384 361.575 446.507 422.124C432.574 466.816 391.591 499.349 351.464 534.391C305.116 574.865 269.409 626.972 199.164 638.119C116.952 651.164 24.6674 638.374 -36.6914 595.983C-99.4046 552.656 -124.516 484.958 -113.477 422.124C-103.509 365.386 -35.6662 329.89 17.3926 288.133C73.5245 243.959 117.899 184.74 199.164 176.083Z" fill="#3A88DE"/>
</g>
<defs>
<clipPath id="clip0_54_3002">
<rect width="1085" height="498" fill="white"/>
</clipPath>
</defs>
</svg>
