<svg width="492" height="485" viewBox="0 0 492 485" fill="none" xmlns="http://www.w3.org/2000/svg">
<path d="M143.2 329.5C125.7 340.8 101.6 340.85 84.45 330.35C92.45 323.05 103.2 318.75 114.1 318.6C124.95 318.4 135.8 322.3 143.2 329.5Z" fill="#C2D11D"/>
<path d="M95.2 329.8C111.95 328.6 128.75 328.35 145.55 329" stroke="#5D631A" stroke-width="1.3" stroke-linecap="round"/>
<path d="M106.8 334.95C110.533 332.85 114.283 330.75 118.05 328.65" stroke="#5D631A" stroke-width="1.3" stroke-linecap="round"/>
<path d="M112.55 321.6C116.883 323.833 121.217 326.083 125.55 328.35" stroke="#5D631A" stroke-width="1.3" stroke-linecap="round"/>
<path d="M76.45 374.85C78.8 376.5 81.9 376.8 84.75 376.25C87.6 375.7 90.25 374.45 92.85 373.2C104.517 367.6 116.167 361.983 127.8 356.35C131.35 354.65 134.95 352.9 137.65 350.05C140.35 347.2 141.9 343 140.6 339.3C139.05 335.05 134.15 332.85 129.65 333.1C125.2 333.35 121.05 335.5 117.2 337.8C103.8 345.6 91.5 355.1 79.25 364.5C77.6 365.75 75.9 367.15 75.2 369.05C74.45 371.3 75.3 374.1 76.45 374.85Z" fill="#708A1C"/>
<path d="M77.95 372.65L145.45 332.95" stroke="#323D0D" stroke-width="1.4" stroke-linecap="round"/>
<path d="M109.95 364.4L120.5 348.1L99.7 350.25" stroke="#323D0D" stroke-width="1.4" stroke-linecap="round"/>
<path d="M90.2 158.2C88.25 158.3 86.3 159.1 85 160.6C83.7 162.15 83.15 164.45 83.9 166.35C85 169.05 88.2 170.1 90.95 169.9C93.7 169.7 96.35 168.55 99.1 168.25C101.35 168 103.65 168.3 105.9 168.55C113.85 169.35 121.85 169.35 129.8 168.45C131.25 168.3 132.8 168.1 134.05 167.3C135.85 166.15 136.9 163.85 136.75 161.65C136.55 159.45 135.2 157.4 133.35 156.4C129.6 154.35 124.95 156.35 120.95 155.05C117.45 153.9 115.15 150.5 112.65 147.7C109.65 144.35 105.8 141.55 101.5 140.85C97.15 140.1 92.3 141.8 90.05 145.75C87.8 149.55 88.4 154.45 90.2 158.2Z" fill="#717823"/>
<path d="M90.95 169.9C92.55 169.8 94.1 169.35 95.7 168.95C98.15 165 99.65 160.6 99.2 155.5C98.95 152.75 98.25 150 97.05 147.5C96.1 145.55 94.6 143.25 92.35 143.1C91.45 143.8 90.65 144.7 90.05 145.75C87.8 149.55 88.4 154.45 90.2 158.2C88.25 158.3 86.3 159.1 85 160.6C83.7 162.15 83.15 164.45 83.9 166.35C85 169.05 88.2 170.1 90.95 169.9Z" fill="#4A4F11"/>
<path d="M104.1 162.85C104.35 165.75 105.15 168.65 106.55 171.25C107.45 173.05 108.65 174.7 109.4 176.6C110.65 179.65 110.7 183.05 110.7 186.4C110.7 189.55 110.75 192.7 110.55 195.8C114 196 117.5 195.95 121.2 195.4C119.133 191.167 117.067 186.95 115 182.75C114.35 181.4 113.65 180 113.4 178.45C113.1 176.95 113.25 175.3 114.15 174.05C115.2 172.6 117.05 171.9 118.45 170.75C119.8 169.6 120.7 167.9 120.75 166.4C119.9 166.2 119.05 166 118.25 166.15C118.35 167.2 118.45 168.35 117.9 169.2C117.55 169.75 116.95 170.15 116.4 170.5C115.7 170.967 114.983 171.433 114.25 171.9C113.75 172.2 113.25 172.55 112.65 172.65C111.15 172.95 109.75 171.85 108.8 170.65C107.2 168.5 106.3 165.6 107.35 163.15C106.2 163.15 105 163.15 104.1 162.85Z" fill="#8F4111"/>
<path d="M107.95 169.4C107.85 170.7 108.35 172 109.05 173.1C109.7 174.25 110.55 175.25 111.15 176.45C112.9 179.6 112.75 183.75 110.85 186.85" stroke="#4D1C0C" stroke-width="0.3" stroke-linecap="round"/>
<path d="M110.95 189C112.45 187.85 113.25 185.95 113.5 184.05C113.75 182.15 113.5 180.25 113.25 178.35" stroke="#4D1C0C" stroke-width="0.3" stroke-linecap="round"/>
<path d="M110.75 183.95C111.65 181.05 111.05 177.75 109.2 175.35C108.55 174.55 106.85 172.4 106.75 170.7C106.65 169.65 107.15 167.65 107.2 167.25" stroke="#4D1C0C" stroke-width="0.3" stroke-linecap="round"/>
<path d="M116.5 186.15C116.4 187.55 116 188.9 116.05 190.25C116.1 191.65 116.7 193.1 118.05 193.9C118.8 194.35 119.7 194.4 120.45 194.1" stroke="#4D1C0C" stroke-width="0.3" stroke-linecap="round"/>
<path d="M115.8 184.6L115.1 188.55C114.75 190.25 114.45 192.05 115.15 194C115.65 194.75 116.25 195.6 117.15 195.85" stroke="#4D1C0C" stroke-width="0.3" stroke-linecap="round"/>
<path d="M120.2 168.15C119.25 168.25 118.45 168.85 117.85 169.55C117.25 170.3 116.9 171.15 116.55 172" stroke="#4D1C0C" stroke-width="0.3" stroke-linecap="round"/>
<path d="M114.7 173.45C114.9 172.4 115.4 171.45 116.05 170.7" stroke="#4D1C0C" stroke-width="0.3" stroke-linecap="round"/>
<path d="M111.05 174.85C110.7 174.05 110.75 173.25 111.15 173.1C111.5 172.95 112.1 173.45 112.45 174.25C112.8 175.05 112.75 175.85 112.4 176C112 176.15 111.4 175.65 111.05 174.85Z" stroke="#4D1C0C" stroke-width="0.3" stroke-linecap="round"/>
<path d="M101.55 160.65C102.5 161.95 103.95 162.95 105.6 163.3C107.2 163.6 108.9 163.35 110.35 162.5" stroke="#4A4F11" stroke-width="0.6" stroke-linecap="round"/>
<path d="M121.9 166.1C119.45 166.75 116.65 166 114.8 164.25" stroke="#4A4F11" stroke-width="0.6" stroke-linecap="round"/>
<path d="M436.95 285.8C436.75 283.65 435.4 281.75 433.7 280.4C432.05 279.05 430.05 278.15 428.05 277.25C419.217 273.317 410.383 269.367 401.55 265.4C398.9 264.2 396.15 263 393.2 262.85C390.3 262.7 387.1 263.8 385.65 266.35C383.95 269.25 385.05 273.15 387.35 275.6C389.65 278.05 392.9 279.35 396.1 280.45C407 284.3 418.35 286.75 429.7 289.2C431.2 289.55 432.8 289.85 434.2 289.3C435.85 288.7 437.05 286.85 436.95 285.8Z" fill="#708A1C"/>
<path d="M434.95 286.05L379.65 266.65" stroke="#323D0D" stroke-width="1.05" stroke-linecap="round"/>
<path d="M414.75 271.75L400.35 273.6L411.65 284.45" stroke="#323D0D" stroke-width="1.05" stroke-linecap="round"/>
<path d="M137.45 74.05C137.8 82.6 139.35 91.05 142.1 99.1C142.3 99.75 142.55 100.45 143.1 100.9C143.75 101.45 144.65 101.55 145.55 101.65C151.25 102.4 156.6 105.4 160.2 109.9C161.15 111.1 161.95 112.8 161 114C160.25 114.95 158.85 114.9 157.65 114.75C153.45 114.15 149.4 112.7 145.8 110.55C149.967 119.717 154.4 128.783 159.1 137.75C165.85 135.35 173.85 137 179.1 141.85C179.8 142.5 180.55 143.4 180.35 144.35C180.1 145.55 178.75 146.05 177.6 146.25C173.45 146.9 169.15 146.2 165.5 144.25C168.7 153.1 178.75 158.5 188.15 157.5C197.55 156.55 205.9 150.1 210.55 141.85C215.1 133.8 216.5 123.9 213.95 115.05C211.4 106.2 204.95 98.5 196.5 94.85C197.15 101 197.35 107.25 197.25 113.45C197.2 115.1 196.8 117.2 195.15 117.45C193.55 117.75 192.5 115.85 191.95 114.3C189.5 106.85 188 99.05 186.8 91.55C180.3 86.7 173.1 82.85 165.45 80.2C165.55 82.65 166.5 85 167.05 87.45C167.6 89.85 167.7 92.6 166.2 94.6C165.9 95.05 165.45 95.4 164.95 95.45C164.55 95.45 164.2 95.2 163.9 95C161.8 93.5 160.3 91.25 159.7 88.75C158.85 85.2 159.75 81.15 157.85 78.85C151.65 75.1 144.7 71.2 137.45 74.05Z" fill="#647D13"/>
<path d="M149 89.75C149 89.75 198.4 144.7 218.35 158.15" stroke="#323D0F" stroke-width="1.4" stroke-linecap="round"/>
<path d="M185.05 127.65C174.05 128.15 162.95 126.85 152.45 123.75" stroke="#323D0F" stroke-width="1.4" stroke-linecap="round"/>
<path d="M155.4 96.4C155.05 88.75 152.7 81.15 148.55 74.7" stroke="#323D0F" stroke-width="1.4" stroke-linecap="round"/>
<path d="M177 119.35C177.6 110.05 177.2 100.7 175.7 91.5C175.25 88.75 174.65 85.9 173.25 83.5" stroke="#323D0F" stroke-width="1.4" stroke-linecap="round"/>
<path d="M202.35 144.45C206.5 128.6 205.45 111.45 199.5 96.3" stroke="#323D0F" stroke-width="1.4" stroke-linecap="round"/>
<path d="M83 445.2C92 444.55 100.9 442.55 109.3 439.35C110 439.05 110.75 438.75 111.2 438.2C111.8 437.45 111.85 436.5 111.9 435.6C112.5 429.5 115.55 423.7 120.2 419.7C121.4 418.7 123.2 417.75 124.5 418.7C125.5 419.45 125.55 420.95 125.4 422.25C124.85 426.7 123.45 431.05 121.3 435C130.867 430.2 140.317 425.133 149.65 419.8C146.9 412.75 148.4 404.2 153.35 398.45C154.05 397.65 154.95 396.85 156 397.05C157.2 397.25 157.8 398.65 158.05 399.9C158.85 404.25 158.25 408.8 156.3 412.75C165.6 409.05 170.95 398.2 169.65 388.3C168.35 378.35 161.25 369.75 152.4 365.1C143.75 360.6 133.25 359.5 124 362.55C114.7 365.55 106.8 372.75 103.15 381.8C109.65 380.9 116.2 380.4 122.8 380.3C124.55 380.25 126.8 380.65 127.1 382.4C127.45 384.1 125.5 385.25 123.85 385.85C116.05 388.75 107.85 390.65 100 392.25C95.05 399.3 91.2 407.1 88.65 415.3C91.25 415.1 93.7 414 96.25 413.3C98.8 412.6 101.7 412.45 103.85 413.95C104.3 414.25 104.7 414.7 104.75 415.25C104.75 415.65 104.55 416 104.3 416.35C102.8 418.65 100.45 420.3 97.85 421.05C94.15 422.05 89.8 421.3 87.45 423.4C83.65 430.15 79.75 437.65 83 445.2Z" fill="#647D13"/>
<path d="M99.2 432.35C99.2 432.35 155.8 377.9 169.35 356.2" stroke="#323D0F" stroke-width="1.45" stroke-linecap="round"/>
<path d="M138.15 392.7C139.05 404.35 138 416.15 135.05 427.4" stroke="#323D0F" stroke-width="1.45" stroke-linecap="round"/>
<path d="M106.05 425.35C97.95 425.95 90.05 428.8 83.35 433.4" stroke="#323D0F" stroke-width="1.45" stroke-linecap="round"/>
<path d="M129.65 401.55C119.8 401.25 109.95 402.05 100.3 404C97.35 404.6 94.4 405.3 91.85 406.9" stroke="#323D0F" stroke-width="1.45" stroke-linecap="round"/>
<path d="M155.4 373.7C138.5 369.95 120.45 371.65 104.6 378.6" stroke="#323D0F" stroke-width="1.45" stroke-linecap="round"/>
<path d="M485.55 233.2C479.6 227.75 472.9 223.15 465.65 219.65C465.05 219.35 464.4 219.1 463.75 219.15C462.95 219.2 462.25 219.75 461.6 220.25C457.3 223.6 451.7 225.2 446.25 224.6C444.85 224.45 443.15 223.8 442.95 222.4C442.85 221.3 443.8 220.35 444.7 219.65C447.95 217.3 451.6 215.55 455.5 214.55C446.533 211.25 437.467 208.2 428.3 205.4C425.4 211.5 418.9 215.75 412.15 216C411.2 216.05 410.15 215.95 409.6 215.2C409 214.25 409.55 213 410.2 212.1C412.5 208.9 415.9 206.5 419.65 205.35C411.55 201.6 401.2 204.75 395.55 211.65C389.9 218.55 388.65 228.45 391.05 237.05C393.4 245.45 399.1 252.9 406.75 257.1C414.4 261.25 423.9 262.05 432 258.85C427.45 255.15 423.1 251.2 419.05 247C417.95 245.9 416.8 244.15 417.75 242.9C418.65 241.65 420.6 242.2 422 242.9C428.65 246.2 434.9 250.35 440.75 254.5C448.35 253.4 455.75 251.15 462.7 247.8C460.95 246.2 458.7 245.3 456.7 244.1C454.75 242.85 452.85 241.05 452.5 238.75C452.4 238.25 452.45 237.7 452.75 237.35C453.05 237.1 453.4 237 453.8 236.95C456.15 236.55 458.7 237.05 460.8 238.3C463.7 240.1 465.85 243.35 468.65 243.6C475.35 241.95 482.65 239.9 485.55 233.2Z" fill="#647D13"/>
<path d="M467.3 230.5C467.3 230.5 397.3 227 374.9 231.45" stroke="#323D0F" stroke-width="1.3" stroke-linecap="round"/>
<path d="M417.7 229.4C424.75 221.7 433.05 215.2 442.15 210.2" stroke="#323D0F" stroke-width="1.3" stroke-linecap="round"/>
<path d="M458.55 230.3C463.9 235.2 470.6 238.65 477.7 240.15" stroke="#323D0F" stroke-width="1.3" stroke-linecap="round"/>
<path d="M428.65 229.55C434.45 236.15 441.05 242.05 448.2 247.15C450.35 248.7 452.65 250.2 455.25 250.85" stroke="#323D0F" stroke-width="1.3" stroke-linecap="round"/>
<path d="M394.8 229.8C402.7 243.1 414.85 253.8 429.05 259.85" stroke="#323D0F" stroke-width="1.3" stroke-linecap="round"/>
<path d="M245.3 133.35C242.45 111.5 253.35 88.4 271.15 76.75C274.55 87.75 273.7 100 268.95 110.45C264.2 120.95 255.5 129.55 245.3 133.35Z" fill="#C2D11D"/>
<path d="M266.8 87.3C260.35 103.85 252.95 120.05 244.7 135.8" stroke="#5D631A" stroke-width="1.35" stroke-linecap="round"/>
<path d="M256.65 96.05C256.95 100.617 257.25 105.167 257.55 109.7" stroke="#5D631A" stroke-width="1.35" stroke-linecap="round"/>
<path d="M266.75 107.6C262.65 110.733 258.533 113.867 254.4 117" stroke="#5D631A" stroke-width="1.35" stroke-linecap="round"/>
<path d="M217.2 153.55C194.75 137.75 182.8 108.3 187.15 82.15C200.05 88.35 210.6 99.4 216.15 112.6C221.75 125.8 222.3 141 217.2 153.55Z" fill="#C2D11D"/>
<path d="M193.15 95.05C202.85 114.9 211.45 135.35 218.95 156.15" stroke="#5D631A" stroke-width="1.7" stroke-linecap="round"/>
<path d="M192.6 111.75C197 115.317 201.417 118.867 205.85 122.4" stroke="#5D631A" stroke-width="1.7" stroke-linecap="round"/>
<path d="M211.7 112.2C211.1 118.6 210.5 125.017 209.9 131.45" stroke="#5D631A" stroke-width="1.7" stroke-linecap="round"/>
<path d="M227.7 52.7C225.25 54.1 223.65 56.75 222.95 59.5C222.2 62.25 222.25 65.1 222.25 67.95C222.283 80.65 222.333 93.35 222.4 106.05C222.4 109.9 222.45 113.85 223.85 117.4C225.25 121 228.3 124.2 232.15 124.55C236.5 125 240.55 121.6 242.25 117.5C243.9 113.45 243.7 108.85 243.35 104.45C242.05 89.3 238.85 74.4 235.65 59.55C235.25 57.6 234.75 55.5 233.35 54.1C231.7 52.45 228.85 52 227.7 52.7Z" fill="#708A1C"/>
<path d="M229 54.95L235.7 131.55" stroke="#323D0D" stroke-width="1.35" stroke-linecap="round"/>
<path d="M222.85 86.8L232.85 103.05L239.7 83.7" stroke="#323D0D" stroke-width="1.35" stroke-linecap="round"/>
<path d="M384.45 271.1C398.3 275.3 409.15 288.1 411.25 301.95C403.75 300.95 396.65 297.15 391.7 291.45C386.7 285.75 383.9 278.2 384.45 271.1Z" fill="#C2D11D"/>
<path d="M406.15 296.5C398 288.1 390.3 279.3 383.1 270.05" stroke="#5D631A" stroke-width="0.9" stroke-linecap="round"/>
<path d="M403.65 288C400.85 286.933 398.05 285.883 395.25 284.85" stroke="#5D631A" stroke-width="0.9" stroke-linecap="round"/>
<path d="M394 290.95C393.233 287.617 392.483 284.3 391.75 281" stroke="#5D631A" stroke-width="0.9" stroke-linecap="round"/>
<path d="M177.6 311.7C166.6 296.3 160.65 277.9 160.65 258.6C160.65 234.15 170.2 211.1 187.5 193.8C204.8 176.5 227.85 166.95 252.3 166.95C276.8 166.95 299.8 176.5 317.1 193.8C324.25 200.95 330.05 209 334.4 217.75C348.85 214.25 363.5 211.4 378.3 209.7C377.8 208.467 377.3 207.25 376.8 206.05C370 189.95 360.25 175.5 347.85 163.1C335.45 150.7 321 140.95 304.9 134.15C288.25 127.1 270.55 123.5 252.3 123.5C234.1 123.5 216.4 127.1 199.7 134.15C183.65 140.95 169.2 150.7 156.8 163.1C144.4 175.5 134.65 189.95 127.85 206.05C120.8 222.7 117.2 240.4 117.2 258.6C117.2 276.85 120.8 294.55 127.85 311.2C133.35 324.2 140.75 336.1 149.9 346.7C155.45 340.05 161 333.4 166.4 326.6C170.25 321.7 174 316.75 177.6 311.7Z" fill="#4A5C0F"/>
<path d="M372.6 215.85C360.5 217.55 348.55 219.95 336.7 222.8C341.45 233.95 343.95 246.1 343.95 258.6C343.95 283.1 334.45 306.1 317.1 323.4C299.8 340.75 276.8 350.25 252.3 350.25C227.85 350.25 204.8 340.75 187.5 323.4C184.967 320.867 182.6 318.2 180.4 315.4C171.8 327.45 162.4 338.8 152.85 350C154.117 351.4 155.433 352.783 156.8 354.15C169.2 366.55 183.65 376.3 199.7 383.1C216.4 390.15 234.1 393.7 252.3 393.7C270.55 393.7 288.25 390.15 304.9 383.1C321 376.3 335.45 366.55 347.85 354.15C360.25 341.75 370 327.3 376.8 311.2C383.85 294.55 387.4 276.85 387.4 258.6C387.4 243.6 385 228.95 380.2 214.95C377.667 215.217 375.133 215.517 372.6 215.85Z" fill="#4A5C0F"/>
<path d="M234.8 348.6C217 345.15 200.6 336.5 187.5 323.4C170.2 306.1 160.65 283.1 160.65 258.6C160.65 234.15 170.2 211.1 187.5 193.8C200.2 181.15 215.95 172.65 233.05 169C232.1 154.45 231.15 139.9 230.3 125.3C219.85 127 209.6 129.95 199.7 134.15C183.65 140.95 169.2 150.7 156.8 163.1C144.4 175.5 134.65 189.95 127.85 206.05C120.8 222.7 117.2 240.4 117.2 258.6C117.2 276.85 120.8 294.55 127.85 311.2C134.65 327.3 144.4 341.75 156.8 354.15C169.2 366.55 183.65 376.3 199.7 383.1C207.85 386.55 216.2 389.15 224.75 390.9C228 376.8 231.4 362.7 234.8 348.6Z" fill="#C2D11D"/>
<path d="M198 184.8C213.65 173.2 232.5 166.95 252.3 166.95C276.8 166.95 299.8 176.5 317.1 193.8C334.45 211.1 343.95 234.15 343.95 258.6C343.95 259.3 343.95 260 343.95 260.7C358.05 254.8 372.15 248.9 386.65 244C385.2 230.9 381.95 218.2 376.8 206.05C370 189.95 360.25 175.5 347.85 163.1C335.45 150.7 321 140.95 304.9 134.15C288.25 127.1 270.55 123.5 252.3 123.5C234.1 123.5 216.4 127.1 199.7 134.15C193.45 136.8 187.4 139.9 181.65 143.45C185.65 153.8 189.55 164.15 193.7 174.4C195.1 177.867 196.533 181.333 198 184.8Z" fill="#FFD15C"/>
<path d="M362.8 299.65L410.65 218.7H314.95L362.8 299.65Z" fill="#FFD15C"/>
<path d="M224.8 135.3L131.25 144.4L187.65 221.65L224.8 135.3Z" fill="#C2D11D"/>
<path d="M166.35 344.6L225.65 417.55L258.85 327.85L166.35 344.6Z" fill="#4A5C0F"/>
<path d="M318.9 256.8C318.9 291.05 292.1 319.1 258.35 321.05C257.083 321.15 255.8 321.2 254.5 321.2C252.267 321.2 250.05 321.083 247.85 320.85C220.1 318 197.6 297.5 191.65 270.8C190.65 266.3 190.1 261.6 190.1 256.8C190.1 246.25 192.65 236.25 197.15 227.45C207.85 206.65 229.5 192.4 254.5 192.4C268.65 192.4 281.7 196.95 292.3 204.65C307.3 215.55 317.45 232.75 318.75 252.45C318.85 253.883 318.9 255.333 318.9 256.8Z" fill="#C5E6E6"/>
<path d="M269.85 293.1C266.8 295.6 262.45 298.8 264.15 302.35C265.1 304.3 267.55 305.1 268.65 306.95C270.5 310.1 267.45 313.9 264.4 315.95C262.2 317.4 259.65 318.95 258.35 321.05C257.083 321.15 255.8 321.2 254.5 321.2C252.267 321.2 250.05 321.083 247.85 320.85C247.883 320.017 247.917 319.183 247.95 318.35C237.55 318.6 227.85 309.55 227.4 299.2C227.3 296.85 227.6 294.4 226.95 292.15C226.25 289.9 224.15 287.8 221.85 288.15C220.7 288.35 219.7 289.05 218.6 289.35C216.15 289.95 213.55 288.25 212.55 285.95C211.55 283.65 211.85 281 212.7 278.6C213.4 276.65 214.4 274.7 214.3 272.65C214 268 208.15 265.7 203.55 266.55C199.4 267.35 195.7 269.7 191.65 270.8C190.65 266.3 190.1 261.6 190.1 256.8C190.1 246.25 192.65 236.25 197.15 227.45C202.2 229.45 207.7 230.35 212.95 229.3C220.9 227.65 227.3 221.85 234.8 218.65C242.25 215.45 253 216.25 256 223.8C257.75 228.2 256 233.35 252.75 236.8C250.25 239.35 246.95 241.15 244.9 244.1C242.7 247.2 242.15 251.1 240.95 254.7C239.75 258.3 237.3 262 233.55 262.6C231.45 262.95 229.35 262.2 227.25 262.35C222.25 262.7 218.6 268.8 220.7 273.35C222.8 277.95 229.8 279.15 233.3 275.55C234.6 274.3 235.35 272.6 236.5 271.2C240.45 266.3 248.9 266.1 253.05 270.85C254.25 272.2 255.2 273.9 256.8 274.7C259.8 276.1 263.15 273.7 266.45 273.5C270.85 273.2 274.7 277.25 275.15 281.6C275.6 286 273.25 290.25 269.85 293.1Z" fill="#717823"/>
<path d="M318.75 252.45C316.9 251.65 315.35 250.4 314.45 248.75C311.05 251.75 307.6 254.85 303.3 256.35C299.05 257.85 293.75 257.35 290.75 253.95C289.25 252.25 288.45 249.95 286.6 248.65C284 246.8 280.5 247.6 277.3 247.5C270.75 247.35 264.5 242.7 262.5 236.45C260.5 230.15 262.9 222.75 268.15 218.85C272.55 215.55 278.3 214.75 283 212C286.35 210 289.2 207.05 292.3 204.65C307.3 215.55 317.45 232.75 318.75 252.45Z" fill="#717823"/>
<path d="M46.15 309.1V259.4C46.15 252.15 52.05 246.25 59.25 246.25H72.25C79.3 246.25 85 251.95 85 259V309.1H46.15Z" fill="#BAC728"/>
<path d="M48.4 260.4C48.4 260.4 48 249.9 56.8 249L71.8 248.75C74.4 248.7 76.95 249.55 78.95 251.25C80.8 252.85 81.9 255.65 82.2 259.95" stroke="#323D0F" stroke-width="0.7" stroke-linecap="round"/>
<path d="M53.5 258.4C53.5 257.35 54.35 256.45 55.45 256.45H75.9C77 256.45 77.85 257.35 77.85 258.4C77.85 259.5 77 260.4 75.9 260.4H55.45C54.35 260.4 53.5 259.5 53.5 258.4Z" fill="#323D0F"/>
<path d="M91.2 309.1V259.4C91.2 252.15 97.1 246.25 104.3 246.25H117.3C124.35 246.25 130.05 251.95 130.05 259V309.1H91.2Z" fill="#FFD15C"/>
<path d="M93.45 260.4C93.45 260.4 93.05 249.9 101.85 249L116.85 248.75C119.45 248.7 122 249.55 124 251.25C125.85 252.85 126.95 255.65 127.25 259.95" stroke="#323D0F" stroke-width="0.7" stroke-linecap="round"/>
<path d="M98.55 258.4C98.55 257.35 99.4 256.45 100.5 256.45H120.95C122.05 256.45 122.9 257.35 122.9 258.4C122.9 259.5 122.05 260.4 120.95 260.4H100.5C99.4 260.4 98.55 259.5 98.55 258.4Z" fill="#323D0F"/>
<path d="M77.85 266.15C75.4 265.6 72.8 266.25 70.6 267.45C68.4 268.6 66.5 270.3 64.3 272.15C67.25 275.25 70.3 278.25 73.8 281.4C75.2 279.05 76.55 276.7 77.5 274.1C78.4 271.55 78.9 268.8 77.85 266.15Z" fill="#323D0F"/>
<path d="M69.15 275.75C65.4 280.35 60.35 286.25 56.25 290.55" stroke="#323D0F" stroke-width="0.7" stroke-linecap="round"/>
<path d="M58.75 279.15C59.25 279.55 65.85 279.3 66.55 279.4C66.55 280.15 66.7 285.95 66.8 286.55" stroke="#323D0F" stroke-width="0.7" stroke-linecap="round"/>
<path d="M56.7 282.6C59 282.6 61.3 282.6 63.45 282.65C63.2833 285.25 63.1167 287.867 62.95 290.5" stroke="#323D0F" stroke-width="0.7" stroke-linecap="round"/>
<path d="M54.85 286.5C56.6 286.4 58.35 286.35 60 286.3C59.8667 288.433 59.7333 290.55 59.6 292.65" stroke="#323D0F" stroke-width="0.7" stroke-linecap="round"/>
<path d="M69.55 272.55C69.55 271.7 70.25 271 71.15 271C72 271 72.7 271.7 72.7 272.55C72.7 273.45 72 274.15 71.15 274.15C70.25 274.15 69.55 273.45 69.55 272.55Z" fill="#BAC728"/>
<path d="M56.15 290.7C53.8833 291.033 51.6667 291.55 49.5 292.25C49.6 293.7 50.3 295.1 51.4 296.05C52.5 297.05 53.95 297.6 55.45 297.2C55.75 295.05 56 292.85 56.15 290.7Z" fill="#393D0E"/>
<path d="M41.55 309.05C41.55 304.9 44.85 301.5 48.95 301.5C53 301.5 56.3 304.9 56.3 309.05C56.3 313.25 53 316.6 48.95 316.6C44.85 316.6 41.55 313.25 41.55 309.05Z" fill="#323D0F"/>
<path d="M41.55 309.05C41.55 304.9 44.85 301.5 48.95 301.5C53 301.5 56.3 304.9 56.3 309.05C56.3 313.25 53 316.6 48.95 316.6C44.85 316.6 41.55 313.25 41.55 309.05Z" fill="#323D0F"/>
<path d="M45.45 309.05C45.45 307.1 47 305.5 48.95 305.5C50.85 305.5 52.4 307.1 52.4 309.05C52.4 311 50.85 312.6 48.95 312.6C47 312.6 45.45 311 45.45 309.05Z" fill="#E3DEBC"/>
<path d="M73.6 309.05C73.6 304.9 76.9 301.5 80.95 301.5C85.05 301.5 88.3 304.9 88.3 309.05C88.3 313.25 85.05 316.6 80.95 316.6C76.9 316.6 73.6 313.25 73.6 309.05Z" fill="#323D0F"/>
<path d="M73.6 309.05C73.6 304.9 76.9 301.5 80.95 301.5C85.05 301.5 88.3 304.9 88.3 309.05C88.3 313.25 85.05 316.6 80.95 316.6C76.9 316.6 73.6 313.25 73.6 309.05Z" fill="#323D0F"/>
<path d="M77.5 309.05C77.5 307.1 79.05 305.5 80.95 305.5C82.85 305.5 84.4 307.1 84.4 309.05C84.4 311 82.85 312.6 80.95 312.6C79.05 312.6 77.5 311 77.5 309.05Z" fill="#E3DEBC"/>
<path d="M91.15 309.05C91.15 304.9 94.45 301.5 98.55 301.5C102.6 301.5 105.9 304.9 105.9 309.05C105.9 313.25 102.6 316.6 98.55 316.6C94.45 316.6 91.15 313.25 91.15 309.05Z" fill="#323D0F"/>
<path d="M91.15 309.05C91.15 304.9 94.45 301.5 98.55 301.5C102.6 301.5 105.9 304.9 105.9 309.05C105.9 313.25 102.6 316.6 98.55 316.6C94.45 316.6 91.15 313.25 91.15 309.05Z" fill="#323D0F"/>
<path d="M95.05 309.05C95.05 307.1 96.6 305.5 98.55 305.5C100.45 305.5 102 307.1 102 309.05C102 311 100.45 312.6 98.55 312.6C96.6 312.6 95.05 311 95.05 309.05Z" fill="#E3DEBC"/>
<path d="M118.3 309.1C118.3 304.95 121.6 301.55 125.65 301.55C129.7 301.55 133 304.95 133 309.1C133 313.3 129.7 316.65 125.65 316.65C121.6 316.65 118.3 313.3 118.3 309.1Z" fill="#323D0F"/>
<path d="M118.3 309.1C118.3 304.95 121.6 301.55 125.65 301.55C129.7 301.55 133 304.95 133 309.1C133 313.3 129.7 316.65 125.65 316.65C121.6 316.65 118.3 313.3 118.3 309.1Z" fill="#323D0F"/>
<path d="M122.2 309.1C122.2 307.15 123.75 305.55 125.65 305.55C127.55 305.55 129.1 307.15 129.1 309.1C129.1 311.05 127.55 312.65 125.65 312.65C123.75 312.65 122.2 311.05 122.2 309.1Z" fill="#E3DEBC"/>
<path d="M85.3 292.7C81.15 293.4 77.25 295.5 74.2 298.4C71.1 301.35 68.85 305 67.3 308.95" stroke="#323D0F" stroke-width="0.7" stroke-linecap="round"/>
<path d="M130.1 291.8C125.65 292.4 121.4 294.5 118.15 297.6C114.9 300.7 112.65 304.8 111.85 309.25" stroke="#323D0F" stroke-width="0.7" stroke-linecap="round"/>
<path d="M137.2 309V259.3C137.2 252.05 143.1 246.2 150.35 246.2H163.3C170.35 246.2 176.05 251.9 176.05 258.9V309H137.2Z" fill="#323D0F"/>
<path d="M139.45 260.3C139.45 260.3 139.1 249.8 147.85 248.9L162.85 248.7C165.45 248.65 168 249.5 170 251.15C171.85 252.75 172.95 255.6 173.25 259.85" stroke="white" stroke-width="0.7" stroke-linecap="round"/>
<path d="M144.55 258.35C144.55 257.25 145.45 256.35 146.5 256.35H166.95C168.05 256.35 168.95 257.25 168.95 258.35C168.95 259.4 168.05 260.3 166.95 260.3H146.5C145.45 260.3 144.55 259.4 144.55 258.35Z" stroke="white" stroke-width="0.7" stroke-linecap="round"/>
<path d="M136.6 308.95C136.6 304.8 139.9 301.4 144 301.4C148.05 301.4 151.35 304.8 151.35 308.95C151.35 313.1 148.05 316.5 144 316.5C139.9 316.5 136.6 313.1 136.6 308.95Z" fill="#323D0F"/>
<path d="M136.6 308.95C136.6 304.8 139.9 301.4 144 301.4C148.05 301.4 151.35 304.8 151.35 308.95C151.35 313.1 148.05 316.5 144 316.5C139.9 316.5 136.6 313.1 136.6 308.95Z" fill="#323D0F"/>
<path d="M140.5 308.95C140.5 307 142.05 305.4 144 305.4C145.9 305.4 147.45 307 147.45 308.95C147.45 310.9 145.9 312.5 144 312.5C142.05 312.5 140.5 310.9 140.5 308.95Z" fill="#E3DEBC"/>
<path d="M164.3 309C164.3 304.85 167.6 301.45 171.65 301.45C175.75 301.45 179.05 304.85 179.05 309C179.05 313.2 175.75 316.6 171.65 316.6C167.6 316.6 164.3 313.2 164.3 309Z" fill="#323D0F"/>
<path d="M164.3 309C164.3 304.85 167.6 301.45 171.65 301.45C175.75 301.45 179.05 304.85 179.05 309C179.05 313.2 175.75 316.6 171.65 316.6C167.6 316.6 164.3 313.2 164.3 309Z" fill="#323D0F"/>
<path d="M168.2 309C168.2 307.05 169.75 305.5 171.65 305.5C173.6 305.5 175.15 307.05 175.15 309C175.15 311 173.6 312.55 171.65 312.55C169.75 312.55 168.2 311 168.2 309Z" fill="#E3DEBC"/>
<path d="M176.1 291.7C171.65 292.35 167.45 294.4 164.2 297.5C160.95 300.6 158.7 304.75 157.85 309.15" stroke="#FCFFF2" stroke-width="0.7" stroke-linecap="round"/>
<path d="M110.6 271L100.55 286.2H120.7L110.6 271Z" stroke="#323D0F" stroke-width="0.7" stroke-linecap="round"/>
<path d="M149.2 277.6C149.2 272.8 153.05 268.95 157.85 268.95C162.65 268.95 166.5 272.8 166.5 277.6C166.5 282.4 162.65 286.25 157.85 286.25C153.05 286.25 149.2 282.4 149.2 277.6Z" stroke="white" stroke-width="0.7" stroke-linecap="round"/>
<path d="M153.15 284.4L163.6 271" stroke="white" stroke-width="0.7" stroke-linecap="round"/>
<path d="M293.95 111.25H358.4V154.4H293.95V111.25Z" fill="#FF9B4F"/>
<path d="M289.5 111.05H364.65V117.75H289.5V111.05Z" fill="#DB7527"/>
<path d="M293.95 126.6H350.05V151.55H293.95V126.6Z" fill="#1F1208"/>
<path d="M300.15 126.6L300 151.55" stroke="#FFE8D6" stroke-width="0.95"/>
<path d="M308.75 126.6L308.6 151.55" stroke="#FFE8D6" stroke-width="0.95"/>
<path d="M318 126.6L317.85 151.55" stroke="#FFE8D6" stroke-width="0.95"/>
<path d="M327.15 126.6L327 151.55" stroke="#FFE8D6" stroke-width="0.95"/>
<path d="M334.8 126.6L334.65 151.55" stroke="#FFE8D6" stroke-width="0.95"/>
<path d="M343.15 126.6L343 151.55" stroke="#FFE8D6" stroke-width="0.95"/>
<path d="M291.3 111.15L306.2 87.6L305.9 111.25L291.3 111.15Z" fill="#C75600"/>
<path d="M305.6 111.15L320.5 87.6L320.2 111.25L305.6 111.15Z" fill="#C75600"/>
<path d="M348.55 111.05L350.7 59.1L355.05 58.95L357.55 111.05H348.55Z" fill="#EBDDBC"/>
<path d="M350.65 62.75H355.15" stroke="#332F26" stroke-width="0.45"/>
<path d="M350.05 67.6H355.75" stroke="#332F26" stroke-width="0.45"/>
<path d="M336.5 111.05L338.65 59.1L342.95 58.95L345.45 111.05H336.5Z" fill="#EBDDBC"/>
<path d="M338.55 62.75H343.1" stroke="#332F26" stroke-width="0.45"/>
<path d="M338 67.6H343.7" stroke="#332F26" stroke-width="0.45"/>
<path d="M322.55 111.05L324.7 59.1L329 58.95L331.5 111.05H322.55Z" fill="#EBDDBC"/>
<path d="M275.9 155.4L278.4 47.95L283.3 47.65L286.15 155.4H275.9Z" fill="#EBDDBC"/>
<path d="M324.6 62.75H329.1" stroke="#332F26" stroke-width="0.45"/>
<path d="M324 67.6H329.7" stroke="#332F26" stroke-width="0.45"/>
<path d="M293.45 111.05L304.65 93.05L303.85 111.05" stroke="#301D0E" stroke-width="0.45" stroke-linecap="round"/>
<path d="M308.65 111.05L318.7 93.5L318.2 111.1" stroke="#301D0E" stroke-width="0.45" stroke-linecap="round"/>
<path d="M291.3 112.45H362.95V116.4H291.3V112.45Z" stroke="#301D0E" stroke-width="0.45" stroke-linecap="round"/>
<path d="M298.75 122.25C298.75 121.1 299.65 120.2 300.8 120.2C301.95 120.2 302.9 121.1 302.9 122.25C302.9 123.4 301.95 124.35 300.8 124.35C299.65 124.35 298.75 123.4 298.75 122.25Z" fill="#301D0E"/>
<path d="M308.75 122.25C308.75 121.1 309.65 120.2 310.8 120.2C311.95 120.2 312.9 121.1 312.9 122.25C312.9 123.4 311.95 124.35 310.8 124.35C309.65 124.35 308.75 123.4 308.75 122.25Z" fill="#301D0E"/>
<path d="M319.9 122.2C319.9 121 320.85 120.1 322 120.1C323.15 120.1 324.1 121 324.1 122.2C324.1 123.35 323.15 124.25 322 124.25C320.85 124.25 319.9 123.35 319.9 122.2Z" fill="#301D0E"/>
<path d="M332.55 122.25C332.55 121.1 333.5 120.2 334.65 120.2C335.8 120.2 336.75 121.1 336.75 122.25C336.75 123.4 335.8 124.35 334.65 124.35C333.5 124.35 332.55 123.4 332.55 122.25Z" fill="#301D0E"/>
<path d="M344.4 122.25C344.4 121.1 345.35 120.2 346.5 120.2C347.65 120.2 348.55 121.1 348.55 122.25C348.55 123.4 347.65 124.35 346.5 124.35C345.35 124.35 344.4 123.4 344.4 122.25Z" fill="#301D0E"/>
<path d="M272.4 48.55C272.4 44.5 275.7 41.2 279.75 41.2C283.85 41.2 287.15 44.5 287.15 48.55C287.15 52.65 283.85 55.95 279.75 55.95C275.7 55.95 272.4 52.65 272.4 48.55Z" fill="#EBDDBC"/>
<path d="M279.75 48C272.5 59.25 260.65 67.35 247.55 70.05C249.85 63.45 254.2 57.55 259.85 53.45C265.55 49.35 272.5 47.1 279.75 48Z" fill="#EBDDBC"/>
<path d="M281 48C288.25 59.25 300.15 67.35 313.2 70.05C310.95 63.45 306.6 57.55 300.9 53.45C295.25 49.35 288.25 47.1 281 48Z" fill="#EBDDBC"/>
<path d="M280.45 46.75C276.9 41.25 275.6 34.5 276.1 28C276.6 21.45 278.75 15.2 281.6 9.3C287.3 21 286.95 35.45 280.45 46.75Z" fill="#EBDDBC"/>
<path d="M276.15 48.55C276.15 46.55 277.75 44.9 279.75 44.9C281.8 44.9 283.4 46.55 283.4 48.55C283.4 50.55 281.8 52.2 279.75 52.2C277.75 52.2 276.15 50.55 276.15 48.55Z" stroke="#2E2C27" stroke-width="0.45"/>
<path d="M364.9 155.6H275C274.35 155.6 273.8 155.05 273.8 154.4C273.8 153.75 274.35 153.2 275 153.2H364.9C365.6 153.2 366.15 153.75 366.15 154.4C366.15 155.05 365.6 155.6 364.9 155.6Z" fill="#C75600"/>
<path d="M450.85 197.95H364C354.8 197.95 347.3 190.4 347.3 181.2C347.3 172 354.8 164.5 364 164.5H450.85C460.05 164.5 467.6 172 467.6 181.2C467.6 190.4 460.05 197.95 450.85 197.95Z" fill="#323D0F"/>
<path d="M367.15 176.55H362.6V186H365.8V183.7H367.15C369.8 183.7 371.5 182.3 371.5 180.1C371.5 177.95 369.8 176.55 367.15 176.55ZM366.95 181.2H365.8V179H366.95C367.85 179 368.25 179.45 368.25 180.1C368.25 180.8 367.85 181.2 366.95 181.2ZM378.8 186H382.2L380.2 183.1C381.35 182.5 382 181.5 382 180.1C382 177.95 380.3 176.55 377.7 176.55H373.15V186H376.35V183.6H377.2L378.8 186ZM378.8 180.15C378.8 180.85 378.35 181.25 377.5 181.25H376.3V179.05H377.5C378.35 179.05 378.8 179.45 378.8 180.15ZM388.75 186.25C391.85 186.25 394.1 184.15 394.1 181.3C394.1 178.45 391.85 176.35 388.75 176.35C385.7 176.35 383.45 178.45 383.45 181.3C383.45 184.15 385.7 186.25 388.75 186.25ZM388.75 183.65C387.6 183.65 386.65 182.75 386.65 181.3C386.65 179.85 387.6 178.95 388.75 178.95C389.95 178.95 390.9 179.85 390.9 181.3C390.9 182.75 389.95 183.65 388.75 183.65ZM395.9 186H400.55C403.7 186 405.85 184.25 405.85 181.3C405.85 178.35 403.7 176.55 400.55 176.55H395.9V186ZM399.05 183.55V179.05H400.4C401.75 179.05 402.65 179.85 402.65 181.3C402.65 182.75 401.75 183.55 400.4 183.55H399.05ZM412.15 186.25C415.05 186.25 416.75 184.6 416.75 181.75V176.55H413.65V181.7C413.65 183.1 413.1 183.65 412.2 183.65C411.3 183.65 410.75 183.1 410.75 181.7V176.55H407.55V181.75C407.55 184.6 409.25 186.25 412.15 186.25ZM423.9 183.65C422.55 183.65 421.7 182.75 421.7 181.3C421.7 179.85 422.55 178.95 423.9 178.95C424.75 178.95 425.4 179.35 425.95 180.05L427.95 178.25C427.05 177.05 425.6 176.35 423.75 176.35C420.7 176.35 418.45 178.4 418.45 181.3C418.45 183.8 420.15 185.65 422.55 186.15L422.2 187.45H422.75C423.15 187.45 423.35 187.55 423.35 187.7C423.35 187.9 423.15 188 422.7 188C422.35 188 422.05 187.95 421.85 187.85L421.5 189C421.8 189.15 422.35 189.25 422.8 189.25C424.2 189.25 425.1 188.7 425.1 187.8C425.1 187.35 424.8 186.85 423.95 186.75L424.05 186.25C425.75 186.15 427.1 185.5 427.95 184.35L425.95 182.55C425.4 183.25 424.75 183.65 423.9 183.65ZM433.15 175.15C433.65 175.15 434.15 175.95 435.15 175.95C436.3 175.95 437 175 437 173.65H435.55C435.55 174 435.3 174.25 434.95 174.25C434.45 174.25 433.95 173.45 432.95 173.45C431.8 173.45 431.1 174.4 431.1 175.8H432.55C432.55 175.4 432.8 175.15 433.15 175.15ZM436.45 186H439.75L435.6 176.55H432.5L428.35 186H431.6L432.2 184.4H435.8L436.45 186ZM433.1 182.05L434.05 179.65L434.95 182.05H433.1ZM445.7 186.2C448.8 186.2 451.05 184.1 451.05 181.25C451.05 178.4 448.8 176.3 445.7 176.3C442.6 176.3 440.35 178.4 440.35 181.25C440.35 184.1 442.6 186.2 445.7 186.2ZM445.7 183.6C444.5 183.6 443.6 182.7 443.6 181.25C443.6 179.8 444.5 178.9 445.7 178.9C446.85 178.9 447.8 179.8 447.8 181.25C447.8 182.7 446.85 183.6 445.7 183.6Z" fill="#FFFAF3"/>
<path d="M454.5 340.85H367.65C358.45 340.85 350.95 333.3 350.95 324.1C350.95 314.9 358.45 307.4 367.65 307.4H454.5C463.7 307.4 471.25 314.9 471.25 324.1C471.25 333.3 463.7 340.85 454.5 340.85Z" fill="#323D0F"/>
<path d="M372.85 328L372.8 319.25H370.4L367.6 323.9L364.75 319.25H362.35V328H365.05V324.15L366.95 327.2H368.25L370.15 324V328H372.85ZM381.4 328H384.45L380.65 319.25H377.75L373.9 328H376.9L377.5 326.5H380.8L381.4 328ZM378.3 324.35L379.15 322.15L380 324.35H378.3ZM391.25 319.25V323.2L387.95 319.25H385.5V328H388.4V324L391.7 328H394.15V319.25H391.25ZM400.3 328.2C403 328.2 404.55 326.65 404.55 324.05V319.25H401.65V323.95C401.65 325.3 401.15 325.8 400.35 325.8C399.5 325.8 399 325.3 399 323.95V319.25H396.05V324.05C396.05 326.65 397.6 328.2 400.3 328.2ZM413.6 321.45V319.25H406.5V328H409.45V325.2H413.1V322.95H409.45V321.45H413.6ZM421.35 328H424.4L420.55 319.25H417.65L413.85 328H416.85L417.45 326.45H420.75L421.35 328ZM418.25 324.35L419.1 322.15L419.95 324.35H418.25ZM426.9 328H429.85V321.55H432.45V319.25H424.35V321.55H426.9V328ZM437.85 328.2C440.5 328.2 442.1 326.7 442.1 324.05V319.25H439.2V323.95C439.2 325.3 438.7 325.8 437.85 325.8C437.05 325.8 436.5 325.3 436.5 323.95V319.25H433.55V324.05C433.55 326.7 435.15 328.2 437.85 328.2ZM449.25 328H452.4L450.55 325.3C451.6 324.75 452.2 323.8 452.2 322.55C452.2 320.5 450.65 319.25 448.25 319.25H444V328H446.95V325.8H447.75L449.25 328ZM449.25 322.55C449.25 323.2 448.85 323.55 448.05 323.55H447V321.5H448.05C448.85 321.5 449.25 321.9 449.25 322.55ZM460.45 328H463.5L459.7 319.25H456.8L452.95 328H455.95L456.55 326.45H459.9L460.45 328ZM457.35 324.35L458.2 322.15L459.05 324.35H457.35Z" fill="#FFFAF3"/>
<path d="M398 160.5H378.6V110.7H397.9V115.85H385.5V132.35H395.55V137.25H385.5V155.5H398V160.5ZM416.05 161.05C412.55 161.05 409.817 160.317 407.85 158.85C405.917 157.383 404.567 155.4 403.8 152.9C403.033 150.4 402.65 147.617 402.65 144.55V126.95C402.65 123.583 403.033 120.65 403.8 118.15C404.567 115.65 405.917 113.733 407.85 112.4C409.817 111 412.55 110.3 416.05 110.3C419.183 110.3 421.65 110.867 423.45 112C425.283 113.167 426.6 114.817 427.4 116.95C428.2 119.083 428.6 121.633 428.6 124.6V128.55H422.05V125.05C422.05 123.217 421.95 121.6 421.75 120.2C421.583 118.767 421.083 117.667 420.25 116.9C419.45 116.1 418.083 115.7 416.15 115.7C414.183 115.7 412.75 116.133 411.85 117C410.95 117.833 410.35 119.017 410.05 120.55C409.817 122.083 409.7 123.867 409.7 125.9V145.65C409.7 148.15 409.9 150.133 410.3 151.6C410.7 153.033 411.367 154.067 412.3 154.7C413.267 155.3 414.55 155.6 416.15 155.6C418.017 155.6 419.367 155.183 420.2 154.35C421 153.517 421.517 152.35 421.75 150.85C421.95 149.383 422.05 147.667 422.05 145.7V142H428.6V145.7C428.6 148.733 428.233 151.417 427.5 153.75C426.767 156.05 425.5 157.85 423.7 159.15C421.9 160.417 419.35 161.05 416.05 161.05ZM448 161.05C444.633 161.05 441.95 160.4 439.95 159.1C437.917 157.8 436.467 155.933 435.6 153.5C434.767 151.033 434.35 148.167 434.35 144.9V126.05C434.35 122.75 434.767 119.933 435.6 117.6C436.5 115.233 437.95 113.433 439.95 112.2C441.95 110.933 444.633 110.3 448 110.3C451.333 110.3 453.983 110.933 455.95 112.2C457.917 113.467 459.333 115.267 460.2 117.6C461.1 119.933 461.55 122.75 461.55 126.05V144.95C461.55 148.183 461.1 151.017 460.2 153.45C459.333 155.883 457.917 157.767 455.95 159.1C453.983 160.4 451.333 161.05 448 161.05ZM448 155.6C449.833 155.6 451.217 155.233 452.15 154.5C453.083 153.733 453.717 152.667 454.05 151.3C454.383 149.9 454.55 148.283 454.55 146.45V124.6C454.55 122.767 454.383 121.2 454.05 119.9C453.717 118.533 453.083 117.5 452.15 116.8C451.217 116.067 449.833 115.7 448 115.7C446.133 115.7 444.717 116.067 443.75 116.8C442.783 117.5 442.15 118.533 441.85 119.9C441.517 121.2 441.35 122.767 441.35 124.6V146.45C441.35 148.283 441.517 149.9 441.85 151.3C442.15 152.667 442.783 153.733 443.75 154.5C444.717 155.233 446.133 155.6 448 155.6Z" fill="#708A1C"/>
<path d="M458.8 429.7H258.8C257.85 429.7 257.1 428.95 257.1 428C257.1 427.1 257.85 426.3 258.8 426.3H458.8C459.7 426.3 460.5 427.1 460.5 428C460.5 428.95 459.7 429.7 458.8 429.7Z" fill="#C2D11D"/>
<path d="M32.85 118.9C29.05 119.15 25.25 120.65 22.7 123.65C20.15 126.6 19.15 131.1 20.6 134.8C22.7 140.05 28.95 142.15 34.35 141.75C39.7 141.35 44.85 139.15 50.25 138.55C54.65 138.05 59.05 138.65 63.45 139.1C78.95 140.7 94.6 140.65 110.05 138.95C112.95 138.6 115.9 138.2 118.4 136.65C121.9 134.45 124 130 123.65 125.7C123.3 121.4 120.65 117.4 117 115.4C109.7 111.4 100.6 115.35 92.8 112.75C86 110.5 81.55 103.9 76.65 98.45C70.75 91.9 63.35 86.5 54.9 85.1C46.45 83.65 37 87 32.55 94.65C28.2 102.1 29.3 111.65 32.85 118.9Z" fill="#9BA626"/>
<path d="M34.35 141.75C37.45 141.5 40.5 140.65 43.6 139.9C48.35 132.2 51.25 123.65 50.45 113.7C49.95 108.35 48.55 102.9 46.25 98.05C44.35 94.25 41.5 89.8 37.1 89.45C35.3 90.9 33.75 92.6 32.55 94.65C28.2 102.1 29.3 111.65 32.85 118.9C29.05 119.15 25.25 120.65 22.7 123.65C20.15 126.6 19.15 131.1 20.6 134.8C22.7 140.05 28.95 142.15 34.35 141.75Z" fill="#4A4F11"/>
<path d="M59.95 127.95C60.45 133.7 62.05 139.3 64.7 144.4C66.55 147.9 68.8 151.15 70.3 154.8C72.75 160.8 72.8 167.45 72.85 173.9C72.9 180.1 72.95 186.25 72.6 192.25C79.3 192.65 86.05 192.6 93.3 191.45C89.3 183.25 85.3 175.05 81.3 166.85C79.95 164.15 78.65 161.4 78.1 158.45C77.55 155.55 77.85 152.3 79.6 149.85C81.65 146.95 85.25 145.7 87.95 143.4C90.6 141.15 92.3 137.85 92.45 134.95C90.8 134.55 89.15 134.15 87.6 134.45C87.8 136.5 87.95 138.7 86.85 140.4C86.15 141.5 85.05 142.2 84 142.9C82.6 143.8 81.2 144.7 79.8 145.6C78.8 146.25 77.8 146.9 76.7 147.1C73.75 147.75 70.95 145.55 69.15 143.15C66 139.05 64.3 133.4 66.3 128.65C64.05 128.65 61.75 128.65 59.95 127.95Z" fill="#8F4111"/>
<path d="M67.55 140.8C67.3 143.35 68.3 145.85 69.6 148.05C70.9 150.25 72.55 152.25 73.75 154.5C77.1 160.7 76.85 168.75 73.1 174.75" stroke="#4D1C0C" stroke-width="0.6" stroke-linecap="round"/>
<path d="M73.3 179C76.25 176.75 77.85 173.05 78.35 169.35C78.8 165.7 78.35 161.95 77.8 158.25" stroke="#4D1C0C" stroke-width="0.6" stroke-linecap="round"/>
<path d="M73 169.1C74.65 163.5 73.5 157.1 69.95 152.45C68.7 150.8 65.4 146.6 65.1 143.3C64.95 141.25 65.95 137.35 66.05 136.55" stroke="#4D1C0C" stroke-width="0.6" stroke-linecap="round"/>
<path d="M84.1 173.45C83.95 176.1 83.2 178.75 83.3 181.45C83.45 184.15 84.55 187.05 87.25 188.6C88.6 189.4 90.4 189.5 91.85 188.9" stroke="#4D1C0C" stroke-width="0.6" stroke-linecap="round"/>
<path d="M82.8 170.45L81.4 178.1C80.8 181.45 80.2 184.95 81.5 188.75C82.55 190.25 83.7 191.85 85.45 192.35" stroke="#4D1C0C" stroke-width="0.6" stroke-linecap="round"/>
<path d="M91.35 138.35C89.55 138.6 87.95 139.7 86.8 141.1C85.65 142.5 84.9 144.2 84.25 145.9" stroke="#4D1C0C" stroke-width="0.6" stroke-linecap="round"/>
<path d="M80.7 148.65C81.1 146.65 82 144.8 83.3 143.3" stroke="#4D1C0C" stroke-width="0.6" stroke-linecap="round"/>
<path d="M73.55 151.4C72.9 149.8 72.95 148.3 73.7 147.95C74.45 147.65 75.6 148.65 76.25 150.25C76.9 151.8 76.85 153.3 76.1 153.65C75.35 153.95 74.25 152.95 73.55 151.4Z" stroke="#4D1C0C" stroke-width="0.6" stroke-linecap="round"/>
<path d="M55 123.7C56.85 126.3 59.75 128.15 62.85 128.85C66 129.5 69.4 128.95 72.15 127.3" stroke="#4A4F11" stroke-width="1.15" stroke-linecap="round"/>
<path d="M94.7 134.35C89.85 135.6 84.45 134.2 80.9 130.7" stroke="#4A4F11" stroke-width="1.15" stroke-linecap="round"/>
<path d="M139.45 221.4H52.6C43.4 221.4 35.9 213.9 35.9 204.7C35.9 195.5 43.4 187.95 52.6 187.95H139.45C148.65 187.95 156.2 195.5 156.2 204.7C156.2 213.9 148.65 221.4 139.45 221.4Z" fill="#323D0F"/>
<path d="M60.1 209H63.75L61.6 205.85C62.85 205.25 63.55 204.15 63.55 202.7C63.55 200.35 61.75 198.85 58.9 198.85H54V209H57.45V206.45H58.35L60.1 209ZM60.1 202.7C60.1 203.4 59.65 203.85 58.7 203.85H57.45V201.5H58.7C59.65 201.5 60.1 201.95 60.1 202.7ZM68.9 206.4V205.1H73.15V202.6H68.9V201.45H73.75V198.85H65.5V209H73.95V206.4H68.9ZM81.2 209.25C83.2 209.25 84.75 208.5 85.75 207.2L83.6 205.25C83 206.05 82.3 206.45 81.4 206.45C79.95 206.45 79 205.45 79 203.9C79 202.35 79.95 201.4 81.4 201.4C82.3 201.4 83 201.8 83.6 202.55L85.75 200.65C84.75 199.35 83.2 198.6 81.2 198.6C77.95 198.6 75.55 200.8 75.55 203.9C75.55 207.05 77.95 209.25 81.2 209.25ZM87.4 209H90.85V198.85H87.4V209ZM98.4 209.25C100.4 209.25 101.95 208.5 102.95 207.2L100.8 205.25C100.2 206.05 99.5 206.45 98.6 206.45C97.15 206.45 96.2 205.45 96.2 203.9C96.2 202.35 97.15 201.4 98.6 201.4C99.5 201.4 100.2 201.8 100.8 202.55L102.95 200.65C101.95 199.35 100.4 198.6 98.4 198.6C95.15 198.6 92.75 200.8 92.75 203.9C92.75 207.05 95.15 209.25 98.4 209.25ZM104.6 209H112.6V206.35H108.05V198.85H104.6V209ZM121.95 209H125.5L121.05 198.85H117.7L113.25 209H116.75L117.45 207.25H121.3L121.95 209ZM118.35 204.75L119.35 202.2L120.3 204.75H118.35ZM132.8 209H136.45L134.3 205.85C135.55 205.2 136.25 204.1 136.25 202.65C136.25 200.3 134.45 198.85 131.6 198.85H126.7V209H130.15V206.45H131.05L132.8 209ZM132.8 202.65C132.8 203.4 132.35 203.85 131.4 203.85H130.15V201.45H131.4C132.35 201.45 132.8 201.9 132.8 202.65Z" fill="#FFFAF3"/>
<path d="M122.55 97.95C122.55 99.95 120.95 101.5 119 101.5C117 101.5 115.45 99.95 115.45 97.95C115.45 96 117 94.4 119 94.4C120.95 94.4 122.55 96 122.55 97.95Z" stroke="#323D0F" stroke-width="0.7"/>
<path d="M139.25 116.05C139.25 117.6 138 118.85 136.45 118.85C134.9 118.85 133.65 117.6 133.65 116.05C133.65 114.5 134.9 113.25 136.45 113.25C138 113.25 139.25 114.5 139.25 116.05Z" stroke="#323D0F" stroke-width="0.7"/>
<path d="M135.65 89.65C135.65 90.7 134.8 91.55 133.75 91.55C132.7 91.55 131.8 90.7 131.8 89.65C131.8 88.6 132.7 87.7 133.75 87.7C134.8 87.7 135.65 88.6 135.65 89.65Z" stroke="#323D0F" stroke-width="0.7"/>
<path d="M97.75 95.15C97.75 96.55 96.65 97.65 95.25 97.65C93.9 97.65 92.75 96.55 92.75 95.15C92.75 93.8 93.9 92.7 95.25 92.7C96.65 92.7 97.75 93.8 97.75 95.15Z" stroke="#323D0F" stroke-width="0.7"/>
<path d="M134.3 131.2C134.3 131.75 133.85 132.2 133.3 132.2C132.75 132.2 132.25 131.75 132.25 131.2C132.25 130.6 132.75 130.15 133.3 130.15C133.85 130.15 134.3 130.6 134.3 131.2Z" stroke="#323D0F" stroke-width="0.7"/>
<path d="M35.65 159.85C35.65 161.15 34.6 162.2 33.3 162.2C32 162.2 30.9 161.15 30.9 159.85C30.9 158.55 32 157.45 33.3 157.45C34.6 157.45 35.65 158.55 35.65 159.85Z" stroke="#323D0F" stroke-width="0.7"/>
<path d="M54.6 165.6C54.6 166.7 53.7 167.65 52.6 167.65C51.45 167.65 50.55 166.7 50.55 165.6C50.55 164.5 51.45 163.55 52.6 163.55C53.7 163.55 54.6 164.5 54.6 165.6Z" stroke="#323D0F" stroke-width="0.7"/>
<path d="M37 175.4C37 176 36.55 176.45 36 176.45C35.45 176.45 35 176 35 175.4C35 174.85 35.45 174.4 36 174.4C36.55 174.4 37 174.85 37 175.4Z" stroke="#323D0F" stroke-width="0.7"/>
<path d="M35.65 272.6C35.65 274.1 34.45 275.3 32.95 275.3C31.45 275.3 30.25 274.1 30.25 272.6C30.25 271.1 31.45 269.9 32.95 269.9C34.45 269.9 35.65 271.1 35.65 272.6Z" stroke="#323D0F" stroke-width="0.7"/>
<path d="M38.35 238.75C38.35 240.6 36.85 242.1 35 242.1C33.1 242.1 31.6 240.6 31.6 238.75C31.6 236.85 33.1 235.35 35 235.35C36.85 235.35 38.35 236.85 38.35 238.75Z" stroke="#323D0F" stroke-width="0.7"/>
<path d="M61.4 234.35C61.4 235.25 60.65 236.05 59.7 236.05C58.75 236.05 58 235.25 58 234.35C58 233.4 58.75 232.65 59.7 232.65C60.65 232.65 61.4 233.4 61.4 234.35Z" stroke="#323D0F" stroke-width="0.7"/>
<path d="M32.95 291.9C32.95 292.85 32.2 293.6 31.25 293.6C30.35 293.6 29.55 292.85 29.55 291.9C29.55 290.95 30.35 290.2 31.25 290.2C32.2 290.2 32.95 290.95 32.95 291.9Z" stroke="#323D0F" stroke-width="0.7"/>
<path d="M58 367.05C58 369.1 56.35 370.8 54.3 370.8C52.25 370.8 50.55 369.1 50.55 367.05C50.55 365 52.25 363.35 54.3 363.35C56.35 363.35 58 365 58 367.05Z" stroke="#323D0F" stroke-width="0.7"/>
<path d="M76.3 358.95C76.3 359.85 75.55 360.65 74.6 360.65C73.65 360.65 72.9 359.85 72.9 358.95C72.9 358 73.65 357.25 74.6 357.25C75.55 357.25 76.3 358 76.3 358.95Z" stroke="#323D0F" stroke-width="0.7"/>
<path d="M69.2 420C69.2 422.05 67.5 423.7 65.45 423.7C63.4 423.7 61.75 422.05 61.75 420C61.75 417.95 63.4 416.25 65.45 416.25C67.5 416.25 69.2 417.95 69.2 420Z" stroke="#323D0F" stroke-width="0.7"/>
<path d="M75.4 393.35C75.4 394.3 74.65 395.05 73.7 395.05C72.75 395.05 72 394.3 72 393.35C72 392.4 72.75 391.65 73.7 391.65C74.65 391.65 75.4 392.4 75.4 393.35Z" stroke="#323D0F" stroke-width="0.7"/>
<path d="M213.75 419.2C213.75 420.9 212.4 422.25 210.7 422.25C209.05 422.25 207.65 420.9 207.65 419.2C207.65 417.5 209.05 416.15 210.7 416.15C212.4 416.15 213.75 417.5 213.75 419.2Z" stroke="#323D0F" stroke-width="0.7"/>
<path d="M473.45 378.55C473.45 380.25 472.1 381.6 470.4 381.6C468.75 381.6 467.35 380.25 467.35 378.55C467.35 376.9 468.75 375.5 470.4 375.5C472.1 375.5 473.45 376.9 473.45 378.55Z" stroke="#323D0F" stroke-width="0.7"/>
<path d="M352.25 370.45C352.25 372.15 350.9 373.5 349.2 373.5C347.5 373.5 346.15 372.15 346.15 370.45C346.15 368.75 347.5 367.4 349.2 367.4C350.9 367.4 352.25 368.75 352.25 370.45Z" stroke="#323D0F" stroke-width="0.7"/>
<path d="M428.75 358.95C428.75 360.6 427.4 362 425.7 362C424.05 362 422.65 360.6 422.65 358.95C422.65 357.25 424.05 355.9 425.7 355.9C427.4 355.9 428.75 357.25 428.75 358.95Z" stroke="#323D0F" stroke-width="0.7"/>
<path d="M456.85 274.6C456.85 276.3 455.5 277.65 453.8 277.65C452.15 277.65 450.75 276.3 450.75 274.6C450.75 272.95 452.15 271.6 453.8 271.6C455.5 271.6 456.85 272.95 456.85 274.6Z" stroke="#323D0F" stroke-width="0.7"/>
<path d="M187.35 429.35C187.35 429.9 186.9 430.4 186.35 430.4C185.75 430.4 185.3 429.9 185.3 429.35C185.3 428.8 185.75 428.35 186.35 428.35C186.9 428.35 187.35 428.8 187.35 429.35Z" stroke="#323D0F" stroke-width="0.7"/>
<path d="M263.55 427.35C263.55 427.9 263.1 428.35 262.5 428.35C261.95 428.35 261.5 427.9 261.5 427.35C261.5 426.75 261.95 426.3 262.5 426.3C263.1 426.3 263.55 426.75 263.55 427.35Z" stroke="#323D0F" stroke-width="0.7"/>
<path d="M362.4 376.55C362.4 377.1 361.95 377.55 361.4 377.55C360.8 377.55 360.35 377.1 360.35 376.55C360.35 376 360.8 375.5 361.4 375.5C361.95 375.5 362.4 376 362.4 376.55Z" stroke="#323D0F" stroke-width="0.7"/>
<path d="M413.2 397.55C413.2 398.1 412.75 398.55 412.15 398.55C411.6 398.55 411.15 398.1 411.15 397.55C411.15 396.95 411.6 396.5 412.15 396.5C412.75 396.5 413.2 396.95 413.2 397.55Z" stroke="#323D0F" stroke-width="0.7"/>
<path d="M456.2 362.65C456.2 363.2 455.75 363.65 455.15 363.65C454.6 363.65 454.15 363.2 454.15 362.65C454.15 362.1 454.6 361.65 455.15 361.65C455.75 361.65 456.2 362.1 456.2 362.65Z" stroke="#323D0F" stroke-width="0.7"/>
<path d="M469.4 287.15C469.4 287.7 468.95 288.15 468.4 288.15C467.8 288.15 467.35 287.7 467.35 287.15C467.35 286.6 467.8 286.15 468.4 286.15C468.95 286.15 469.4 286.6 469.4 287.15Z" stroke="#323D0F" stroke-width="0.7"/>
<path d="M375.6 355.2C375.6 355.75 375.15 356.2 374.6 356.2C374.05 356.2 373.55 355.75 373.55 355.2C373.55 354.65 374.05 354.2 374.6 354.2C375.15 354.2 375.6 354.65 375.6 355.2Z" stroke="#323D0F" stroke-width="0.7"/>
<path d="M474.45 256.35C474.45 257.45 473.55 258.35 472.45 258.35C471.3 258.35 470.4 257.45 470.4 256.35C470.4 255.2 471.3 254.3 472.45 254.3C473.55 254.3 474.45 255.2 474.45 256.35Z" fill="#FFFAF3"/>
<path d="M473.1 209.3C473.1 209.85 472.65 210.3 472.1 210.3C471.55 210.3 471.1 209.85 471.1 209.3C471.1 208.7 471.55 208.25 472.1 208.25C472.65 208.25 473.1 208.7 473.1 209.3Z" stroke="#323D0F" stroke-width="0.7"/>
<path d="M479.2 186.95C479.2 188.25 478.15 189.3 476.85 189.3C475.55 189.3 474.45 188.25 474.45 186.95C474.45 185.6 475.55 184.55 476.85 184.55C478.15 184.55 479.2 185.6 479.2 186.95Z" stroke="#323D0F" stroke-width="0.7"/>
<path d="M471.1 156.8C471.1 157.55 470.5 158.15 469.75 158.15C469 158.15 468.4 157.55 468.4 156.8C468.4 156.05 469 155.45 469.75 155.45C470.5 155.45 471.1 156.05 471.1 156.8Z" stroke="#323D0F" stroke-width="0.7"/>
<path d="M394.55 80.95C394.55 82.05 393.65 83 392.55 83C391.4 83 390.5 82.05 390.5 80.95C390.5 79.85 391.4 78.9 392.55 78.9C393.65 78.9 394.55 79.85 394.55 80.95Z" stroke="#323D0F" stroke-width="0.7"/>
<path d="M431.8 87.7C431.8 88.85 430.9 89.75 429.8 89.75C428.65 89.75 427.75 88.85 427.75 87.7C427.75 86.6 428.65 85.7 429.8 85.7C430.9 85.7 431.8 86.6 431.8 87.7Z" stroke="#323D0F" stroke-width="0.7"/>
<path d="M366.8 90.1C366.8 91.05 366.05 91.8 365.1 91.8C364.2 91.8 363.4 91.05 363.4 90.1C363.4 89.15 364.2 88.4 365.1 88.4C366.05 88.4 366.8 89.15 366.8 90.1Z" stroke="#323D0F" stroke-width="0.7"/>
<path d="M372.9 51.5C372.9 52.05 372.45 52.5 371.9 52.5C371.3 52.5 370.85 52.05 370.85 51.5C370.85 50.95 371.3 50.5 371.9 50.5C372.45 50.5 372.9 50.95 372.9 51.5Z" stroke="#323D0F" stroke-width="0.7"/>
<path d="M251.7 31.2C251.7 32.1 250.95 32.85 250 32.85C249.05 32.85 248.3 32.1 248.3 31.2C248.3 30.25 249.05 29.5 250 29.5C250.95 29.5 251.7 30.25 251.7 31.2Z" stroke="#323D0F" stroke-width="0.7"/>
<path d="M268.6 41C268.6 41.75 268 42.35 267.25 42.35C266.5 42.35 265.9 41.75 265.9 41C265.9 40.25 266.5 39.65 267.25 39.65C268 39.65 268.6 40.25 268.6 41Z" stroke="#323D0F" stroke-width="0.7"/>
<path d="M325.5 37.6C325.5 38.75 324.6 39.65 323.45 39.65C322.35 39.65 321.45 38.75 321.45 37.6C321.45 36.5 322.35 35.6 323.45 35.6C324.6 35.6 325.5 36.5 325.5 37.6Z" stroke="#323D0F" stroke-width="0.7"/>
<path d="M348.5 43.7C348.5 44.1 348.2 44.4 347.85 44.4C347.45 44.4 347.15 44.1 347.15 43.7C347.15 43.35 347.45 43.05 347.85 43.05C348.2 43.05 348.5 43.35 348.5 43.7Z" stroke="#323D0F" stroke-width="0.7"/>
<path d="M247.8 446.3H160.95C151.75 446.3 144.2 438.8 144.2 429.6C144.2 420.4 151.75 412.85 160.95 412.85H247.8C257 412.85 264.5 420.4 264.5 429.6C264.5 438.8 257 446.3 247.8 446.3Z" fill="#323D0F"/>
<path d="M165.95 435.2C169 435.2 170.55 433.7 170.55 431.9C170.55 428.3 165.1 429.3 165.1 428.1C165.1 427.8 165.4 427.5 166.4 427.5C167.25 427.5 168.15 427.75 169.1 428.2L170.1 425.85C169.1 425.25 167.75 425 166.4 425C163.35 425 161.85 426.45 161.85 428.3C161.85 431.95 167.25 430.95 167.25 432.15C167.25 432.5 166.95 432.7 166 432.7C164.9 432.7 163.7 432.35 162.75 431.8L161.7 434.2C162.65 434.8 164.35 435.2 165.95 435.2ZM179.5 435H182.9L178.6 425.2H175.35L171.1 435H174.45L175.1 433.3H178.85L179.5 435ZM176 430.9L176.95 428.45L177.9 430.9H176ZM188.55 435.2C191.55 435.2 193.35 433.5 193.35 430.6V425.2H190.1V430.5C190.1 432 189.5 432.55 188.6 432.55C187.65 432.55 187.1 432 187.1 430.5V425.2H183.8V430.6C183.8 433.5 185.55 435.2 188.55 435.2ZM195.5 435H200.3C203.6 435 205.85 433.15 205.85 430.1C205.85 427.05 203.6 425.2 200.3 425.2H195.5V435ZM198.8 432.4V427.75H200.2C201.55 427.75 202.5 428.6 202.5 430.1C202.5 431.6 201.55 432.4 200.2 432.4H198.8ZM215.75 422.15H212.75L210.9 424.4H213L215.75 422.15ZM214.85 435H218.3L214 425.2H210.75L206.45 435H209.85L210.5 433.25H214.2L214.85 435ZM211.4 430.95L212.35 428.45L213.3 430.95H211.4ZM226.1 425.2L223.75 430.95L221.4 425.2H217.85L222 435H225.2L229.35 425.2H226.1ZM233.6 432.55V431.25H237.7V428.85H233.6V427.7H238.3V425.2H230.35V435H238.5V432.55H233.6ZM240.4 435H248.15V432.45H243.7V425.2H240.4V435Z" fill="#FFFAF3"/>
<path d="M222.35 416.85H153.25C143 416.85 134.65 408.45 134.65 398.2C134.65 388 143 379.6 153.25 379.6H222.35C232.6 379.6 241 388 241 398.2C241 408.45 232.6 416.85 222.35 416.85Z" fill="#BAC728"/>
<path d="M151.7 403.7C153.65 403.7 155.15 403 156.1 401.75L154.05 399.9C153.45 400.65 152.75 401.05 151.9 401.05C150.5 401.05 149.6 400.1 149.6 398.6C149.6 397.1 150.5 396.15 151.9 396.15C152.75 396.15 153.45 396.55 154.05 397.3L156.1 395.45C155.15 394.2 153.65 393.5 151.7 393.5C148.55 393.5 146.25 395.6 146.25 398.6C146.25 401.6 148.55 403.7 151.7 403.7ZM162.65 403.7C165.85 403.7 168.15 401.55 168.15 398.6C168.15 395.65 165.85 393.5 162.65 393.5C159.45 393.5 157.1 395.65 157.1 398.6C157.1 401.55 159.45 403.7 162.65 403.7ZM162.65 401.05C161.4 401.05 160.45 400.15 160.45 398.6C160.45 397.05 161.4 396.15 162.65 396.15C163.85 396.15 164.85 397.05 164.85 398.6C164.85 400.15 163.85 401.05 162.65 401.05ZM176.45 393.7V398.15L172.75 393.7H170V403.5H173.25V399.05L176.95 403.5H179.7V393.7H176.45ZM185.55 403.7C188.6 403.7 190.1 402.2 190.1 400.4C190.1 396.8 184.7 397.8 184.7 396.6C184.7 396.3 185 396 185.95 396C186.8 396 187.75 396.25 188.7 396.7L189.7 394.35C188.65 393.75 187.3 393.5 186 393.5C182.95 393.5 181.45 394.95 181.45 396.8C181.45 400.45 186.85 399.45 186.85 400.65C186.85 401 186.5 401.2 185.55 401.2C184.5 401.2 183.25 400.85 182.35 400.3L181.25 402.7C182.25 403.3 183.9 403.7 185.55 403.7ZM196.4 403.7C199.45 403.7 201.2 402.05 201.2 399.1V393.7H197.95V399C197.95 400.5 197.35 401.05 196.45 401.05C195.55 401.05 194.95 400.5 194.95 399V393.7H191.65V399.1C191.65 402.05 193.4 403.7 196.4 403.7ZM215.1 403.5V393.7H212.35L209.25 398.9L206.05 393.7H203.35V403.5H206.35V399.2L208.5 402.6H209.95L212.05 399.05L212.1 403.5H215.1ZM222.5 403.7C225.65 403.7 228 401.55 228 398.6C228 395.65 225.65 393.5 222.5 393.5C219.3 393.5 216.95 395.65 216.95 398.6C216.95 401.55 219.3 403.7 222.5 403.7ZM222.5 401.05C221.25 401.05 220.3 400.15 220.3 398.6C220.3 397.05 221.25 396.15 222.5 396.15C223.7 396.15 224.7 397.05 224.7 398.6C224.7 400.15 223.7 401.05 222.5 401.05Z" fill="#FFFAF3"/>
<path d="M299.5 317.65C294.05 320.95 288.5 327.3 283.3 335.5C270.55 355.65 257.8 375.85 245.25 397.05C252.817 403.283 260.4 409.533 268 415.8L305.55 354L295.4 422.95C295.4 422.95 325.5 422.65 325.55 422.6C327.65 397.85 329.75 373.1 331.15 348.3C331.6 340.5 331.9 332.35 328.35 325.6C327.7 325.4 300.3 318.75 299.5 317.65Z" fill="#C5E6E6"/>
<path d="M287 329.95C290.1 332 294.2 332.55 297.75 331.35C301.25 330.15 304.2 327.3 305.45 323.75" stroke="#2E2C27" stroke-width="0.6"/>
<path d="M295.2 321L329.5 330.2" stroke="#252B2B" stroke-width="0.6" stroke-linecap="round"/>
<path d="M321.3 328.05C320.7 330.65 320.1 333.4 320.7 336C321.15 337.85 322.15 339.5 323.35 341C324 341.9 324.8 342.7 325.7 343.35C327.45 344.55 328.65 345.05 330.75 345.4" stroke="#252B2B" stroke-width="0.6" stroke-linecap="round"/>
<path d="M314.85 326.5C314.6 328.3 313.05 334.4 311.85 338.65C311.15 341.2 309.9 344.1 307.3 344.7" stroke="#252B2B" stroke-width="0.6" stroke-linecap="round"/>
<path d="M311.4 325.8C310.4 332.55 309 338.5 307.05 345.05" stroke="#252B2B" stroke-width="0.6" stroke-linecap="round"/>
<path d="M307.45 350.8C312.017 350.2 316.583 349.617 321.15 349.05" stroke="#252B2B" stroke-width="0.6" stroke-linecap="round"/>
<path d="M309.65 353.55C311.683 353.95 313.717 354.367 315.75 354.8" stroke="#252B2B" stroke-width="0.6" stroke-linecap="round"/>
<path d="M296.1 340.55C298.4 342.85 300.35 345.4 301.95 348.2" stroke="#252B2B" stroke-width="0.6" stroke-linecap="round"/>
<path d="M294.3 349.15C295.733 349.983 297.15 350.817 298.55 351.65" stroke="#252B2B" stroke-width="0.6" stroke-linecap="round"/>
<path d="M305.45 423.1L305.9 352L258.9 407.45" stroke="#252B2B" stroke-width="0.6" stroke-linecap="round" stroke-linejoin="round"/>
<path d="M341.35 337C341.15 336.967 340.967 336.917 340.8 336.85C340.3 336.7 339.85 336.4 339.5 336.05L333.85 338.45C333.85 338.45 333.85 338.467 333.85 338.5C333.817 338.633 333.8 338.767 333.8 338.9C333.833 339.433 333.75 339.95 333.55 340.45C333.417 340.717 333.283 340.967 333.15 341.2L341.6 361L350.85 357.05L342.4 337.25C342.033 337.217 341.683 337.133 341.35 337Z" fill="#CFB078"/>
<path d="M340.25 344.6L339.5 351.75L345.9 349.05L340.25 344.6Z" stroke="#0D0C0C" stroke-width="0.6" stroke-linecap="round" stroke-linejoin="round"/>
<path d="M320.9 324.3C321.85 322.45 323.7 320.95 325.75 320.7C328.7 320.35 331.4 322.4 333.05 324.85C334.25 326.7 335.1 328.8 335.4 330.95C335.8 333.35 335.6 335.9 336.7 338.1" stroke="#252B2B" stroke-width="0.6" stroke-linecap="round" stroke-linejoin="round"/>
<path d="M430.2 423.65V377.1C430.2 375.45 431.5 374.1 433.15 374.1H454.25C455.85 374.1 457.2 375.45 457.2 377.1V423.65C457.2 425.25 455.85 426.6 454.25 426.6H433.15C431.5 426.6 430.2 425.25 430.2 423.65Z" fill="black"/>
<path d="M442.2 375.25L452.8 375.4C454.4 375.4 455.7 376.7 455.7 378.3V421.1" stroke="white" stroke-width="0.45"/>
<path d="M440.35 420.5C440.35 418.65 441.5 417.2 442.95 417.2C444.35 417.2 445.5 418.65 445.5 420.5C445.5 422.3 444.35 423.8 442.95 423.8C441.5 423.8 440.35 422.3 440.35 420.5Z" stroke="white" stroke-width="0.45"/>
<path d="M445.35 392.7V389.9H441.45V392.45C440.4 393.05 439.65 394.2 439.65 395.5V408.2C439.65 410.15 441.25 411.75 443.2 411.75C445.15 411.75 446.7 410.15 446.7 408.2V395.5C446.7 394.4 446.2 393.35 445.35 392.7Z" stroke="white" stroke-width="0.45"/>
<path d="M441.25 397.5H445.15V399.15H441.25V397.5Z" fill="#80C730"/>
<path d="M441.25 400.35H445.15V402H441.25V400.35Z" fill="#80C730"/>
<path d="M441.25 403.2H445.15V404.85H441.25V403.2Z" fill="#80C730"/>
<path d="M441.25 406.05H445.15V407.7H441.25V406.05Z" fill="#80C730"/>
<path d="M333.45 389.45L351.05 424.2C351.5 425.15 352.45 425.75 353.5 425.75H396.25C398.3 425.75 399.65 423.55 398.75 421.7L381.45 387.45C381 386.55 380.05 385.95 379 385.95L336 385.4C333.9 385.35 332.55 387.55 333.45 389.45Z" fill="#C4C4C4"/>
<path d="M333.45 389.45L351.05 424.2C351.5 425.15 352.45 425.75 353.5 425.75H396.25C398.3 425.75 399.65 423.55 398.75 421.7L381.45 387.45C381 386.55 380.05 385.95 379 385.95L336 385.4C333.9 385.35 332.55 387.55 333.45 389.45Z" fill="#121111"/>
<path d="M349.3 423.7H422.8V427.1H349.3V423.7Z" fill="#C4C4C4"/>
<path d="M350.55 425.3L375.35 425.4" stroke="#0F0F0F" stroke-width="0.5"/>
<path d="M392.3 423.95V427.05" stroke="#1A1717" stroke-width="0.5"/>
<path d="M369.9 413.15C368.7 409.55 367.5 405.55 368.9 402C370.4 398.25 374.3 396.15 378 394.5C385.55 391.15 393.35 388.3 401.3 385.9L397.85 398.6C396.6 403.2 395.3 407.9 392.2 411.5C389.45 414.65 385.4 416.7 381.2 416.95C377 417.15 372.7 415.65 369.9 413.15Z" fill="#C2D11D"/>
<path d="M365.2 417.45L392 396.85" stroke="#5D6314" stroke-width="0.95" stroke-linecap="round" stroke-linejoin="round"/>
<path d="M378 394.8L375.65 408.6L390.25 413.75" stroke="#5D6314" stroke-width="0.95" stroke-linecap="round" stroke-linejoin="round"/>
<path d="M383 392.55L379.7 405.85L393.35 409.9" stroke="#5D6314" stroke-width="0.95" stroke-linecap="round" stroke-linejoin="round"/>
<path d="M387.75 390.3L384.55 402.2L395.55 405.2" stroke="#5D6314" stroke-width="0.95" stroke-linecap="round" stroke-linejoin="round"/>
<path d="M394.6 350.6L394.5 350.5C394.2 350 394.4 349.3 394.9 349L397.65 347.35C398.15 347.05 398.8 347.2 399.15 347.75L399.2 347.85C399.5 348.35 399.35 349.05 398.85 349.35L396.1 351C395.6 351.3 394.9 351.15 394.6 350.6Z" stroke="#252B2B" stroke-width="0.3" stroke-linecap="round" stroke-linejoin="round"/>
<path d="M392.7 347.25L396.95 344.7L398.35 347L394.1 349.55L392.7 347.25Z" fill="#252B2B"/>
<path d="M419.65 372.1C419.583 372.167 419.517 372.25 419.45 372.35C417 375.05 412.45 378.75 405.65 379C405.55 379 405.433 379 405.3 379C403 375.95 401.25 372.65 401 368.9C401 368.733 401 368.567 401 368.4C400.967 368.067 400.95 367.75 400.95 367.45C401.017 367.417 401.1 367.4 401.2 367.4C404.3 366.75 408.15 365.3 410.85 361.75C410.883 361.683 410.933 361.6 411 361.5C411.233 361.667 411.483 361.817 411.75 361.95C411.883 362.05 412.017 362.133 412.15 362.2C415.75 364.4 418 368.1 419.65 372.1Z" fill="#C5E6E6"/>
<path d="M407.45 367.55L408 374.6L413.45 371.35L407.45 367.55Z" stroke="black" stroke-width="0.3"/>
<path d="M419.65 372.1C420.15 373.3 420.6 374.6 421.05 375.85C421.1 376 421.25 376.1 421.4 376.25C421.6 376.45 421.8 376.65 421.85 376.95C421.95 377.317 421.783 377.7 421.35 378.1C420.65 378.85 419.75 379.4 418.75 379.65C418.617 379.683 418.517 379.717 418.45 379.75C418.4 379.8 418.35 379.9 418.3 380V380.05C418 380.7 417.45 381.2 416.9 381.6C416.733 381.7 416.567 381.8 416.4 381.9C416.267 382 416.133 382.083 416 382.15C415.967 382.183 415.933 382.2 415.9 382.2C415.867 382.167 415.833 382.133 415.8 382.1C415.75 382.05 415.8 381.95 415.85 381.9C415.983 381.833 416.117 381.75 416.25 381.65C416.95 381.25 417.7 380.7 418.05 379.9C418.1 379.75 418.2 379.65 418.3 379.55C418.4 379.45 418.55 379.4 418.65 379.4C419.6 379.15 420.5 378.65 421.15 377.95C421.483 377.583 421.633 377.267 421.6 377C421.55 376.8 421.35 376.6 421.2 376.45C421.05 376.3 420.9 376.15 420.8 375.95C420.35 374.75 419.95 373.5 419.45 372.35C417.8 368.3 415.6 364.65 412 362.45C411.867 362.35 411.733 362.267 411.6 362.2C411.333 362.033 411.083 361.883 410.85 361.75C410.1 361.25 409.45 360.75 409.15 359.9C408.9 359.2 409 358.4 409.1 357.65C409.2 357.1 409.25 356.55 409.2 356.05C408.9 353.6 405.95 352.45 404.7 352.1C404.367 352 404.033 351.9 403.7 351.8C401.9 351.3 400.05 350.75 398.85 349.35C398.8 349.3 398.8 349.2 398.85 349.15C398.9 349.1 399 349.15 399.05 349.2C400.2 350.5 402.05 351.05 403.75 351.5C404.117 351.6 404.467 351.7 404.8 351.8C406.1 352.2 409.15 353.4 409.45 356C409.55 356.55 409.45 357.15 409.4 357.7C409.3 358.45 409.2 359.15 409.45 359.85C409.7 360.55 410.3 361.05 411 361.5C411.233 361.667 411.483 361.817 411.75 361.95C411.883 362.05 412.017 362.133 412.15 362.2C415.75 364.4 418 368.1 419.65 372.1Z" fill="#252B2B"/>
<path d="M416.85 381.45C416.883 381.517 416.9 381.567 416.9 381.6C416.867 381.633 416.833 381.65 416.8 381.65C416.667 381.75 416.533 381.833 416.4 381.9C416.233 382 416.067 382.1 415.9 382.2C415.3 382.5 414.6 382.75 413.85 382.7H413.8C413.7 382.7 413.6 382.7 413.55 382.7C413.45 382.75 413.4 382.8 413.35 382.9C412.6 383.65 411.7 384.2 410.75 384.5C410.183 384.667 409.75 384.633 409.45 384.4C409.2 384.2 409.15 383.9 409.05 383.65C409 383.45 408.95 383.3 408.85 383.15C407.6 381.8 406.4 380.45 405.3 379C403 375.95 401.25 372.65 401 368.9C401 368.733 401 368.567 401 368.4C400.967 368.067 400.95 367.75 400.95 367.45C400.85 366.65 400.7 365.95 400.2 365.4C399.7 364.85 399.05 364.6 398.3 364.3C397.8 364.15 397.25 363.95 396.8 363.6C394.65 362.1 395.05 358.85 395.3 357.5C395.367 357.167 395.433 356.817 395.5 356.45C395.9 354.7 396.3 352.85 395.7 351.2C395.65 351.15 395.7 351.05 395.75 351.05C395.85 351 395.9 351.05 395.95 351.1C396.6 352.85 396.2 354.7 395.8 356.55C395.733 356.883 395.667 357.217 395.6 357.55C395.3 358.85 394.95 362 396.95 363.4C397.4 363.7 397.9 363.85 398.4 364.05C399.15 364.35 399.9 364.6 400.4 365.2C400.95 365.8 401.15 366.55 401.2 367.4C401.233 367.733 401.25 368.067 401.25 368.4C401.283 368.567 401.3 368.733 401.3 368.9C401.5 372.65 403.3 375.95 405.65 379C406.7 380.4 407.9 381.7 409.05 382.95C409.2 383.15 409.25 383.35 409.35 383.55C409.4 383.8 409.45 384 409.65 384.15C409.85 384.35 410.183 384.383 410.65 384.25C411.6 383.95 412.45 383.45 413.1 382.7C413.2 382.6 413.3 382.5 413.4 382.45C413.55 382.4 413.7 382.4 413.85 382.4H413.9C414.75 382.45 415.55 382.05 416.25 381.65C416.417 381.583 416.567 381.5 416.7 381.4C416.75 381.4 416.85 381.4 416.85 381.45Z" fill="#252B2B"/>
</svg>
