<svg width="1085" height="408" viewBox="0 0 1085 408" fill="none" xmlns="http://www.w3.org/2000/svg">
<g clip-path="url(#clip0_54_3134)">
<path fill-rule="evenodd" clip-rule="evenodd" d="M494.564 -168.749C577.071 -112.49 663.416 -38.6799 663.465 63.5536C663.516 170.647 589.573 276.688 494.804 334.546C410.316 386.127 311.883 346.34 216.768 336.269C132.825 327.38 39.0716 338.837 -18.274 280.217C-77.52 219.655 -80.2033 126.008 -74.2667 38.7679C-68.0839 -52.089 -61.6099 -158.926 15.3009 -213.174C89.8797 -265.777 182.722 -212.539 270.492 -204.404C349.109 -197.116 431.012 -212.083 494.564 -168.749Z" fill="#7EB31E"/>
<path fill-rule="evenodd" clip-rule="evenodd" d="M469.208 167.215C573.595 201.723 674.471 278.595 707.255 365.533C737.981 447.013 672.596 510.459 620.661 568.843C582.327 611.936 519.923 627.662 457.201 646.636C384.753 668.552 318.288 708.924 234.037 685.801C135.432 658.738 38.7096 597.567 -8.35175 518.862C-56.4519 438.419 -50.0843 349.697 -5.75442 284.773C34.2757 226.146 128.234 220.721 208.84 200.77C294.115 179.664 373.896 135.707 469.208 167.215Z" fill="#3A88DE"/>
<path fill-rule="evenodd" clip-rule="evenodd" d="M1265.92 162.136C1276.69 225.527 1166.14 284.388 1136.2 353.716C1107.93 419.171 1164.05 490.441 1101.97 541.743C1040.52 592.533 962.283 557.994 891.448 555.98C815.758 553.828 715.509 581.464 681.384 529.785C647.166 477.964 713.065 398.191 741.323 328.626C769.506 259.242 774.837 181.914 843.474 130.746C916.347 76.4204 1009.02 64.3182 1088 70.1864C1166.03 75.9849 1254.62 95.7047 1265.92 162.136Z" fill="#C0EEF2"/>
<path fill-rule="evenodd" clip-rule="evenodd" d="M849.18 -130.728C946.006 -134.945 1026.49 -89.3029 1077.45 -46.5307C1119.01 -11.6577 1089.93 30.5291 1090.13 71.4881C1090.34 112.646 1123.22 156.018 1078.63 190.113C1027.73 229.027 939.786 259.227 849.18 255.723C761.595 252.336 709.438 207.805 651.669 173.602C599.731 142.85 537.06 112.31 538.011 71.4881C538.955 30.9595 607.563 3.52374 656.371 -28.1946C716.043 -66.9734 753.67 -126.569 849.18 -130.728Z" fill="#D3EC62"/>
<path fill-rule="evenodd" clip-rule="evenodd" d="M825.342 203.813C849.973 257.076 786.969 330.565 745.492 393.987C716.241 438.714 675.77 475.465 627.501 506.328C580.307 536.504 530.395 560.066 479.823 563.855C421.184 568.249 361.951 563.491 330.6 528.573C296.408 490.491 289.44 433.26 310.851 375.657C332.481 317.464 383.803 265.481 443.219 225.59C503.613 185.044 570.686 161.051 636.051 157.326C710.444 153.086 800.242 149.536 825.342 203.813Z" fill="#6CB9EB"/>
</g>
<defs>
<clipPath id="clip0_54_3134">
<rect width="1085" height="408" fill="white"/>
</clipPath>
</defs>
</svg>
