<svg width="1600" height="90" viewBox="0 0 1600 90" fill="none" xmlns="http://www.w3.org/2000/svg">
<g clip-path="url(#clip0_1_2)">
<rect width="1600" height="90" fill="white"/>
<path fill-rule="evenodd" clip-rule="evenodd" d="M84.923 -159C133.315 -158.997 167.702 -124.38 201.449 -95.9834C234.516 -68.1588 267.058 -39.0775 273.189 -0.581512C280.173 43.2704 282.305 100.132 236.396 123.433C190.624 146.664 138.221 101.289 84.923 94.9726C46.0947 90.3707 -0.0182381 114.381 -28.2409 92.0681C-56.5149 69.7151 -35.3637 31.5944 -35.9419 -0.581512C-36.5364 -33.6646 -53.03 -67.936 -31.6203 -95.9979C-5.98211 -129.602 36.529 -159.003 84.923 -159Z" fill="#C0EEF2"/>
<path fill-rule="evenodd" clip-rule="evenodd" d="M405.388 -54.285C473.042 -63.6104 547.398 -98.8428 602.975 -74.6819C657.914 -50.7982 629.684 0.0658875 621.066 39.4764C613.878 72.3461 598.065 103.962 558.648 128.024C518.045 152.811 464.304 168.682 405.388 171.138C341.712 173.793 265.099 171.935 228.29 141.797C192.759 112.705 233.295 74.4802 244.583 39.4764C252.688 14.3466 252.779 -12.5455 283.921 -30.7033C315.175 -48.927 362.197 -48.3314 405.388 -54.285Z" fill="#7EB31E"/>
<path fill-rule="evenodd" clip-rule="evenodd" d="M735.336 -92.9004C779.661 -96.1744 822.785 -92.9324 861.859 -72.2454C920.65 -41.1197 1014.76 -13.6576 1007.62 51.252C1000.27 118.008 892.348 110.517 837.309 150.787C797.294 180.065 784.138 239.808 735.336 250.468C679.029 262.769 612.676 250.466 574.558 208.186C537.5 167.082 545.091 105.011 555.729 51.252C564.259 8.14948 591.876 -26.9884 626.615 -54.8698C657.527 -79.68 695.43 -89.9529 735.336 -92.9004Z" fill="#3A88DE"/>
<path fill-rule="evenodd" clip-rule="evenodd" d="M1114.05 -109.531C1166.55 -115.246 1223.4 -130.2 1265.98 -97.9133C1312.81 -62.4007 1340.43 -0.675797 1336.66 59.2694C1333.05 116.676 1287.65 157.532 1247.41 197.241C1208.55 235.6 1167.75 277.872 1114.05 278.976C1059.63 280.096 1015.01 241.321 975.273 202.838C933.687 162.567 883.742 118.092 887.167 59.2694C890.522 1.6573 945.75 -34.2862 991.042 -67.9844C1027.44 -95.0678 1069.46 -104.677 1114.05 -109.531Z" fill="#6CB9EB"/>
<path fill-rule="evenodd" clip-rule="evenodd" d="M1457 -243.841C1525.45 -239.82 1539.47 -149.157 1589.8 -105.113C1644.49 -57.2489 1760.78 -50.0041 1758.98 20.4362C1757.17 91.2811 1634.02 87.6812 1583.55 140.075C1527.33 198.437 1540.41 330.393 1457 333.926C1374.73 337.409 1361.56 217.709 1318.58 151.295C1290.98 108.628 1256.35 70.4097 1254.16 20.4362C1251.87 -31.6991 1274.19 -79.5174 1306.6 -121.751C1346.94 -174.313 1388.44 -247.869 1457 -243.841Z" fill="#D3EC62"/>
</g>
<defs>
<clipPath id="clip0_1_2">
<rect width="1600" height="90" fill="white"/>
</clipPath>
</defs>
</svg>
