<svg width="59" height="59" viewBox="0 0 59 59" fill="none" xmlns="http://www.w3.org/2000/svg">
<g filter="url(#filter0_d_32_991)">
<path fill-rule="evenodd" clip-rule="evenodd" d="M19.1399 12.9472C23.0836 11.5774 24.9311 11.3524 29.0629 11.3864C33.1947 11.4204 34.4079 13.1004 34.6039 13.7797C35.637 17.3597 30.525 21.4032 27.5298 24.2766C22.739 28.8726 35.915 38.4077 31.5721 47.3782C29.7511 51.1395 25.1091 51.2286 22.6686 49.8835C18.0389 47.3318 20.1639 41.5312 19.6313 37.5527C19.2326 34.5748 14.4392 27.3952 13.4007 25.3829C11.479 21.6595 14.7217 14.4818 19.1399 12.9472Z" fill="black"/>
<path d="M17.2368 11.995C17.3711 12.8122 17.1267 13.4982 15.9765 14.2526C15.2546 14.7261 14.715 14.3499 14.5157 13.7798C14.175 12.8059 14.8199 11.8573 15.7664 11.295C16.7128 10.7326 17.1892 11.7051 17.2368 11.995Z" fill="black"/>
<path d="M17.2368 11.995C17.3711 12.8122 17.1267 13.4982 15.9765 14.2526C15.2546 14.7261 14.715 14.3499 14.5157 13.7798C14.175 12.8059 14.8199 11.8573 15.7664 11.295C16.7128 10.7326 17.1892 11.7051 17.2368 11.995Z" fill="black"/>
<path d="M21.3611 9.70038C21.5089 10.6218 21.229 11.3968 19.924 12.2527C19.1049 12.79 18.4964 12.3678 18.2736 11.7254C17.8931 10.6281 18.6274 9.5551 19.7009 8.91665C20.7745 8.27819 21.3086 9.37342 21.3611 9.70038Z" fill="black"/>
<path d="M21.3611 9.70038C21.5089 10.6218 21.229 11.3968 19.924 12.2527C19.1049 12.79 18.4964 12.3678 18.2736 11.7254C17.8931 10.6281 18.6274 9.5551 19.7009 8.91665C20.7745 8.27819 21.3086 9.37342 21.3611 9.70038Z" fill="black"/>
<path d="M26.0476 8.17936C26.1575 9.20113 25.7812 10.0831 24.2108 11.1131C23.2251 11.7597 22.5476 11.3219 22.3322 10.6163C21.9642 9.41091 22.8873 8.17029 24.1749 7.39636C25.4624 6.62243 26.0086 7.8168 26.0476 8.17936Z" fill="black"/>
<path d="M26.0476 8.17936C26.1575 9.20113 25.7812 10.0831 24.2108 11.1131C23.2251 11.7597 22.5476 11.3219 22.3322 10.6163C21.9642 9.41091 22.8873 8.17029 24.1749 7.39636C25.4624 6.62243 26.0086 7.8168 26.0476 8.17936Z" fill="black"/>
<path d="M31.4659 6.99956C31.6356 8.28393 31.2009 9.37941 29.2987 10.627C28.1048 11.4101 27.2547 10.8422 26.9656 9.95134C26.4716 8.4295 27.5686 6.89964 29.1305 5.96522C30.6924 5.03081 31.4057 6.54382 31.4659 6.99956Z" fill="black"/>
<path d="M31.4659 6.99956C31.6356 8.28393 31.2009 9.37941 29.2987 10.627C28.1048 11.4101 27.2547 10.8422 26.9656 9.95134C26.4716 8.4295 27.5686 6.89964 29.1305 5.96522C30.6924 5.03081 31.4057 6.54382 31.4659 6.99956Z" fill="black"/>
<path d="M39.4509 5.82001C39.7963 7.87548 39.1909 9.59762 36.3156 11.4836C34.5107 12.6673 33.154 11.7168 32.648 10.282C31.7836 7.83078 33.3901 5.45202 35.7569 4.04689C38.1237 2.64175 39.3283 5.09065 39.4509 5.82001Z" fill="black"/>
<path d="M39.4509 5.82001C39.7963 7.87548 39.1909 9.59762 36.3156 11.4836C34.5107 12.6673 33.154 11.7168 32.648 10.282C31.7836 7.83078 33.3901 5.45202 35.7569 4.04689C38.1237 2.64175 39.3283 5.09065 39.4509 5.82001Z" fill="black"/>
</g>
<defs>
<filter id="filter0_d_32_991" x="8.83545" y="3.61963" width="34.7028" height="55.0547" filterUnits="userSpaceOnUse" color-interpolation-filters="sRGB">
<feFlood flood-opacity="0" result="BackgroundImageFix"/>
<feColorMatrix in="SourceAlpha" type="matrix" values="0 0 0 0 0 0 0 0 0 0 0 0 0 0 0 0 0 0 127 0" result="hardAlpha"/>
<feOffset dy="4"/>
<feGaussianBlur stdDeviation="2"/>
<feComposite in2="hardAlpha" operator="out"/>
<feColorMatrix type="matrix" values="0 0 0 0 0 0 0 0 0 0 0 0 0 0 0 0 0 0 0.25 0"/>
<feBlend mode="normal" in2="BackgroundImageFix" result="effect1_dropShadow_32_991"/>
<feBlend mode="normal" in="SourceGraphic" in2="effect1_dropShadow_32_991" result="shape"/>
</filter>
</defs>
</svg>
