<svg width="2653" height="1270" viewBox="0 0 2653 1270" fill="none" xmlns="http://www.w3.org/2000/svg">
<g clip-path="url(#clip0_201_3)" filter="url(#filter0_d_201_3)">
<rect width="2645" height="1262" transform="translate(4)" fill="white"/>
<path fill-rule="evenodd" clip-rule="evenodd" d="M1011.26 679.778C1296.42 682.389 1605.46 541.325 1826.42 632.216C2045.51 722.34 1915.47 896.63 1871.68 1033.71C1836.44 1144.03 1785.65 1260.3 1604.66 1326.44C1437.85 1387.4 1212.34 1352.43 1002.61 1351.3C787.069 1350.13 545.864 1390.77 382.725 1319.83C214.527 1246.69 250.234 1121.34 223.426 1012.48C189.884 876.28 0.76701 705.664 209.743 617.412C420.468 528.422 730.874 677.21 1011.26 679.778Z" fill="#7EB31E"/>
<path fill-rule="evenodd" clip-rule="evenodd" d="M174.404 -120.9C369.255 -115.571 477.529 109.578 585.83 278.195C668.337 406.652 719.766 552.457 705.686 706.262C692.869 846.261 599.856 951.026 514.269 1059.87C413.403 1188.15 333.651 1377.84 174.404 1381.93C14.5435 1386.03 -83.5406 1208.33 -182.654 1077.76C-266.33 967.536 -325.49 846.07 -338.504 706.262C-353.23 548.068 -342.047 388.635 -259.234 255.083C-153.193 84.0715 -21.1298 -126.248 174.404 -120.9Z" fill="#D3EC62"/>
<path fill-rule="evenodd" clip-rule="evenodd" d="M391.247 101.425C394.471 -104.975 285.967 -372.126 493.389 -475.574C704.633 -580.927 1035.89 -464.788 1292.67 -348.143C1513.48 -247.839 1662.36 -77.2149 1763.89 101.554C1852.99 258.454 1850.2 415.318 1811.84 566.013C1770.81 727.191 1731.32 909.378 1542.2 972.418C1352.1 1035.78 1104.32 962.45 893.609 872.091C708.862 792.867 572.626 661.338 477.903 516.024C388.715 379.203 389.048 242.222 391.247 101.425Z" fill="#3A88DE"/>
<path fill-rule="evenodd" clip-rule="evenodd" d="M1391.96 366.319C1397.36 234.584 1465.37 99.3891 1630.63 7.13676C1785.48 -79.2987 2006.2 -74.3794 2212.53 -91.7282C2443.37 -111.137 2696.62 -176.154 2881.17 -98.0096C3074.57 -16.1215 3139.43 144.756 3112.19 289.205C3087.72 418.899 2891.42 503.285 2748.48 605.471C2593.75 716.084 2490.41 872.595 2257.01 900.55C2010.21 930.11 1769.58 847.386 1600.5 742.968C1441.85 644.992 1386.25 505.853 1391.96 366.319Z" fill="#C0EEF2"/>
<path fill-rule="evenodd" clip-rule="evenodd" d="M2142.25 641.229C2340.13 607.066 2561.12 502.961 2724.5 595.224C2890.89 689.187 2883.45 885.435 2852.29 1042.19C2825.49 1176.98 2709.18 1285.77 2570.33 1370.8C2448.46 1445.44 2297.96 1471.22 2142.25 1477.02C1975.7 1483.23 1789.59 1493.91 1670.46 1404.35C1550.72 1314.33 1543.38 1169.89 1563.83 1042.19C1581.77 930.227 1664.73 834.956 1773.8 759.352C1876.49 688.167 2007.25 664.534 2142.25 641.229Z" fill="#6CB9EB"/>
</g>
<defs>
<filter id="filter0_d_201_3" x="0" y="0" width="2653" height="1270" filterUnits="userSpaceOnUse" color-interpolation-filters="sRGB">
<feFlood flood-opacity="0" result="BackgroundImageFix"/>
<feColorMatrix in="SourceAlpha" type="matrix" values="0 0 0 0 0 0 0 0 0 0 0 0 0 0 0 0 0 0 127 0" result="hardAlpha"/>
<feOffset dy="4"/>
<feGaussianBlur stdDeviation="2"/>
<feComposite in2="hardAlpha" operator="out"/>
<feColorMatrix type="matrix" values="0 0 0 0 0 0 0 0 0 0 0 0 0 0 0 0 0 0 0.25 0"/>
<feBlend mode="normal" in2="BackgroundImageFix" result="effect1_dropShadow_201_3"/>
<feBlend mode="normal" in="SourceGraphic" in2="effect1_dropShadow_201_3" result="shape"/>
</filter>
<clipPath id="clip0_201_3">
<rect width="2645" height="1262" fill="white" transform="translate(4)"/>
</clipPath>
</defs>
</svg>
