<svg width="1085" height="62" viewBox="0 0 1085 62" fill="none" xmlns="http://www.w3.org/2000/svg">
<g clip-path="url(#clip0_30_502)" filter="url(#filter0_d_30_502)">
<rect width="1085" height="54" fill="white"/>
<path fill-rule="evenodd" clip-rule="evenodd" d="M120.221 -56.8918C174.92 -56.5547 234.485 -105.968 276.692 -74.9638C318.544 -44.2209 293.251 16.3311 284.579 63.8403C277.599 102.075 267.624 142.398 232.773 165.637C200.651 187.056 157.461 175.408 117.228 175.432C75.8829 175.457 29.5305 189.994 -1.62449 165.778C-33.7456 140.81 -26.647 97.373 -31.5736 59.7683C-37.7377 12.7171 -73.6784 -45.9307 -33.4142 -76.8753C7.18702 -108.079 66.4384 -57.2234 120.221 -56.8918Z" fill="#7EB31E"/>
<path fill-rule="evenodd" clip-rule="evenodd" d="M344.587 -74.9846C393.67 -74.162 420.944 -39.4084 448.225 -13.3811C469.009 6.44727 481.964 28.9535 478.417 52.6945C475.188 74.3044 451.758 90.4758 430.199 107.277C404.791 127.078 384.701 156.358 344.587 156.989C304.318 157.623 279.61 130.192 254.643 110.039C233.565 93.0241 218.663 74.2749 215.384 52.6945C211.675 28.276 214.492 3.66619 235.353 -16.9486C262.065 -43.3456 295.331 -75.81 344.587 -74.9846Z" fill="#D3EC62"/>
<path fill-rule="evenodd" clip-rule="evenodd" d="M1005.66 -105.766C1040.55 -104.222 1075.61 -94.1008 1098.12 -70.9538C1119.21 -49.2663 1115.28 -19.1374 1117.43 9.16246C1119.83 40.8228 1134.07 75.8252 1111.14 100.564C1087.12 126.488 1043.66 134.365 1005.66 129.758C971.536 125.62 951.482 98.2812 926.069 78.1238C898.561 56.3041 858.264 41.2256 853.623 9.16246C848.715 -24.7415 873.526 -57.1151 903.242 -79.5783C931.124 -100.656 968.703 -107.401 1005.66 -105.766Z" fill="#C0EEF2"/>
<path fill-rule="evenodd" clip-rule="evenodd" d="M731.457 -69.629C779.462 -78.4011 833.069 -105.133 872.704 -81.442C913.068 -57.315 911.262 -6.92413 903.703 33.3261C897.203 67.9373 868.987 95.8705 835.303 117.705C805.74 136.868 769.231 143.489 731.457 144.979C691.056 146.574 645.909 149.315 617.01 126.319C587.961 103.204 586.18 66.1159 591.143 33.3261C595.494 4.57724 615.62 -19.8857 642.077 -39.2986C666.988 -57.5768 698.71 -63.6451 731.457 -69.629Z" fill="#6CB9EB"/>
<path fill-rule="evenodd" clip-rule="evenodd" d="M590.507 -72.6933C628.319 -66.5017 652.572 -34.3672 679.101 -6.86197C704.753 19.7348 738.258 44.4056 738.987 81.2543C739.723 118.471 708.937 146.405 682.656 172.907C656.11 199.676 628.3 231.823 590.507 230.984C553.095 230.153 530.757 193.169 502.381 168.905C469.846 141.084 422.481 123.344 415.405 81.2543C407.755 35.7527 432.24 -11.0396 466.993 -41.5936C500.072 -70.6766 546.943 -79.8267 590.507 -72.6933Z" fill="#3A88DE"/>
</g>
<defs>
<filter id="filter0_d_30_502" x="-4" y="0" width="1093" height="62" filterUnits="userSpaceOnUse" color-interpolation-filters="sRGB">
<feFlood flood-opacity="0" result="BackgroundImageFix"/>
<feColorMatrix in="SourceAlpha" type="matrix" values="0 0 0 0 0 0 0 0 0 0 0 0 0 0 0 0 0 0 127 0" result="hardAlpha"/>
<feOffset dy="4"/>
<feGaussianBlur stdDeviation="2"/>
<feComposite in2="hardAlpha" operator="out"/>
<feColorMatrix type="matrix" values="0 0 0 0 0 0 0 0 0 0 0 0 0 0 0 0 0 0 0.25 0"/>
<feBlend mode="normal" in2="BackgroundImageFix" result="effect1_dropShadow_30_502"/>
<feBlend mode="normal" in="SourceGraphic" in2="effect1_dropShadow_30_502" result="shape"/>
</filter>
<clipPath id="clip0_30_502">
<rect width="1085" height="54" fill="white"/>
</clipPath>
</defs>
</svg>
