<svg width="1085" height="498" viewBox="0 0 1085 498" fill="none" xmlns="http://www.w3.org/2000/svg">
<g clip-path="url(#clip0_52_32)">
<path fill-rule="evenodd" clip-rule="evenodd" d="M912.463 427.777C903.702 485.802 810.647 512.465 741.105 542.575C692.062 563.81 638.044 572.209 580.757 571.4C524.746 570.609 470.108 562.8 425.804 538.122C374.432 509.506 327.603 472.924 320.655 426.515C313.077 375.899 338.767 324.286 388.354 287.986C438.449 251.314 509.912 236.173 581.474 235.583C654.214 234.983 723.416 251.88 780.034 284.757C844.473 322.174 921.391 368.648 912.463 427.777Z" fill="#C0EEF2"/>
<path fill-rule="evenodd" clip-rule="evenodd" d="M1296.89 122.708C1307.67 186.1 1197.12 244.96 1167.18 314.288C1138.91 379.743 1195.03 451.013 1132.95 502.315C1071.49 553.105 993.259 518.567 922.424 516.553C846.733 514.401 746.484 542.036 712.36 490.357C678.142 438.536 744.041 358.763 772.298 289.198C800.482 219.814 805.813 142.486 874.449 91.3187C947.322 36.9927 1039.99 24.8904 1118.97 30.7587C1197.01 36.5571 1285.6 56.2769 1296.89 122.708Z" fill="#C0EEF2"/>
<path fill-rule="evenodd" clip-rule="evenodd" d="M790.665 -159.651C920.625 -165.076 1028.65 -106.343 1097.05 -51.3031C1152.83 -6.42776 1113.8 47.8591 1114.07 100.566C1114.35 153.529 1158.48 209.341 1098.63 253.215C1030.32 303.29 912.276 342.153 790.665 337.644C673.11 333.285 603.104 275.981 525.567 231.968C455.855 192.396 371.738 153.097 373.014 100.566C374.282 48.413 466.367 13.1081 531.877 -27.7078C611.969 -77.6092 662.472 -154.299 790.665 -159.651Z" fill="#6CB9EB"/>
<path fill-rule="evenodd" clip-rule="evenodd" d="M463.35 -181.184C548.346 -123.172 637.31 -47.083 637.456 58.1953C637.608 168.479 561.581 277.608 464.068 337.1C377.133 390.139 275.756 349.075 177.823 338.614C91.3921 329.383 -5.11959 341.093 -64.2137 280.673C-125.266 218.252 -128.116 121.814 -122.086 31.9809C-115.806 -61.5762 -109.241 -171.589 -30.1091 -227.381C46.623 -281.481 142.257 -226.571 232.626 -218.11C313.573 -210.532 397.88 -225.868 463.35 -181.184Z" fill="#D3EC62"/>
<path fill-rule="evenodd" clip-rule="evenodd" d="M108.681 270.078C199.806 260.617 302.85 283.57 357.668 336.715C409.045 386.525 381.25 455.175 361.923 515.595C347.658 560.191 305.697 592.656 264.613 627.622C217.16 668.01 180.601 720.006 108.681 731.129C24.5083 744.147 -69.9776 731.384 -132.8 689.083C-197.009 645.849 -222.719 578.295 -211.417 515.595C-201.211 458.977 -131.75 423.557 -77.426 381.89C-19.9553 337.81 25.4773 278.717 108.681 270.078Z" fill="#6CB9EB"/>
</g>
<defs>
<clipPath id="clip0_52_32">
<rect width="1085" height="498" fill="white"/>
</clipPath>
</defs>
</svg>
