<svg width="216" height="202" viewBox="0 0 216 202" fill="none" xmlns="http://www.w3.org/2000/svg">
<path d="M214.85 180.8C185.3 117.45 151.6 58.7499 113.2 5.14995C108.25 -1.75005 97.95 -1.55006 93.3 5.54994C58.25 58.7999 27.85 116.6 1.20002 178C-1.99998 185.35 2.7 193.75 10.65 194.8C73.75 203.05 138.6 203.75 204.95 197.95C213.3 197.25 218.4 188.4 214.85 180.8Z" fill="#41579E"/>
<path d="M119.3 199.6H117.55C117.05 199.6 116.65 199.25 116.65 198.75C116.65 198.25 117.05 197.85 117.55 197.85L119.3 197.9C119.8 197.9 120.15 198.25 120.15 198.75C120.15 199.25 119.8 199.6 119.3 199.6ZM124.55 199.6C124.1 199.6 123.7 199.2 123.7 198.75C123.7 198.25 124.05 197.85 124.55 197.85H126.3C126.8 197.85 127.2 198.25 127.2 198.7C127.2 199.2 126.8 199.6 126.3 199.6H124.55ZM112.3 199.6C112.3 199.6 112.283 199.6 112.25 199.6L110.5 199.55C110.05 199.55 109.65 199.15 109.65 198.7C109.65 198.2 110.05 197.85 110.55 197.85H112.3C112.75 197.85 113.15 198.25 113.15 198.7C113.15 199.2 112.75 199.6 112.3 199.6ZM131.55 199.55C131.1 199.55 130.7 199.15 130.7 198.7C130.7 198.2 131.1 197.8 131.55 197.8L133.3 197.75C133.3 197.75 133.317 197.75 133.35 197.75C133.8 197.75 134.2 198.15 134.2 198.65C134.2 199.1 133.8 199.5 133.35 199.5L131.6 199.55C131.6 199.55 131.583 199.55 131.55 199.55ZM105.25 199.5L103.5 199.45C103 199.45 102.65 199.05 102.65 198.6C102.65 198.1 103.1 197.7 103.55 197.7L105.3 197.75C105.75 197.75 106.15 198.15 106.15 198.65C106.15 199.1 105.75 199.5 105.25 199.5ZM138.6 199.4C138.1 199.4 137.7 199.05 137.7 198.55C137.7 198.1 138.1 197.7 138.55 197.65H140.3L140.35 199.4H138.6ZM98.25 199.35L96.5 199.3C96 199.3 95.6 198.9 95.65 198.4C95.65 197.95 96.1 197.55 96.5 197.55L98.3 197.6C98.75 197.6 99.15 198 99.15 198.5C99.1 199 98.75 199.35 98.25 199.35ZM145.6 199.25C145.15 199.25 144.75 198.85 144.75 198.4C144.7 197.9 145.1 197.5 145.6 197.5L147.35 197.45C147.8 197.45 148.2 197.8 148.25 198.3C148.25 198.75 147.85 199.15 147.4 199.2L145.65 199.25C145.617 199.25 145.6 199.25 145.6 199.25ZM91.25 199.15C91.25 199.15 91.2333 199.15 91.2 199.15L89.45 199.1C89 199.05 88.6 198.65 88.6 198.2C88.65 197.7 89.05 197.35 89.5 197.35L91.25 197.4C91.75 197.4 92.15 197.8 92.1 198.3C92.1 198.8 91.7 199.15 91.25 199.15ZM152.6 199C152.15 199 151.75 198.65 151.75 198.15C151.7 197.7 152.1 197.3 152.6 197.25L154.35 197.2C154.8 197.2 155.2 197.55 155.25 198.05C155.25 198.5 154.9 198.9 154.4 198.95L152.65 199C152.65 199 152.633 199 152.6 199ZM84.25 198.9C84.2167 198.9 84.2 198.9 84.2 198.9L82.45 198.8C81.95 198.8 81.6 198.4 81.6 197.9C81.65 197.4 82.05 197.05 82.5 197.05L84.25 197.15C84.75 197.15 85.1 197.55 85.1 198.05C85.1 198.5 84.7 198.9 84.25 198.9ZM159.6 198.75C159.15 198.75 158.75 198.35 158.75 197.9C158.75 197.4 159.1 197 159.6 197L161.35 196.9C161.8 196.85 162.25 197.25 162.25 197.75C162.25 198.2 161.9 198.6 161.4 198.65L159.65 198.75C159.65 198.75 159.633 198.75 159.6 198.75ZM77.25 198.55C77.2167 198.55 77.2 198.55 77.2 198.55L75.45 198.45C74.95 198.45 74.6 198.05 74.6 197.55C74.65 197.05 75.05 196.7 75.5 196.75L77.25 196.8C77.75 196.85 78.1 197.25 78.1 197.75C78.1 198.2 77.7 198.55 77.25 198.55ZM166.65 198.4C166.15 198.4 165.8 198 165.75 197.55C165.75 197.1 166.1 196.65 166.6 196.65L168.35 196.55C168.85 196.55 169.25 196.9 169.25 197.35C169.3 197.85 168.9 198.25 168.45 198.3L166.7 198.4C166.667 198.4 166.65 198.4 166.65 198.4ZM70.2 198.2C70.2 198.2 70.1833 198.2 70.15 198.2L68.4 198.05C67.95 198.05 67.55 197.65 67.6 197.15C67.65 196.65 68.1 196.3 68.5 196.35L70.25 196.45C70.75 196.45 71.1 196.9 71.1 197.35C71.05 197.8 70.7 198.2 70.2 198.2ZM173.65 198C173.15 198 172.8 197.65 172.75 197.15C172.75 196.7 173.1 196.3 173.6 196.25L175.35 196.15C175.8 196.1 176.25 196.5 176.25 196.95C176.3 197.45 175.9 197.85 175.45 197.9L173.7 198C173.667 198 173.65 198 173.65 198ZM63.2 197.75C63.2 197.75 63.1833 197.75 63.15 197.75L61.4 197.6C60.95 197.6 60.55 197.15 60.6 196.7C60.65 196.2 61.1 195.85 61.55 195.85L63.3 196C63.75 196 64.15 196.45 64.1 196.9C64.05 197.4 63.7 197.75 63.2 197.75ZM180.65 197.55C180.2 197.55 179.8 197.2 179.75 196.75C179.75 196.25 180.1 195.85 180.6 195.8L182.35 195.7C182.75 195.7 183.25 196.05 183.25 196.5C183.3 197 182.95 197.4 182.45 197.45L180.7 197.55C180.667 197.55 180.65 197.55 180.65 197.55ZM56.25 197.25C56.2167 197.25 56.1833 197.25 56.15 197.25L54.4 197.1C53.95 197.05 53.55 196.65 53.6 196.15C53.65 195.65 54.1 195.3 54.55 195.35L56.3 195.5C56.75 195.5 57.15 195.95 57.1 196.4C57.05 196.9 56.7 197.25 56.25 197.25ZM187.65 197.05C187.2 197.05 186.8 196.7 186.75 196.25C186.75 195.8 187.1 195.35 187.55 195.3L189.2 195.2L189.4 196.05L189.45 196.95L187.7 197.05C187.667 197.05 187.65 197.05 187.65 197.05ZM49.25 196.65C49.2167 196.65 49.1833 196.65 49.15 196.65L47.4 196.5C46.95 196.45 46.55 196.05 46.6 195.55C46.65 195.1 47.1 194.75 47.55 194.75L49.3 194.9C49.8 194.95 50.15 195.4 50.1 195.85C50.05 196.3 49.7 196.65 49.25 196.65ZM194.65 196.5C194.2 196.5 193.8 196.2 193.75 195.7C193.7 195.25 194.1 194.8 194.55 194.8L196.3 194.65C196.8 194.6 197.2 194.95 197.25 195.45C197.3 195.9 196.95 196.35 196.45 196.4L194.7 196.5C194.667 196.5 194.65 196.5 194.65 196.5ZM42.25 196.05C42.2167 196.05 42.1833 196.05 42.15 196.05L40.4 195.85C39.95 195.8 39.6 195.4 39.65 194.9C39.7 194.4 40.15 194.1 40.6 194.1L42.35 194.3C42.8 194.35 43.15 194.75 43.1 195.25C43.05 195.7 42.7 196.05 42.25 196.05ZM201.6 195.9C201.2 195.9 200.85 195.6 200.75 195.15C200.65 194.7 201 194.25 201.45 194.15C201.983 194.05 202.517 193.917 203.05 193.75C203.5 193.6 204 193.85 204.15 194.3C204.3 194.75 204.05 195.25 203.6 195.4C203 195.6 202.383 195.767 201.75 195.9C201.717 195.9 201.667 195.9 201.6 195.9ZM35.25 195.35C35.2167 195.35 35.1833 195.35 35.15 195.35L33.45 195.15C32.95 195.1 32.6 194.65 32.65 194.2C32.7 193.7 33.15 193.35 33.6 193.4L35.35 193.6C35.85 193.65 36.2 194.1 36.15 194.55C36.1 195 35.7 195.35 35.25 195.35ZM28.3 194.6C28.2667 194.6 28.2333 194.583 28.2 194.55L26.45 194.35C25.95 194.3 25.6 193.9 25.7 193.4C25.75 192.9 26.2 192.6 26.65 192.65L28.4 192.85C28.85 192.9 29.2 193.3 29.15 193.8C29.1 194.25 28.75 194.6 28.3 194.6ZM21.3 193.75C21.2667 193.75 21.2333 193.75 21.2 193.75L19.45 193.55C19 193.45 18.65 193.05 18.7 192.55C18.8 192.1 19.2 191.75 19.7 191.8L21.45 192C21.9 192.05 22.25 192.5 22.2 193C22.15 193.45 21.75 193.75 21.3 193.75ZM14.35 192.8C14.3167 192.8 14.2667 192.8 14.2 192.8C13.5667 192.667 12.9667 192.483 12.4 192.25C11.95 192.05 11.7 191.55 11.9 191.1C12.05 190.65 12.55 190.45 13 190.6C13.5 190.8 14.0167 190.967 14.55 191.1C15.05 191.2 15.35 191.65 15.2 192.15C15.15 192.55 14.75 192.8 14.35 192.8ZM207.75 192.7C207.5 192.7 207.3 192.6 207.1 192.45C206.8 192.1 206.8 191.55 207.1 191.2C207.5 190.833 207.85 190.433 208.15 190C208.45 189.6 209 189.5 209.4 189.8C209.8 190.1 209.85 190.6 209.6 191C209.2 191.533 208.783 192.017 208.35 192.45C208.2 192.6 207.95 192.7 207.75 192.7ZM8.39999 189.35C8.19999 189.35 7.95 189.25 7.75 189.05C7.35 188.583 6.96667 188.083 6.60001 187.55C6.35001 187.15 6.45001 186.6 6.85001 186.35C7.25001 186.1 7.80001 186.2 8.10001 186.6C8.36667 187.033 8.68332 187.45 9.04999 187.85C9.39999 188.25 9.35 188.8 9 189.1C8.85 189.25 8.59999 189.35 8.39999 189.35ZM210.95 186.6C210.883 186.6 210.833 186.583 210.8 186.55C210.3 186.5 210 186 210.1 185.55C210.2 185.017 210.25 184.483 210.25 183.95C210.25 183.45 210.65 183.1 211.15 183.1C211.65 183.1 212 183.5 212 184C211.967 184.633 211.9 185.25 211.8 185.85C211.75 186.3 211.35 186.6 210.95 186.6ZM5.54999 183.05C5.09999 183.05 4.69999 182.75 4.64999 182.3C4.58333 181.767 4.54999 181.233 4.54999 180.7V180.4C4.59999 179.95 4.95001 179.55 5.45001 179.55C5.95001 179.55 6.29999 179.95 6.29999 180.45V180.7C6.29999 181.167 6.33333 181.617 6.39999 182.05C6.44999 182.55 6.09999 183 5.64999 183.05C5.61666 183.05 5.58332 183.05 5.54999 183.05ZM210.75 181.2C210.45 181.2 210.1 181 209.95 180.7L209.3 179.25C209.267 179.217 209.25 179.2 209.25 179.2V179.15L208.5 177.6C208.3 177.15 208.5 176.6 208.9 176.4C209.35 176.2 209.85 176.4 210.1 176.85L210.85 178.4V178.45L211.55 179.95C211.75 180.4 211.55 180.9 211.1 181.1C211 181.167 210.883 181.2 210.75 181.2ZM6.75 176.25C6.61667 176.25 6.49999 176.217 6.39999 176.15C5.94999 175.95 5.75001 175.45 5.95001 175L6.64999 173.4C6.84999 172.95 7.34999 172.75 7.79999 172.95C8.19999 173.15 8.4 173.65 8.25 174.1L7.54999 175.7C7.39999 176.05 7.05 176.25 6.75 176.25ZM207.05 173.3C206.7 173.3 206.4 173.1 206.25 172.8L205.5 171.2C205.3 170.8 205.5 170.25 205.9 170.05C206.35 169.85 206.85 170.05 207.1 170.45L207.85 172.05C208.05 172.5 207.85 173 207.4 173.25C207.3 173.283 207.183 173.3 207.05 173.3ZM9.54999 169.8C9.41665 169.8 9.30001 169.783 9.20001 169.75C8.75001 169.55 8.55 169.05 8.75 168.6L9.45001 167C9.65001 166.55 10.15 166.35 10.6 166.55C11.05 166.75 11.25 167.25 11.05 167.7L10.35 169.3C10.2 169.6 9.89999 169.8 9.54999 169.8ZM204 166.95C203.7 166.95 203.4 166.8 203.25 166.45L202.45 164.9C202.25 164.45 202.45 163.95 202.9 163.7C203.3 163.5 203.85 163.7 204.05 164.15L204.8 165.7C205 166.15 204.85 166.65 204.4 166.9C204.267 166.933 204.133 166.95 204 166.95ZM12.4 163.4C12.2667 163.4 12.15 163.383 12.05 163.35C11.6 163.15 11.4 162.6 11.6 162.2L12.3 160.6C12.5 160.15 13.05 159.95 13.45 160.15C13.9 160.35 14.1 160.85 13.9 161.3L13.2 162.9C13.05 163.2 12.75 163.4 12.4 163.4ZM200.95 160.65C200.65 160.65 200.3 160.45 200.15 160.15L199.4 158.6C199.2 158.15 199.35 157.6 199.8 157.4C200.25 157.2 200.75 157.35 200.95 157.8L201.75 159.4C201.95 159.8 201.8 160.35 201.35 160.55C201.217 160.617 201.083 160.65 200.95 160.65ZM15.3 157C15.1667 157 15.0333 156.983 14.9 156.95C14.5 156.75 14.3 156.25 14.5 155.8L15.2 154.2C15.4 153.75 15.95 153.55 16.35 153.75C16.8 153.95 17 154.5 16.8 154.9L16.05 156.5C15.95 156.85 15.6 157 15.3 157ZM197.85 154.35C197.55 154.35 197.2 154.15 197.05 153.85L196.3 152.3C196.05 151.85 196.25 151.35 196.7 151.1C197.1 150.9 197.65 151.05 197.85 151.5L198.65 153.1C198.85 153.5 198.65 154.05 198.25 154.25C198.117 154.317 197.983 154.35 197.85 154.35ZM18.2 150.65C18.0667 150.65 17.95 150.617 17.85 150.55C17.4 150.35 17.2 149.85 17.4 149.4L18.15 147.8C18.35 147.4 18.85 147.2 19.3 147.4C19.75 147.6 19.95 148.1 19.7 148.55L19 150.15C18.85 150.45 18.55 150.65 18.2 150.65ZM194.7 148.05C194.4 148.05 194.1 147.9 193.95 147.6L193.15 146C192.95 145.6 193.1 145.05 193.55 144.85C193.95 144.6 194.5 144.8 194.7 145.2L195.5 146.8C195.7 147.2 195.55 147.75 195.1 147.95C194.967 148.017 194.833 148.05 194.7 148.05ZM21.15 144.3C21.0167 144.3 20.9 144.267 20.8 144.2C20.35 144 20.15 143.5 20.35 143.05L21.1 141.45C21.3 141.05 21.85 140.85 22.25 141.05C22.7 141.25 22.9 141.75 22.7 142.2L21.95 143.8C21.8 144.1 21.5 144.3 21.15 144.3ZM191.55 141.8C191.2 141.8 190.9 141.6 190.75 141.3L189.95 139.75C189.75 139.3 189.9 138.8 190.35 138.6C190.75 138.35 191.3 138.5 191.5 138.95L192.3 140.5C192.55 140.95 192.35 141.5 191.95 141.7C191.817 141.767 191.683 141.8 191.55 141.8ZM24.15 137.95C24.0167 137.95 23.8833 137.917 23.75 137.85C23.35 137.65 23.15 137.15 23.35 136.7L24.1 135.1C24.3 134.7 24.85 134.5 25.25 134.7C25.7 134.9 25.9 135.45 25.7 135.9L24.95 137.45C24.8 137.75 24.45 137.95 24.15 137.95ZM188.3 135.55C188 135.55 187.7 135.35 187.55 135.05L186.75 133.5C186.5 133.1 186.7 132.55 187.1 132.35C187.55 132.1 188.05 132.3 188.3 132.7L189.1 134.25C189.3 134.7 189.15 135.25 188.7 135.45C188.6 135.517 188.467 135.55 188.3 135.55ZM27.15 131.65C27.05 131.65 26.9333 131.617 26.8 131.55C26.35 131.35 26.15 130.8 26.4 130.4L27.15 128.8C27.35 128.35 27.9 128.2 28.3 128.4C28.75 128.6 28.95 129.15 28.7 129.55L27.95 131.15C27.8 131.45 27.5 131.65 27.15 131.65ZM185.05 129.3C184.75 129.3 184.45 129.15 184.3 128.85L183.45 127.3C183.25 126.9 183.4 126.35 183.85 126.1C184.25 125.9 184.8 126.05 185 126.5L185.85 128.05C186.05 128.45 185.9 129 185.45 129.2C185.35 129.267 185.217 129.3 185.05 129.3ZM30.25 125.35C30.1167 125.35 29.9833 125.317 29.85 125.25C29.4 125.05 29.25 124.5 29.45 124.1L30.2 122.5C30.45 122.05 30.95 121.9 31.4 122.1C31.85 122.3 32 122.85 31.8 123.25L31 124.85C30.85 125.15 30.55 125.35 30.25 125.35ZM181.75 123.1C181.45 123.1 181.15 122.95 181 122.65L180.15 121.1C179.95 120.7 180.1 120.15 180.5 119.9C180.95 119.7 181.5 119.85 181.7 120.3L182.55 121.85C182.75 122.25 182.6 122.8 182.2 123C182.067 123.067 181.917 123.1 181.75 123.1ZM33.35 119.05C33.2167 119.05 33.0833 119.017 32.95 118.95C32.5 118.75 32.35 118.2 32.55 117.8L33.35 116.2C33.55 115.8 34.1 115.6 34.5 115.8C34.95 116.05 35.1 116.55 34.9 117L34.1 118.55C33.95 118.85 33.65 119.05 33.35 119.05ZM178.45 116.95C178.15 116.95 177.85 116.75 177.65 116.45L176.85 114.95C176.6 114.5 176.75 114 177.2 113.75C177.6 113.5 178.15 113.65 178.35 114.1L179.2 115.65C179.45 116.05 179.3 116.6 178.85 116.8C178.717 116.9 178.583 116.95 178.45 116.95ZM36.5 112.8C36.3667 112.8 36.2333 112.767 36.1 112.7C35.65 112.45 35.5 111.95 35.7 111.5L36.5 109.95C36.7 109.5 37.25 109.35 37.65 109.55C38.1 109.8 38.25 110.3 38.05 110.75L37.25 112.3C37.1 112.6 36.8 112.8 36.5 112.8ZM175.05 110.75C174.75 110.75 174.45 110.6 174.3 110.3L173.45 108.8C173.2 108.35 173.35 107.8 173.8 107.6C174.2 107.35 174.75 107.5 175 107.95L175.85 109.45C176.05 109.9 175.9 110.4 175.5 110.65C175.367 110.717 175.217 110.75 175.05 110.75ZM39.65 106.55C39.5167 106.55 39.3833 106.517 39.25 106.45C38.85 106.2 38.65 105.7 38.9 105.25L39.7 103.7C39.9 103.25 40.45 103.1 40.85 103.3C41.3 103.55 41.45 104.05 41.25 104.5L40.45 106.05C40.3 106.35 40 106.55 39.65 106.55ZM171.65 104.65C171.35 104.65 171.05 104.45 170.9 104.2L170.05 102.65C169.8 102.25 169.95 101.7 170.35 101.45C170.8 101.2 171.3 101.35 171.55 101.8L172.4 103.3C172.65 103.75 172.5 104.3 172.1 104.5C171.933 104.6 171.783 104.65 171.65 104.65ZM42.9 100.3C42.7333 100.3 42.6 100.267 42.5 100.2C42.05 100 41.9 99.45 42.1 99.05L42.9 97.45C43.15 97.05 43.65 96.9 44.1 97.1C44.5 97.35 44.7 97.85 44.45 98.3L43.65 99.85C43.5 100.15 43.2 100.3 42.9 100.3ZM168.2 98.5C167.9 98.5 167.6 98.35 167.45 98.05L166.55 96.55C166.35 96.1 166.45 95.6 166.9 95.35C167.3 95.1 167.85 95.25 168.1 95.7L168.95 97.2C169.2 97.6 169.05 98.15 168.65 98.4C168.483 98.4666 168.333 98.5 168.2 98.5ZM46.15 94.1C46.0167 94.1 45.8833 94.0666 45.75 94C45.3 93.75 45.15 93.25 45.35 92.8L46.2 91.25C46.4 90.85 46.95 90.7 47.35 90.9C47.8 91.15 47.95 91.65 47.75 92.1L46.9 93.65C46.75 93.95 46.45 94.1 46.15 94.1ZM164.7 92.4C164.4 92.4 164.1 92.25 163.95 92L163.05 90.45C162.8 90.05 162.95 89.5 163.4 89.25C163.8 89 164.35 89.15 164.6 89.6L165.45 91.1C165.7 91.5 165.55 92.05 165.15 92.3C165.017 92.3666 164.867 92.4 164.7 92.4ZM49.45 87.9C49.2833 87.9 49.1333 87.8666 49 87.8C48.6 87.6 48.45 87.05 48.65 86.65L49.5 85.1C49.7 84.65 50.25 84.5 50.7 84.75C51.1 84.95 51.25 85.5 51.05 85.9L50.2 87.45C50.05 87.75 49.75 87.9 49.45 87.9ZM161.15 86.35C160.85 86.35 160.6 86.2 160.4 85.9L159.55 84.4C159.3 84 159.4 83.45 159.85 83.2C160.25 82.95 160.8 83.1 161.05 83.5L161.9 85.05C162.15 85.45 162.05 86 161.6 86.2C161.467 86.3 161.317 86.35 161.15 86.35ZM52.75 81.75C52.6167 81.75 52.4833 81.7166 52.35 81.65C51.95 81.4 51.75 80.9 52 80.45L52.85 78.9C53.1 78.5 53.6 78.35 54.05 78.55C54.45 78.8 54.6 79.35 54.4 79.75L53.55 81.3C53.4 81.6 53.1 81.75 52.75 81.75ZM157.6 80.3C157.3 80.3 157 80.15 156.85 79.85L155.95 78.35C155.7 77.95 155.85 77.4 156.25 77.15C156.65 76.9 157.2 77.05 157.45 77.45L158.35 79C158.6 79.4 158.45 79.95 158.05 80.15C157.917 80.25 157.767 80.3 157.6 80.3ZM56.15 75.6C56.0167 75.6 55.8833 75.5666 55.75 75.5C55.3 75.25 55.15 74.75 55.4 74.3L56.25 72.8C56.45 72.35 57 72.2 57.45 72.45C57.85 72.65 58 73.2 57.75 73.65L56.9 75.15C56.75 75.45 56.45 75.6 56.15 75.6ZM153.95 74.3C153.7 74.3 153.4 74.15 153.25 73.85L152.3 72.35C152.05 71.95 152.2 71.4 152.6 71.15C153 70.9 153.55 71.05 153.8 71.45L154.7 72.95C154.95 73.35 154.85 73.9 154.45 74.15C154.283 74.25 154.117 74.3 153.95 74.3ZM59.55 69.5C59.4167 69.5 59.2833 69.4666 59.15 69.4C58.7 69.15 58.55 68.6 58.8 68.2L59.65 66.65C59.9 66.25 60.45 66.1 60.85 66.35C61.3 66.55 61.45 67.1 61.2 67.5L60.35 69.05C60.15 69.35 59.9 69.5 59.55 69.5ZM150.3 68.3C150 68.3 149.75 68.15 149.55 67.85L148.65 66.35C148.4 65.95 148.55 65.4 148.95 65.15C149.35 64.9 149.9 65.05 150.15 65.45L151.05 66.95C151.3 67.35 151.2 67.9 150.8 68.15C150.633 68.25 150.467 68.3 150.3 68.3ZM63.05 63.4C62.8833 63.4 62.7333 63.3666 62.6 63.3C62.2 63.05 62.05 62.5 62.3 62.1L63.15 60.55C63.4 60.15 63.9 60 64.35 60.25C64.75 60.5 64.9 61 64.65 61.45L63.8 62.95C63.65 63.25 63.35 63.4 63.05 63.4ZM146.6 62.3C146.35 62.3 146.05 62.15 145.9 61.9L144.95 60.4C144.7 60 144.8 59.45 145.2 59.2C145.65 58.95 146.15 59.05 146.45 59.5L147.35 60.95C147.6 61.4 147.5 61.9 147.1 62.2C146.933 62.2667 146.767 62.3 146.6 62.3ZM66.55 57.3C66.3833 57.3 66.2333 57.2667 66.1 57.2C65.7 56.95 65.55 56.45 65.8 56L66.65 54.5C66.9 54.05 67.45 53.95 67.85 54.2C68.3 54.4 68.4 54.95 68.15 55.4L67.3 56.9C67.15 57.15 66.85 57.3 66.55 57.3ZM142.85 56.35C142.6 56.35 142.3 56.2 142.15 55.95L141.2 54.5C140.95 54.1 141.05 53.55 141.45 53.3C141.85 53 142.4 53.15 142.65 53.55L143.6 55C143.85 55.45 143.75 55.95 143.35 56.25C143.183 56.3166 143.017 56.35 142.85 56.35ZM70.1 51.3C69.9333 51.3 69.7833 51.25 69.65 51.15C69.2 50.9 69.1 50.4 69.35 49.95L70.2 48.45C70.45 48.05 71 47.9 71.4 48.15C71.85 48.4 71.95 48.95 71.75 49.35L70.85 50.85C70.65 51.1 70.4 51.3 70.1 51.3ZM139.1 50.45C138.8 50.45 138.5 50.3 138.35 50.05L137.4 48.6C137.15 48.15 137.25 47.65 137.65 47.35C138.05 47.1 138.6 47.2 138.85 47.65L139.8 49.1C140.1 49.5 139.95 50.05 139.55 50.3C139.417 50.4 139.267 50.45 139.1 50.45ZM73.65 45.25C73.5167 45.25 73.3667 45.2166 73.2 45.15C72.8 44.9 72.65 44.35 72.9 43.95L73.85 42.45C74.1 42 74.6 41.9 75.05 42.15C75.45 42.4 75.55 42.9 75.3 43.35L74.4 44.85C74.25 45.1 73.95 45.25 73.65 45.25ZM135.25 44.55C135 44.55 134.7 44.4 134.55 44.15L133.55 42.7C133.3 42.3 133.4 41.75 133.8 41.5C134.2 41.2 134.75 41.35 135.05 41.75L136 43.2C136.25 43.6 136.15 44.15 135.75 44.4C135.583 44.5 135.417 44.55 135.25 44.55ZM77.3 39.25C77.1333 39.25 76.9833 39.2166 76.85 39.15C76.45 38.9 76.3 38.35 76.55 37.95L77.45 36.45C77.7 36 78.25 35.9 78.65 36.15C79.1 36.4 79.2 36.95 78.95 37.35L78.05 38.85C77.9 39.1 77.6 39.25 77.3 39.25ZM131.4 38.7C131.1 38.7 130.85 38.55 130.65 38.3L129.7 36.85C129.4 36.45 129.55 35.9 129.95 35.65C130.35 35.35 130.9 35.5 131.15 35.9L132.1 37.35C132.4 37.75 132.3 38.3 131.9 38.55C131.733 38.65 131.567 38.7 131.4 38.7ZM81 33.3C80.8333 33.3 80.6667 33.25 80.5 33.15C80.1 32.9 80 32.35 80.25 31.95L81.15 30.45C81.4 30.05 81.95 29.95 82.35 30.2C82.8 30.45 82.9 31 82.65 31.4L81.7 32.85C81.55 33.15 81.25 33.3 81 33.3ZM127.5 32.85C127.2 32.85 126.9 32.75 126.75 32.5L125.75 31.05C125.5 30.65 125.6 30.1 126 29.8C126.4 29.55 126.95 29.65 127.2 30.05L128.2 31.5C128.45 31.9 128.35 32.45 127.95 32.7C127.817 32.8 127.667 32.85 127.5 32.85ZM84.7 27.35C84.5333 27.35 84.3833 27.3 84.25 27.2C83.85 26.95 83.7 26.4 83.95 26L84.9 24.5C85.15 24.1 85.7 24 86.1 24.25C86.5 24.5 86.65 25.05 86.35 25.45L85.45 26.95C85.25 27.2 85 27.35 84.7 27.35ZM123.5 27.05C123.25 27.05 122.95 26.95 122.8 26.7L121.8 25.25C121.55 24.85 121.65 24.3 122.05 24.05C122.45 23.75 122.95 23.85 123.25 24.25L124.25 25.7C124.5 26.1 124.4 26.65 124 26.9C123.867 27 123.7 27.05 123.5 27.05ZM88.45 21.45C88.2833 21.45 88.1333 21.4 88 21.3C87.6 21.05 87.45 20.5 87.75 20.1L88.65 18.6C88.95 18.2 89.45 18.1 89.9 18.35C90.3 18.6 90.4 19.15 90.15 19.55L89.2 21.05C89.05 21.3 88.75 21.45 88.45 21.45ZM119.5 21.3C119.25 21.3 119 21.15 118.8 20.9L117.8 19.5C117.5 19.1 117.6 18.55 118 18.25C118.4 18 118.95 18.1 119.25 18.5L120.25 19.9C120.5 20.3 120.4 20.85 120 21.15C119.867 21.25 119.7 21.3 119.5 21.3ZM115.5 15.55C115.2 15.55 114.95 15.4 114.75 15.2L113.75 13.75C113.45 13.35 113.55 12.8 113.95 12.55C114.35 12.25 114.9 12.35 115.2 12.75L116.2 14.15C116.5 14.55 116.4 15.1 116 15.4C115.833 15.5 115.667 15.55 115.5 15.55ZM92.25 15.55C92.0833 15.55 91.9333 15.5 91.8 15.4C91.4 15.15 91.3 14.6 91.55 14.2L92.5 12.7C92.75 12.3 93.3 12.2 93.7 12.45C94.1 12.75 94.2 13.3 93.95 13.7L93 15.15C92.85 15.4 92.55 15.55 92.25 15.55ZM111.1 10.1C110.9 10.1 110.7 9.99997 110.55 9.89997C110.15 9.5333 109.717 9.21665 109.25 8.94999C108.8 8.69999 108.7 8.14998 108.95 7.74998C109.2 7.34998 109.7 7.19999 110.15 7.44999C110.683 7.78332 111.183 8.14996 111.65 8.54996C112.05 8.84996 112.1 9.39998 111.8 9.74998C111.6 9.99998 111.35 10.1 111.1 10.1ZM96.55 9.99998C96.3 9.99998 96.05 9.89999 95.85 9.69999C95.55 9.29999 95.6 8.74999 96 8.44999C96.5 8.04999 97.0167 7.69997 97.55 7.39997C97.95 7.14997 98.5 7.29999 98.75 7.69999C98.95 8.09999 98.85 8.64997 98.4 8.89997C97.9333 9.16664 97.5 9.46663 97.1 9.79996C96.9 9.94996 96.75 9.99998 96.55 9.99998ZM104.7 7.49998C104.7 7.49998 104.683 7.49998 104.65 7.49998C104.117 7.46664 103.567 7.46664 103 7.49998C102.55 7.54998 102.1 7.14999 102.1 6.69999C102.05 6.19999 102.4 5.79998 102.9 5.74998C103.533 5.71664 104.167 5.71664 104.8 5.74998C105.25 5.79998 105.6 6.19999 105.6 6.69999C105.55 7.14999 105.15 7.49998 104.7 7.49998Z" fill="#1B3080"/>
<path d="M178 157.35C158.45 115.45 136.1 76.5499 110.7 41.0999C107.45 36.5499 100.6 36.6499 97.5 41.3499C74.35 76.5999 54.25 114.85 36.55 155.5C34.45 160.35 37.6 165.95 42.85 166.6C84.6 172.05 127.5 172.55 171.45 168.7C176.95 168.2 180.35 162.4 178 157.35Z" fill="#D9E8FF"/>
<path fill-rule="evenodd" clip-rule="evenodd" d="M115.9 174.1C89.7 174.1 64.2 172.5 39.65 169.3C36.9 168.95 34.55 167.35 33.2 164.9C31.8 162.5 31.65 159.6 32.75 157.05C51.95 112.95 73.5 72.55 96.85 37.05C98.45 34.6 101.15 33.15 104.05 33.1C104.083 33.1 104.133 33.1 104.2 33.1C107.05 33.1 109.7 34.45 111.35 36.75C137.45 73.2 161.25 114.35 182.1 159C183.35 161.65 183.2 164.6 181.75 167.15C180.3 169.65 177.8 171.25 174.9 171.5C154.9 173.25 135.2 174.1 115.9 174.1ZM104.2 33.9C104.167 33.9 104.117 33.9 104.05 33.9C101.35 33.95 99 35.25 97.5 37.5C74.2 72.95 52.65 113.3 33.5 157.35C32.5 159.7 32.6 162.3 33.85 164.55C35.1 166.75 37.25 168.2 39.75 168.5C82.3 174.05 127.75 174.8 174.85 170.7C177.45 170.5 179.75 169.05 181.05 166.75C182.4 164.45 182.5 161.75 181.4 159.35C160.55 114.7 136.8 73.65 110.7 37.2C109.2 35.1 106.85 33.9 104.2 33.9Z" fill="#D9E8FF"/>
<path d="M173.65 132.6C172.95 132.6 172.25 132.25 171.9 131.55C154.85 98.95 132.8 63.3 109.8 31.2C108.4 29.25 106.25 28.15 103.9 28.15C103.833 28.15 103.783 28.15 103.75 28.15C101.3 28.2 99.1 29.4 97.8 31.4C78.15 61.25 57.8 97.05 42 129.6C41.55 130.6 40.35 131 39.35 130.5C38.4 130.05 38 128.85 38.45 127.9C54.35 95.2 74.75 59.25 94.45 29.25C96.5 26.15 99.95 24.25 103.65 24.2C107.35 24.1 110.85 25.85 113.05 28.9C136.15 61.15 158.3 96.95 175.4 129.7C175.9 130.7 175.55 131.9 174.6 132.4C174.3 132.533 173.983 132.6 173.65 132.6Z" fill="#314593"/>
<path d="M106.1 114C103.65 109.75 102.85 104.65 103.75 99.8999C102.9 99.8999 102 99.55 101.3 98.95C100.1 102.3 99.95 106.05 100.95 109.5C101.95 112.95 104.05 116.05 106.9 118.2L106.1 114Z" fill="#AE4022"/>
<path d="M114.65 111.2C114.2 111 113.7 111.3 113.45 111.7C113.2 112.1 113.2 112.6 113.1 113.05C112.7 114.95 111.2 116.65 109.3 117.25L110.05 120.55C112.55 118.7 114.4 115.85 115.05 112.75C115.15 112.2 115.15 111.45 114.65 111.2Z" fill="#AE4022"/>
<path d="M112.8 126.55C111.5 115.35 110.8 104.1 110.65 92.7999L105.45 93.6499C105.75 104.6 104.85 115.55 102.65 126.3C102.3 128.1 103.65 129.8 105.5 129.8C106.967 129.8 108.45 129.783 109.95 129.75C111.7 129.75 113 128.25 112.8 126.55Z" fill="#AE4022"/>
<path d="M98.3 77.2C96.4 76.9 94.35 78.1 93.65 79.95C93 81.75 93.8 84.05 95.45 85.05C93.55 87.15 91.95 89.55 91.3 92.25C90.65 95 91.15 98.1 93.05 100.15C94.95 102.2 98.4 102.9 100.65 101.25C100.6 102.4 101.2 103.5 102 104.3C102.85 105.1 103.9 105.6 105 106C107.1 106.8 109.45 107.15 111.7 106.8C113.95 106.45 116.1 105.25 117.4 103.4C118.75 101.55 119.1 99 118.1 96.95C119.15 98.75 122.05 98.85 123.55 97.4C125.1 95.9 125.25 93.45 124.4 91.5C123.5 89.6 121.85 88.15 120 87.1C120.85 80.6 119.2 73.85 115.4 68.5C113.3 65.55 110.05 62.7 106.15 63.2C101.7 63.75 99.45 68.25 98.55 72.15C98.45 72.6 97.8 77.1 98.3 77.2Z" fill="#1C2D0B"/>
<path d="M103.75 82.4C103.717 82.4 103.667 82.4 103.6 82.4C103.15 82.2 102.8 81.7999 102.65 81.2999C102.45 80.7999 102.5 80.3 102.7 79.85C102.95 79.4 103.35 79.1 103.85 79C104.05 78.95 104.25 78.9 104.4 78.9C104.1 78.1 104.1 77.25 104.3 76.4C104.6 75.3 105.3 74.3 106.3 73.7C107.15 73.2 108.15 73 108.95 73.25C109.85 73.45 110.7 74.15 111.2 75.1C111.7 75.95 111.95 76.95 112.1 77.75C112.15 77.95 112.05 78.15 111.8 78.2C111.6 78.25 111.4 78.15 111.35 77.9C111.15 77.15 110.95 76.25 110.5 75.5C110.1 74.7 109.45 74.15 108.8 74C108.15 73.85 107.4 73.95 106.7 74.4C105.9 74.85 105.3 75.7 105.05 76.6C104.8 77.5 104.95 78.5 105.45 79.35C105.5 79.5 105.5 79.7 105.35 79.85C105.2 79.95 105 79.95 104.85 79.85C104.65 79.7 104.35 79.65 104.05 79.75C103.75 79.8 103.55 80 103.4 80.25C103.3 80.45 103.25 80.7499 103.35 81.0499C103.45 81.2999 103.65 81.55 103.9 81.65C104.1 81.75 104.2 81.95 104.15 82.15C104.05 82.3 103.95 82.4 103.75 82.4Z" fill="#2F4219"/>
<path d="M113.15 95.5C112.75 95.5 112.367 95.4333 112 95.2999C110.9 94.8999 110 93.9 109.55 92.7C109.5 92.5 109.6 92.25 109.8 92.2C110 92.1 110.25 92.2 110.3 92.45C110.65 93.45 111.4 94.1999 112.25 94.5499C113.2 94.8999 114.3 94.7 114.9 94C115.5 93.35 115.5 92.1499 114.9 91.5499C114.75 91.4499 114.7 91.25 114.8 91.1C114.85 90.95 115 90.8499 115.2 90.8999C115.7 90.9499 116.2 90.5499 116.3 90.0499C116.35 89.5499 116 88.9999 115.5 88.8999C115.3 88.8499 115.15 88.65 115.2 88.45C115.25 88.25 115.45 88.0999 115.65 88.1499C116.55 88.2999 117.2 89.2499 117.05 90.1499C116.95 90.7999 116.45 91.35 115.85 91.6C116.3 92.5 116.2 93.7499 115.45 94.5499C114.9 95.1499 114.05 95.5 113.15 95.5Z" fill="#2F4219"/>
<path d="M100.65 95.35C100.317 95.35 99.9833 95.3166 99.65 95.25C98.45 95 97.45 94.1999 97.1 93.1499C96.7 91.9499 97.3 90.5499 98.4 90.1499C98.6 90.0499 98.8 90.15 98.9 90.35C99 90.55 98.9 90.8 98.7 90.85C98 91.15 97.6 92.0999 97.85 92.8999C98.15 93.6499 98.9 94.3 99.85 94.5C100.65 94.65 101.55 94.55 102.6 94.2C102.8 94.15 103.05 94.25 103.1 94.45C103.2 94.65 103.05 94.9 102.85 94.95C102.05 95.2166 101.317 95.35 100.65 95.35Z" fill="#2F4219"/>
<path d="M132.05 107.35C129.85 117.2 126.35 126.8 121.65 135.75C124.05 136.083 126.433 136.433 128.8 136.8C129.3 127.15 131.8 117.6 136 108.9L132.05 107.35Z" fill="#AE4022"/>
<path d="M141.95 109.5C143.85 109.9 145.85 107.95 145.55 106.05C145.25 104.45 143.5 103.4 141.95 103.65C143.35 102.95 144.3 101.35 144.1 99.75C143.85 97.85 141.85 96.3 139.95 96.5C139.75 96.5333 139.55 96.5833 139.35 96.6499C138.9 96.2499 138.35 96 137.8 96C136.7 95.9 135.6 96.65 135.25 97.7C135.05 96.2 133.15 95.5499 131.7 95.8999C130 96.3499 128.55 97.65 128.05 99.35C127.5 101 127.9 102.95 129.05 104.25C127.75 103.35 125.75 103.6 124.7 104.8C123.65 106.05 123.75 108.1 124.9 109.2C126.05 110.35 128.1 110.4 129.3 109.35C128.8 111.65 130.25 114.15 132.5 114.85C134.4 115.45 136.6 114.6 137.75 113C137.35 114.3 138.05 115.95 139.35 116.45C141 117 143 115.85 143.55 114.2C144.05 112.55 143.3 110.6 141.95 109.5Z" fill="#2F4219"/>
<path d="M131.1 104C130.95 104 130.85 103.9 130.75 103.75C130.2 102.6 129.95 100.8 131.1 99.6C131.8 98.8 133.05 98.45 134.05 98.8C134.6 99 135.1 99.4 135.45 99.85C135.45 99.8167 135.467 99.7833 135.5 99.75C135.8 99.2 136.3 98.85 136.85 98.85C136.883 98.85 136.9 98.85 136.9 98.85C137.25 98.9 137.6 99.05 137.85 99.35C138.05 99.6 138.1 99.95 138.05 100.25C138 100.45 137.8 100.6 137.55 100.55C137.35 100.5 137.2 100.25 137.25 100.05C137.3 99.95 137.25 99.9 137.2 99.85C137.1 99.75 137 99.65 136.9 99.65C136.867 99.65 136.85 99.65 136.85 99.65C136.55 99.65 136.3 99.9 136.2 100.15C136 100.5 135.95 100.9 135.95 101.25C135.95 101.5 135.75 101.65 135.55 101.65C135.35 101.65 135.15 101.5 135.15 101.3C135.1 100.5 134.5 99.8 133.8 99.55C133.05 99.3 132.2 99.55 131.65 100.1C130.85 101 131 102.4 131.5 103.45C131.55 103.65 131.5 103.85 131.3 103.95C131.233 103.983 131.167 104 131.1 104Z" fill="#455A29"/>
<path d="M139.7 112.25C139.45 112.25 139.15 112.15 138.95 112C138.783 111.933 138.65 111.833 138.55 111.7C137.7 112.25 136.5 112.3 135.65 111.8C134.55 111.2 134 109.85 134.3 108.7C134.35 108.45 134.55 108.35 134.8 108.4C135 108.45 135.15 108.65 135.05 108.9C134.85 109.7 135.25 110.7 136 111.1C136.75 111.55 137.8 111.4 138.4 110.8C138.55 110.7 138.7 110.65 138.8 110.7C138.95 110.75 139.05 110.85 139.1 111C139.1 111.15 139.2 111.25 139.35 111.35C139.5 111.45 139.65 111.5 139.8 111.45C139.95 111.4 140.1 111.3 140.15 111.15C140.25 111 140.3 110.85 140.25 110.7C140.2 110.5 140.3 110.3 140.5 110.25C140.75 110.2 140.95 110.3 141 110.5C141.1 110.85 141.05 111.25 140.85 111.55C140.65 111.9 140.35 112.15 140 112.2C139.9 112.233 139.8 112.25 139.7 112.25Z" fill="#455A29"/>
<path d="M138.65 107.65C138.5 107.65 138.4 107.55 138.3 107.4C138.2 107.25 138.3 107 138.45 106.9C138.85 106.7 139.15 106.3 139.2 105.9C139.3 105.5 139.15 105.1 138.85 104.85C138.55 104.6 138.1 104.5 137.75 104.7C137.6 104.8 137.35 104.75 137.25 104.55C137.15 104.35 137.2 104.1 137.4 104C138 103.65 138.8 103.75 139.35 104.2C139.85 104.65 140.1 105.4 140 106.05C139.85 106.7 139.45 107.25 138.85 107.6C138.783 107.633 138.717 107.65 138.65 107.65Z" fill="#455A29"/>
<path d="M79.65 105.65L76.15 108.7C80.55 118.85 84.15 129.35 86.75 140.15C88.7833 139.25 90.8 138.35 92.8 137.45C87.2 127.45 82.75 116.75 79.65 105.65Z" fill="#AE4022"/>
<path d="M86.6 105.55C87.2 104.6 87.75 103.6 88.15 102.55C88.5 101.45 88.65 100.3 88.35 99.1999C88 98.0999 87.15 97.1499 86.05 96.8999C84.95 96.6499 83.65 97.1999 83.3 98.2999C84 96.4999 83.1 94.1999 81.3 93.3499C79.55 92.5499 77.25 93.2999 76.25 94.9999C76.05 95.3999 75.9 95.7999 75.85 96.2499C75.3 96.2999 74.75 96.5499 74.35 96.9499C73.65 97.6999 73.5 98.9999 74.05 99.8999C72.75 98.9499 70.95 98.7499 69.45 99.2999C67.95 99.8499 66.75 101.15 66.35 102.7C66.2 103.35 66.2 104.1 66.6 104.7C67 105.25 67.9 105.45 68.35 104.95C66.9 105.9 65.65 107.25 65.05 108.9C64.5 110.6 64.8 112.6 66.05 113.8C67.35 115.05 69.65 115.1 70.75 113.75C70.9 115.8 72 117.8 73.7 118.95C74.9 119.8 76.4 120.2 77.8 119.8C79.15 119.4 80.25 117.95 80.05 116.55C81.35 117.35 83 117.6 84.45 117.15C85.7 116.8 86.85 115.9 87.15 114.7C87.5 113.45 86.75 111.95 85.5 111.75C87.1 111.95 88.75 110.75 89.05 109.2C89.35 107.6 88.2 105.9 86.6 105.55Z" fill="#2F4219"/>
<path d="M72.15 110.8C71.8 110.8 71.4 110.65 71.15 110.45C70.8 110.15 70.6 109.7 70.6 109.3C70.5667 109.3 70.5333 109.3 70.5 109.3C70.05 109.4 69.55 109.3 69.15 109C68.5 108.55 68.2 107.65 68.4 106.75C68.55 106.05 69 105.4 69.7 104.9C70.0334 104.633 70.4 104.433 70.8 104.3C70.55 103.95 70.45 103.5 70.55 103.15C70.8 102.45 71.55 102.05 72.25 102.1C72.85 102.15 73.4 102.45 73.95 102.75C74.1 102.85 74.15 103.1 74.05 103.3C73.95 103.45 73.7 103.55 73.5 103.4C73.1 103.15 72.65 102.9 72.2 102.9C72.2 102.9 72.1833 102.9 72.15 102.9C71.8 102.9 71.4 103.1 71.3 103.4C71.25 103.55 71.3 103.7 71.45 103.85C71.5 103.9 71.55 103.95 71.7 103.95C71.9 103.9 72.1 104 72.15 104.2C72.2 104.4 72.1 104.6 71.9 104.7C71.2 104.95 70.65 105.15 70.15 105.55C69.65 105.9 69.25 106.4 69.15 106.95C69.05 107.5 69.25 108.05 69.65 108.35C69.85 108.5 70.1 108.55 70.4 108.5C70.6 108.467 70.75 108.383 70.85 108.25C70.8833 108.25 70.9 108.233 70.9 108.2C71.05 108.05 71.3 108 71.45 108.15C71.65 108.25 71.65 108.5 71.55 108.65C71.5167 108.683 71.5 108.717 71.5 108.75C71.3 109.05 71.35 109.55 71.65 109.8C71.95 110.1 72.5 110.05 72.75 109.75C72.9 109.55 73.15 109.55 73.3 109.7C73.5 109.85 73.5 110.1 73.35 110.25C73.05 110.6 72.6 110.8 72.15 110.8Z" fill="#455A29"/>
<path d="M82.05 104.65C81.95 104.65 81.8667 104.633 81.8 104.6C81.6 104.45 81.6 104.2 81.7 104C82.05 103.55 82.15 102.85 81.9 102.35C81.65 101.8 81.1 101.4 80.55 101.35C79.95 101.25 79.3 101.55 78.95 102C78.65 102.45 78.55 103.05 78.55 103.5C78.55 103.7 78.35 103.9 78.15 103.9C77.95 103.9 77.75 103.7 77.75 103.5C77.75 102.7 77.95 102.05 78.35 101.55C78.85 100.85 79.75 100.45 80.6 100.55C81.5 100.65 82.25 101.2 82.6 102C82.95 102.8 82.85 103.8 82.35 104.5C82.25 104.6 82.15 104.65 82.05 104.65Z" fill="#455A29"/>
<path d="M77.95 114.1C77.1 114.1 76.35 113.5 76.2 112.7C76.15 112.45 76.3 112.25 76.5 112.25C76.75 112.2 76.95 112.35 77 112.55C77.05 113.05 77.6 113.4 78.05 113.3C78.55 113.25 78.9 112.7 78.85 112.25C78.8 112.05 78.9 111.9 79.05 111.8C79.25 111.75 79.45 111.8 79.55 111.95C79.95 112.4 80.65 112.6 81.25 112.4C81.85 112.2 82.25 111.55 82.2 110.95C82.2 110.3 81.7 109.7 81.1 109.55C80.9 109.5 80.75 109.3 80.85 109.05C80.9 108.85 81.1 108.75 81.3 108.8C82.25 109.05 82.95 109.9 83 110.9C83.05 111.85 82.45 112.8 81.55 113.15C80.9 113.4 80.15 113.3 79.55 112.95C79.3 113.55 78.8 114 78.2 114.1C78.1 114.1 78.0167 114.1 77.95 114.1Z" fill="#455A29"/>
<path d="M7.65 143.85C6.6 142.6 7.15002 140.7 8.70002 140.25C20.45 136.75 62.5 125.25 108.45 126.05C154.7 126.8 196.2 141.35 207.5 145.6C208.85 146.15 209.2 147.95 208.1 148.95L199.7 156.5L203.25 166.2C203.85 167.7 202.4 169.25 200.85 168.75C188 164.95 144.8 152.9 105.25 152.25C71.7 151.75 27 160.9 14.2 163.75C12.6 164.1 11.15 162.6 11.6 160.95L14.2 151.4L7.65 143.85Z" fill="#121E5B"/>
<path d="M25.8 181.15C23.25 181.4 20.65 180.2 19.25 178C17.8 175.7 17.95 172.65 19.45 170.4C20.15 169.35 18.45 168.4 17.75 169.45C15.9 172.2 15.8 176.1 17.55 179C19.3 181.75 22.6 183.4 25.8 183.1C27.05 183 27.05 181.05 25.8 181.15Z" fill="white"/>
<path d="M199.25 175C198.65 175 198.3 175.45 198.25 176C197.85 179.3 195.05 182.1 191.75 182.55C191.25 182.65 190.8 182.95 190.8 183.55C190.8 184 191.25 184.6 191.75 184.5C193.95 184.2 195.95 183.3 197.5 181.75C199.05 180.2 199.95 178.15 200.2 176C200.25 175.45 199.7 175 199.25 175Z" fill="white"/>
<path d="M38.25 180.35L32.65 179.75L32.45 181.35L35.85 181.7L31.9 186.2L31.75 187.65L37.45 188.25L37.6 186.7L34.15 186.35L38.1 181.85L38.25 180.35ZM44.65 180.95L39.8 180.5L39 188.4L43.9 188.85L44.05 187.35L41.1 187.05L41.25 185.3L43.9 185.55L44 184.05L41.4 183.8L41.6 182.2L44.5 182.5L44.65 180.95ZM50.2 184.05C50.15 184.65 49.75 185 49.05 184.95L47.8 184.85L48 182.85L49.2 182.95C49.95 183.05 50.25 183.45 50.2 184.05ZM46.2 181.1L45.5 189L47.45 189.2L47.7 186.2L48.15 186.25L49.6 189.35L51.8 189.55L50.2 186.25C51.45 186 52.1 185.1 52.15 184.1C52.3 182.75 51.4 181.55 49.45 181.4L46.2 181.1ZM61.45 186.25C61.6 183.85 59.9 182.1 57.65 181.9C55.4 181.75 53.4 183.25 53.2 185.65C53.05 188.05 54.75 189.85 57.05 190.05C59.3 190.2 61.25 188.65 61.45 186.25ZM55.2 185.8C55.35 184.4 56.2 183.55 57.5 183.65C58.8 183.75 59.55 184.7 59.45 186.1C59.35 187.5 58.45 188.35 57.15 188.25C55.85 188.15 55.1 187.2 55.2 185.8ZM65.15 186.5C65 188.9 66.6 190.65 68.95 190.8C70.9 190.9 72.4 189.9 72.95 188.25L70.8 188.1C70.4 188.75 69.8 189.1 69.05 189.05C67.85 188.95 67.05 188.05 67.15 186.65C67.25 185.25 68.1 184.4 69.3 184.45C70.05 184.5 70.6 184.9 70.9 185.6L73.05 185.7C72.7 183.95 71.3 182.8 69.45 182.7C67.1 182.55 65.3 184.15 65.15 186.5ZM79.8 191.25L81.85 191.35L79.3 183.3L77.05 183.2L73.75 191L75.8 191.1L76.35 189.7L79.35 189.85L79.8 191.25ZM78.95 188.3L76.95 188.2L78.1 185.35L78.95 188.3ZM87.45 186.15C87.45 186.75 87.1 187.15 86.35 187.1L85.15 187.05L85.2 185.1L86.4 185.15C87.15 185.15 87.5 185.55 87.45 186.15ZM83.35 183.4L83.05 191.35L85 191.45L85.1 188.45H85.55L87.15 191.5L89.35 191.55L87.6 188.35C88.85 188.05 89.4 187.1 89.45 186.15C89.5 184.75 88.55 183.6 86.6 183.55L83.35 183.4ZM95.3 189.25C95.3 189.8 94.9 190.1 94.25 190.1L92.8 190.05L92.85 188.3L94.25 188.35C94.95 188.35 95.3 188.7 95.3 189.25ZM95.15 186.1C95.15 186.65 94.8 186.95 94.15 186.9H92.9L92.95 185.2L94.2 185.25C94.85 185.25 95.2 185.55 95.15 186.1ZM97.3 189.55C97.3 188.65 96.7 187.8 95.75 187.6C96.55 187.4 97.15 186.8 97.15 185.8C97.2 184.55 96.25 183.75 94.6 183.7L91 183.6L90.8 191.55L94.55 191.65C96.25 191.7 97.25 190.85 97.3 189.55ZM106.6 187.8C106.65 185.4 104.85 183.7 102.55 183.7C100.3 183.7 98.45 185.35 98.4 187.7C98.35 190.1 100.2 191.85 102.5 191.85C104.75 191.85 106.6 190.2 106.6 187.8ZM100.4 187.75C100.4 186.35 101.25 185.45 102.55 185.45C103.8 185.45 104.65 186.35 104.65 187.8C104.65 189.2 103.8 190.1 102.5 190.1C101.2 190.05 100.4 189.15 100.4 187.75ZM113.2 183.85V188.75L109.95 183.85H108V191.8H109.95V186.9L113.25 191.8L115.2 191.75L115.1 183.8L113.2 183.85ZM119.7 191.75L121.65 191.7L121.6 188.5L124.05 188.45L124 186.95L121.55 187L121.5 185.3L124.75 185.25V183.7L119.55 183.8L119.7 191.75ZM134.05 187.35C133.95 184.95 132.1 183.35 129.85 183.45C127.55 183.5 125.8 185.25 125.85 187.6C125.9 190 127.8 191.65 130.1 191.6C132.35 191.5 134.15 189.75 134.05 187.35ZM127.85 187.55C127.8 186.15 128.6 185.25 129.9 185.2C131.15 185.15 132 186 132.05 187.45C132.1 188.8 131.3 189.75 130.05 189.8C128.7 189.85 127.85 188.95 127.85 187.55ZM143.3 186.95C143.2 184.55 141.3 183 139.05 183.1C136.75 183.2 135 184.95 135.1 187.3C135.2 189.7 137.1 191.3 139.4 191.2C141.7 191.1 143.45 189.35 143.3 186.95ZM137.1 187.25C137.05 185.85 137.8 184.9 139.1 184.85C140.4 184.8 141.25 185.65 141.3 187.05C141.4 188.45 140.6 189.4 139.3 189.45C138 189.5 137.15 188.65 137.1 187.25ZM144.1 184.5L146.25 184.4L146.6 190.8L148.55 190.7L148.2 184.3L150.3 184.15L150.2 182.6L144.05 182.95L144.1 184.5ZM153.6 185.95L153.45 183.95L154.5 183.9C155.3 183.85 155.65 184.2 155.7 184.8C155.75 185.45 155.45 185.85 154.65 185.9L153.6 185.95ZM157.7 184.65C157.6 183.2 156.55 182.2 154.6 182.3L151.45 182.5L151.95 190.45L153.9 190.35L153.7 187.5L154.9 187.4C156.95 187.25 157.8 185.95 157.7 184.65ZM163.2 184.25C163.25 184.9 162.95 185.3 162.2 185.35L161 185.45L160.85 183.5L162.05 183.4C162.8 183.35 163.15 183.7 163.2 184.25ZM158.8 182L159.4 189.95L161.35 189.8L161.1 186.8L161.6 186.75L163.5 189.65L165.7 189.45L163.6 186.45C164.8 186 165.25 185 165.15 184.05C165.05 182.65 164 181.6 162.05 181.75L158.8 182ZM167.15 189.35L169.1 189.15L168.4 181.25L166.45 181.4L167.15 189.35ZM175.3 180.65L175.75 185.55L172.05 180.95L170.1 181.15L170.85 189.05L172.8 188.85L172.35 184L176.05 188.55L178 188.35L177.2 180.45L175.3 180.65ZM178.65 181.85L180.8 181.65L181.45 188L183.4 187.8L182.7 181.45L184.8 181.2L184.65 179.65L178.5 180.35L178.65 181.85Z" fill="white"/>
<path d="M45.85 151.2C45.35 151.3 44.85 151.35 44.35 151.35C43.9 151.4 43.45 151.35 43.05 151.3C42.65 151.3 42.3 151.2 41.95 151.1C41.6 151 41.25 150.85 41 150.65C40.4 150.3 39.95 149.85 39.6 149.25C39.4 148.95 39.25 148.65 39.1 148.3C39 147.95 38.9 147.6 38.85 147.2C38.75 146.75 38.7 146.4 38.75 146C38.75 145.65 38.75 145.25 38.85 144.9C38.9 144.6 39 144.25 39.15 143.95C39.3 143.65 39.5 143.35 39.7 143.05C39.9 142.75 40.15 142.5 40.45 142.3C40.75 142.05 41.1 141.85 41.5 141.65C41.85 141.5 42.3 141.3 42.75 141.2C43.2 141.05 43.7 140.95 44.25 140.85C44.6 140.8 45 140.75 45.35 140.75C45.7 140.7 46.05 140.7 46.35 140.7C47 140.75 47.6 140.85 48.15 141C48.7 141.2 49.2 141.45 49.6 141.75C50.05 142.1 50.4 142.45 50.75 142.95C50.35 143.15 49.9 143.35 49.45 143.65C48.95 143.95 48.45 144.25 47.9 144.65C47.55 144.15 47.1 143.85 46.45 143.7C45.8 143.55 45.2 143.5 44.55 143.6C44.1 143.7 43.7 143.8 43.4 143.95C43.1 144.15 42.85 144.35 42.65 144.65C42.25 145.15 42.15 145.75 42.25 146.45C42.35 147.15 42.7 147.7 43.25 148.1C43.5 148.3 43.85 148.4 44.25 148.45C44.6 148.55 45.05 148.5 45.55 148.45C46.3 148.3 46.95 148.1 47.35 147.8C47.75 147.45 48.05 147 48.2 146.45C48.6 146.55 49.1 146.7 49.6 146.9C50.15 147.05 50.7 147.2 51.35 147.35C51.2 147.95 50.95 148.45 50.6 148.9C50.3 149.35 49.85 149.7 49.35 150C48.8 150.3 48.3 150.55 47.7 150.75C47.1 150.95 46.5 151.1 45.85 151.2ZM65.75 148.5C65.75 148.5 64.85 148.6 63.95 148.7C63.05 148.8 62.1 148.9 62.1 148.9C62 148.65 61.85 148.35 61.7 148.05C61.55 147.7 61.35 147.35 61.15 147C61.15 147 60.9 147.05 60.45 147.1C60.05 147.15 59.5 147.2 58.9 147.25C58.35 147.35 57.8 147.4 57.35 147.45C56.95 147.5 56.65 147.55 56.65 147.55C56.65 147.55 56.55 148.05 56.45 148.55C56.3 149.1 56.2 149.6 56.2 149.6C56.2 149.6 55.35 149.7 54.45 149.85C53.55 149.95 52.7 150.05 52.7 150.05C52.7 150.05 52.85 149.4 53.1 148.45C53.2 147.95 53.35 147.35 53.5 146.75C53.65 146.15 53.8 145.45 54 144.8C54.15 144.15 54.3 143.5 54.5 142.9C54.65 142.3 54.8 141.7 54.9 141.2C55.15 140.25 55.35 139.55 55.35 139.55C55.35 139.55 55.7 139.55 56.15 139.45C56.65 139.4 57.35 139.3 58 139.25C58.65 139.15 59.3 139.1 59.8 139C60.3 138.95 60.65 138.95 60.65 138.95C60.65 138.95 61 139.5 61.45 140.4C61.7 140.85 62 141.4 62.3 141.95C62.6 142.5 62.9 143.1 63.25 143.7C63.55 144.3 63.85 144.9 64.15 145.45C64.45 146 64.75 146.55 65 147C65.45 147.9 65.75 148.5 65.75 148.5ZM57.2 145.3C57.2 145.3 57.95 145.2 58.65 145.1C59.4 145.05 60.1 144.95 60.1 144.95C59.9 144.5 59.65 144 59.4 143.55C59.15 143.1 58.9 142.65 58.65 142.2L58.2 141.35C58.1 141.75 57.95 142.3 57.8 143C57.7 143.3 57.6 143.65 57.5 144.05C57.4 144.45 57.3 144.85 57.2 145.3ZM77.7 140.7C77.75 141.1 77.7 141.5 77.65 141.85C77.55 142.2 77.4 142.5 77.25 142.8C77.05 143.1 76.8 143.35 76.45 143.55C76.15 143.8 75.75 144 75.25 144.15C75.4 144.3 75.5 144.4 75.55 144.45C75.55 144.45 76.15 145.2 76.8 145.95C77.45 146.65 78.05 147.4 78.05 147.4C78.05 147.4 77.1 147.5 76.15 147.55C75.2 147.6 74.2 147.7 74.2 147.7C74 147.35 73.7 146.9 73.3 146.4C73.1 146.15 72.9 145.9 72.7 145.6C72.45 145.3 72.25 145 72 144.65C72 144.65 71.45 144.7 70.95 144.75C70.4 144.8 69.9 144.85 69.9 144.85C69.9 144.85 69.95 145.65 70.05 146.45C70.1 147.25 70.2 148.05 70.2 148.05C70.2 148.05 69.35 148.15 68.5 148.2C67.7 148.3 66.85 148.35 66.85 148.35C66.85 147.9 66.8 147.5 66.8 147.05C66.75 146.6 66.7 146.2 66.7 145.8C66.65 145.35 66.6 144.95 66.6 144.55C66.55 144.15 66.5 143.75 66.45 143.35C66.45 142.95 66.4 142.6 66.35 142.15C66.3 141.75 66.25 141.35 66.2 140.95C66.15 140.55 66.1 140.1 66.05 139.7C66 139.25 65.9 138.8 65.85 138.35C65.85 138.35 66.7 138.3 67.55 138.2C68.4 138.1 69.25 138.05 69.25 138.05C69.25 138.05 70 138 70.75 137.9C71.5 137.85 72.25 137.8 72.25 137.8C72.7 137.75 73.15 137.75 73.6 137.75C74 137.75 74.4 137.75 74.75 137.8C75.4 137.9 75.95 138.1 76.4 138.35C76.8 138.65 77.1 138.95 77.3 139.35C77.55 139.75 77.65 140.2 77.7 140.7ZM71.45 140.55L69.5 140.7L69.65 142.25L71.6 142.1C72.4 142.05 73 141.95 73.4 141.9C73.85 141.8 74.1 141.7 74.25 141.55C74.4 141.45 74.5 141.25 74.45 141.05C74.45 140.85 74.35 140.7 74.2 140.6C74.05 140.5 73.75 140.45 73.3 140.45C72.9 140.45 72.25 140.45 71.45 140.55ZM87.7 141.85C88.25 141.8 88.75 141.8 89.15 141.9C89.55 141.95 89.9 142.05 90.2 142.2C90.75 142.55 91.05 143.05 91.05 143.7C91.1 144.3 90.95 144.85 90.65 145.3C90.4 145.75 89.9 146.15 89.15 146.4C88.75 146.55 88.35 146.65 87.8 146.75C87.3 146.8 86.7 146.9 86 146.9C86 146.9 85.65 146.95 85.05 146.95C84.75 147 84.4 147 84 147C83.65 147.05 83.25 147.05 82.85 147.1C82.45 147.1 82.05 147.15 81.7 147.15C81.3 147.2 80.95 147.2 80.65 147.25C80.05 147.25 79.65 147.3 79.65 147.3C79.65 146.85 79.65 146.4 79.65 145.95C79.6 145.55 79.6 145.1 79.6 144.7C79.55 144.25 79.55 143.85 79.5 143.45C79.5 143.05 79.45 142.65 79.45 142.25C79.4 141.9 79.4 141.5 79.35 141.1C79.3 140.7 79.3 140.25 79.25 139.85C79.2 139.45 79.15 139 79.15 138.6C79.1 138.15 79.05 137.7 79 137.25C79 137.25 79.85 137.2 80.7 137.15C81.55 137.1 82.4 137.05 82.4 137.05C82.4 137.05 83.15 137 83.95 136.95C84.7 136.95 85.5 136.9 85.5 136.9C86.1 136.85 86.6 136.85 87.1 136.9C87.55 136.9 87.95 136.95 88.3 137.05C89 137.2 89.5 137.45 89.8 137.8C90.1 138.15 90.3 138.6 90.3 139.15C90.35 139.7 90.15 140.25 89.75 140.7C89.55 140.9 89.3 141.1 88.95 141.3C88.6 141.5 88.2 141.65 87.7 141.85ZM85.3 139.4C85.3 139.4 84.6 139.45 83.9 139.5C83.25 139.55 82.55 139.6 82.55 139.6L82.6 140.85C82.6 140.85 83.3 140.8 84 140.8C84.7 140.75 85.35 140.7 85.35 140.7C85.95 140.7 86.4 140.6 86.6 140.5C86.85 140.4 86.95 140.2 86.95 139.9C86.9 139.7 86.8 139.55 86.55 139.5C86.3 139.4 85.9 139.4 85.3 139.4ZM82.85 144.55C82.85 144.55 83.5 144.5 84.2 144.45C84.9 144.45 85.55 144.4 85.55 144.4C86.05 144.4 86.45 144.35 86.7 144.3C86.95 144.25 87.15 144.15 87.25 144.05C87.35 143.9 87.4 143.75 87.4 143.6C87.4 143.35 87.25 143.2 86.95 143.1C86.7 143 86.2 142.95 85.5 143C85.5 143 84.8 143.05 84.1 143.1C83.45 143.1 82.75 143.15 82.75 143.15L82.85 144.55ZM98.95 146.6C98.4 146.6 97.9 146.6 97.45 146.55C96.95 146.5 96.55 146.45 96.15 146.35C95.75 146.2 95.35 146.1 95.05 145.95C94.7 145.75 94.4 145.55 94.15 145.35C93.9 145.15 93.65 144.9 93.45 144.6C93.25 144.35 93.1 144.05 92.95 143.75C92.8 143.4 92.7 143.05 92.6 142.7C92.55 142.35 92.5 141.95 92.5 141.55C92.45 141.1 92.5 140.75 92.55 140.35C92.6 140 92.65 139.65 92.8 139.3C92.9 139 93.05 138.7 93.25 138.4C93.4 138.15 93.65 137.85 93.9 137.65C94.15 137.4 94.45 137.2 94.75 137C95.1 136.8 95.45 136.65 95.85 136.55C96.3 136.4 96.7 136.3 97.2 136.25C97.7 136.2 98.2 136.15 98.75 136.15C99.3 136.1 99.85 136.15 100.3 136.2C100.8 136.25 101.25 136.3 101.65 136.45C102.05 136.55 102.45 136.7 102.8 136.85C103.1 137 103.4 137.2 103.65 137.45C103.95 137.7 104.15 137.95 104.35 138.2C104.55 138.5 104.7 138.8 104.85 139.1C105 139.4 105.1 139.75 105.15 140.15C105.2 140.5 105.25 140.9 105.25 141.3C105.25 141.7 105.2 142.1 105.15 142.5C105.1 142.85 105 143.2 104.85 143.5C104.75 143.85 104.6 144.15 104.4 144.4C104.2 144.7 104 144.95 103.75 145.2C103.5 145.4 103.2 145.6 102.85 145.8C102.55 145.95 102.2 146.1 101.8 146.2C101.4 146.35 100.95 146.45 100.45 146.5C100 146.55 99.5 146.6 98.95 146.6ZM98.9 143.8C99.4 143.75 99.85 143.7 100.25 143.6C100.65 143.5 100.95 143.35 101.15 143.15C101.4 142.95 101.55 142.7 101.7 142.4C101.8 142.1 101.85 141.75 101.85 141.3C101.85 140.5 101.6 139.9 101.1 139.5C100.9 139.3 100.55 139.15 100.2 139.1C99.8 139 99.35 138.95 98.8 138.95C98.3 138.95 97.8 139 97.45 139.15C97.05 139.25 96.75 139.4 96.55 139.6C96.05 140 95.85 140.6 95.85 141.45C95.9 141.85 95.95 142.2 96.05 142.5C96.2 142.8 96.4 143.05 96.6 143.25C96.85 143.45 97.15 143.55 97.55 143.65C97.9 143.75 98.35 143.8 98.9 143.8ZM115.35 136.5C115.35 136.5 116.25 136.5 117.15 136.55C118.05 136.55 118.9 136.6 118.9 136.6C118.9 136.95 118.85 137.35 118.85 137.75C118.8 138.15 118.8 138.6 118.75 139C118.75 139.4 118.75 139.85 118.7 140.25C118.7 140.7 118.65 141.15 118.65 141.6C118.65 142.05 118.65 142.5 118.6 142.9C118.6 143.35 118.6 143.75 118.6 144.2C118.6 144.6 118.6 145 118.6 145.4C118.6 145.85 118.6 146.2 118.6 146.6C118.6 146.6 118.3 146.6 117.8 146.6C117.35 146.6 116.7 146.55 116.05 146.55C115.45 146.5 114.8 146.5 114.35 146.5C113.85 146.5 113.55 146.5 113.55 146.5C113.55 146.5 113.35 146 113 145.3C112.85 144.95 112.7 144.5 112.5 144.05C112.3 143.6 112.1 143.15 111.9 142.65C111.65 142.2 111.45 141.7 111.25 141.3C111.05 140.85 110.9 140.4 110.75 140.05C110.4 139.35 110.2 138.85 110.2 138.85C110.2 138.85 110.2 139.35 110.2 140.05C110.25 140.4 110.25 140.8 110.25 141.25C110.25 141.7 110.25 142.2 110.3 142.65C110.3 143.1 110.3 143.6 110.3 144.05C110.3 144.5 110.35 144.9 110.35 145.25C110.35 145.95 110.35 146.45 110.35 146.45C110.35 146.45 109.45 146.4 108.55 146.4C107.65 146.4 106.75 146.4 106.75 146.4C106.75 145.95 106.75 145.5 106.8 145.1C106.8 144.65 106.8 144.25 106.8 143.8C106.85 143.4 106.85 143 106.85 142.55C106.85 142.15 106.85 141.75 106.85 141.4C106.85 141 106.85 140.6 106.85 140.2C106.85 139.8 106.85 139.4 106.85 138.95C106.85 138.55 106.8 138.1 106.8 137.7C106.8 137.25 106.75 136.8 106.75 136.35C106.75 136.35 107.1 136.35 107.6 136.35C108.1 136.35 108.75 136.4 109.4 136.4C110.1 136.4 110.75 136.4 111.25 136.4C111.75 136.4 112.1 136.4 112.1 136.4C112.1 136.4 112.3 136.9 112.6 137.65C112.8 138 112.95 138.45 113.15 138.9C113.35 139.35 113.55 139.85 113.8 140.35C114 140.8 114.2 141.3 114.4 141.75C114.6 142.25 114.75 142.65 114.9 143.05C115.2 143.75 115.45 144.25 115.45 144.25C115.45 144.25 115.45 143.75 115.4 143.05C115.4 142.65 115.4 142.25 115.4 141.8C115.4 141.35 115.4 140.85 115.4 140.35C115.4 139.9 115.4 139.4 115.4 138.95C115.4 138.5 115.4 138.05 115.4 137.7C115.35 136.95 115.35 136.5 115.35 136.5ZM135 137.4C135 137.4 134.95 138.05 134.9 138.7C134.85 139.35 134.8 140 134.8 140C134.8 140 134.35 139.95 133.6 139.9C133.25 139.9 132.8 139.85 132.35 139.85C131.9 139.8 131.4 139.75 130.9 139.75C130.4 139.7 129.95 139.65 129.45 139.65C129 139.6 128.6 139.6 128.2 139.55C127.5 139.55 127 139.5 127 139.5L126.9 140.95C127.15 140.95 127.45 141 127.85 141C128.2 141.05 128.6 141.05 129.1 141.1C129.55 141.1 129.95 141.15 130.4 141.15C130.8 141.2 131.25 141.2 131.65 141.25C132.1 141.25 132.5 141.25 132.95 141.3C133.4 141.3 133.8 141.35 134.25 141.35C134.25 141.35 134.2 142 134.15 142.7C134.1 143.4 134.05 144.05 134.05 144.05C133.6 144 133.2 143.95 132.75 143.9C132.3 143.9 131.85 143.85 131.4 143.8C130.95 143.75 130.5 143.75 130 143.7C129.55 143.65 129.05 143.65 128.6 143.6C127.8 143.55 127.2 143.55 126.8 143.5C126.8 143.5 126.75 144.4 126.7 145.25C126.65 146.1 126.6 146.95 126.6 146.95C126.6 146.95 125.75 146.9 124.95 146.85C124.1 146.85 123.25 146.8 123.25 146.8C123.3 146.35 123.35 145.9 123.35 145.5C123.4 145.05 123.45 144.6 123.45 144.2C123.5 143.8 123.5 143.35 123.55 142.95C123.55 142.55 123.6 142.15 123.6 141.8C123.6 141.4 123.65 141 123.65 140.6C123.65 140.2 123.65 139.75 123.7 139.35C123.7 138.95 123.7 138.5 123.7 138.05C123.7 137.65 123.7 137.2 123.7 136.75C123.7 136.75 124.4 136.8 125.5 136.85C126 136.85 126.6 136.9 127.3 136.95C127.95 136.95 128.65 137 129.35 137.05C130.05 137.1 130.75 137.15 131.45 137.15C132.1 137.2 132.7 137.25 133.25 137.3C134.3 137.35 135 137.4 135 137.4ZM147.8 141.95C147.75 142.35 147.65 142.7 147.5 143C147.4 143.35 147.2 143.65 146.95 143.9C146.75 144.15 146.45 144.35 146.05 144.5C145.7 144.7 145.25 144.8 144.75 144.9C144.85 145.05 144.95 145.15 145 145.25C145 145.25 145.5 146.1 145.95 146.9C146.45 147.75 146.95 148.6 146.95 148.6C146.95 148.6 146 148.5 145.05 148.4C144.1 148.3 143.1 148.2 143.1 148.2C142.95 147.8 142.7 147.3 142.45 146.75C142.3 146.45 142.15 146.15 142 145.85C141.8 145.5 141.65 145.2 141.45 144.8C141.45 144.8 140.95 144.75 140.4 144.7C139.9 144.65 139.35 144.65 139.35 144.65C139.35 144.65 139.3 145.45 139.2 146.25C139.15 147.05 139.1 147.85 139.1 147.85C139.1 147.85 138.25 147.75 137.4 147.7C136.6 147.6 135.75 147.55 135.75 147.55C135.8 147.1 135.85 146.65 135.9 146.25C135.95 145.8 136 145.4 136.05 144.95C136.1 144.55 136.1 144.15 136.15 143.75C136.2 143.35 136.25 142.95 136.25 142.55C136.3 142.15 136.3 141.75 136.35 141.35C136.35 140.95 136.4 140.55 136.4 140.15C136.45 139.7 136.45 139.3 136.5 138.85C136.5 138.4 136.5 138 136.55 137.55C136.55 137.55 137.4 137.6 138.25 137.65C139.1 137.75 139.95 137.8 139.95 137.8C139.95 137.8 140.7 137.9 141.45 137.95C142.15 138 142.9 138.1 142.9 138.1C143.4 138.15 143.85 138.2 144.25 138.25C144.65 138.35 145.05 138.45 145.35 138.55C146.05 138.75 146.55 139.05 146.9 139.4C147.25 139.7 147.5 140.1 147.65 140.55C147.8 140.95 147.85 141.4 147.8 141.95ZM141.65 140.65L139.7 140.45L139.6 142.05L141.5 142.2C142.3 142.3 142.95 142.3 143.35 142.3C143.8 142.3 144.1 142.25 144.25 142.15C144.4 142.05 144.5 141.9 144.55 141.7C144.55 141.5 144.5 141.35 144.35 141.2C144.2 141.1 143.95 140.95 143.5 140.9C143.1 140.8 142.5 140.7 141.65 140.65ZM152.35 145.2L152.2 146.6C152.6 146.65 153.05 146.7 153.5 146.75C153.9 146.8 154.3 146.85 154.7 146.9C155.05 146.95 155.45 147 155.8 147.05C156.15 147.05 156.5 147.1 156.8 147.15C157.45 147.2 158.05 147.3 158.6 147.35C159.1 147.4 159.6 147.45 160 147.5C159.85 147.85 159.8 148.2 159.7 148.6C159.65 149 159.55 149.5 159.5 150.1C159.5 150.1 158.8 150 157.75 149.9C157.25 149.8 156.65 149.75 156.05 149.65C155.4 149.55 154.7 149.5 154 149.4C153.35 149.3 152.65 149.25 152 149.15C151.35 149.1 150.8 149 150.25 148.95C149.25 148.85 148.55 148.75 148.55 148.75C148.6 148.3 148.7 147.85 148.75 147.45C148.8 147 148.85 146.6 148.95 146.2C149 145.75 149.05 145.35 149.1 144.95C149.15 144.55 149.2 144.15 149.2 143.75C149.25 143.4 149.3 143 149.35 142.6C149.4 142.2 149.4 141.75 149.45 141.35C149.5 140.95 149.55 140.5 149.55 140.1C149.6 139.65 149.65 139.2 149.65 138.75C149.65 138.75 150.35 138.85 151.4 138.95C151.95 139 152.55 139.1 153.2 139.15C153.85 139.25 154.55 139.35 155.25 139.4C155.95 139.5 156.65 139.6 157.3 139.7C158 139.75 158.6 139.85 159.1 139.9C160.15 140.05 160.85 140.15 160.85 140.15C160.85 140.15 160.8 140.8 160.7 141.4C160.6 142 160.5 142.65 160.5 142.65C160.5 142.65 160.05 142.55 159.3 142.5C158.95 142.45 158.5 142.35 158.05 142.3C157.6 142.25 157.15 142.2 156.65 142.1C156.15 142.05 155.7 142 155.2 141.95C154.75 141.9 154.35 141.85 154 141.8C153.25 141.7 152.75 141.65 152.75 141.65L152.6 142.95C153.05 143.05 153.75 143.1 154.65 143.2C155 143.25 155.4 143.3 155.8 143.35C156.15 143.4 156.55 143.45 156.95 143.5C157.35 143.55 157.75 143.6 158.15 143.65C158.55 143.65 158.95 143.7 159.35 143.75C159.35 143.75 159.25 144.35 159.2 144.95C159.1 145.5 159 146.1 159 146.1C158.6 146.05 158.25 146 157.85 145.9C157.45 145.85 157.05 145.8 156.65 145.75C156.25 145.7 155.9 145.6 155.5 145.55C155.1 145.5 154.75 145.45 154.35 145.4C153.45 145.3 152.8 145.25 152.35 145.2ZM165 146.9L164.8 148.35C165.25 148.4 165.65 148.45 166.1 148.5C166.5 148.6 166.9 148.65 167.3 148.7C167.65 148.75 168.05 148.8 168.4 148.85C168.75 148.9 169.1 148.95 169.4 149C170.05 149.1 170.65 149.2 171.2 149.25C171.7 149.35 172.15 149.4 172.6 149.45C172.45 149.8 172.35 150.2 172.25 150.6C172.15 150.95 172.1 151.45 172 152.05C172 152.05 171.3 151.95 170.3 151.75C169.75 151.7 169.2 151.6 168.55 151.5C167.9 151.4 167.2 151.25 166.55 151.15C165.85 151.05 165.2 150.95 164.55 150.85C163.9 150.75 163.3 150.65 162.8 150.6C161.75 150.45 161.1 150.35 161.1 150.35C161.2 149.9 161.25 149.45 161.35 149.05C161.4 148.6 161.5 148.2 161.55 147.8C161.6 147.35 161.7 146.95 161.75 146.55C161.8 146.15 161.85 145.75 161.9 145.4C162 145 162.05 144.6 162.1 144.2C162.15 143.8 162.2 143.4 162.25 143C162.3 142.55 162.35 142.15 162.4 141.7C162.45 141.3 162.5 140.85 162.5 140.4C162.5 140.4 163.2 140.5 164.25 140.65C164.8 140.75 165.4 140.8 166.05 140.9C166.7 141 167.4 141.15 168.1 141.25C168.8 141.35 169.5 141.45 170.15 141.55C170.8 141.65 171.4 141.75 171.95 141.85C173 142.05 173.7 142.15 173.7 142.15C173.7 142.15 173.6 142.75 173.45 143.4C173.35 144 173.25 144.65 173.25 144.65C173.25 144.65 172.8 144.55 172.05 144.4C171.7 144.35 171.25 144.3 170.8 144.2C170.35 144.15 169.9 144.05 169.4 144C168.9 143.9 168.45 143.85 168 143.75C167.55 143.7 167.1 143.6 166.75 143.55C166 143.45 165.55 143.35 165.55 143.35L165.35 144.7C165.8 144.75 166.45 144.85 167.35 145C167.75 145.05 168.1 145.15 168.5 145.2C168.9 145.25 169.25 145.3 169.65 145.35C170.05 145.4 170.45 145.5 170.85 145.55C171.25 145.6 171.65 145.65 172.05 145.7C172.05 145.7 171.95 146.3 171.85 146.85C171.75 147.45 171.65 148.05 171.65 148.05C171.25 147.95 170.85 147.9 170.45 147.8C170.1 147.75 169.7 147.65 169.3 147.6C168.9 147.5 168.55 147.45 168.15 147.4C167.75 147.3 167.4 147.25 167 147.2C166.15 147.05 165.45 146.95 165 146.9Z" fill="white"/>
</svg>
