<svg width="202" height="200" viewBox="0 0 202 200" fill="none" xmlns="http://www.w3.org/2000/svg">
<path d="M182.15 193.95C136.3 202.1 83.55 200.9 26.15 193.25C18.3 192.2 12.15 186 11.1 178.1C4.99999 130.7 0.149994 92 7.69999 19.85C8.54999 11.55 15.2 5.00001 23.55 4.25001C76.7833 -0.616661 130 -0.633327 183.2 4.20001C191.8 4.95001 198.6 11.9 199.15 20.55C202.6 76.2 202.25 129.25 196.6 178.65C195.7 186.4 189.85 192.6 182.15 193.95Z" fill="#455A29"/>
<path d="M154.9 161.75C124.75 167.15 90.1 166.35 52.4 161.3C47.2 160.6 43.15 156.55 42.5 151.35C38.45 120.2 35.25 94.75 40.25 47.35C40.8 41.9 45.15 37.6 50.65 37.1C85.6167 33.9 120.6 33.8833 155.6 37.05C161.25 37.55 165.7 42.15 166.05 47.8C168.35 84.4 168.1 119.25 164.35 151.75C163.8 156.8 159.95 160.85 154.9 161.75Z" fill="#748E4A"/>
<path fill-rule="evenodd" clip-rule="evenodd" d="M109.95 169.3C91.6 169.3 71.6 167.85 49.65 164.95C44.05 164.2 39.65 159.75 38.9 154.1C34.85 122.3 31.3 94.8 36.55 44.55C37.15 38.6 41.95 33.9 47.85 33.35C84.55 30.05 121.75 30 158.4 33.35C164.6 33.9 169.4 38.8 169.8 45C172.35 85.9 171.75 121.75 168 154.5C167.4 160.05 163.25 164.4 157.75 165.4C143.1 168 127.25 169.3 109.95 169.3ZM103.35 31.65C84.85 31.65 66.35 32.5 47.95 34.15C42.4 34.65 37.9 39.05 37.35 44.6C32.1 94.8 35.6 122.25 39.7 154C40.4 159.3 44.5 163.45 49.8 164.15C92.3 169.8 127.6 169.95 157.6 164.65C162.75 163.7 166.65 159.6 167.25 154.4C171 121.7 171.55 85.9 169 45.05C168.65 39.25 164.15 34.65 158.35 34.1C140.1 32.45 121.7 31.65 103.35 31.65Z" fill="#2F4219"/>
<path d="M110.85 196.2H109.1C108.65 196.2 108.25 195.8 108.25 195.35C108.3 194.9 108.65 194.5 109.15 194.5H110.85C111.3 194.5 111.7 194.9 111.7 195.35C111.7 195.85 111.3 196.2 110.85 196.2ZM115.95 196.2C115.5 196.2 115.1 195.85 115.1 195.35C115.1 194.9 115.5 194.5 115.95 194.5H117.65C118.15 194.5 118.5 194.85 118.5 195.35C118.5 195.8 118.15 196.2 117.65 196.2H115.95ZM104 196.15L102.3 196.1C101.85 196.1 101.45 195.7 101.45 195.25C101.45 194.75 101.85 194.4 102.3 194.4L104 194.45C104.5 194.45 104.85 194.85 104.85 195.3C104.85 195.75 104.45 196.15 104 196.15ZM122.8 196.1C122.3 196.1 121.95 195.75 121.95 195.3C121.9 194.8 122.3 194.4 122.75 194.4L124.45 194.35C124.483 194.35 124.5 194.35 124.5 194.35C124.95 194.35 125.35 194.75 125.35 195.2C125.35 195.65 125 196.05 124.5 196.1H122.8ZM97.15 196L95.45 195.95C94.95 195.9 94.6 195.5 94.6 195.05C94.65 194.55 95.1 194.2 95.5 194.2L97.2 194.25C97.65 194.3 98.05 194.7 98 195.15C98 195.6 97.65 196 97.15 196ZM129.6 195.9C129.15 195.9 128.8 195.55 128.75 195.1C128.75 194.6 129.1 194.25 129.6 194.2L131.3 194.15C131.75 194.15 132.15 194.5 132.15 194.95C132.2 195.45 131.8 195.85 131.35 195.85L129.65 195.9C129.65 195.9 129.633 195.9 129.6 195.9ZM90.35 195.75C90.35 195.75 90.3333 195.75 90.3 195.75L88.6 195.65C88.15 195.65 87.75 195.25 87.8 194.75C87.8 194.3 88.2 193.9 88.7 193.95L90.4 194C90.85 194.05 91.2 194.45 91.2 194.9C91.2 195.35 90.8 195.75 90.35 195.75ZM136.45 195.6C136 195.6 135.6 195.25 135.6 194.8C135.55 194.35 135.9 193.9 136.4 193.9L138.1 193.8C138.55 193.75 138.95 194.15 139 194.6C139 195.1 138.65 195.5 138.2 195.5L136.5 195.6C136.467 195.6 136.45 195.6 136.45 195.6ZM83.5 195.4C83.5 195.4 83.4833 195.4 83.45 195.4L81.75 195.3C81.3 195.25 80.95 194.85 80.95 194.4C81 193.9 81.4 193.55 81.85 193.6L83.55 193.7C84.05 193.7 84.4 194.1 84.35 194.6C84.35 195.05 83.95 195.4 83.5 195.4ZM143.25 195.2C142.8 195.2 142.45 194.85 142.4 194.4C142.35 193.9 142.7 193.5 143.2 193.5L144.9 193.35C145.3 193.3 145.75 193.65 145.8 194.15C145.85 194.6 145.5 195 145 195.05L143.3 195.2C143.3 195.2 143.283 195.2 143.25 195.2ZM76.7 195C76.6667 195 76.65 195 76.65 195L74.95 194.85C74.45 194.85 74.1 194.45 74.15 193.95C74.2 193.5 74.6 193.15 75.05 193.15L76.75 193.3C77.2 193.3 77.6 193.7 77.55 194.2C77.5 194.65 77.15 195 76.7 195ZM150.05 194.65C149.6 194.65 149.25 194.3 149.2 193.85C149.15 193.4 149.5 192.95 150 192.95L151.7 192.8C152.1 192.75 152.55 193.1 152.6 193.55C152.65 194 152.3 194.45 151.85 194.5L150.15 194.65C150.117 194.65 150.083 194.65 150.05 194.65ZM69.9 194.5C69.8667 194.5 69.8333 194.5 69.8 194.5L68.1 194.35C67.65 194.3 67.3 193.9 67.35 193.45C67.35 192.95 67.8 192.6 68.25 192.65L69.95 192.8C70.4 192.8 70.75 193.25 70.75 193.7C70.7 194.15 70.35 194.5 69.9 194.5ZM156.85 193.95C156.45 193.95 156.05 193.65 156 193.2C155.95 192.75 156.3 192.3 156.75 192.25L158.45 192.1C158.9 192.05 159.35 192.35 159.4 192.85C159.45 193.3 159.1 193.75 158.65 193.8L156.95 193.95C156.917 193.95 156.883 193.95 156.85 193.95ZM63.1 193.95C63.0667 193.95 63.0333 193.95 63 193.95L61.3 193.8C60.85 193.75 60.5 193.35 60.55 192.85C60.55 192.4 61 192.05 61.45 192.1L63.15 192.25C63.6 192.25 63.95 192.7 63.95 193.15C63.9 193.6 63.5 193.95 63.1 193.95ZM56.05 193.3L54.55 193.15C54.05 193.1 53.7 192.65 53.75 192.2C53.8 191.75 54.25 191.4 54.7 191.45L56.25 191.6L56.3 192.45L56.05 193.3ZM163.65 193.2C163.25 193.2 162.85 192.85 162.8 192.45C162.75 191.95 163.1 191.55 163.55 191.5L165.25 191.25C165.7 191.15 166.15 191.5 166.2 192C166.25 192.45 165.95 192.9 165.45 192.95L163.75 193.2C163.717 193.2 163.683 193.2 163.65 193.2ZM49.5 192.6C49.4667 192.6 49.4333 192.6 49.4 192.6L47.7 192.45C47.25 192.4 46.9 191.95 46.95 191.5C47 191 47.45 190.65 47.9 190.75L49.6 190.9C50.05 190.95 50.4 191.4 50.35 191.85C50.3 192.3 49.95 192.6 49.5 192.6ZM170.4 192.25C170 192.25 169.65 191.95 169.6 191.5C169.5 191.05 169.85 190.6 170.3 190.55L172 190.3C172.45 190.2 172.9 190.55 172.95 191C173.05 191.45 172.7 191.9 172.25 192L170.55 192.25C170.517 192.25 170.467 192.25 170.4 192.25ZM42.7 191.85C42.6667 191.85 42.6333 191.85 42.6 191.85L40.9 191.65C40.45 191.6 40.1 191.2 40.15 190.7C40.2 190.25 40.65 189.9 41.1 189.95L42.8 190.15C43.25 190.2 43.6 190.65 43.55 191.1C43.5 191.55 43.15 191.85 42.7 191.85ZM177.15 191.15C176.75 191.15 176.4 190.85 176.3 190.45C176.25 190 176.55 189.55 177 189.45L178.7 189.15H178.9C178.933 189.117 178.967 189.1 179 189.1L180.15 188.9C180.6 188.85 181.05 189.15 181.15 189.6C181.25 190.05 180.9 190.5 180.45 190.6L179 190.85L177.3 191.15C177.267 191.15 177.217 191.15 177.15 191.15ZM35.9 191.05C35.8667 191.05 35.8333 191.05 35.8 191.05L34.1 190.85C33.65 190.75 33.3 190.35 33.4 189.85C33.45 189.4 33.85 189.05 34.35 189.15L36.05 189.35C36.5 189.4 36.85 189.85 36.75 190.3C36.7 190.75 36.35 191.05 35.9 191.05ZM29.15 190.15C29.1167 190.15 29.0667 190.15 29 190.15C28.4333 190.05 27.85 189.933 27.25 189.8C26.8 189.7 26.55 189.25 26.65 188.75C26.75 188.3 27.2 188.05 27.7 188.15C28.2 188.283 28.7167 188.383 29.25 188.45C29.75 188.55 30.05 188.95 30 189.45C29.95 189.85 29.55 190.15 29.15 190.15ZM183.9 189.1C183.6 189.1 183.3 188.95 183.15 188.65C182.9 188.25 183.05 187.75 183.5 187.5C183.967 187.233 184.433 186.95 184.9 186.65C185.25 186.4 185.8 186.5 186.05 186.9C186.35 187.3 186.2 187.85 185.85 188.1C185.35 188.433 184.833 188.733 184.3 189C184.167 189.067 184.033 189.1 183.9 189.1ZM22.8 187.85C22.6333 187.85 22.4833 187.8 22.35 187.7C21.8167 187.367 21.3167 187.017 20.85 186.65C20.5 186.4 20.4 185.85 20.7 185.5C21 185.1 21.5 185.05 21.9 185.3C22.3333 185.633 22.7833 185.95 23.25 186.25C23.65 186.5 23.75 187 23.5 187.4C23.35 187.7 23.05 187.85 22.8 187.85ZM189.1 184.75C188.9 184.75 188.75 184.7 188.6 184.6C188.2 184.3 188.15 183.75 188.45 183.4C188.783 182.967 189.1 182.517 189.4 182.05C189.65 181.65 190.2 181.55 190.55 181.8C190.95 182.05 191.1 182.6 190.8 183C190.5 183.5 190.167 183.983 189.8 184.45C189.6 184.65 189.35 184.75 189.1 184.75ZM17.85 183.15C17.6 183.15 17.3 183 17.15 182.8C16.8167 182.3 16.5 181.783 16.2 181.25C15.95 180.85 16.1 180.35 16.55 180.1C16.95 179.85 17.45 180 17.7 180.45C17.9667 180.917 18.25 181.367 18.55 181.8C18.85 182.2 18.75 182.75 18.35 183C18.1833 183.1 18.0167 183.15 17.85 183.15ZM192.2 178.7C192.1 178.7 192.017 178.7 191.95 178.7C191.5 178.55 191.25 178.1 191.35 177.65C191.483 177.117 191.6 176.583 191.7 176.05C191.8 175.6 192.2 175.25 192.7 175.35C193.15 175.45 193.45 175.85 193.4 176.35C193.3 176.95 193.167 177.533 193 178.1C192.9 178.45 192.55 178.7 192.2 178.7ZM15.2 176.9C14.8 176.9 14.45 176.65 14.35 176.25C14.25 175.817 14.1833 175.383 14.15 174.95L14.05 174.5C14 174 14.35 173.6 14.8 173.5C15.25 173.45 15.7 173.8 15.75 174.25L15.85 174.75C15.8833 175.117 15.9333 175.5 16 175.9C16.1 176.35 15.8 176.8 15.35 176.9C15.2833 176.9 15.2333 176.9 15.2 176.9ZM193.15 171.95C193.117 171.95 193.083 171.95 193.05 171.95C192.55 171.9 192.25 171.5 192.3 171L192.45 169.3C192.5 168.85 192.95 168.5 193.4 168.55C193.85 168.6 194.2 169 194.15 169.5L194 171.2C193.95 171.65 193.55 171.95 193.15 171.95ZM14.25 170.15C13.85 170.15 13.5 169.8 13.4 169.4L13.2 167.7C13.15 167.25 13.5 166.8 13.95 166.75C14.4 166.65 14.85 167 14.9 167.5L15.1 169.2C15.2 169.65 14.85 170.05 14.4 170.15C14.3333 170.15 14.2833 170.15 14.25 170.15ZM193.85 165.15C193.817 165.15 193.783 165.15 193.75 165.15C193.3 165.1 192.95 164.7 193 164.2L193.15 162.5C193.2 162.05 193.6 161.7 194.05 161.75C194.55 161.8 194.9 162.2 194.85 162.65L194.7 164.4C194.65 164.8 194.25 165.15 193.85 165.15ZM13.4 163.35C13 163.35 12.6 163.05 12.55 162.6L12.35 160.9C12.3 160.45 12.65 160 13.1 159.95C13.55 159.9 14 160.25 14.05 160.7L14.25 162.4C14.3 162.85 14 163.3 13.5 163.35C13.4667 163.35 13.4333 163.35 13.4 163.35ZM194.45 158.35C194.417 158.35 194.4 158.35 194.4 158.35C193.9 158.3 193.55 157.9 193.6 157.4L193.75 155.7C193.8 155.25 194.25 154.9 194.65 154.95C195.15 154.95 195.5 155.4 195.45 155.85L195.3 157.55C195.25 158 194.9 158.35 194.45 158.35ZM12.55 156.55C12.15 156.55 11.8 156.25 11.75 155.8L11.5 154.1C11.45 153.65 11.8 153.2 12.25 153.15C12.75 153.1 13.15 153.45 13.2 153.9L13.4 155.6C13.5 156.1 13.15 156.5 12.7 156.55C12.6667 156.55 12.6167 156.55 12.55 156.55ZM195 151.55C194.967 151.55 194.95 151.533 194.95 151.5C194.45 151.5 194.1 151.1 194.15 150.6L194.3 148.9C194.3 148.45 194.75 148.1 195.2 148.1C195.65 148.15 196 148.55 196 149.05L195.85 150.75C195.85 151.2 195.45 151.55 195 151.55ZM11.8 149.8C11.35 149.8 11 149.45 10.95 149L10.75 147.3C10.7 146.85 11 146.45 11.5 146.4C11.95 146.3 12.4 146.65 12.45 147.15L12.65 148.85C12.7 149.3 12.35 149.7 11.9 149.75C11.8667 149.783 11.8333 149.8 11.8 149.8ZM195.5 144.7C195.467 144.7 195.45 144.7 195.45 144.7C194.95 144.65 194.6 144.25 194.65 143.8L194.75 142.1C194.8 141.6 195.2 141.25 195.65 141.3C196.15 141.3 196.5 141.75 196.45 142.2L196.35 143.9C196.3 144.35 195.95 144.7 195.5 144.7ZM11.05 143C10.6 143 10.25 142.65 10.2 142.2L9.99999 140.7C9.94999 140.2 10.3 139.7 10.8 139.65C11.3 139.6 11.65 139.9 11.7 140.35L11.9 142.05C11.95 142.5 11.6 142.95 11.1 143C11.1 143 11.0833 143 11.05 143ZM195.9 137.9C195.9 137.9 195.883 137.9 195.85 137.9C195.4 137.85 195.05 137.45 195.05 136.95L195.15 135.25C195.2 134.8 195.65 134.4 196.05 134.45C196.55 134.5 196.9 134.9 196.85 135.35L196.8 137.05C196.75 137.55 196.35 137.9 195.9 137.9ZM10.35 136.2C9.89999 136.2 9.54999 135.85 9.49999 135.4L9.34999 133.7C9.29999 133.25 9.64999 132.85 10.1 132.8C10.6 132.75 11 133.1 11.05 133.55L11.2 135.25C11.25 135.7 10.9 136.15 10.45 136.2C10.4167 136.2 10.3833 136.2 10.35 136.2ZM196.3 131.05C196.267 131.05 196.25 131.05 196.25 131.05C195.75 131 195.4 130.6 195.45 130.15L195.5 128.45C195.55 127.95 195.95 127.6 196.4 127.65C196.9 127.65 197.25 128.05 197.2 128.55L197.15 130.25C197.1 130.7 196.75 131.05 196.3 131.05ZM9.74999 129.4C9.29999 129.4 8.94999 129.05 8.89999 128.6L8.74999 126.9C8.69999 126.45 9.04999 126 9.54999 125.95C9.99999 125.95 10.4 126.3 10.45 126.75L10.6 128.45C10.65 128.95 10.3 129.35 9.79999 129.4C9.79999 129.4 9.78333 129.4 9.74999 129.4ZM196.6 124.2C196.567 124.2 196.55 124.2 196.55 124.2C196.1 124.2 195.7 123.8 195.75 123.35L195.8 121.6C195.8 121.15 196.25 120.8 196.7 120.8C197.15 120.8 197.5 121.2 197.5 121.7L197.45 123.4C197.4 123.85 197.05 124.2 196.6 124.2ZM9.19999 122.55C8.74999 122.55 8.39999 122.25 8.34999 121.75L8.24999 120.05C8.19999 119.6 8.54999 119.2 9.04999 119.15C9.44999 119.15 9.89999 119.5 9.94999 119.95L10.05 121.65C10.1 122.1 9.74999 122.55 9.29999 122.55C9.26666 122.55 9.23333 122.55 9.19999 122.55ZM196.85 117.4C196.817 117.4 196.8 117.4 196.8 117.4C196.35 117.35 195.95 116.95 195.95 116.5L196.05 114.8C196.05 114.3 196.45 113.95 196.9 113.95C197.4 113.95 197.75 114.35 197.75 114.85L197.7 116.55C197.65 117 197.3 117.4 196.85 117.4ZM8.79999 115.75C8.34999 115.75 7.94999 115.4 7.94999 114.95L7.84999 113.25C7.79999 112.75 8.14999 112.35 8.64999 112.35C9.09999 112.3 9.49999 112.65 9.54999 113.15L9.64999 114.85C9.64999 115.3 9.29999 115.7 8.84999 115.75C8.81666 115.75 8.79999 115.75 8.79999 115.75ZM197 110.55C196.55 110.55 196.15 110.15 196.15 109.65L196.2 107.95C196.2 107.5 196.6 107.05 197.05 107.1C197.55 107.15 197.9 107.5 197.9 108L197.85 109.7C197.85 110.15 197.5 110.55 197 110.55ZM8.44999 108.9C7.99999 108.9 7.59999 108.55 7.59999 108.1L7.49999 106.4C7.49999 105.9 7.84999 105.5 8.34999 105.5C8.79999 105.55 9.19999 105.85 9.24999 106.35L9.29999 108.05C9.29999 108.5 8.94999 108.9 8.49999 108.9C8.46666 108.9 8.44999 108.9 8.44999 108.9ZM197.15 103.7C196.65 103.7 196.3 103.3 196.3 102.85V101.15C196.3 100.65 196.65 100.3 197.2 100.3C197.65 100.3 198.05 100.7 198 101.15V102.85C198 103.35 197.6 103.7 197.15 103.7ZM8.19999 102.1C7.74999 102.1 7.34999 101.75 7.34999 101.25L7.29999 99.55C7.29999 99.1 7.64999 98.7 8.14999 98.65C8.64999 98.7 8.99999 99.05 8.99999 99.5L9.04999 101.2C9.04999 101.7 8.69999 102.1 8.24999 102.1C8.21666 102.1 8.19999 102.1 8.19999 102.1ZM197.2 96.85C196.75 96.85 196.35 96.5 196.35 96L196.4 94.3C196.4 93.85 196.75 93.45 197.25 93.45C197.7 93.45 198.1 93.85 198.1 94.3V96C198.05 96.5 197.7 96.85 197.2 96.85ZM8.04999 95.25C7.59999 95.25 7.19999 94.9 7.19999 94.4V92.7C7.19999 92.25 7.54999 91.85 8.04999 91.85C8.49999 91.85 8.89999 92.2 8.89999 92.7V94.4C8.89999 94.85 8.54999 95.25 8.09999 95.25C8.06666 95.25 8.04999 95.25 8.04999 95.25ZM197.25 90.05C196.75 90.05 196.4 89.65 196.4 89.15V87.45C196.4 87 196.75 86.6 197.25 86.6C197.7 86.6 198.1 87 198.1 87.45V89.15C198.1 89.65 197.7 90.05 197.25 90.05ZM7.99999 88.4C7.54999 88.4 7.14999 88.05 7.14999 87.55V85.85C7.14999 85.4 7.54999 85 7.99999 85C8.49999 85 8.89999 85.4 8.89999 85.85L8.84999 87.55C8.84999 88.05 8.49999 88.4 7.99999 88.4ZM197.2 83.2C196.75 83.2 196.35 82.8 196.35 82.35V80.65C196.35 80.15 196.7 79.75 197.2 79.75C197.65 79.75 198.05 80.15 198.05 80.6V82.3C198.05 82.8 197.7 83.2 197.2 83.2ZM8.04999 80.75L7.19999 80.7L7.24999 79C7.24999 78.55 7.59999 78.2 8.09999 78.15C8.59999 78.2 8.94999 78.55 8.94999 79.05L8.89999 80.7L8.04999 80.75ZM197.15 76.4C196.7 76.4 196.3 76 196.3 75.55L196.25 73.85C196.25 73.35 196.65 73 197.1 72.95C197.6 72.9 197.95 73.35 197.95 73.8L198 75.5C198 76 197.65 76.4 197.15 76.4ZM8.19999 74.8C7.69999 74.8 7.34999 74.4 7.34999 73.9L7.39999 72.2C7.39999 71.75 7.79999 71.4 8.29999 71.35C8.74999 71.4 9.14999 71.8 9.09999 72.25L9.04999 73.95C9.04999 74.4 8.69999 74.8 8.19999 74.8ZM197 69.55C196.55 69.55 196.15 69.2 196.15 68.7L196.1 67.05L197.85 66.95L197 67H197.85V68.7C197.9 69.15 197.5 69.55 197.05 69.55C197.017 69.55 197 69.55 197 69.55ZM8.44999 67.1L7.59999 67L7.64999 65.35C7.69999 64.9 8.09999 64.5 8.54999 64.55C9.04999 64.55 9.39999 64.95 9.34999 65.45L9.29999 67.05L8.44999 67.1ZM196.85 62.75C196.4 62.75 196 62.35 196 61.9L195.95 60.2C195.95 59.7 196.3 59.3 196.75 59.3C197.2 59.3 197.65 59.65 197.65 60.15L197.7 61.85C197.7 62.3 197.35 62.7 196.85 62.75ZM8.74999 61.15C8.74999 61.15 8.73333 61.15 8.69999 61.15C8.24999 61.1 7.89999 60.7 7.89999 60.25L7.99999 58.55C8.04999 58.05 8.44999 57.65 8.89999 57.75C9.34999 57.75 9.74999 58.15 9.69999 58.65L9.59999 60.35C9.59999 60.8 9.19999 61.15 8.74999 61.15ZM196.65 55.9C196.15 55.9 195.8 55.55 195.8 55.05L195.7 53.35C195.7 52.9 196.05 52.5 196.55 52.45C197.05 52.45 197.4 52.85 197.4 53.3L197.5 55C197.5 55.5 197.15 55.85 196.65 55.9ZM9.14999 54.3C9.14999 54.3 9.13332 54.3 9.09999 54.3C8.64999 54.3 8.24999 53.9 8.29999 53.4L8.39999 51.7C8.44999 51.25 8.89999 50.85 9.29999 50.9C9.79999 50.95 10.15 51.35 10.1 51.8L9.99999 53.5C9.99999 53.95 9.59999 54.3 9.14999 54.3ZM196.35 49.05C195.9 49.05 195.55 48.7 195.5 48.25L195.45 46.55C195.4 46.05 195.8 45.65 196.25 45.65C196.8 45.65 197.15 46 197.15 46.45L197.2 48.15C197.25 48.65 196.9 49.05 196.4 49.05C196.4 49.05 196.383 49.05 196.35 49.05ZM9.59999 46.65L8.74999 46.5L8.89999 44.85C8.94999 44.4 9.39999 44.05 9.79999 44.1C10.3 44.15 10.65 44.55 10.6 45L10.45 46.65H9.59999ZM196.05 42.2C195.6 42.2 195.25 41.85 195.2 41.4L195.15 39.7C195.1 39.25 195.45 38.85 195.95 38.8C196.45 38.75 196.8 39.15 196.85 39.6L196.9 41.35C196.95 41.8 196.6 42.2 196.1 42.2C196.1 42.2 196.083 42.2 196.05 42.2ZM10.15 40.7C10.1167 40.7 10.1 40.7 10.1 40.7C9.59999 40.65 9.24999 40.25 9.29999 39.75L9.44999 38.2C9.49999 37.75 9.84999 37.3 10.35 37.35C10.85 37.4 11.2 37.75 11.15 38.2L11 39.9C10.95 40.35 10.6 40.7 10.15 40.7ZM195.7 35.4C195.25 35.4 194.9 35.05 194.85 34.6L194.8 32.9C194.75 32.4 195.1 32 195.6 32C196.05 31.95 196.45 32.3 196.5 32.8L196.6 34.5C196.6 34.95 196.25 35.35 195.75 35.4C195.75 35.4 195.733 35.4 195.7 35.4ZM10.75 33.9C10.7167 33.8667 10.7 33.85 10.7 33.85C10.2 33.85 9.84999 33.4 9.89999 32.95L10.05 31.25C10.1 30.75 10.55 30.45 11 30.45C11.45 30.5 11.8 30.95 11.75 31.4L11.6 33.1C11.55 33.55 11.2 33.9 10.75 33.9ZM195.35 28.55C194.9 28.55 194.5 28.2 194.5 27.75L194.4 26.05C194.35 25.6 194.7 25.2 195.2 25.15C195.65 25.1 196.05 25.5 196.1 25.95L196.2 27.65C196.2 28.15 195.85 28.55 195.4 28.55C195.367 28.55 195.35 28.55 195.35 28.55ZM11.4 27.05C11.3667 27.05 11.35 27.05 11.35 27.05C10.85 27 10.5 26.6 10.55 26.15L10.75 24.45C10.8 23.95 11.2 23.6 11.65 23.65C12.15 23.7 12.5 24.15 12.45 24.6L12.25 26.3C12.2 26.75 11.85 27.05 11.4 27.05ZM194.65 21.8C194.25 21.8 193.9 21.5 193.8 21.15C193.667 20.6167 193.517 20.1 193.35 19.6C193.2 19.15 193.4 18.65 193.85 18.5C194.3 18.35 194.8 18.55 194.95 19C195.15 19.5667 195.317 20.1333 195.45 20.7C195.6 21.15 195.3 21.65 194.85 21.75C194.783 21.7833 194.717 21.8 194.65 21.8ZM12.55 20.35C12.45 20.35 12.3667 20.3333 12.3 20.3C11.85 20.15 11.6 19.65 11.75 19.2C11.95 18.6333 12.1833 18.0833 12.45 17.55C12.65 17.1 13.15 16.95 13.55 17.15C14 17.35 14.2 17.85 14 18.3C13.7667 18.7667 13.55 19.2667 13.35 19.8C13.25 20.15 12.9 20.35 12.55 20.35ZM191.7 15.65C191.45 15.65 191.2 15.55 191 15.35C190.667 14.9167 190.317 14.5 189.95 14.1C189.65 13.75 189.65 13.2 190 12.9C190.35 12.55 190.9 12.6 191.2 12.9C191.633 13.3667 192.017 13.8333 192.35 14.3C192.65 14.65 192.6 15.2 192.2 15.5C192.033 15.6 191.867 15.65 191.7 15.65ZM16.05 14.55C15.85 14.55 15.65 14.45 15.5 14.3C15.15 14 15.1 13.45 15.45 13.1C15.85 12.6667 16.2667 12.25 16.7 11.85C17.05 11.55 17.6 11.55 17.9 11.9C18.25 12.25 18.2 12.8 17.85 13.1C17.45 13.4667 17.0667 13.85 16.7 14.25C16.5 14.45 16.3 14.55 16.05 14.55ZM186.55 11.2C186.417 11.2 186.283 11.1667 186.15 11.1C185.683 10.8333 185.2 10.6 184.7 10.4C184.25 10.2 184.05 9.70001 184.25 9.25001C184.45 8.80001 184.95 8.65001 185.4 8.80001C185.933 9.03334 186.467 9.30001 187 9.60001C187.4 9.85001 187.55 10.35 187.3 10.8C187.15 11.05 186.85 11.2 186.55 11.2ZM21.55 10.55C21.25 10.55 20.95 10.4 20.8 10.05C20.6 9.65001 20.8 9.15001 21.25 8.95001C21.7833 8.68335 22.3333 8.46668 22.9 8.30001C23.35 8.15001 23.85 8.40001 24 8.85001C24.15 9.30001 23.9 9.75001 23.45 9.90001C22.9167 10.0667 22.4 10.2667 21.9 10.5C21.8 10.5333 21.6833 10.55 21.55 10.55ZM180.1 9.15001C180.067 9.15001 180.033 9.15001 180 9.15001L178.3 9.00001C177.85 8.95001 177.5 8.55001 177.55 8.05001C177.6 7.60001 178 7.25001 178.5 7.30001L180.2 7.45001C180.65 7.50001 181 7.90001 180.95 8.40001C180.9 8.80001 180.55 9.15001 180.1 9.15001ZM28.2 9.05001C27.75 9.05001 27.4 8.75001 27.35 8.30001C27.3 7.80001 27.65 7.40001 28.15 7.35001L29.85 7.20001C30.3 7.15001 30.7 7.50001 30.75 8.00001C30.8 8.45001 30.45 8.85001 30 8.90001L28.3 9.05001C28.2667 9.05001 28.2333 9.05001 28.2 9.05001ZM173.3 8.55001C173.267 8.55001 173.233 8.55001 173.2 8.55001L171.5 8.40001C171.05 8.40001 170.7 7.95001 170.75 7.50001C170.75 7.00001 171.2 6.70001 171.65 6.70001L173.35 6.85001C173.85 6.90001 174.2 7.30001 174.15 7.75001C174.1 8.20001 173.75 8.55001 173.3 8.55001ZM35 8.50001C34.55 8.50001 34.2 8.15001 34.15 7.70001C34.1 7.20001 34.45 6.80001 34.95 6.75001L36.65 6.65001C37.1 6.60001 37.55 6.95001 37.55 7.40001C37.6 7.90001 37.25 8.30001 36.8 8.35001L35.1 8.45001C35.0667 8.48335 35.0333 8.50001 35 8.50001ZM166.5 8.00001C166.467 8.00001 166.433 8.00001 166.4 8.00001L164.7 7.90001C164.25 7.85001 163.9 7.45001 163.9 7.00001C163.95 6.50001 164.35 6.15001 164.85 6.20001L166.55 6.30001C167 6.35001 167.35 6.75001 167.35 7.25001C167.3 7.70001 166.9 8.00001 166.5 8.00001ZM41.85 7.95001C41.4 7.95001 41 7.60001 41 7.15001C40.95 6.70001 41.3 6.30001 41.75 6.25001L43.45 6.10001C43.9 6.05001 44.35 6.45001 44.4 6.90001C44.4 7.40001 44.05 7.80001 43.6 7.80001L41.9 7.95001C41.8667 7.95001 41.85 7.95001 41.85 7.95001ZM159.65 7.55001C159.65 7.55001 159.633 7.55001 159.6 7.55001L157.9 7.40001C157.45 7.40001 157.05 7.00001 157.1 6.50001C157.15 6.05001 157.55 5.65001 158 5.70001L159.7 5.85001C160.2 5.85001 160.55 6.25001 160.5 6.75001C160.5 7.20001 160.1 7.55001 159.65 7.55001ZM48.65 7.45001C48.2 7.45001 47.85 7.15001 47.8 6.65001C47.75 6.20001 48.1 5.80001 48.6 5.75001L50.3 5.65001C50.75 5.60001 51.2 6.00001 51.2 6.45001C51.25 6.95001 50.9 7.35001 50.4 7.35001L48.7 7.45001C48.7 7.45001 48.6833 7.45001 48.65 7.45001ZM152.85 7.10001C152.817 7.10001 152.8 7.10001 152.8 7.10001L151.1 7.00001C150.6 7.00001 150.25 6.60001 150.3 6.10001C150.3 5.65001 150.75 5.25001 151.2 5.30001L152.9 5.40001C153.35 5.45001 153.7 5.85001 153.7 6.30001C153.65 6.75001 153.3 7.10001 152.85 7.10001ZM55.45 7.05001C55 7.05001 54.65 6.70001 54.6 6.25001C54.6 5.80001 54.95 5.40001 55.4 5.35001L57.05 5.25001C57.5 5.25001 57.95 5.60001 58 6.05001C58 6.55001 57.7 6.95001 57.25 6.95001L55.5 7.05001C55.5 7.05001 55.4833 7.05001 55.45 7.05001ZM146 6.75001C146 6.75001 145.983 6.75001 145.95 6.75001L144.25 6.65001C143.8 6.65001 143.45 6.25001 143.45 5.75001C143.45 5.30001 143.85 4.85001 144.35 4.95001L146.05 5.05001C146.5 5.05001 146.9 5.45001 146.85 5.95001C146.85 6.40001 146.45 6.75001 146 6.75001ZM62.3 6.70001C61.85 6.70001 61.45 6.35001 61.45 5.90001C61.4 5.40001 61.8 5.00001 62.25 5.00001L63.95 4.90001C64.45 4.85001 64.85 5.25001 64.85 5.70001C64.9 6.20001 64.5 6.60001 64.05 6.60001L62.35 6.70001C62.3167 6.70001 62.3 6.70001 62.3 6.70001ZM139.2 6.40001C139.167 6.40001 139.15 6.40001 139.15 6.40001L137.45 6.35001C136.95 6.35001 136.6 5.95001 136.6 5.45001C136.65 5.00001 137.05 4.65001 137.5 4.65001L139.2 4.70001C139.7 4.75001 140.05 5.15001 140.05 5.60001C140 6.05001 139.65 6.40001 139.2 6.40001ZM69.15 6.40001C68.65 6.40001 68.3 6.05001 68.25 5.55001C68.25 5.10001 68.6 4.70001 69.1 4.70001L70.8 4.60001C70.8 4.60001 70.8167 4.60001 70.85 4.60001C71.3 4.60001 71.65 4.95001 71.7 5.45001C71.7 5.90001 71.35 6.30001 70.85 6.30001L69.15 6.40001ZM132.35 6.15001C132.35 6.15001 132.333 6.15001 132.3 6.15001L130.6 6.10001C130.15 6.10001 129.75 5.70001 129.8 5.25001C129.8 4.75001 130.1 4.35001 130.65 4.40001L132.4 4.45001C132.85 4.45001 133.2 4.85001 133.2 5.35001C133.2 5.80001 132.8 6.15001 132.35 6.15001ZM75.95 6.15001C75.5 6.15001 75.1 5.75001 75.1 5.30001C75.1 4.85001 75.45 4.45001 75.95 4.40001L77.65 4.35001C78.15 4.35001 78.5 4.75001 78.5 5.20001C78.55 5.65001 78.15 6.05001 77.7 6.10001L76 6.15001C75.9667 6.15001 75.95 6.15001 75.95 6.15001ZM125.5 5.95001L123.8 5.90001C123.3 5.90001 122.95 5.50001 122.95 5.05001C122.95 4.55001 123.35 4.20001 123.85 4.20001L125.55 4.25001C126 4.25001 126.4 4.65001 126.35 5.10001C126.35 5.60001 126 5.95001 125.5 5.95001ZM82.8 5.95001C82.35 5.95001 81.95 5.55001 81.95 5.10001C81.95 4.65001 82.3 4.25001 82.8 4.25001L84.5 4.20001C84.95 4.20001 85.35 4.55001 85.35 5.00001C85.35 5.50001 85 5.90001 84.5 5.90001L82.8 5.95001ZM118.7 5.80001C118.667 5.80001 118.65 5.80001 118.65 5.80001H116.95C116.5 5.75001 116.1 5.40001 116.1 4.90001C116.1 4.45001 116.5 4.05001 116.95 4.05001C116.983 4.05001 117 4.05001 117 4.05001L118.65 4.10001C119.15 4.10001 119.55 4.50001 119.5 4.95001C119.5 5.45001 119.15 5.80001 118.7 5.80001ZM89.65 5.80001C89.15 5.80001 88.8 5.40001 88.75 4.95001C88.75 4.50001 89.15 4.10001 89.6 4.10001L91.35 4.05001C91.8 4.05001 92.2 4.45001 92.2 4.90001C92.2 5.35001 91.8 5.75001 91.35 5.75001L89.65 5.80001ZM111.85 5.70001H110.15C109.65 5.70001 109.3 5.30001 109.3 4.85001C109.3 4.35001 109.65 4.00001 110.15 4.00001H111.85C112.35 4.00001 112.7 4.40001 112.7 4.85001C112.7 5.35001 112.3 5.70001 111.85 5.70001ZM96.45 5.70001C96 5.70001 95.6 5.35001 95.6 4.85001C95.6 4.40001 96 4.00001 96.45 4.00001H98.15C98.65 4.00001 99.05 4.35001 99.05 4.85001C99.05 5.30001 98.65 5.70001 98.2 5.70001H96.45ZM105 5.70001H103.3C102.85 5.70001 102.45 5.30001 102.45 4.80001C102.45 4.35001 102.85 3.95001 103.3 3.95001H105C105.5 3.95001 105.85 4.35001 105.85 4.85001C105.85 5.30001 105.5 5.70001 105 5.70001Z" fill="#748E4A"/>
<path d="M0.849992 146.25C-0.200008 145.05 0.299992 143.15 1.84999 142.65C13.65 139.15 55.7 127.65 101.65 128.45C147.85 129.25 189.4 143.75 200.65 148.05C202.05 148.55 202.4 150.35 201.3 151.35L192.85 158.9L196.45 168.6C197 170.15 195.6 171.65 194.05 171.2C181.2 167.35 137.95 155.3 98.4 154.7C64.85 154.15 20.2 163.35 7.4 166.15C5.75 166.5 4.34999 165 4.74999 163.4L7.4 153.8L0.849992 146.25Z" fill="#FFC626"/>
<path d="M47.35 176.3C40.6 176.1 33.95 174.8 27.55 172.55C26.6 172.25 26.2 173.75 27.15 174.1C33.65 176.4 40.45 177.65 47.35 177.9C48.4 177.9 48.4 176.35 47.35 176.3Z" fill="white"/>
<path d="M181.05 172.5C174.5 176.1 167.1 177.9 159.65 177.75C158.65 177.7 158.65 179.3 159.65 179.35C167.4 179.5 175.05 177.6 181.85 173.9C182.7 173.4 181.9 172.05 181.05 172.5Z" fill="white"/>
<path d="M92.55 66.9C87.8 71.15 84.65 77.65 85.7 83.95C87 91.9 94.3 97.85 95.7 105.8C96.5 110.2 95.45 115 97.5 118.95C99.6 122.95 104.8 124.9 109.15 123.65C113.5 122.4 116.8 118.35 117.55 113.9C118.8 106.45 113.75 99.3 113.55 91.7C113.45 87.7 114.75 83.8 115.9 79.95C117.05 76.1 118.05 72.1 117.4 68.15C116.75 63.95 113.15 58.85 108.45 59.3C103 59.8 96.6 63.3 92.55 66.9Z" fill="#C3D498"/>
<path d="M108.05 51.2C107.95 49 108.55 46.8 109.6 45.55C110.95 44.1 113.35 43.5 115 44.65C116 45.4 116.55 46.65 116.85 47.9C117.4 50.15 117.2 52.65 115.85 54.45C114.9 55.8 112.75 57.1 111.05 56.5C109 55.85 108.1 53.55 108.05 51.2Z" fill="#C3D498"/>
<path d="M99.7 55.9C100.1 57.05 101.15 57.95 102.35 58.2C102.9 58.3 103.55 58.25 104.05 57.95C104.65 57.55 105.05 56.85 105.2 56.15C105.35 55.45 105.3 54.7 105.2 53.95C105 52.3 104.05 48.95 101.75 50.05C99.8 50.95 99 54.05 99.7 55.9Z" fill="#C3D498"/>
<path d="M96 59.8C96.65 59.95 97.35 59.9 97.85 59.55C98.3 59.25 98.5 58.7 98.6 58.15C98.7 57.6 98.6 57.05 98.55 56.5C98.35 55.05 98.1 53.3 96.65 52.5C95.6 51.9 94.3 51.95 93.55 52.9C91.85 55.1 93.5 59.1 96 59.8Z" fill="#C3D498"/>
<path d="M88.6 63.3C89.5 64 90.85 64.1 91.75 63.35C92.35 62.85 92.65 62 92.65 61.15C92.7 59.7 91.9 58.3 90.7 57.5C89.4 56.65 87.45 56.3 87.05 58.1C86.65 59.8 87.1 62.2 88.6 63.3Z" fill="#C3D498"/>
<path d="M82.6 67.25C83.2 68.6 84.35 69.85 85.8 70.1C86.7 70.25 87.65 70.05 88.25 69.35C88.7 68.85 88.9 68.15 88.9 67.45C88.8 66.05 87.85 64.85 86.65 64.1C85.7 63.55 84 62.7 82.85 63.3C81.5 64.05 82.2 66.1 82.6 67.25Z" fill="#C3D498"/>
<path d="M133.15 71.55C138.05 66.5 145.45 64 152.45 65.05C152.1 69.75 151.3 74.5 149.4 78.85C147.5 83.2 144.5 87.15 140.4 89.55C137.95 91 135.1 91.8 132.25 91.85C129.05 91.9 127 91.7 126.85 88.25C126.6 82.15 128.85 75.95 133.15 71.55Z" fill="#C3D498"/>
<path d="M147.3 70.3C148.75 70.7 150.2 70.95 151.7 71.1C151.767 70.6666 151.833 70.2333 151.9 69.8C150.55 69.6 149.2 69.35 147.9 69C149.35 67.95 150.85 66.95 152.35 66C152.383 65.7 152.417 65.3833 152.45 65.05C152.15 65 151.8 65 151.5 64.95C149.3 66.4 147.1 67.9 145.05 69.55C145.25 67.95 145.75 66.45 146.45 65.05C145.9 65.1 145.35 65.15 144.8 65.3C144.05 67 143.65 68.85 143.55 70.7C142.283 71.7666 141.067 72.8666 139.9 74C139.95 71.4 140.45 68.85 141.15 66.35C140.65 66.55 140.1 66.75 139.6 67C138.85 69.7 138.45 72.5 138.5 75.35C137.4 76.4166 136.35 77.5166 135.35 78.65C134.5 75.75 134.45 72.65 135.15 69.75C134.6 70.2 134.05 70.7 133.5 71.2C133.1 74.1 133.35 77.1 134.3 79.85C133.067 81.2833 131.917 82.75 130.85 84.25C129.75 82.35 129.1 80.2 128.85 78C128.483 78.8 128.167 79.6166 127.9 80.45C128.35 82.2 129.05 83.9 130 85.45C129 86.95 128.05 88.45 127.2 89.95C127.4 90.45 127.7 90.8333 128.1 91.1C128.467 90.4333 128.85 89.7833 129.25 89.15C130.95 90.2 132.8 91 134.7 91.6C135.6 91.45 136.5 91.1999 137.35 90.8999C134.75 90.3999 132.2 89.4 129.95 88C130.65 86.9 131.383 85.8 132.15 84.7C133.7 85.55 135.35 86.25 137 86.7C139 87.25 141.1 87.55 143.15 87.55C143.65 87.1166 144.133 86.6666 144.6 86.2C140.6 86.4 136.5 85.55 132.95 83.65C134.15 82.0833 135.417 80.5666 136.75 79.1C136.783 79.1333 136.817 79.1666 136.85 79.2C139.2 80.95 141.85 82.25 144.65 83C145.383 83.2 146.1 83.3666 146.8 83.5C147.067 83.1 147.333 82.6833 147.6 82.25C144 81.7 140.55 80.3 137.65 78.15C137.617 78.15 137.6 78.15 137.6 78.15C138.833 76.8166 140.133 75.5333 141.5 74.3C141.533 74.3 141.55 74.3166 141.55 74.35C143.35 75.35 145.3 76.2 147.35 76.75C148.2 77 149.1 77.15 150 77.3C150.167 76.9 150.317 76.4833 150.45 76.05C147.7 75.6 145 74.7 142.55 73.35C143.85 72.2 145.2 71.1 146.55 70.05C146.817 70.1166 147.067 70.2 147.3 70.3Z" fill="#748E4A"/>
<path d="M68.7 84C63.05 78.2 54.5 75.3 46.45 76.55C46.85 82 47.75 87.45 49.95 92.45C52.15 97.45 55.65 102 60.35 104.8C63.15 106.45 66.45 107.4 69.75 107.45C73.45 107.5 75.75 107.25 75.95 103.3C76.25 96.25 73.65 89.1 68.7 84Z" fill="#AE4022"/>
<path d="M52.35 82.55C50.7 83 49 83.3 47.3 83.55C47.2333 83.0166 47.15 82.5 47.05 82C48.6 81.8 50.15 81.5 51.65 81.1C50 79.9 48.3 78.75 46.55 77.65C46.5167 77.2833 46.4833 76.9166 46.45 76.55C46.8 76.5 47.15 76.45 47.5 76.45C50.1 78.1 52.6 79.85 54.95 81.7C54.75 79.9 54.15 78.15 53.35 76.5C54 76.6 54.6 76.65 55.25 76.8C56.1 78.75 56.6 80.9 56.65 83.05C58.15 84.2833 59.5833 85.55 60.95 86.85C60.85 83.85 60.3 80.9 59.45 78.05C60.05 78.25 60.65 78.5 61.25 78.75C62.1 81.9 62.6 85.15 62.55 88.4C63.8167 89.6333 65.0333 90.9166 66.2 92.25C67.15 88.9 67.2 85.3 66.4 81.95C67.05 82.45 67.65 83.05 68.25 83.65C68.75 86.95 68.45 90.4 67.4 93.6C68.8 95.2666 70.1167 96.9666 71.35 98.7C72.6 96.45 73.35 94 73.7 91.5C74.1 92.4 74.45 93.3333 74.75 94.3C74.2 96.3 73.45 98.3 72.35 100.1C73.5 101.8 74.55 103.55 75.55 105.3C75.3167 105.867 74.9833 106.3 74.55 106.6C74.1167 105.833 73.6667 105.067 73.2 104.3C71.25 105.55 69.1 106.5 66.9 107.15C65.85 107 64.85 106.7 63.85 106.35C66.85 105.75 69.8 104.65 72.4 103C71.6 101.733 70.75 100.467 69.85 99.2C68.05 100.2 66.2 101 64.25 101.55C61.95 102.15 59.55 102.5 57.15 102.5C56.5833 102 56.0333 101.467 55.5 100.9C60.1 101.2 64.8 100.2 68.9 97.95C67.5667 96.1833 66.1167 94.45 64.55 92.75C64.5167 92.7833 64.4833 92.8333 64.45 92.8999C61.75 94.8499 58.65 96.35 55.4 97.25C54.6 97.4833 53.7833 97.6666 52.95 97.8C52.6167 97.3333 52.3 96.8666 52 96.3999C56.15 95.7499 60.15 94.0999 63.55 91.6499C63.55 91.6499 63.55 91.6333 63.55 91.6C62.1167 90.1 60.6167 88.6333 59.05 87.2C59.0167 87.2 59 87.2166 59 87.25C56.9 88.45 54.65 89.35 52.35 90C51.3 90.3 50.3 90.4999 49.25 90.6499C49.05 90.1833 48.8833 89.7 48.75 89.2C51.95 88.7 55.05 87.65 57.85 86.1C56.35 84.8 54.8 83.55 53.2 82.3C52.9333 82.4 52.65 82.4833 52.35 82.55Z" fill="#748E4A"/>
<path d="M74.2 60.05C71.9 55.9 67.55 52.95 62.9 52.4C62.25 55.5 61.95 58.75 62.35 61.9C62.8 65 64.05 68.1 66.3 70.4C67.6 71.75 69.3 72.8 71.15 73.35C73.2 73.95 74.55 74.2 75.25 72C76.55 68.1 76.15 63.65 74.2 60.05Z" fill="#455A29"/>
<path d="M65.25 56.7C64.25 56.7 63.25 56.6 62.3 56.45C62.3 56.15 62.3166 55.85 62.35 55.55C63.3 55.7 64.2 55.8 65.1 55.8C64.3666 54.8667 63.5833 53.95 62.75 53.05C62.7833 52.8167 62.8333 52.6 62.9 52.4C63.1 52.45 63.3 52.5 63.5 52.5C64.7 53.85 65.8 55.2 66.85 56.6C67 55.55 66.95 54.5 66.75 53.45C67.0833 53.5834 67.4167 53.7334 67.75 53.9C67.95 55.15 67.9 56.45 67.6 57.65C68.2333 58.5834 68.8333 59.5167 69.4 60.45C69.8 58.75 69.95 57 69.95 55.25C70.25 55.5 70.55 55.7 70.85 55.95C70.8 57.85 70.6 59.75 70.05 61.55C70.5833 62.45 71.0667 63.35 71.5 64.25C72.55 62.55 73.15 60.55 73.2 58.55C73.5 58.95 73.7667 59.35 74 59.75C73.75 61.7 73.05 63.6 71.95 65.25C72.4833 66.3834 72.9667 67.5334 73.4 68.7C74.45 67.65 75.25 66.4 75.8 65C75.9 65.6 75.9667 66.1834 76 66.75C75.4 67.8 74.65 68.8 73.75 69.65C74.15 70.75 74.45 71.9 74.75 73.05C74.5167 73.3167 74.25 73.5 73.95 73.6C73.85 73.1334 73.7167 72.65 73.55 72.15C72.3 72.5 70.95 72.7 69.6 72.75C69.0333 72.4834 68.5 72.1667 68 71.8C69.8 71.95 71.6 71.75 73.3 71.25C73.0667 70.4167 72.7833 69.5834 72.45 68.75C71.3 69 70.15 69.2 68.95 69.2C67.6 69.2 66.2 69 64.85 68.6C64.6166 68.2334 64.3833 67.85 64.15 67.45C66.7 68.35 69.5 68.5 72.15 67.9C71.65 66.7 71.1 65.5 70.5 64.3C70.5 64.3334 70.4833 64.35 70.45 64.35C68.6 65.05 66.65 65.4 64.7 65.4C64.2 65.4 63.7 65.3834 63.2 65.35C63.1 65.05 63 64.7334 62.9 64.4C65.35 64.7 67.85 64.4 70.1 63.5C69.5333 62.4334 68.9333 61.3834 68.3 60.35C68.2667 60.35 68.25 60.35 68.25 60.35C66.9 60.7 65.5 60.9 64.1 60.9C63.4666 60.8667 62.85 60.8167 62.25 60.75C62.2167 60.45 62.2 60.15 62.2 59.85C64.05 60.1 65.95 59.95 67.8 59.55C67.1667 58.5834 66.5 57.6334 65.8 56.7C65.6 56.7 65.4167 56.7 65.25 56.7Z" fill="#748E4A"/>
<path d="M140.95 112.1C145.55 111.05 149.6 107.7 151.45 103.35C148.6 101.9 145.65 100.7 142.5 100.25C139.35 99.8 136 100.15 133.2 101.65C131.55 102.55 130.05 103.85 129.05 105.5C127.9 107.3 127.3 108.55 129.2 109.85C132.6 112.15 136.95 113 140.95 112.1Z" fill="#455A29"/>
<path d="M146.65 104.45C146.95 103.5 147.3 102.55 147.7 101.65C148 101.75 148.283 101.867 148.55 102C148.2 102.8 147.85 103.65 147.6 104.55C148.7 104.083 149.783 103.583 150.85 103.05C151.05 103.15 151.25 103.25 151.45 103.35C151.35 103.55 151.25 103.7 151.15 103.9C149.55 104.7 147.95 105.4 146.3 106C147.25 106.45 148.3 106.7 149.35 106.8C149.117 107.067 148.883 107.35 148.65 107.65C147.4 107.45 146.2 107.05 145.1 106.45C144.033 106.783 142.967 107.1 141.9 107.4C143.45 108.25 145.05 108.9 146.75 109.35C146.45 109.55 146.15 109.8 145.85 110C144 109.5 142.25 108.75 140.65 107.7C139.65 107.967 138.65 108.183 137.65 108.35C139 109.85 140.8 110.95 142.7 111.6C142.233 111.767 141.767 111.9 141.3 112C139.5 111.2 137.85 110.05 136.6 108.55C135.367 108.717 134.133 108.85 132.9 108.95C133.6 110.25 134.6 111.4 135.75 112.3C135.183 112.233 134.617 112.117 134.05 111.95C133.2 111.1 132.45 110.1 131.9 109C130.7 109.1 129.5 109.05 128.35 109.05C128.117 108.75 128 108.45 128 108.15C128.5 108.15 129.017 108.15 129.55 108.15C129.5 106.8 129.7 105.5 130.05 104.15C130.45 103.717 130.883 103.3 131.35 102.9C130.75 104.6 130.4 106.35 130.45 108.15C131.317 108.15 132.2 108.117 133.1 108.05C133.15 106.85 133.3 105.7 133.65 104.55C134.05 103.25 134.6 101.95 135.3 100.75C135.733 100.617 136.167 100.5 136.6 100.4C135.05 102.65 134.15 105.25 134 107.95C135.3 107.817 136.6 107.633 137.9 107.4C137.9 107.367 137.883 107.333 137.85 107.3C137.7 105.35 137.9 103.35 138.45 101.5C138.583 101.033 138.733 100.567 138.9 100.1C139.233 100.067 139.567 100.05 139.9 100.05C138.95 102.3 138.55 104.8 138.75 107.2C138.75 107.233 138.75 107.25 138.75 107.25C139.95 106.983 141.15 106.683 142.35 106.35C142.317 106.35 142.3 106.333 142.3 106.3C142.35 104.9 142.6 103.5 142.95 102.15C143.15 101.583 143.367 101.017 143.6 100.45C143.867 100.483 144.15 100.55 144.45 100.65C143.75 102.35 143.3 104.2 143.25 106.1C144.35 105.767 145.433 105.383 146.5 104.95C146.567 104.783 146.617 104.617 146.65 104.45Z" fill="#748E4A"/>
<path d="M138.05 54.1C138.55 49.9 136.9 45.5 133.8 42.65C131.75 44.6 129.85 46.75 128.55 49.25C127.25 51.8 126.55 54.65 126.95 57.45C127.2 59.15 127.9 60.8 128.95 62.1C130.15 63.65 131 64.5 132.65 63.3C135.6 61.1 137.6 57.7 138.05 54.1Z" fill="#FFC626"/>
<path d="M133.3 47C132.6 46.5 131.9 45.9 131.3 45.3C131.467 45.1 131.633 44.9 131.8 44.7C132.4 45.25 133 45.8 133.65 46.25C133.617 45.1834 133.533 44.1167 133.4 43.05C133.533 42.9167 133.667 42.7834 133.8 42.65C133.95 42.8 134.05 42.95 134.2 43.05C134.4 44.65 134.5 46.2 134.5 47.8C135.15 47.1 135.7 46.3 136.1 45.45C136.267 45.7167 136.433 46 136.6 46.3C136.05 47.3 135.35 48.2 134.5 48.9C134.5 49.9 134.467 50.8834 134.4 51.85C135.55 50.85 136.55 49.7 137.45 48.4C137.55 48.7 137.65 49.05 137.75 49.35C136.75 50.75 135.6 52 134.3 53.05C134.2 53.95 134.083 54.85 133.95 55.75C135.6 55.05 137.05 53.9 138.15 52.45C138.15 52.8834 138.117 53.3334 138.05 53.8C136.85 55.05 135.4 56.05 133.75 56.65C133.55 57.7834 133.3 58.8667 133 59.9C134.3 59.7 135.55 59.2 136.65 58.5C136.417 58.9667 136.167 59.4167 135.9 59.85C134.9 60.3 133.85 60.65 132.75 60.8C132.45 61.8 132.1 62.7834 131.7 63.75C131.4 63.85 131.117 63.8667 130.85 63.8C131.017 63.3667 131.183 62.9334 131.35 62.5C130.2 62.1 129.15 61.55 128.15 60.9C127.883 60.4 127.65 59.9 127.45 59.4C128.7 60.4 130.1 61.25 131.6 61.75C131.867 61.0167 132.1 60.2667 132.3 59.5C131.35 59.1 130.4 58.6 129.55 58C128.55 57.25 127.65 56.4 126.85 55.45C126.85 55.05 126.883 54.65 126.95 54.25C128.35 56.2 130.25 57.75 132.5 58.7C132.767 57.5667 133 56.4167 133.2 55.25C133.167 55.25 133.133 55.25 133.1 55.25C131.4 54.8 129.8 54.05 128.4 53.05C128.033 52.7834 127.683 52.5167 127.35 52.25C127.45 51.95 127.55 51.6667 127.65 51.4C129.25 52.85 131.2 53.95 133.3 54.45C133.3 54.4834 133.3 54.5 133.3 54.5C133.467 53.4 133.583 52.3 133.65 51.2C133.617 51.2 133.6 51.2 133.6 51.2C132.45 50.75 131.35 50.15 130.3 49.45C129.867 49.1167 129.45 48.7667 129.05 48.4C129.183 48.1667 129.317 47.95 129.45 47.75C130.7 48.85 132.15 49.75 133.7 50.4C133.733 49.3667 133.733 48.3334 133.7 47.3C133.567 47.2 133.433 47.1 133.3 47Z" fill="#748E4A"/>
<path d="M63.7 112.6C59.8 111.55 55.35 112.5 52.2 115.05C53.8 117.3 55.6 119.45 57.8 121.05C60 122.65 62.65 123.7 65.4 123.7C67.05 123.65 68.7 123.25 70.1 122.45C71.75 121.5 72.65 120.8 71.75 119.05C70.1 115.95 67.1 113.55 63.7 112.6Z" fill="#FFC626"/>
<path d="M56.3 116.15C55.7 116.75 55.05 117.35 54.4 117.85C54.2333 117.65 54.0667 117.45 53.9 117.25C54.5 116.8 55.1 116.25 55.65 115.7C54.6167 115.6 53.5833 115.533 52.55 115.5C52.45 115.367 52.3333 115.217 52.2 115.05C52.35 114.95 52.5 114.85 52.65 114.75C54.2 114.8 55.7 114.9 57.2 115.1C56.65 114.4 55.95 113.8 55.2 113.3C55.4666 113.167 55.75 113.05 56.05 112.95C56.95 113.55 57.7 114.35 58.3 115.25C59.2333 115.417 60.1666 115.6 61.1 115.8C60.3 114.55 59.3 113.4 58.2 112.4C58.5 112.35 58.85 112.3 59.15 112.25C60.35 113.4 61.35 114.65 62.2 116.05C63.0333 116.283 63.8666 116.533 64.7 116.8C64.3 115.1 63.4 113.55 62.2 112.3C62.6 112.367 63 112.45 63.4 112.55C64.45 113.9 65.25 115.45 65.6 117.1C66.6333 117.433 67.6333 117.817 68.6 118.25C68.55 116.95 68.25 115.7 67.75 114.55C68.15 114.85 68.5333 115.167 68.9 115.5C69.2 116.5 69.4 117.55 69.35 118.6C70.2833 119.033 71.1833 119.5 72.05 120C72.1167 120.333 72.1 120.617 72 120.85C71.6 120.617 71.2 120.4 70.8 120.2C70.3 121.2 69.6 122.15 68.85 123.05C68.35 123.217 67.8333 123.35 67.3 123.45C68.45 122.45 69.4 121.2 70.15 119.85C69.4833 119.483 68.7833 119.15 68.05 118.85C67.55 119.75 66.95 120.55 66.25 121.3C65.4 122.15 64.5 122.9 63.45 123.5C63.0833 123.433 62.7167 123.35 62.35 123.25C64.4 122.2 66.15 120.55 67.35 118.55C66.3167 118.15 65.25 117.767 64.15 117.4C64.15 117.433 64.15 117.467 64.15 117.5C63.5 119.05 62.55 120.5 61.35 121.7C61.05 122 60.75 122.283 60.45 122.55C60.1833 122.45 59.9333 122.333 59.7 122.2C61.3 120.85 62.6 119.15 63.4 117.2C63.4 117.2 63.4166 117.2 63.45 117.2C62.4166 116.9 61.3833 116.65 60.35 116.45C60.35 116.45 60.35 116.467 60.35 116.5C59.75 117.5 59.05 118.5 58.2 119.35C57.8333 119.75 57.45 120.117 57.05 120.45C56.85 120.283 56.65 120.117 56.45 119.95C57.7 118.9 58.75 117.65 59.55 116.3C58.5833 116.1 57.6 115.95 56.6 115.85C56.5 115.95 56.4 116.05 56.3 116.15Z" fill="#748E4A"/>
<path d="M184.3 59.5C183.7 49.1 183.75 37.2 175.75 29.45C167.9 21.85 156.65 20.5 146.25 20.2C121.45 19.6 96.6 19.85 71.8 20.5C65.8 20.6667 59.7833 20.8667 53.75 21.1C48.9 21.3 43.85 21.5 39.15 23.05C34.6 24.6 30.7 27.4 28.25 31.6C25.9 35.65 25.05 40.3 24.5 44.85C21.1 72.05 21.4 99.95 23.95 127.2C24.25 130.25 29 130.25 28.7 127.2C26.5 103.85 26.3 80.35 28.1 56.95C28.5 51.7 28.8 46.4 29.8 41.25C30.7 36.95 32.3 32.55 36 29.85C39.65 27.25 44.35 26.45 48.7 26.1C54.2 25.7 59.65 25.65 65.15 25.45C88.85 24.7167 112.55 24.5 136.25 24.8C146.7 24.95 158.5 24.1 167.95 29.5C172 31.8 175.2 35.25 176.85 39.65C178.65 44.5 178.9 49.7 179.25 54.8C180.9 81.05 180.85 107.35 179.15 133.6C178.95 136.65 183.7 136.65 183.9 133.6C185.5 108.95 185.65 84.15 184.3 59.5Z" fill="#2F4219"/>
<path d="M61.35 175.9L54.55 175.3L54.4 177.2L58.5 177.6L53.8 183.1L53.65 184.85L60.55 185.5L60.75 183.55L56.5 183.2L61.2 177.65L61.35 175.9ZM69.15 176.5L63.25 176.1L62.5 185.65L68.5 186.1L68.65 184.25L65 184L65.2 181.9L68.35 182.1L68.5 180.3L65.3 180.05L65.45 178.15L69.05 178.4L69.15 176.5ZM75.9 180.05C75.9 180.8 75.45 181.25 74.55 181.15L73.1 181.1L73.25 178.7L74.7 178.8C75.6 178.85 75.95 179.35 75.9 180.05ZM71 176.6L70.35 186.2L72.75 186.35L73 182.75L73.55 182.8L75.4 186.5L78.1 186.65L76.05 182.75C77.55 182.4 78.25 181.3 78.35 180.1C78.4 178.4 77.3 177 74.95 176.85L71 176.6ZM89.65 182.25C89.75 179.4 87.6 177.3 84.85 177.2C82.15 177.1 79.8 179 79.65 181.9C79.55 184.8 81.7 186.9 84.5 187.05C87.3 187.15 89.6 185.15 89.65 182.25ZM82.1 182C82.15 180.3 83.2 179.25 84.8 179.3C86.35 179.35 87.3 180.5 87.25 182.2C87.2 183.9 86.15 184.95 84.55 184.9C83 184.85 82.05 183.7 82.1 182ZM94.2 182.4C94.15 185.3 96.15 187.35 99.05 187.35C101.4 187.4 103.2 186.1 103.75 184.05H101.15C100.7 184.85 99.95 185.25 99.05 185.25C97.6 185.2 96.6 184.15 96.65 182.45C96.65 180.75 97.65 179.7 99.1 179.7C100 179.7 100.75 180.15 101.15 180.95H103.75C103.2 178.9 101.45 177.6 99.15 177.55C96.35 177.55 94.3 179.5 94.2 182.4ZM112.3 187.25H114.8L111.15 177.65L108.4 177.7L104.9 187.3H107.45L108 185.6H111.65L112.3 187.25ZM111.05 183.75H108.65L109.8 180.25L111.05 183.75ZM121.3 180.5C121.3 181.25 120.9 181.75 120 181.75L118.55 181.8L118.5 179.4H119.95C120.85 179.35 121.25 179.8 121.3 180.5ZM116.05 177.55L116.3 187.15L118.7 187.1L118.6 183.45H119.15L121.3 187L124 186.9L121.6 183.2C123.1 182.7 123.75 181.55 123.7 180.35C123.6 178.65 122.4 177.35 120 177.45L116.05 177.55ZM131.05 183.7C131.1 184.35 130.65 184.75 129.85 184.8L128.1 184.85L128 182.75L129.7 182.65C130.5 182.6 131 183 131.05 183.7ZM130.6 179.9C130.65 180.55 130.25 180.9 129.45 180.95L127.9 181.05L127.8 179L129.35 178.95C130.15 178.9 130.6 179.25 130.6 179.9ZM133.45 183.85C133.4 182.75 132.6 181.8 131.45 181.65C132.4 181.35 133.05 180.55 133 179.35C132.9 177.85 131.7 176.95 129.75 177.05L125.4 177.25L125.75 186.85L130.35 186.65C132.45 186.55 133.55 185.45 133.45 183.85ZM144.65 180.9C144.45 178 142.1 176.15 139.35 176.35C136.6 176.55 134.5 178.7 134.65 181.55C134.85 184.45 137.2 186.35 140 186.2C142.8 186 144.85 183.8 144.65 180.9ZM137.1 181.45C137 179.7 137.9 178.55 139.5 178.45C141.05 178.35 142.1 179.35 142.25 181.1C142.35 182.75 141.4 183.95 139.85 184.05C138.25 184.15 137.2 183.1 137.1 181.45ZM152.2 175.45L152.75 181.4L148.3 175.8L145.95 176L146.7 185.6L149.1 185.4L148.6 179.5L153.1 185.05L155.5 184.8L154.55 175.25L152.2 175.45Z" fill="white"/>
<path d="M18.7 157.65C18.2 157.8 17.7 157.9 17.2 158C16.75 158.05 16.3 158.1 15.9 158.1C15.5 158.1 15.1 158.05 14.75 158C14.35 157.9 14.05 157.8 13.7 157.65C13.1 157.35 12.6 156.95 12.15 156.4C11.95 156.15 11.75 155.85 11.6 155.55C11.45 155.2 11.3 154.85 11.2 154.45C11.05 154.05 11 153.65 10.95 153.3C10.9 152.9 10.9 152.55 10.95 152.2C11 151.85 11.05 151.5 11.15 151.2C11.3 150.85 11.45 150.55 11.6 150.25C11.8 149.95 12.05 149.65 12.3 149.4C12.6 149.1 12.9 148.85 13.3 148.65C13.65 148.4 14.05 148.2 14.5 148.05C14.95 147.85 15.45 147.7 16 147.55C16.35 147.45 16.75 147.35 17.1 147.3C17.45 147.25 17.8 147.2 18.1 147.15C18.8 147.15 19.4 147.15 19.95 147.3C20.55 147.4 21.05 147.6 21.55 147.85C22 148.1 22.4 148.45 22.8 148.9C22.4 149.15 22 149.45 21.55 149.75C21.1 150.1 20.6 150.45 20.1 150.9C19.7 150.45 19.15 150.2 18.5 150.1C17.85 150.05 17.25 150.1 16.6 150.25C16.15 150.35 15.8 150.55 15.45 150.75C15.15 150.95 14.95 151.2 14.75 151.45C14.45 152.05 14.4 152.65 14.55 153.3C14.75 154 15.15 154.55 15.75 154.85C16.05 155 16.4 155.1 16.8 155.1C17.15 155.15 17.6 155.1 18.1 154.95C18.85 154.75 19.45 154.45 19.85 154.1C20.25 153.75 20.5 153.25 20.55 152.65C21 152.75 21.5 152.85 22.05 152.95C22.6 153.05 23.2 153.15 23.85 153.25C23.75 153.85 23.55 154.4 23.25 154.85C22.95 155.35 22.55 155.75 22.1 156.1C21.6 156.45 21.05 156.75 20.5 157C19.95 157.3 19.35 157.5 18.7 157.65ZM38.45 152.95C38.45 152.95 37.55 153.1 36.65 153.3C35.75 153.5 34.85 153.65 34.85 153.65C34.7 153.45 34.55 153.15 34.35 152.85C34.15 152.55 33.95 152.25 33.7 151.9C33.7 151.9 33.45 151.95 33 152.05C32.6 152.15 32 152.25 31.45 152.35C30.9 152.5 30.35 152.6 29.9 152.7C29.5 152.8 29.2 152.9 29.2 152.9C29.2 152.9 29.15 153.4 29.1 153.9C29 154.45 28.95 154.95 28.95 154.95C28.95 154.95 28.1 155.15 27.2 155.4C26.35 155.6 25.45 155.8 25.45 155.8C25.45 155.8 25.55 155.15 25.7 154.1C25.75 153.6 25.85 153.05 25.95 152.4C26.05 151.8 26.15 151.1 26.25 150.45C26.35 149.75 26.45 149.1 26.55 148.45C26.65 147.85 26.75 147.25 26.85 146.75C27 145.75 27.1 145.1 27.1 145.1C27.1 145.1 27.45 145 27.95 144.9C28.45 144.8 29.1 144.65 29.75 144.5C30.45 144.35 31.1 144.2 31.6 144.1C32.1 144 32.45 143.9 32.45 143.9C32.45 143.9 32.8 144.45 33.4 145.3C33.7 145.75 34 146.2 34.35 146.75C34.75 147.3 35.1 147.85 35.5 148.4C35.85 148.95 36.25 149.55 36.6 150.05C36.95 150.6 37.25 151.1 37.55 151.5C38.1 152.35 38.45 152.95 38.45 152.95ZM29.55 150.6C29.55 150.6 30.25 150.45 31 150.25C31.7 150.1 32.45 149.95 32.45 149.95C32.15 149.5 31.9 149.1 31.6 148.65C31.3 148.2 31 147.8 30.7 147.35L30.2 146.55C30.1 147 30 147.55 29.9 148.25C29.85 148.55 29.8 148.95 29.75 149.3C29.7 149.7 29.6 150.15 29.55 150.6ZM49.85 144.1C49.9 144.5 49.9 144.9 49.85 145.25C49.8 145.6 49.7 145.9 49.55 146.2C49.4 146.55 49.15 146.8 48.85 147.05C48.5 147.3 48.15 147.55 47.65 147.75C47.8 147.9 47.9 148 47.95 148.05C47.95 148.05 48.65 148.7 49.35 149.4C50.05 150.1 50.75 150.75 50.75 150.75C50.75 150.75 49.8 150.9 48.85 151.05C47.85 151.2 46.9 151.4 46.9 151.4C46.65 151.05 46.3 150.65 45.9 150.15C45.65 149.95 45.45 149.7 45.2 149.4C44.95 149.15 44.7 148.85 44.4 148.55C44.4 148.55 43.9 148.65 43.35 148.75C42.85 148.85 42.3 148.95 42.3 148.95C42.3 148.95 42.45 149.7 42.6 150.5C42.75 151.3 42.9 152.1 42.9 152.1C42.9 152.1 42.05 152.25 41.25 152.4C40.4 152.55 39.55 152.7 39.55 152.7C39.5 152.25 39.45 151.85 39.35 151.4C39.3 151 39.25 150.55 39.15 150.15C39.1 149.75 39 149.35 38.95 148.95C38.85 148.55 38.8 148.15 38.7 147.75C38.65 147.4 38.55 147 38.5 146.6C38.4 146.2 38.3 145.8 38.25 145.4C38.15 144.95 38.05 144.55 37.95 144.15C37.85 143.7 37.75 143.3 37.65 142.85C37.65 142.85 38.5 142.7 39.35 142.5C40.2 142.35 41.1 142.2 41.1 142.2C41.1 142.2 41.85 142.1 42.55 141.95C43.3 141.8 44.05 141.7 44.05 141.7C44.55 141.6 45 141.55 45.45 141.5C45.85 141.5 46.25 141.45 46.6 141.5C47.3 141.5 47.85 141.65 48.3 141.9C48.75 142.15 49.1 142.45 49.35 142.8C49.6 143.15 49.75 143.6 49.85 144.1ZM43.5 144.5L41.55 144.85L41.85 146.4L43.8 146.05C44.6 145.9 45.2 145.75 45.6 145.65C46 145.5 46.3 145.4 46.45 145.25C46.6 145.1 46.65 144.95 46.6 144.75C46.55 144.55 46.45 144.4 46.3 144.3C46.1 144.25 45.8 144.2 45.4 144.25C44.95 144.25 44.35 144.35 43.5 144.5ZM60.05 144.4C60.6 144.35 61.05 144.35 61.5 144.35C61.9 144.4 62.25 144.5 62.55 144.6C63.15 144.9 63.45 145.35 63.55 146C63.6 146.65 63.55 147.2 63.3 147.65C63.05 148.15 62.55 148.55 61.85 148.85C61.45 149.05 61 149.2 60.5 149.3C60 149.45 59.4 149.55 58.75 149.6C58.75 149.6 58.35 149.65 57.75 149.75C57.45 149.8 57.1 149.85 56.7 149.9C56.35 149.95 55.95 150 55.55 150.05C55.15 150.1 54.75 150.15 54.35 150.2C54 150.25 53.65 150.3 53.35 150.35C52.75 150.45 52.35 150.5 52.35 150.5C52.3 150.05 52.25 149.65 52.2 149.2C52.15 148.75 52.1 148.35 52.05 147.95C52 147.5 51.95 147.1 51.9 146.7C51.85 146.3 51.8 145.9 51.75 145.5C51.65 145.15 51.6 144.75 51.55 144.35C51.5 143.95 51.4 143.55 51.35 143.15C51.25 142.7 51.2 142.3 51.1 141.85C51.05 141.45 50.95 141 50.85 140.55C50.85 140.55 51.7 140.45 52.6 140.3C53.45 140.2 54.3 140.05 54.3 140.05V140.1C54.3 140.1 55.05 140 55.85 139.85C56.65 139.75 57.4 139.65 57.4 139.65C58 139.6 58.55 139.55 59.05 139.55C59.5 139.5 59.95 139.55 60.3 139.6C61 139.7 61.55 139.9 61.85 140.25C62.2 140.55 62.4 141 62.45 141.55C62.5 142.1 62.35 142.65 62 143.1C61.85 143.35 61.6 143.6 61.25 143.8C60.9 144 60.5 144.2 60.05 144.4ZM57.45 142.2C57.45 142.2 56.75 142.3 56.05 142.4C55.35 142.5 54.65 142.6 54.65 142.6L54.8 143.85C54.8 143.85 55.5 143.75 56.2 143.65C56.9 143.55 57.6 143.5 57.6 143.5C58.2 143.4 58.6 143.3 58.8 143.15C59.05 143.05 59.15 142.85 59.1 142.6C59.1 142.35 58.95 142.25 58.7 142.2C58.4 142.1 58 142.15 57.45 142.2ZM55.35 147.5C55.35 147.5 56 147.4 56.7 147.35C57.4 147.25 58.05 147.15 58.05 147.15C58.55 147.1 58.95 147 59.2 146.95C59.45 146.85 59.65 146.75 59.75 146.65C59.85 146.55 59.9 146.4 59.85 146.2C59.8 145.95 59.65 145.8 59.35 145.75C59.1 145.65 58.6 145.65 57.9 145.75C57.9 145.75 57.2 145.85 56.5 145.95C55.85 146.05 55.15 146.15 55.15 146.15L55.35 147.5ZM71.7 148.35C71.15 148.4 70.65 148.4 70.2 148.4C69.7 148.4 69.25 148.35 68.85 148.25C68.45 148.2 68.05 148.1 67.7 147.95C67.35 147.8 67.05 147.65 66.8 147.45C66.5 147.25 66.25 147 66.05 146.75C65.8 146.5 65.6 146.2 65.45 145.9C65.3 145.6 65.15 145.25 65.05 144.9C64.95 144.55 64.85 144.15 64.85 143.75C64.8 143.35 64.75 142.95 64.8 142.6C64.8 142.2 64.9 141.85 65 141.55C65.05 141.2 65.2 140.9 65.35 140.6C65.55 140.3 65.75 140 66 139.75C66.2 139.5 66.5 139.25 66.8 139.05C67.15 138.85 67.5 138.7 67.9 138.5C68.3 138.35 68.75 138.25 69.25 138.15C69.7 138.05 70.25 137.95 70.8 137.9C71.35 137.85 71.9 137.85 72.4 137.85C72.9 137.9 73.35 137.95 73.75 138C74.2 138.1 74.55 138.2 74.9 138.35C75.25 138.5 75.6 138.7 75.85 138.9C76.15 139.1 76.4 139.35 76.6 139.6C76.8 139.85 77 140.15 77.15 140.45C77.3 140.8 77.45 141.1 77.5 141.45C77.6 141.85 77.65 142.2 77.7 142.65C77.7 143.05 77.7 143.45 77.7 143.8C77.65 144.2 77.55 144.55 77.45 144.85C77.35 145.2 77.2 145.5 77.05 145.8C76.85 146.1 76.65 146.35 76.4 146.6C76.2 146.85 75.9 147.05 75.6 147.25C75.3 147.45 74.9 147.65 74.55 147.75C74.15 147.9 73.7 148.05 73.25 148.15C72.75 148.25 72.25 148.3 71.7 148.35ZM71.45 145.55C72 145.5 72.45 145.4 72.8 145.3C73.2 145.15 73.5 145 73.7 144.75C73.95 144.55 74.1 144.3 74.2 143.95C74.25 143.65 74.3 143.3 74.25 142.85C74.2 142.05 73.9 141.5 73.4 141.1C73.15 140.95 72.85 140.8 72.45 140.75C72.05 140.7 71.6 140.7 71.05 140.7C70.5 140.75 70.05 140.85 69.65 141C69.3 141.15 69 141.3 68.8 141.55C68.35 141.95 68.15 142.6 68.25 143.4C68.3 143.8 68.4 144.15 68.5 144.45C68.65 144.75 68.85 145 69.1 145.15C69.4 145.35 69.7 145.45 70.1 145.5C70.5 145.55 70.95 145.6 71.45 145.55ZM87.65 137.2C87.65 137.2 88.55 137.15 89.45 137.15C90.35 137.1 91.25 137.1 91.25 137.1C91.25 137.5 91.25 137.9 91.25 138.3C91.2 138.7 91.2 139.1 91.2 139.5C91.2 139.95 91.25 140.35 91.25 140.8C91.25 141.2 91.25 141.65 91.25 142.1C91.25 142.55 91.3 143 91.3 143.4C91.3 143.85 91.3 144.3 91.35 144.7C91.35 145.1 91.4 145.55 91.4 145.95C91.4 146.35 91.45 146.75 91.45 147.15C91.45 147.15 91.15 147.15 90.7 147.15C90.2 147.15 89.55 147.2 88.9 147.2C88.3 147.2 87.65 147.25 87.15 147.25C86.7 147.25 86.35 147.3 86.35 147.3C86.35 147.3 86.15 146.8 85.8 146.15C85.6 145.8 85.4 145.35 85.2 144.95C84.95 144.5 84.7 144.05 84.5 143.6C84.25 143.1 84 142.65 83.8 142.2C83.55 141.8 83.35 141.4 83.15 141.05C82.8 140.35 82.55 139.9 82.55 139.9C82.55 139.9 82.6 140.35 82.65 141.05C82.7 141.4 82.7 141.85 82.75 142.25C82.8 142.7 82.85 143.2 82.85 143.65C82.9 144.15 82.95 144.6 83 145.05C83 145.5 83.05 145.9 83.1 146.25C83.15 146.95 83.2 147.45 83.2 147.45C83.2 147.45 82.25 147.45 81.35 147.5C80.45 147.6 79.55 147.65 79.55 147.65C79.5 147.2 79.5 146.75 79.5 146.3C79.5 145.9 79.45 145.45 79.45 145.05C79.45 144.6 79.4 144.2 79.4 143.8C79.4 143.4 79.35 143 79.35 142.6C79.3 142.2 79.3 141.85 79.25 141.4C79.2 141 79.2 140.6 79.15 140.2C79.1 139.8 79.1 139.35 79.05 138.95C79 138.5 78.95 138.05 78.9 137.6C78.9 137.6 79.25 137.6 79.75 137.55C80.25 137.55 80.95 137.5 81.6 137.45C82.3 137.4 82.95 137.4 83.45 137.35C84 137.35 84.3 137.3 84.3 137.3C84.3 137.3 84.55 137.8 84.95 138.5C85.1 138.85 85.3 139.3 85.55 139.75C85.75 140.2 86 140.65 86.25 141.15C86.5 141.6 86.75 142.1 86.95 142.55C87.2 143 87.4 143.4 87.55 143.75C87.9 144.45 88.15 144.95 88.15 144.95C88.15 144.95 88.1 144.45 88.05 143.75C88.05 143.35 88 142.95 88 142.5C87.95 142.05 87.95 141.55 87.9 141.05C87.85 140.6 87.85 140.1 87.8 139.65C87.75 139.2 87.75 138.75 87.7 138.4C87.65 137.7 87.65 137.2 87.65 137.2ZM104.85 137.05C104.85 137.05 105.75 137.1 106.65 137.1C107.55 137.15 108.45 137.15 108.45 137.15C108.4 137.55 108.4 137.95 108.35 138.35C108.35 138.75 108.3 139.15 108.3 139.6C108.25 140 108.25 140.4 108.25 140.85C108.2 141.3 108.2 141.7 108.2 142.15C108.15 142.6 108.15 143.05 108.15 143.5C108.15 143.9 108.15 144.35 108.15 144.75C108.1 145.2 108.1 145.6 108.1 146C108.1 146.4 108.1 146.8 108.15 147.2C108.15 147.2 107.8 147.2 107.35 147.15C106.85 147.15 106.2 147.15 105.6 147.1C104.95 147.1 104.3 147.1 103.85 147.1C103.35 147.1 103.05 147.1 103.05 147.1C103.05 147.1 102.8 146.6 102.5 145.9C102.35 145.55 102.15 145.1 101.95 144.65C101.75 144.25 101.55 143.75 101.35 143.3C101.1 142.8 100.9 142.35 100.7 141.9C100.5 141.45 100.3 141 100.15 140.65C99.8 139.95 99.6 139.5 99.6 139.5C99.6 139.5 99.6 139.95 99.65 140.65C99.65 141 99.65 141.45 99.7 141.9C99.7 142.3 99.7 142.8 99.7 143.25C99.75 143.75 99.75 144.2 99.75 144.65C99.8 145.1 99.8 145.5 99.8 145.85C99.8 146.55 99.85 147.05 99.85 147.05C99.85 147.05 98.9 147.05 98 147.05C97.1 147.05 96.15 147.05 96.15 147.05C96.2 146.6 96.2 146.15 96.2 145.75C96.25 145.3 96.25 144.85 96.25 144.45C96.25 144.05 96.25 143.6 96.25 143.2C96.25 142.8 96.25 142.4 96.25 142.05C96.25 141.65 96.25 141.25 96.25 140.85C96.25 140.45 96.2 140.05 96.2 139.6C96.2 139.2 96.2 138.75 96.15 138.35C96.15 137.9 96.1 137.45 96.1 137C96.1 137 96.45 137 96.95 137C97.45 137 98.15 137 98.8 137C99.5 137 100.15 137 100.65 137C101.15 137 101.5 137 101.5 137C101.5 137 101.75 137.5 102.05 138.25C102.2 138.6 102.4 139.05 102.6 139.5C102.8 139.95 103.05 140.45 103.25 140.9C103.45 141.4 103.65 141.9 103.85 142.35C104.05 142.8 104.25 143.25 104.4 143.6C104.7 144.35 104.95 144.85 104.95 144.85C104.95 144.85 104.9 144.35 104.9 143.6C104.9 143.25 104.9 142.85 104.9 142.4C104.9 141.9 104.9 141.45 104.9 140.95C104.9 140.45 104.85 140 104.85 139.55C104.85 139.05 104.85 138.65 104.85 138.3C104.85 137.55 104.85 137.05 104.85 137.05ZM113.15 143.4L113.1 144.85C113.55 144.85 114 144.9 114.4 144.9C114.85 144.9 115.25 144.95 115.65 144.95C116.05 144.95 116.4 145 116.75 145C117.15 145 117.5 145.05 117.8 145.05C118.45 145.1 119.05 145.1 119.6 145.1C120.15 145.15 120.6 145.15 121 145.15C120.9 145.55 120.85 145.95 120.8 146.35C120.75 146.75 120.75 147.25 120.7 147.85C120.7 147.85 120 147.8 118.95 147.7C118.45 147.7 117.85 147.65 117.2 147.6C116.55 147.55 115.85 147.55 115.15 147.5C114.45 147.45 113.75 147.4 113.15 147.4C112.5 147.35 111.85 147.35 111.35 147.3C110.3 147.25 109.6 147.25 109.6 147.25C109.65 146.8 109.7 146.35 109.7 145.9C109.75 145.5 109.8 145.05 109.8 144.65C109.85 144.25 109.85 143.8 109.85 143.4C109.9 143 109.9 142.6 109.9 142.2C109.95 141.85 109.95 141.45 109.95 141.05C109.95 140.65 109.95 140.2 110 139.8C110 139.4 110 138.95 110 138.5C110 138.1 110 137.65 110 137.2C110 137.2 110.7 137.2 111.75 137.25C112.3 137.3 112.95 137.3 113.6 137.35C114.25 137.4 115 137.4 115.7 137.45C116.4 137.5 117.1 137.55 117.8 137.55C118.45 137.6 119.1 137.65 119.6 137.7C120.7 137.75 121.4 137.8 121.4 137.8C121.4 137.8 121.35 138.45 121.3 139.05C121.25 139.7 121.2 140.3 121.2 140.3C121.2 140.3 120.75 140.25 120 140.2C119.6 140.2 119.2 140.15 118.75 140.15C118.25 140.1 117.75 140.1 117.3 140.05C116.8 140 116.3 140 115.85 139.95C115.35 139.95 114.95 139.9 114.55 139.9C113.85 139.85 113.35 139.85 113.35 139.85L113.25 141.15C113.75 141.2 114.45 141.25 115.35 141.3C115.7 141.3 116.1 141.35 116.5 141.35C116.9 141.35 117.3 141.4 117.7 141.4C118.1 141.4 118.5 141.45 118.9 141.45C119.3 141.45 119.7 141.5 120.1 141.5C120.1 141.5 120.1 142.1 120.05 142.7C120 143.25 119.95 143.85 119.95 143.85C119.55 143.85 119.15 143.8 118.75 143.75C118.35 143.7 117.95 143.7 117.55 143.65C117.15 143.6 116.75 143.6 116.35 143.55C116 143.55 115.6 143.5 115.2 143.5C114.3 143.45 113.65 143.4 113.15 143.4ZM131.25 143.95C131.25 143.95 131.25 143.6 131.3 143.1C131.35 142.65 131.45 142 131.5 141.3C131.55 140.65 131.65 140 131.7 139.5C131.75 139.05 131.75 138.7 131.75 138.7C131.75 138.7 132.7 138.8 133.6 138.9C134.5 139 135.4 139.1 135.4 139.1C135.4 139.1 135.35 139.45 135.3 139.95C135.25 140.45 135.15 141.15 135.1 141.85C135 142.55 134.95 143.2 134.85 143.7C134.8 144.25 134.75 144.6 134.75 144.6C134.7 145.25 134.5 145.85 134.2 146.4C133.9 146.9 133.45 147.35 132.95 147.75C132.7 147.95 132.4 148.1 132.05 148.25C131.75 148.4 131.35 148.5 130.95 148.55C130.55 148.6 130.1 148.65 129.65 148.65C129.15 148.65 128.65 148.65 128.1 148.6C127.55 148.55 127.05 148.45 126.55 148.35C126.1 148.3 125.7 148.15 125.3 148C124.55 147.75 124 147.4 123.6 146.95C123.25 146.5 122.95 145.95 122.8 145.4C122.65 144.8 122.6 144.2 122.65 143.5C122.65 143.5 122.7 143.15 122.75 142.65C122.75 142.1 122.8 141.4 122.9 140.7C122.95 140 123 139.3 123 138.8C123.05 138.25 123.1 137.9 123.1 137.9C123.1 137.9 124 138 124.9 138.05C125.8 138.15 126.75 138.2 126.75 138.2C126.75 138.2 126.7 138.55 126.65 139.05C126.6 139.55 126.55 140.25 126.5 140.9C126.45 141.55 126.35 142.25 126.35 142.75C126.3 143.25 126.25 143.6 126.25 143.6C126.2 144 126.2 144.3 126.25 144.6C126.3 144.85 126.5 145.1 126.8 145.35C127.1 145.6 127.65 145.75 128.4 145.85C129.25 145.9 129.85 145.85 130.25 145.7C130.65 145.5 130.9 145.25 131 145C131.1 144.7 131.2 144.35 131.25 143.95ZM149.5 141.05C149.5 141.05 149.35 141.8 149.25 142.5C149.15 143.2 149 143.95 149 143.95C148.65 143.85 148.25 143.8 147.9 143.75C147.55 143.65 147.15 143.6 146.8 143.55C146.45 143.45 146.05 143.4 145.7 143.35C145.35 143.3 145 143.25 144.6 143.2C144.6 143.2 144.55 143.65 144.45 144.3C144.4 144.65 144.35 145 144.3 145.45C144.25 145.85 144.15 146.3 144.1 146.75C144.05 147.2 143.95 147.65 143.9 148.05C143.85 148.5 143.8 148.9 143.75 149.2C143.65 149.9 143.55 150.35 143.55 150.35C143.55 150.35 142.7 150.2 141.8 150.1C140.9 149.95 140.05 149.85 140.05 149.85C140.05 149.85 140.1 149.4 140.2 148.7C140.25 148.4 140.3 148 140.35 147.55C140.4 147.15 140.45 146.7 140.5 146.25C140.6 145.8 140.65 145.35 140.7 144.95C140.75 144.5 140.8 144.1 140.85 143.8C140.95 143.1 141 142.65 141 142.65C140.65 142.6 140.3 142.6 139.9 142.55C139.55 142.5 139.2 142.45 138.8 142.4C138.45 142.35 138.1 142.35 137.7 142.3C137.35 142.25 136.95 142.2 136.6 142.2C136.6 142.2 136.7 141.45 136.75 140.75C136.85 140 136.95 139.3 136.95 139.3C136.95 139.3 137.75 139.4 138.9 139.55C139.5 139.6 140.2 139.7 140.9 139.8C141.3 139.85 141.65 139.9 142.05 139.95C142.45 140 142.85 140.05 143.2 140.1C143.6 140.2 144 140.25 144.4 140.3C144.75 140.35 145.15 140.4 145.5 140.45C146.25 140.55 146.95 140.65 147.55 140.75C148.7 140.95 149.5 141.05 149.5 141.05ZM162 146.75C161.9 147.15 161.8 147.5 161.65 147.8C161.45 148.15 161.25 148.4 161 148.65C160.75 148.85 160.4 149.05 160.05 149.15C159.65 149.3 159.2 149.4 158.7 149.4C158.75 149.55 158.85 149.7 158.85 149.8C158.85 149.8 159.3 150.65 159.7 151.55C160.1 152.45 160.55 153.3 160.55 153.3C160.55 153.3 159.6 153.1 158.6 152.9C157.65 152.75 156.7 152.55 156.7 152.55C156.6 152.15 156.4 151.65 156.15 151.05C156.05 150.75 155.95 150.45 155.8 150.1C155.65 149.75 155.5 149.4 155.35 149C155.35 149 154.8 148.95 154.3 148.85C153.75 148.75 153.25 148.65 153.25 148.65C153.25 148.65 153.1 149.45 152.95 150.25C152.85 151 152.7 151.8 152.7 151.8C152.7 151.8 151.85 151.65 151.05 151.5C150.2 151.4 149.35 151.25 149.35 151.25C149.45 150.8 149.55 150.35 149.65 149.95C149.7 149.5 149.8 149.1 149.9 148.7C149.95 148.25 150.05 147.85 150.1 147.45C150.15 147.05 150.25 146.7 150.3 146.3C150.35 145.9 150.45 145.5 150.5 145.1C150.55 144.7 150.6 144.3 150.65 143.9C150.75 143.5 150.8 143.05 150.85 142.65C150.9 142.2 150.95 141.75 151 141.3C151 141.3 151.85 141.45 152.75 141.6C153.6 141.75 154.45 141.9 154.45 141.9C154.45 141.9 155.2 142.05 155.95 142.2C156.7 142.35 157.4 142.45 157.4 142.45C157.9 142.55 158.35 142.65 158.75 142.8C159.15 142.9 159.55 143 159.85 143.15C160.5 143.45 161 143.75 161.35 144.15C161.65 144.5 161.9 144.9 162 145.35C162.1 145.8 162.1 146.25 162 146.75ZM155.9 144.9L154 144.55L153.7 146.1L155.65 146.45C156.45 146.6 157.05 146.7 157.5 146.7C157.9 146.75 158.2 146.7 158.4 146.65C158.6 146.55 158.7 146.4 158.75 146.2C158.8 146 158.75 145.85 158.6 145.7C158.45 145.55 158.2 145.45 157.8 145.3C157.35 145.2 156.75 145.05 155.9 144.9ZM173.75 156.3C173.75 156.3 172.85 156.1 171.95 155.85C171 155.65 170.1 155.4 170.1 155.4C170.1 155.15 170.05 154.85 170 154.5C169.95 154.15 169.9 153.75 169.85 153.3C169.85 153.3 169.6 153.25 169.15 153.15C168.75 153.05 168.2 152.95 167.6 152.8C167.05 152.7 166.5 152.55 166.05 152.45C165.65 152.35 165.35 152.3 165.35 152.3C165.35 152.3 165.1 152.75 164.8 153.2C164.55 153.65 164.25 154.1 164.25 154.1C164.25 154.1 163.35 153.9 162.5 153.7C161.6 153.55 160.75 153.35 160.75 153.35C160.75 153.35 161.1 152.8 161.65 151.95C161.95 151.5 162.25 151 162.6 150.5C163 149.95 163.35 149.4 163.75 148.85C164.1 148.25 164.5 147.7 164.85 147.2C165.2 146.65 165.55 146.15 165.85 145.75C166.4 144.9 166.8 144.35 166.8 144.35C166.8 144.35 167.15 144.45 167.65 144.55C168.15 144.65 168.8 144.8 169.45 144.95C170.1 145.1 170.8 145.25 171.3 145.35C171.8 145.5 172.1 145.55 172.1 145.55C172.1 145.55 172.2 146.25 172.4 147.25C172.45 147.75 172.55 148.35 172.65 148.95C172.75 149.6 172.85 150.25 172.95 150.95C173.05 151.6 173.15 152.25 173.25 152.9C173.35 153.55 173.4 154.1 173.5 154.6C173.65 155.65 173.75 156.3 173.75 156.3ZM166.65 150.35C166.65 150.35 167.35 150.55 168.1 150.7C168.8 150.85 169.55 151.05 169.55 151.05C169.5 150.5 169.4 150 169.35 149.5C169.25 149 169.15 148.45 169.1 147.95L168.95 147C168.7 147.35 168.35 147.85 168 148.4C167.8 148.65 167.6 149 167.35 149.3C167.15 149.65 166.9 150 166.65 150.35ZM180.5 147.65C180.5 147.65 180.4 148.1 180.2 148.75C180.15 149.1 180.05 149.45 179.9 149.9C179.8 150.3 179.7 150.75 179.6 151.15C179.45 151.6 179.35 152.05 179.25 152.45C179.15 152.85 179.05 153.25 178.95 153.6C178.75 154.25 178.65 154.7 178.65 154.7C179.35 154.85 180 155 180.6 155.2C181.2 155.35 181.8 155.5 182.35 155.65C182.95 155.8 183.45 155.9 183.95 156.05C184.45 156.2 184.95 156.3 185.4 156.4C185.15 156.8 184.95 157.25 184.8 157.65C184.65 158.05 184.5 158.55 184.3 159.15C184.3 159.15 183.7 158.95 182.8 158.7C182.35 158.6 181.8 158.45 181.25 158.3C180.65 158.1 180.05 157.95 179.45 157.8C178.85 157.6 178.2 157.45 177.65 157.3C177.05 157.15 176.55 157 176.05 156.9C175.15 156.65 174.55 156.5 174.55 156.5C174.65 156.05 174.8 155.65 174.9 155.25C175.05 154.8 175.15 154.4 175.25 154C175.35 153.6 175.5 153.2 175.6 152.8C175.7 152.4 175.8 152.05 175.9 151.65C176 151.3 176.1 150.9 176.15 150.5C176.25 150.1 176.35 149.7 176.45 149.3C176.55 148.9 176.65 148.5 176.75 148.05C176.8 147.65 176.9 147.2 177 146.75C177 146.75 177.9 147 178.75 147.2C179.65 147.45 180.5 147.65 180.5 147.65Z" fill="#1C2D0B"/>
</svg>
