<svg version="1.2" xmlns="http://www.w3.org/2000/svg" viewBox="0 0 177 312" width="177" height="312">
	<title>fundoservepe-svg</title>
	<defs>
		<clipPath clipPathUnits="userSpaceOnUse" id="cp1">
			<path d="m67.05 175l28.86 0.1-0.05 14.61-28.86-0.1z"/>
		</clipPath>
		<clipPath clipPathUnits="userSpaceOnUse" id="cp2">
			<path d="m77.09 137l27.75 0.1-0.09 26.08-27.75-0.1z"/>
		</clipPath>
		<clipPath clipPathUnits="userSpaceOnUse" id="cp3">
			<path d="m69.09 206l27.75 0.1-0.09 26.08-27.75-0.1z"/>
		</clipPath>
	</defs>
	<style>
		.s0 { fill: #7eb31e } 
		.s1 { fill: none;stroke: #ffffff } 
		.s2 { fill: #ffffff } 
		.s3 { fill: #d7b800 } 
		.s4 { fill: #344f6a } 
		.s5 { fill: #2390ad } 
		.s6 { fill: #fddd3d } 
		.s7 { fill: #6d4343 } 
		.s8 { fill: #d3ec62 } 
		.s9 { fill: #695050 } 
		.s10 { fill: #abc57e } 
		.s11 { fill: #f15c00 } 
		.s12 { fill: #8e8781 } 
		.s13 { fill: #dbd5b3 } 
		.s14 { fill: #847d77 } 
		.s15 { fill: #625038 } 
		.s16 { fill: #493618 } 
		.s17 { fill: #77cce1 } 
		.s18 { fill: #6d5c42 } 
		.s19 { fill: #977a52 } 
		.s20 { fill: #a98c60 } 
		.s21 { fill: #c6b07f } 
		.s22 { fill: #896d3b } 
	</style>
	<path id="Layer" fill-rule="evenodd" class="s0" d="m116.9 50.5c-28.5-3.8-41.2-2.8-68.6 2.9-27.4 5.7-35.3 24.5-35.5 29.3-0.8 24.9 43.1 46.9 47.9 66 11.8 47.4-12.5 91.7 31.5 144.9 18.4 22.4 49.4 16.8 63.4 4.7 26.4-23-7.8-69.2-10.9-96.1-2.4-20.1 19-73 25.5-92.9 9.5-29.1-21.4-54.6-53.3-58.8z"/>
	<path id="Layer" class="s1" d="m64 170h86"/>
	<path id="Layer" class="s0" d="m154.8 48c-1.1-4.8 0.4-8.9 8-13.8 4.7-3.1 8.5-1.1 9.9 2.2 2.5 5.6-1.6 11.4-7.8 15.1-6.3 3.7-9.7-1.8-10.1-3.5z"/>
	<path id="Layer" class="s0" d="m154.8 48c-1.1-4.8 0.4-8.9 8-13.8 4.7-3.1 8.5-1.1 9.9 2.2 2.5 5.6-1.6 11.4-7.8 15.1-6.3 3.7-9.7-1.8-10.1-3.5z"/>
	<path id="Layer" class="s0" d="m128.8 39.9c-1.6-6.2 0.1-11.5 9.5-17.7 6-3.8 10.8-1.1 12.9 3.2 3.5 7.4-1.5 14.8-9.3 19.4-7.8 4.6-12.5-2.7-13.1-4.9z"/>
	<path id="Layer" class="s0" d="m128.8 39.9c-1.6-6.2 0.1-11.5 9.5-17.7 6-3.8 10.8-1.1 12.9 3.2 3.5 7.4-1.5 14.8-9.3 19.4-7.8 4.6-12.5-2.7-13.1-4.9z"/>
	<path id="Layer" class="s0" d="m96.8 35.7c-1.1-6.5 1.5-12.4 12.8-19.8 7.2-4.6 12.3-2 14.1 2.4 3 7.7-3.5 16.1-12.8 21.7-9.3 5.6-13.7-1.9-14.1-4.3z"/>
	<path id="Layer" class="s0" d="m96.8 35.7c-1.1-6.5 1.5-12.4 12.8-19.8 7.2-4.6 12.3-2 14.1 2.4 3 7.7-3.5 16.1-12.8 21.7-9.3 5.6-13.7-1.9-14.1-4.3z"/>
	<path id="Layer" class="s0" d="m60.5 34c-1.6-8 1.1-15.1 14.4-23.7 8.3-5.4 14.6-2.1 17 3.4 4 9.4-3.4 19.5-14.3 26-10.9 6.4-16.5-2.8-17.1-5.7z"/>
	<path id="Layer" class="s0" d="m60.5 34c-1.6-8 1.1-15.1 14.4-23.7 8.3-5.4 14.6-2.1 17 3.4 4 9.4-3.4 19.5-14.3 26-10.9 6.4-16.5-2.8-17.1-5.7z"/>
	<path id="Layer" class="s0" d="m5 43.5c-3.3-12.4 0.1-23.1 19-35.3 11.9-7.7 21.6-2.3 25.7 6.3 7 14.7-2.9 29.6-18.6 38.8-15.6 9.2-25-5.4-26.1-9.8z"/>
	<path id="Layer" class="s0" d="m5 43.5c-3.3-12.4 0.1-23.1 19-35.3 11.9-7.7 21.6-2.3 25.7 6.3 7 14.7-2.9 29.6-18.6 38.8-15.6 9.2-25-5.4-26.1-9.8z"/>
	<g id="Layer">
		<path id="Layer" fill-rule="evenodd" class="s2" d="m100.1 119.3q0-0.9 0-1.8 0-0.9 0-1.7 1-0.9 1.9-1.8 1-0.8 1.9-1.7 1.1-1 1.7-1.6 0.6-0.6 0.8-1 0.2-0.5 0.2-0.8 0-0.7-0.9-1.1-0.9-0.3-2.3-0.2-1.4 0.2-3 0.8 0-1 0-1.9 0-1 0-1.9 2.4-0.7 4.3-0.7 1.9 0 3.3 0.6 1.4 0.6 2.1 1.7 0.8 1 0.8 2.4 0 1.4-0.8 2.6-0.8 1.2-2.4 2.7-0.5 0.4-1.1 0.9-0.5 0.5-1 1 1.3 0 2.5 0 1.4 0 2.6 0 0 0.9 0 1.8 0 0.9 0 1.7-2.6 0-5.3 0-2.6 0-5.3 0zm12-2.8q0-0.9 0-1.8 0-0.9 0-1.8 1.2-2.1 2.4-4.3 1.2-2.2 2.4-4.4 1.5 0 3 0 1.6 0 3.1 0 0 2.2 0 4.4 0 2.2 0 4.4 0.5 0 1.1 0 0.6 0 1.1 0 0 0.8 0 1.8 0 0.8 0 1.7-0.6 0-1.1 0-0.6 0-1.2 0 0 0.7 0 1.5 0 0.7 0 1.4-1 0-2 0-1 0-2 0 0-0.7 0-1.5 0-0.7 0-1.4-1.7 0-3.4 0-1.7 0-3.4 0zm4.3-3.6q0.6 0 1.2 0 0.7 0 1.3 0 0-1.2 0-2.5 0-1.3 0-2.5-0.6 1.2-1.3 2.5-0.6 1.3-1.2 2.5zm14.6 0.7q-1.4 0-2.5-0.6-1.1-0.7-1.7-1.8-0.6-1.1-0.6-2.5 0-1.3 0.6-2.4 0.6-1.1 1.7-1.7 1.1-0.7 2.5-0.7 1.1 0 2 0.4 0.9 0.4 1.5 1 0.7 0.7 1 1.6 0.3 0.8 0.3 1.9 0 1.4-0.6 2.5-0.6 1.1-1.7 1.7-1.1 0.6-2.5 0.6zm0 5.8q2.4-3.7 4.8-7.6 2.3-3.8 4.7-7.5 0.8 0 1.7 0 0.8 0 1.6 0-2.3 3.7-4.7 7.6-2.4 3.8-4.7 7.5-0.8 0-1.7 0-0.8 0-1.7 0zm0-8.7q0.8 0 1.2-0.5 0.5-0.5 0.5-1.4 0-0.9-0.5-1.4-0.4-0.6-1.2-0.6-0.8 0-1.2 0.5-0.4 0.6-0.4 1.4 0 0.9 0.4 1.5 0.4 0.5 1.2 0.5zm12.9 9.1q-1.1 0-2-0.4-0.9-0.4-1.5-1-0.7-0.7-1-1.6-0.3-0.9-0.3-1.9 0-1.4 0.6-2.5 0.6-1.1 1.7-1.7 1.1-0.6 2.5-0.6 1.5 0 2.5 0.6 1.1 0.7 1.7 1.8 0.6 1 0.6 2.4 0 1.1-0.3 1.9-0.4 0.9-1 1.6-0.7 0.6-1.6 1-0.9 0.4-1.9 0.4zm0-3q0.8 0 1.2-0.5 0.5-0.5 0.5-1.4 0-0.9-0.5-1.4-0.4-0.5-1.2-0.5-0.8 0-1.2 0.5-0.4 0.5-0.4 1.4 0 0.9 0.4 1.4 0.4 0.5 1.2 0.5z"/>
	</g>
	<g id="Layer">
		<path id="Layer" class="s3" d="m133.2 59.1c-1.3-1.3-3.1-2.2-5.1-2.2-2 0-3.8 0.8-5.1 2.1-1.3 1.3-2.1 3.1-2.1 5.1q0 0.4 0 0.8 0 0 0 0 0.1 0.4 0.1 0.7 0.1 0.1 0.1 0.1 0 0.3 0.1 0.6 0.1 0.1 0.1 0.2 0.1 0.2 0.2 0.5 0 0.1 0.1 0.2 0.1 0.2 0.2 0.4 0.1 0.1 0.1 0.2 0.1 0.2 0.3 0.4 0 0.1 0.1 0.2 0.1 0.2 0.3 0.4c0 0.1 0.1 0.1 0.2 0.2q0.1 0.1 0.3 0.3 0 0 0 0.1 0.1 0 0.1 0 0 0 0.1 0.1 0 0 0.1 0.1 0.1 0 0.2 0.1c0.3 0.4 0.6 1 0.5 1.6q0 0 0 0v2.3c0 1.2 1 2.1 2.1 2.1h1.9 1.8c1.1 0 2.1-0.9 2.1-2.1v-2.3q0 0 0 0 0 0 0 0c0-0.6 0.2-1.2 0.6-1.5q0.1-0.1 0.2-0.2 0 0 0.1-0.1 0.1 0 0.1-0.1 0 0 0 0 0 0 0.1-0.1 0.2-0.1 0.3-0.3 0.1-0.1 0.2-0.2 0.1-0.2 0.3-0.3 0-0.1 0.1-0.2 0.1-0.2 0.3-0.4 0-0.1 0.1-0.2 0.1-0.2 0.2-0.5 0.1-0.1 0.1-0.2 0.1-0.2 0.2-0.5 0-0.1 0.1-0.1 0.1-0.3 0.1-0.6 0-0.1 0.1-0.1 0-0.4 0.1-0.7 0-0.1 0-0.1 0-0.4 0-0.7c0-2-0.8-3.8-2.1-5.1z"/>
		<path id="Layer" class="s4" d="m132.4 79.8c0 0.4-0.4 0.8-0.8 0.8l-7.1-0.1c-0.4 0-0.8-0.3-0.8-0.7v-3.3c0-0.5 0.4-0.8 0.8-0.8l7.1 0.1c0.4 0 0.8 0.3 0.8 0.7z"/>
		<path id="Layer" class="s5" d="m132.4 78.5c0 0.5-0.4 0.8-0.8 0.8h-7.1c-0.4 0-0.8-0.4-0.8-0.8v-0.8c0-0.4 0.4-0.7 0.8-0.7h7.1c0.4 0 0.8 0.3 0.8 0.8z"/>
		<path id="Layer" class="s4" d="m132.4 78.4l-8.7-0.1v-0.4h8.7z"/>
		<path id="Layer" class="s6" d="m133.3 62.7c0-1-0.3-1.8-0.7-1.8-0.4 0-0.7 0.8-0.7 1.8 0 0-0.2 0.3-0.7 0.3-0.6 0-0.7-0.4-0.7-0.4 0-0.9-0.3-1.7-0.7-1.7-0.4 0-0.7 0.8-0.7 1.7 0 0-0.2 0.4-0.7 0.4-0.5 0-0.7-0.4-0.7-0.4 0-0.9-0.3-1.7-0.7-1.7-0.4 0-0.7 0.8-0.7 1.7 0 0-0.1 0.4-0.7 0.4-0.5 0-0.7-0.4-0.7-0.4 0-0.9-0.3-1.7-0.7-1.7-0.4 0-0.7 0.8-0.7 1.7l4.6 13.1c0.2 0 5.2-13 5.2-13z"/>
		<path id="Layer" class="s3" d="m128.1 72.9l-2.7-8.6h6z"/>
	</g>
	<g id="Layer">
		<path id="Layer" fill-rule="evenodd" class="s2" d="m23.8 75q0-1.8 0-3.7 0-1.9 0.1-3.8 1.1 0 2.2 0 1.1 0 2.2 0 0 0.5 0 0.9 0 0.4 0 0.9-0.6 0-1.3-0.1-0.6 0-1.2 0 0 0.3 0 0.6 0 0.3 0 0.5 0.5 0 1.1 0 0.6 0 1.2 0 0 0.4 0 0.9 0 0.4 0 0.8-0.6 0-1.2 0-0.6 0-1.1 0 0 0.3 0 0.6 0 0.4 0 0.7 0.6 0 1.2 0 0.7 0 1.3 0 0 0.4 0 0.9 0 0.4 0 0.8-1.1 0-2.2 0-1.2 0-2.3 0zm5.7 0q0-1.4 0-2.8 0-1.5 0-2.9 0.5 0 1 0 0.4 0 0.9 0 0 0.1 0 0.2 0 0.1 0 0.1 0.3-0.2 0.6-0.3 0.4-0.1 0.8-0.1 0.7 0 1.1 0.3 0.5 0.3 0.8 0.8 0.2 0.5 0.2 1.3 0 0.8 0 1.7 0 0.9 0 1.7-0.4 0-0.9 0-0.4 0-0.9 0 0-0.8 0-1.6 0-0.8 0-1.6 0-0.4-0.2-0.7-0.2-0.3-0.6-0.3-0.5 0-0.7 0.3-0.2 0.2-0.2 0.7-0.1 0.8-0.1 1.6 0 0.8 0 1.6-0.4 0-0.9 0-0.4 0-0.9 0zm11.4-0.2q-0.7 0.3-1.5 0.4-0.7 0.1-1.4-0.1-0.6-0.2-1.2-0.5-0.5-0.4-0.8-1-0.3-0.6-0.3-1.4 0.1-0.7 0.3-1.2 0.2-0.5 0.6-0.9 0.4-0.5 0.9-0.7 0.6-0.2 1.2-0.2 0.6 0 1 0.2 0.5 0.2 0.8 0.5 0.4 0.3 0.6 0.8 0.2 0.5 0.2 1 0.1 0.6 0 1.2-0.9 0-1.8 0-1 0-1.9 0 0.2 0.4 0.7 0.6 0.5 0.1 1.2 0.1 0.7-0.1 1.4-0.4 0 0.4 0 0.8 0 0.4 0 0.8zm-2.3-4q-0.3 0-0.5 0.2-0.3 0.2-0.5 0.5 0.5 0 1 0 0.5 0 1 0-0.1-0.3-0.4-0.5-0.2-0.2-0.6-0.2zm3.7 4.3q0-1.4 0-2.9 0-1.4 0-2.8 0.5 0 0.9 0 0.5 0 0.9 0 0 0.1 0 0.1 0 0.1 0 0.2 0.4-0.2 0.8-0.4 0.4-0.1 0.9 0 0 0.4 0 0.9 0 0.4 0 0.9-0.8-0.2-1.3 0.1-0.4 0.3-0.4 0.9 0 0.7 0 1.5 0 0.7 0 1.5-0.4 0-0.9 0-0.5 0-0.9 0zm9.6-0.9q0 0.9-0.4 1.5-0.4 0.7-1.1 1-0.7 0.3-1.6 0.3-0.8 0-1.8-0.3 0-0.4 0-0.8 0-0.5 0-0.9 0.8 0.3 1.6 0.3 0.7 0.1 1.1-0.2 0.4-0.3 0.4-0.8 0-0.1 0-0.1 0 0 0-0.1-0.3 0.2-0.7 0.3-0.3 0.2-0.7 0.2-0.7-0.1-1.3-0.4-0.5-0.3-0.8-0.9-0.3-0.6-0.3-1.3 0-0.6 0.2-1.1 0.2-0.5 0.5-0.9 0.4-0.3 0.8-0.5 0.5-0.2 1-0.2 0.4 0 0.7 0.1 0.4 0.1 0.6 0.3 0-0.1 0-0.1 0-0.1 0-0.2 0.5 0 0.9 0 0.5 0 0.9 0 0 1.2 0 2.4 0 1.2 0 2.4zm-2.8-1.2q0.5 0 0.8-0.3 0.2-0.3 0.2-0.8 0.1-0.4-0.2-0.7-0.3-0.3-0.8-0.3-0.5 0-0.7 0.3-0.3 0.2-0.3 0.7 0 0.5 0.3 0.8 0.2 0.3 0.7 0.3zm5-4.2q-0.3 0-0.6-0.2-0.2-0.1-0.4-0.4-0.1-0.2-0.1-0.6 0-0.3 0.1-0.5 0.2-0.3 0.4-0.4 0.3-0.2 0.6-0.2 0.3 0 0.6 0.2 0.2 0.2 0.4 0.4 0.2 0.2 0.2 0.6 0 0.3-0.2 0.5-0.2 0.3-0.4 0.4-0.3 0.2-0.6 0.2zm-0.9 6.3q0-1.4 0-2.8 0-1.5 0-2.9 0.5 0 0.9 0 0.5 0 0.9 0 0 1.4 0 2.9 0 1.4 0 2.8-0.4 0-0.9 0-0.5 0-0.9 0zm6.9 0q0-0.1 0-0.1 0-0.1 0-0.2-0.3 0.2-0.7 0.4-0.3 0.1-0.7 0.1-0.6 0-1.1-0.2-0.5-0.3-0.8-0.7-0.4-0.4-0.6-0.9-0.2-0.6-0.2-1.2 0-0.7 0.2-1.3 0.2-0.5 0.6-0.9 0.4-0.4 0.9-0.6 0.5-0.2 1-0.2 0.4 0 0.8 0.1 0.3 0.1 0.6 0.4 0-0.1 0-0.2 0-0.1 0-0.2 0.4 0 0.9 0 0.5 0.1 0.9 0.1 0 1.4 0 2.8 0 1.4 0 2.8-0.5 0-0.9 0-0.5 0-0.9 0zm-1.2-1.4q0.6 0 0.9-0.4 0.3-0.4 0.3-1 0-0.6-0.3-1-0.3-0.4-0.8-0.4-0.6 0-0.9 0.4-0.3 0.3-0.3 1 0 0.6 0.3 1 0.3 0.4 0.8 0.4zm-35.1 15.3q0-1.8 0-3.7 0-1.9 0-3.8 0.7 0 1.4 0 0.7 0 1.3 0 0.9 0 1.5 0.4 0.6 0.3 1 0.9 0.3 0.6 0.3 1.3 0 0.8-0.3 1.4-0.4 0.6-1 0.9-0.6 0.3-1.3 0.3-0.3 0-0.5 0-0.3 0-0.5 0 0 0.6 0 1.2 0 0.5 0 1.1-0.5 0-1 0-0.4 0-0.9 0zm2.7-5.7q-0.2 0-0.4 0-0.2 0-0.4 0 0 0.4 0 0.8 0 0.5 0 0.9 0.2 0 0.5 0 0.2 0 0.4 0 0.4 0 0.6-0.2 0.2-0.3 0.2-0.6 0-0.4-0.2-0.7-0.3-0.2-0.7-0.2zm3.7 5.7q0-1.4 0-2.8 0-1.5 0-2.9 0.5 0 0.9 0 0.5 0 0.9 0 0 0.1 0 0.2 0 0.1 0 0.2 0.4-0.3 0.8-0.4 0.4-0.1 0.9-0.1 0 0.5 0 0.9 0 0.5 0 0.9-0.8-0.1-1.3 0.2-0.4 0.2-0.4 0.8 0 0.8 0 1.5 0 0.8 0 1.5-0.4 0-0.9 0-0.5 0-0.9 0zm7 0.2q-0.7 0-1.2-0.2-0.6-0.2-1-0.6-0.4-0.5-0.6-1-0.2-0.6-0.2-1.2 0-0.7 0.2-1.2 0.2-0.6 0.6-1 0.4-0.4 1-0.6 0.5-0.2 1.2-0.2 0.6 0 1.2 0.2 0.5 0.2 0.9 0.7 0.4 0.4 0.7 0.9 0.2 0.6 0.2 1.2 0 0.7-0.3 1.2-0.2 0.6-0.6 1-0.4 0.4-0.9 0.6-0.6 0.2-1.2 0.2zm0-1.6q0.5 0 0.8-0.4 0.4-0.4 0.4-1 0-0.6-0.4-1-0.3-0.4-0.8-0.4-0.6 0-0.9 0.4-0.3 0.4-0.3 1 0 0.6 0.3 1 0.3 0.4 0.9 0.4zm7.7 1.5q0-0.1 0-0.2 0-0.1 0-0.2-0.3 0.3-0.7 0.4-0.3 0.1-0.7 0.1-0.6 0-1.1-0.2-0.5-0.2-0.8-0.6-0.4-0.4-0.6-1-0.2-0.5-0.2-1.2 0-0.7 0.2-1.2 0.2-0.6 0.6-0.9 0.4-0.4 0.9-0.7 0.5-0.2 1-0.2 0.4 0 0.8 0.2 0.3 0.1 0.6 0.3 0-0.6 0-1.3 0-0.7 0-1.4 0.4 0 0.9 0.1 0.5 0 0.9 0 0 1.9 0 4 0 2 0 4-0.5 0-0.9 0-0.5 0-0.9 0zm-1.2-1.5q0.6 0 0.9-0.4 0.3-0.3 0.3-1 0-0.6-0.3-1-0.3-0.4-0.8-0.4-0.6 0-0.9 0.4-0.3 0.4-0.3 1 0 0.7 0.3 1 0.3 0.4 0.8 0.4zm9.6-4.2q0 1.4 0 2.9 0 1.4 0 2.8-0.5 0-0.9 0-0.5 0-1 0 0-0.1 0-0.1 0-0.1 0-0.2-0.3 0.2-0.6 0.3-0.4 0.2-0.8 0.2-0.7-0.1-1.1-0.3-0.5-0.3-0.8-0.9-0.2-0.5-0.2-1.2 0-0.9 0-1.8 0-0.8 0-1.7 0.4 0 0.9 0 0.4 0 0.9 0 0 0.8 0 1.6 0 0.8 0 1.6 0 0.5 0.2 0.7 0.2 0.3 0.6 0.3 0.5 0 0.7-0.2 0.2-0.3 0.2-0.8 0.1-0.8 0.1-1.6 0-0.8 0-1.6 0.4 0 0.9 0 0.4 0 0.9 0zm2 8.3q0-0.3 0-0.6 0-0.2 0-0.5 0.7 0.3 1.1 0.2 0.5 0 0.5-0.2 0-0.2-0.3-0.2-0.2-0.1-0.7-0.1 0-0.3 0-0.6 0-0.4 0-0.7-0.8-0.3-1.3-1-0.4-0.7-0.4-1.7 0-0.9 0.3-1.5 0.4-0.6 1-1 0.6-0.4 1.4-0.5 0.8-0.1 1.7 0.2 0 0.4 0 0.9 0 0.4 0 0.8-0.7-0.3-1.2-0.3-0.6 0-1 0.4-0.4 0.3-0.4 1 0 0.6 0.4 1 0.4 0.3 0.9 0.3 0.6 0 1.3-0.3 0 0.5 0 0.9 0 0.4 0 0.8-0.4 0.2-0.8 0.2-0.4 0.1-0.8 0 0 0.1 0 0.2 0 0.1 0 0.2 0.5 0.1 0.8 0.3 0.3 0.3 0.3 0.8 0 0.5-0.4 0.8-0.3 0.3-0.9 0.3-0.7 0.1-1.5-0.1zm8.1-2.6q0 0 0-0.1 0-0.1 0-0.2-0.2 0.2-0.6 0.4-0.3 0.1-0.7 0.1-0.6 0-1.1-0.2-0.5-0.2-0.9-0.6-0.3-0.4-0.6-1-0.2-0.5-0.2-1.2 0-0.7 0.3-1.2 0.2-0.6 0.6-1 0.3-0.4 0.8-0.6 0.5-0.2 1.1-0.2 0.4 0 0.7 0.1 0.4 0.2 0.7 0.4 0-0.1 0-0.2 0-0.1 0-0.1 0.4 0 0.9 0 0.4 0 0.9 0 0 1.4 0 2.8 0 1.4-0.1 2.9-0.4 0-0.9-0.1-0.4 0-0.9 0zm-1.1-1.4q0.5 0 0.9-0.4 0.3-0.4 0.3-1 0-0.6-0.3-1-0.3-0.4-0.9-0.4-0.5 0-0.8 0.4-0.3 0.4-0.3 1 0 0.6 0.3 1 0.3 0.4 0.8 0.4zm1.3-6.8q0.2 0 0.5 0 0.2 0 0.5 0 0 0.5-0.1 0.8-0.1 0.4-0.2 0.6-0.2 0.2-0.4 0.3-0.2 0.1-0.5 0.1-0.4 0-0.6-0.1-0.2-0.1-0.4-0.2-0.2-0.2-0.4-0.2-0.1 0-0.2 0.2-0.1 0.1-0.1 0.3-0.3 0-0.5 0-0.3 0-0.5 0 0-0.5 0.1-0.8 0.1-0.4 0.2-0.6 0.2-0.2 0.4-0.3 0.2-0.2 0.5-0.2 0.3 0 0.6 0.2 0.2 0.1 0.4 0.2 0.1 0.2 0.3 0.2 0.2 0 0.3-0.2 0.1-0.1 0.1-0.3zm5.6 8.4q-0.7 0-1.2-0.2-0.6-0.2-1-0.6-0.4-0.4-0.6-1-0.2-0.5-0.2-1.2 0-0.6 0.2-1.2 0.2-0.5 0.6-0.9 0.4-0.5 1-0.7 0.5-0.2 1.2-0.2 0.6 0 1.2 0.2 0.5 0.3 0.9 0.7 0.4 0.4 0.6 0.9 0.3 0.6 0.3 1.2 0 0.7-0.3 1.2-0.2 0.6-0.6 1-0.4 0.4-1 0.6-0.5 0.2-1.1 0.2zm0-1.6q0.5 0 0.8-0.4 0.4-0.4 0.4-1 0-0.6-0.4-1-0.3-0.4-0.8-0.4-0.6 0-0.9 0.4-0.3 0.4-0.3 1 0 0.6 0.3 1 0.3 0.4 0.9 0.4zm10 1.5q0-0.1 0-0.2 0-0.1 0-0.1-0.3 0.2-0.7 0.3-0.3 0.2-0.7 0.2-0.6-0.1-1.1-0.3-0.5-0.2-0.8-0.6-0.4-0.4-0.6-1-0.2-0.5-0.2-1.2 0-0.6 0.2-1.2 0.2-0.5 0.6-0.9 0.4-0.4 0.9-0.6 0.5-0.2 1-0.2 0.4 0 0.8 0.1 0.3 0.1 0.6 0.3 0-0.6 0-1.3 0-0.7 0-1.3 0.4 0 0.9 0 0.5 0 0.9 0 0 2 0 4 0 2 0 4-0.5 0-0.9 0-0.5 0-0.9 0zm-1.2-1.5q0.6 0 0.9-0.3 0.3-0.4 0.3-1 0-0.7-0.3-1-0.3-0.4-0.8-0.4-0.6 0-0.9 0.3-0.3 0.4-0.3 1 0 0.7 0.3 1.1 0.3 0.3 0.8 0.3zm9.1 1.3q-0.7 0.3-1.5 0.4-0.7 0-1.4-0.1-0.7-0.2-1.2-0.6-0.5-0.4-0.8-1-0.3-0.6-0.3-1.3 0-0.7 0.3-1.2 0.2-0.6 0.6-1 0.4-0.4 0.9-0.6 0.6-0.2 1.2-0.2 0.6 0 1 0.2 0.5 0.1 0.8 0.5 0.4 0.3 0.6 0.8 0.2 0.4 0.2 1 0.1 0.5 0 1.2-0.9 0-1.9-0.1-0.9 0-1.8 0 0.2 0.5 0.7 0.6 0.5 0.2 1.2 0.2 0.7-0.1 1.4-0.4 0 0.4 0 0.8 0 0.4 0 0.8zm-2.3-4q-0.3 0-0.6 0.2-0.2 0.1-0.4 0.5 0.5 0 1 0 0.5 0 1 0-0.1-0.4-0.4-0.5-0.2-0.2-0.6-0.2zm10.9 4q-0.8 0.3-1.5 0.4-0.8 0.1-1.4-0.1-0.7-0.2-1.2-0.5-0.5-0.4-0.8-1-0.3-0.6-0.3-1.4 0-0.7 0.2-1.2 0.2-0.5 0.6-0.9 0.4-0.5 1-0.7 0.5-0.2 1.1-0.2 0.6 0 1.1 0.2 0.4 0.2 0.8 0.5 0.3 0.3 0.5 0.8 0.2 0.5 0.3 1 0 0.6-0.1 1.2-0.9 0-1.8 0-0.9 0-1.8 0 0.2 0.4 0.7 0.6 0.5 0.1 1.1 0.1 0.7-0.1 1.5-0.4 0 0.4 0 0.8 0 0.4 0 0.8zm-2.3-4q-0.3 0-0.6 0.2-0.3 0.2-0.4 0.5 0.5 0 1 0 0.5 0 1 0-0.2-0.3-0.4-0.5-0.3-0.2-0.6-0.2zm3.7 4.3q0-2 0-4 0-2.1 0-4.1 0.5 0 0.9 0 0.5 0 0.9 0 0 2 0 4.1 0 2 0 4-0.4 0-0.9 0-0.5 0-0.9 0zm8-0.3q-0.8 0.3-1.5 0.4-0.8 0.1-1.5-0.1-0.6-0.1-1.1-0.5-0.6-0.4-0.8-1-0.3-0.6-0.3-1.4 0-0.6 0.2-1.2 0.2-0.5 0.6-0.9 0.4-0.4 0.9-0.6 0.6-0.3 1.2-0.3 0.6 0 1.1 0.2 0.4 0.2 0.8 0.5 0.3 0.4 0.5 0.8 0.2 0.5 0.3 1.1 0 0.5-0.1 1.1-0.9 0-1.8 0-0.9 0-1.8 0 0.2 0.4 0.7 0.6 0.4 0.2 1.1 0.1 0.7 0 1.5-0.3 0 0.4 0 0.7 0 0.4 0 0.8zm-2.3-3.9q-0.3 0-0.6 0.1-0.3 0.2-0.4 0.6 0.5 0 1 0 0.5 0 1 0-0.2-0.4-0.4-0.6-0.3-0.1-0.6-0.1zm4.2 4.2q0-1 0-2 0-1.1 0-2.1-0.3 0-0.5 0-0.2 0-0.4 0 0-0.4 0-0.8 0-0.4 0-0.8 0.2 0 0.4 0 0.3 0 0.5 0 0-0.4 0-0.7 0-0.4 0-0.8 0.4 0 0.9 0 0.5 0 0.9 0 0 0.4 0 0.8 0 0.3 0 0.7 0.2 0 0.5 0 0.3 0 0.5 0 0 0.4 0 0.8 0 0.4 0 0.9-0.2 0-0.5 0-0.3 0-0.5-0.1 0 1.1 0 2.1 0 1 0 2-0.5 0-0.9 0-0.5 0-0.9 0zm3.7 0q0-1.4 0-2.8 0-1.5 0-2.9 0.4 0 0.9 0 0.5 0 0.9 0 0 0.1 0 0.2 0 0.1 0 0.1 0.4-0.2 0.8-0.3 0.4-0.1 0.9-0.1 0 0.5 0 0.9 0 0.5 0 0.9-0.9-0.1-1.3 0.2-0.4 0.2-0.4 0.8 0 0.8 0 1.5 0 0.8 0 1.5-0.4 0-0.9 0-0.5 0-0.9 0zm5.3-6.3q-0.3 0-0.6-0.2-0.2-0.1-0.4-0.4-0.1-0.2-0.1-0.5 0-0.3 0.1-0.6 0.2-0.2 0.4-0.4 0.3-0.1 0.6-0.1 0.3 0 0.6 0.1 0.2 0.2 0.4 0.4 0.1 0.3 0.1 0.6 0 0.3-0.1 0.5-0.2 0.3-0.4 0.4-0.3 0.2-0.6 0.2zm-0.9 6.3q0-1.4 0-2.8 0-1.4 0-2.9 0.4 0 0.9 0 0.5 0 0.9 0.1 0 1.4 0 2.8 0 1.4 0 2.8-0.5 0-0.9 0-0.5 0-0.9 0zm2.8-2.8q0-0.8 0.3-1.5 0.3-0.6 0.9-1 0.7-0.4 1.5-0.4 0.8-0.1 1.7 0.1 0 0.5 0 0.9 0 0.4 0 0.8-0.7-0.3-1.3-0.2-0.5 0-0.9 0.3-0.4 0.3-0.4 1 0 0.7 0.4 1 0.4 0.3 0.9 0.4 0.6 0 1.3-0.3 0 0.4 0 0.8 0 0.5 0 0.9-1 0.2-1.8 0.1-0.8 0-1.4-0.4-0.6-0.4-0.9-1-0.3-0.7-0.3-1.5zm6.5-3.5q-0.3 0-0.6-0.1-0.3-0.2-0.4-0.4-0.2-0.3-0.2-0.6 0-0.3 0.2-0.5 0.1-0.3 0.4-0.5 0.3-0.1 0.6-0.1 0.3 0 0.5 0.2 0.3 0.1 0.5 0.4 0.1 0.2 0.1 0.5 0 0.3-0.1 0.6-0.2 0.2-0.5 0.4-0.2 0.1-0.5 0.1zm-1 6.4q0-1.4 0-2.9 0.1-1.4 0.1-2.8 0.4 0 0.9 0 0.4 0 0.9 0 0 1.4 0 2.8 0 1.5 0 2.9-0.5 0-0.9 0-0.5 0-1 0zm6.9 0q0-0.1 0-0.2 0-0.1 0-0.1-0.3 0.2-0.6 0.3-0.4 0.1-0.8 0.1-0.5 0-1-0.2-0.5-0.2-0.9-0.6-0.4-0.4-0.6-1-0.2-0.5-0.2-1.2 0-0.6 0.2-1.2 0.3-0.5 0.6-0.9 0.4-0.4 0.9-0.6 0.5-0.3 1.1-0.3 0.4 0 0.7 0.2 0.4 0.1 0.6 0.3 0-0.6 0-1.3 0-0.7 0-1.3 0.5 0 1 0 0.4 0 0.9 0 0 2-0.1 4 0 2 0 4-0.4 0-0.9 0-0.4 0-0.9 0zm-1.1-1.5q0.5 0 0.8-0.4 0.4-0.3 0.4-1 0-0.6-0.3-1-0.4-0.4-0.9-0.4-0.5 0-0.9 0.4-0.3 0.4-0.3 1 0 0.7 0.3 1.1 0.4 0.3 0.9 0.3zm8 1.5q0-0.1 0-0.2 0 0 0-0.1-0.3 0.2-0.6 0.3-0.4 0.2-0.8 0.2-0.5 0-1-0.3-0.5-0.2-0.9-0.6-0.4-0.4-0.6-0.9-0.2-0.6-0.2-1.3 0-0.6 0.2-1.2 0.2-0.5 0.6-0.9 0.4-0.4 0.9-0.6 0.5-0.2 1-0.2 0.4 0 0.8 0.1 0.3 0.1 0.6 0.3 0 0 0-0.1 0-0.1 0-0.2 0.5 0 0.9 0 0.5 0 0.9 0 0 1.4 0 2.9 0 1.4 0 2.8-0.4 0-0.9 0-0.5 0-0.9 0zm-1.1-1.4q0.5 0 0.8-0.4 0.3-0.4 0.3-1 0-0.7-0.3-1-0.3-0.4-0.8-0.4-0.6 0-0.9 0.3-0.3 0.4-0.3 1.1 0 0.6 0.3 1 0.3 0.4 0.9 0.4zm7.9 1.4q0-0.1 0-0.1 0-0.1 0-0.2-0.3 0.2-0.6 0.4-0.4 0.1-0.8 0.1-0.5 0-1-0.2-0.5-0.3-0.9-0.7-0.4-0.4-0.6-0.9-0.2-0.6-0.2-1.2 0-0.7 0.2-1.2 0.3-0.6 0.6-1 0.4-0.4 0.9-0.6 0.5-0.2 1.1-0.2 0.4 0 0.7 0.1 0.4 0.1 0.6 0.4 0-0.7 0-1.4 0-0.6 0-1.3 0.5 0 1 0 0.4 0 0.9 0-0.1 2-0.1 4 0 2.1 0 4-0.4 0-0.9 0-0.4 0-0.9 0zm-1.1-1.4q0.5 0 0.8-0.4 0.4-0.4 0.4-1 0-0.6-0.4-1-0.3-0.4-0.8-0.4-0.5 0-0.9 0.4-0.3 0.3-0.3 1 0 0.6 0.3 1 0.4 0.4 0.9 0.4zm9.1 1.2q-0.8 0.3-1.5 0.4-0.8 0.1-1.4-0.1-0.7-0.2-1.2-0.5-0.5-0.4-0.8-1-0.3-0.6-0.3-1.4 0-0.7 0.2-1.2 0.2-0.5 0.6-0.9 0.4-0.5 1-0.7 0.5-0.2 1.1-0.2 0.6 0 1.1 0.2 0.4 0.2 0.8 0.5 0.3 0.3 0.5 0.8 0.2 0.5 0.3 1 0 0.6-0.1 1.2-0.9 0-1.8 0-0.9 0-1.8 0 0.2 0.4 0.7 0.6 0.5 0.1 1.1 0.1 0.7-0.1 1.5-0.4 0 0.4 0 0.8 0 0.4 0 0.8zm-2.3-4q-0.3 0-0.6 0.2-0.3 0.2-0.4 0.5 0.5 0 1 0 0.5 0 1 0-0.2-0.3-0.4-0.5-0.3-0.2-0.6-0.2z"/>
	</g>
	<path id="Layer" fill-rule="evenodd" class="s7" d="m84.8 114.3l-0.1 0.1 0.1 0.1q0.2 0.7 0.3 1.4c0.2 2.2 0.3 3.5-2.9 4.5h-2.1c-3.1-1.1-3-2.3-2.8-4.6q0.1-0.7 0.3-1.3l0.1-0.2-0.2-0.1c-1.5-1.2-2.5-3.2-2.5-5.3 0-3.6 2.8-6.6 6.2-6.6 3.4 0.1 6.2 3 6.2 6.7 0 2-1 4-2.6 5.3zm-6.6-3.8c0-0.5-0.6-0.9-1.1-0.6-0.4 0.3-0.1 1.2 0.3 1.4 0.5 0.3 0.8-0.3 0.8-0.8zm0.9 7.6c0-0.3-0.4-0.5-0.6-0.5-0.4 0.1-0.5 0.6-0.2 0.8 0.3 0.2 0.8 0 0.8-0.3zm4.8-0.5c-0.3 0-0.6 0.2-0.7 0.5 0 0.3 0.6 0.5 0.9 0.3 0.3-0.2 0.1-0.7-0.2-0.8zm1.1-6.3c0.5-0.1 0.7-1 0.3-1.3-0.5-0.4-1 0-1.1 0.6 0 0.4 0.3 1 0.8 0.7z"/>
	<path id="Layer" class="s7" d="m76.7 104.1c0 0 1.6-2 3.8-2-6.4 0-5.8-7.1-5.8-7.1-2.7 7.2 2 9.1 2 9.1z"/>
	<path id="Layer" class="s7" d="m85.7 104.2c0 0 4.7-1.9 2.1-9.1 0 0 0.5 7-5.9 7 2.2 0 3.8 2.1 3.8 2.1z"/>
	<path id="Layer" class="s7" d="m75.7 105.6c0 0-0.4 0.1-1 0-0.1 0-0.3 0-0.4 0q-0.3-0.1-0.5-0.2-0.3-0.1-0.5-0.1c-0.2-0.1-0.4-0.1-0.5-0.1q-0.3-0.1-0.6 0-0.2 0-0.5 0-0.2 0.1-0.4 0.2-0.2 0.1-0.4 0.2-0.4 0.2-0.6 0.4-0.1 0.2-0.2 0.2 0 0 0.2-0.2c0.1-0.1 0.3-0.3 0.5-0.5 0.2-0.1 0.5-0.3 0.9-0.4q0.2-0.1 0.5-0.2c0.2 0 0.4 0 0.6 0 0.2 0 0.4 0.1 0.5 0.2q0.3 0.1 0.6 0.2 0.2 0 0.4 0.1 0.2 0.1 0.4 0.1 0.5 0.1 0.7 0.1c0.2 0 0.3 0 0.3 0 0.1-0.3 0.2-0.5 0.3-0.5-0.6 0-1.1 0-1.7-0.1-0.7-0.3-1.6-0.9-2.4-0.7-0.4 0.1-0.9 0.3-1.2 0.6-0.1 0.1-0.2 0.3-0.3 0.4-0.3 0.3-0.5 0.7-0.9 0.9 0.5 0.7 1.1 1.4 1.8 1.7 0.7 0.5 1.6 0.3 2.3-0.1 0.6-0.3 1.1-0.7 1.5-1.3 0.1-0.1 0.3-0.5 0.6-0.9z"/>
	<path id="Layer" fill-rule="evenodd" class="s7" d="m92.9 106.3c-0.5 0.7-1.1 1.3-1.8 1.7-0.7 0.4-1.6 0.3-2.3-0.1-0.6-0.4-1.1-0.7-1.5-1.3-0.2-0.2-0.7-1.4-0.9-1.4 0.6-0.1 1.2-0.1 1.7-0.2 0.8-0.2 1.6-0.8 2.4-0.7 0.5 0.1 0.9 0.4 1.2 0.7 0.1 0.1 0.2 0.2 0.3 0.4 0.3 0.3 0.5 0.7 0.9 0.9zm-0.5 0q0 0-0.2-0.2c-0.1-0.1-0.2-0.3-0.5-0.5-0.2-0.2-0.5-0.4-0.8-0.5q-0.3-0.1-0.6-0.1c-0.1 0-0.3 0-0.5 0-0.2 0-0.4 0.1-0.6 0.1q-0.2 0.1-0.5 0.2-0.2 0.1-0.5 0.2-0.2 0-0.4 0.1-0.4 0-0.6 0c-0.2 0-0.3 0-0.3 0 0 0 0.4 0.1 0.9 0.1 0.2 0 0.3 0 0.5-0.1q0.2 0 0.5-0.1 0.2-0.1 0.5-0.2c0.1 0 0.3-0.1 0.5-0.1q0.3 0 0.5 0 0.3 0 0.5 0.1c0.2 0.1 0.3 0.1 0.5 0.2q0.2 0.1 0.4 0.2 0.3 0.2 0.5 0.4 0.2 0.2 0.2 0.2z"/>
	<path id="Layer" fill-rule="evenodd" class="s8" d="m60.9 125.7v6.4h-0.6v-6.4c0.1-8.7 7.2-8.5 10-9.4-0.6 0.7 0.1 9.1-9.4 9.4zm5.3-6.3c0.8-0.6 1.3-0.9 1.3-0.9 0 0-0.6 0-1.5 0.4-0.2 0.1-0.5 0.2-0.8 0.3q-0.3 0.2-0.7 0.5-0.4 0.2-0.8 0.5-0.4 0.3-0.8 0.7c-0.2 0.2-0.5 0.4-0.7 0.7-0.2 0.3-0.4 0.5-0.6 0.8q-0.2 0.4-0.4 0.8c-0.1 0.3-0.3 0.6-0.3 0.8q-0.1 0.4-0.2 0.7c0 0.2 0 0.4-0.1 0.6q0 0.3 0 0.4 0.1-0.1 0.2-0.4 0.1-0.2 0.2-0.5 0.2-0.2 0.3-0.5c0.1-0.3 0.3-0.5 0.4-0.7 0.2-0.2 0.4-0.5 0.5-0.7 0.2-0.3 0.4-0.5 0.6-0.7 0.2-0.2 0.5-0.5 0.7-0.7q0.3-0.3 0.7-0.6c0.2-0.2 0.4-0.4 0.7-0.6q0.3-0.3 0.7-0.5c0.2-0.2 0.4-0.3 0.6-0.4z"/>
	<path id="Layer" class="s9" d="m53 134.6c0-6.2 5.7-8.1 7.6-2.5 2.3-3.5 4.3 0 4.3 0 0-1.6 5.9-5.7 5.9 2.5z"/>
	<path id="Layer" class="s8" d="m53.2 118.6c1.4 0.2 5.4 0.2 6.5 7.1-4.5 0.3-6.5-7.1-6.5-7.1z"/>
	<path id="Layer" class="s8" d="m60 119.7q0-0.3-0.1-0.6c0-0.3-0.1-0.5-0.2-0.8 0-0.2-0.1-0.4-0.1-0.7-0.1-0.2-0.1-0.5-0.2-0.7q-0.1-0.4-0.2-0.8-0.1-0.2-0.1-0.4-0.1-0.1-0.2-0.3-0.1-0.3-0.2-0.6-0.2-0.3-0.3-0.6-0.1-0.3-0.3-0.4-0.1-0.3-0.2-0.4-0.1-0.1-0.2-0.2 0-0.1 0-0.1c0 0 0.1 0.1 0.3 0.2q0.1 0.1 0.3 0.3 0.2 0.1 0.4 0.4 0.2 0.2 0.4 0.5 0.1 0.3 0.3 0.7c0.1 0.2 0.3 0.4 0.3 0.7q0.2 0.4 0.3 0.8 0.1 0.4 0.2 0.8 0 0.4 0.1 0.7 0.1 0.4 0.1 0.8 0 0.3 0 0.6 0 0.4-0.1 0.8c2.8-6.6-2.2-8.5-3.7-9.4 0 0-2 7.5 3.6 9.4q-0.1-0.3-0.2-0.7z"/>
	<g id="Layer">
		<path id="Layer" fill-rule="evenodd" class="s2" d="m71 130q0.7-2.3 1.5-4.8 0.7-2.4 1.5-4.7 0.8 0 1.6 0 0.9 0 1.7 0 0.7 2.4 1.5 4.8 0.7 2.4 1.4 4.7-0.6 0-1.2 0-0.6 0-1.3 0-0.1-0.4-0.2-0.9-0.1-0.4-0.3-0.9-0.8 0-1.6 0-0.8 0-1.6 0-0.1 0.5-0.3 0.9-0.1 0.5-0.2 0.9-0.6 0-1.3 0-0.6 0-1.2 0zm3.6-3.9q0.5 0 1 0 0.5 0 1 0-0.2-0.8-0.5-1.6-0.2-0.9-0.5-1.7-0.2 0.8-0.5 1.7-0.2 0.8-0.5 1.6zm13.2 2.8q0 1.2-0.5 2-0.5 0.8-1.4 1.2-0.9 0.4-2 0.4-1.2 0-2.4-0.4 0-0.5 0-1.1 0-0.5 0-1.1 1.1 0.5 2 0.5 0.9 0 1.4-0.4 0.5-0.3 0.5-1 0.1 0 0.1-0.1 0-0.1 0-0.1-0.4 0.3-0.9 0.4-0.4 0.2-1 0.2-0.8 0-1.5-0.5-0.7-0.4-1.1-1.1-0.4-0.7-0.4-1.7 0-0.8 0.3-1.4 0.2-0.6 0.7-1.1 0.4-0.5 1-0.7 0.6-0.2 1.2-0.2 0.5 0 0.9 0.1 0.5 0.1 0.8 0.4 0-0.1 0-0.2 0-0.1 0-0.2 0.6 0 1.2 0 0.6 0 1.1 0 0 1.5 0 3.1 0 1.5 0 3zm-3.6-1.5q0.6 0 1-0.4 0.3-0.4 0.3-1 0-0.6-0.3-0.9-0.4-0.4-1-0.4-0.6 0-0.9 0.3-0.4 0.4-0.4 1 0 0.6 0.3 1 0.4 0.4 1 0.4zm5.1 2.7q0-1.8 0-3.6 0-1.9 0-3.7 0.6 0 1.2 0 0.6 0 1.2 0 0 0.1 0 0.2 0 0.1 0 0.2 0.4-0.3 0.9-0.4 0.6-0.2 1.2-0.1 0 0.5 0 1.1 0 0.6 0 1.2-1.1-0.2-1.6 0.1-0.6 0.4-0.6 1.2 0 0.9 0 1.9 0 0.9 0 1.9-0.5 0-1.1 0-0.6 0-1.2 0zm8.9 0.2q-0.8 0-1.5-0.3-0.7-0.3-1.2-0.8-0.5-0.5-0.8-1.2-0.3-0.7-0.3-1.5 0-0.9 0.3-1.6 0.3-0.7 0.8-1.2 0.5-0.5 1.2-0.8 0.7-0.3 1.5-0.3 0.9 0 1.5 0.3 0.7 0.3 1.3 0.8 0.5 0.6 0.8 1.3 0.2 0.7 0.2 1.5 0 0.8-0.3 1.5-0.2 0.7-0.8 1.2-0.5 0.6-1.2 0.8-0.7 0.3-1.5 0.3zm0-2.1q0.7 0 1.1-0.4 0.4-0.6 0.4-1.3 0-0.8-0.4-1.3-0.4-0.5-1.1-0.5-0.7 0-1.1 0.5-0.4 0.5-0.4 1.3 0 0.7 0.4 1.2 0.4 0.5 1.1 0.5zm7.3 4.2q-0.6 0-1.2 0-0.6 0-1.1 0 0-2.4 0-4.8 0-2.4 0-4.7 0.6 0 1.2 0 0.5 0 1.1 0 0 0.1 0 0.2 0 0.1 0 0.2 0.4-0.3 0.8-0.4 0.5-0.2 1-0.2 0.7 0 1.3 0.3 0.6 0.2 1.1 0.8 0.5 0.5 0.7 1.2 0.3 0.7 0.3 1.5 0 0.9-0.3 1.6-0.2 0.7-0.7 1.2-0.5 0.5-1.1 0.8-0.7 0.2-1.4 0.2-0.5 0-0.9-0.1-0.5-0.2-0.8-0.5 0 0.7 0 1.3 0 0.7 0 1.4zm1.4-4.1q0.7 0 1.1-0.5 0.4-0.5 0.4-1.3 0-0.8-0.4-1.3-0.4-0.5-1.1-0.5-0.6 0-1.1 0.5-0.4 0.5-0.4 1.3 0 0.8 0.4 1.3 0.4 0.5 1.1 0.5zm11.2 1.5q-1 0.4-1.9 0.5-1 0.1-1.8-0.1-0.9-0.2-1.5-0.7-0.7-0.5-1.1-1.2-0.3-0.8-0.3-1.8 0-0.8 0.2-1.5 0.3-0.7 0.8-1.2 0.5-0.5 1.2-0.8 0.7-0.3 1.5-0.3 0.8 0 1.3 0.2 0.6 0.3 1.1 0.7 0.4 0.4 0.7 1 0.2 0.6 0.3 1.3 0.1 0.7-0.1 1.5-1.2 0-2.3 0-1.2 0-2.3 0 0.2 0.5 0.9 0.7 0.6 0.3 1.4 0.2 0.9-0.1 1.9-0.5 0 0.5 0 1 0 0.5 0 1zm-2.9-5q-0.4 0-0.8 0.2-0.3 0.2-0.5 0.7 0.6 0 1.2 0 0.7 0 1.3 0-0.1-0.5-0.5-0.7-0.3-0.2-0.7-0.2zm4.2 1.7q0-1 0.5-1.8 0.4-0.8 1.2-1.3 0.7-0.5 1.8-0.6 1-0.1 2.1 0.3 0 0.5 0 1 0 0.6 0 1.1-0.8-0.4-1.5-0.4-0.8 0.1-1.2 0.5-0.5 0.4-0.5 1.3 0 0.8 0.5 1.2 0.4 0.5 1.2 0.5 0.7 0 1.5-0.4 0 0.6 0 1.1 0 0.6 0 1.1-1.1 0.3-2.2 0.2-1-0.1-1.8-0.6-0.7-0.5-1.2-1.3-0.4-0.8-0.4-1.9zm13.8-3.5q0 1.8 0 3.6 0 1.8 0 3.6-0.5 0-1.1 0-0.6 0-1.2 0 0-0.1 0-0.2 0-0.1 0-0.1-0.4 0.2-0.8 0.4-0.5 0.1-1.1 0.1-0.8 0-1.4-0.4-0.6-0.3-0.9-1-0.4-0.7-0.3-1.6 0-1.1 0-2.2 0-1.1 0-2.2 0.5 0 1.1 0 0.6 0 1.2 0 0 1 0 2 0 1 0 2.1 0 0.5 0.2 0.9 0.3 0.3 0.8 0.3 0.6 0 0.9-0.3 0.3-0.3 0.3-0.9 0-1 0-2.1 0-1 0-2 0.6 0 1.2 0 0.6 0 1.1 0zm6.4 7.2q0-0.1 0-0.2 0-0.1 0-0.2-0.4 0.3-0.8 0.5-0.5 0.1-1 0.1-0.7 0-1.3-0.2-0.6-0.3-1.1-0.8-0.5-0.5-0.8-1.2-0.2-0.7-0.2-1.6 0-0.9 0.2-1.6 0.3-0.7 0.8-1.2 0.5-0.5 1.1-0.7 0.7-0.3 1.4-0.3 0.5 0 0.9 0.2 0.5 0.1 0.8 0.4 0-0.1 0-0.2 0-0.1 0-0.2 0.6 0 1.2 0 0.6 0 1.1 0 0 1.8 0 3.6 0 1.9 0 3.7-0.6 0-1.2 0-0.5-0.1-1.1-0.1zm-1.4-1.8q0.6 0 1-0.5 0.4-0.5 0.5-1.3 0-0.8-0.5-1.3-0.4-0.4-1-0.4-0.7-0.1-1.1 0.4-0.4 0.5-0.4 1.3 0 0.8 0.4 1.3 0.4 0.5 1.1 0.5zm-0.9-6.4q0.4-0.6 0.7-1.2 0.4-0.6 0.7-1.1 0.7 0 1.3 0 0.6 0 1.2 0-0.4 0.6-0.9 1.2-0.4 0.5-0.8 1.1-0.5 0-1.1 0-0.5 0-1.1 0zm6.1 8.3q0-1.8 0-3.7 0.1-1.8 0.1-3.6 0.5 0 1.1 0 0.6 0 1.2 0 0 0.1 0 0.2 0 0.1 0 0.2 0.4-0.3 1-0.4 0.5-0.2 1.1-0.1 0 0.5 0 1.1 0 0.6 0 1.2-1.1-0.2-1.6 0.1-0.5 0.4-0.5 1.1 0 1 0 2-0.1 0.9-0.1 1.9-0.5 0-1.1 0-0.6 0-1.2 0zm6.8-8.1q-0.4 0-0.7-0.2-0.3-0.2-0.5-0.5-0.2-0.3-0.2-0.7 0-0.4 0.2-0.7 0.2-0.3 0.5-0.5 0.3-0.2 0.7-0.2 0.4 0 0.7 0.2 0.4 0.2 0.6 0.5 0.2 0.3 0.2 0.7 0 0.4-0.2 0.7-0.2 0.3-0.6 0.5-0.3 0.2-0.7 0.2zm-1.2 8.1q0-1.8 0-3.6 0-1.9 0.1-3.7 0.5 0 1.1 0 0.6 0 1.2 0.1 0 1.7 0 3.6-0.1 1.8-0.1 3.6-0.5 0-1.1 0-0.6 0-1.2 0zm8.8 0q0-0.1 0-0.2 0-0.1 0-0.2-0.4 0.3-0.8 0.4-0.5 0.2-1 0.2-0.7 0-1.3-0.3-0.6-0.3-1.1-0.8-0.5-0.5-0.8-1.2-0.2-0.7-0.2-1.5 0-0.9 0.2-1.6 0.3-0.7 0.8-1.2 0.5-0.5 1.1-0.8 0.7-0.2 1.4-0.2 0.5 0 0.9 0.1 0.5 0.2 0.8 0.5 0-0.1 0-0.2 0-0.1 0-0.2 0.6 0 1.2 0 0.6 0 1.1 0 0 1.8 0 3.6 0 1.8 0 3.6-0.6 0-1.2 0-0.5 0-1.1 0zm-1.4-1.8q0.6 0 1-0.5 0.4-0.5 0.4-1.3 0.1-0.8-0.4-1.3-0.4-0.5-1-0.5-0.7 0-1.1 0.5-0.4 0.5-0.4 1.3 0 0.8 0.4 1.3 0.4 0.5 1.1 0.5z"/>
	</g>
	<g id="Layer">
		<path id="Layer" fill-rule="evenodd" class="s2" d="m67 167q0-2.3 0-4.8 0-2.4 0-4.7 0.6 0 1.3 0 0.6 0 1.2 0 0 2.3 0 4.8-0.1 2.4-0.1 4.7-0.6 0-1.2 0-0.6 0-1.2 0zm4.2 0q0-1.8 0-3.6 0-1.8 0-3.6 0.6 0 1.2 0 0.6 0 1.1 0 0 0.1 0 0.2 0 0.1 0 0.2 0.4-0.3 0.9-0.4 0.4-0.2 1-0.2 0.8 0 1.4 0.4 0.6 0.3 0.9 1 0.4 0.7 0.4 1.6 0 1.1 0 2.2 0 1.2 0 2.2-0.6 0-1.2 0-0.6 0-1.1 0 0-1 0-2 0-1 0-2.1 0-0.5-0.3-0.8-0.2-0.4-0.8-0.4-0.6 0-0.9 0.3-0.3 0.3-0.3 0.9 0 1 0 2.1 0 1 0 2-0.6 0-1.1 0-0.6 0-1.2 0zm13.1 0.1q0-0.1 0-0.2 0-0.2 0-0.3-0.3 0.3-0.8 0.5-0.4 0.2-0.9 0.2-0.7 0-1.4-0.3-0.6-0.3-1.1-0.8-0.5-0.5-0.7-1.2-0.3-0.7-0.3-1.6 0-0.8 0.3-1.5 0.3-0.7 0.7-1.2 0.5-0.5 1.2-0.8 0.6-0.3 1.3-0.3 0.5 0 0.9 0.2 0.5 0.2 0.8 0.4 0-0.8 0.1-1.7 0-0.8 0-1.7 0.5 0 1.1 0 0.6 0.1 1.2 0.1 0 2.5-0.1 5.1 0 2.5 0 5.1-0.5 0-1.1 0-0.6 0-1.2 0zm-1.4-1.9q0.7 0 1.1-0.5 0.4-0.5 0.4-1.3 0-0.8-0.4-1.2-0.4-0.5-1.1-0.5-0.7 0-1.1 0.4-0.4 0.5-0.4 1.3 0 0.8 0.4 1.3 0.4 0.5 1.1 0.5zm12.1-5.3q0 1.8 0 3.6 0 1.8 0 3.6-0.6 0-1.1 0-0.6 0-1.2 0 0-0.1 0-0.2 0-0.1 0-0.2-0.4 0.3-0.9 0.4-0.4 0.2-1 0.2-0.8 0-1.4-0.4-0.6-0.4-0.9-1-0.4-0.7-0.4-1.7 0-1.1 0-2.2 0.1-1.1 0.1-2.2 0.5 0 1.1 0 0.6 0 1.2 0 0 1.1 0 2.1 0 1-0.1 2 0 0.6 0.3 0.9 0.3 0.4 0.8 0.4 0.6 0 0.9-0.3 0.3-0.4 0.3-1 0-1 0-2 0-1 0-2 0.6 0 1.2 0 0.6 0 1.1 0zm-4.6-0.9q0.4-0.6 0.7-1.2 0.4-0.6 0.7-1.2 0.6 0 1.3 0 0.6 0 1.2 0-0.5 0.6-0.9 1.2-0.4 0.6-0.8 1.2-0.6 0-1.1 0-0.5 0-1.1 0zm11.7 5.9q0 0.9-0.5 1.4-0.5 0.6-1.3 0.8-0.8 0.3-1.8 0.2-1 0-2.1-0.3 0-0.5 0-1.1 0-0.6 0-1.1 0.6 0.3 1.2 0.4 0.6 0.2 1.1 0.2 0.5 0 0.8-0.1 0.3-0.1 0.3-0.3 0-0.2-0.3-0.3-0.2-0.2-0.6-0.2-0.4-0.1-0.9-0.3-0.4-0.1-0.8-0.4-0.4-0.2-0.6-0.6-0.3-0.4-0.3-1.1 0-0.8 0.5-1.3 0.4-0.6 1.2-0.9 0.8-0.2 1.7-0.2 1 0 2 0.3 0 0.5 0 1.1 0 0.5 0 1.1-0.8-0.4-1.5-0.5-0.7-0.2-1.1-0.1-0.4 0.1-0.4 0.4 0 0.2 0.2 0.3 0.3 0.1 0.7 0.2 0.3 0.1 0.8 0.2 0.4 0.2 0.8 0.4 0.4 0.3 0.6 0.7 0.3 0.4 0.3 1.1zm1.8 2.2q0-1.3 0-2.6 0.1-1.3 0.1-2.5-0.3 0-0.6 0-0.3 0-0.6 0 0-0.6 0-1.1 0-0.5 0-1 0.3 0 0.6 0 0.3 0 0.6 0 0-0.5 0-1 0-0.5 0-0.9 0.5 0 1.1 0 0.6 0 1.2 0 0 0.5 0 0.9 0 0.5 0 1 0.3 0 0.6 0 0.4 0 0.7 0 0 0.5 0 1 0 0.6 0 1.1-0.3 0-0.7 0-0.3 0-0.6 0 0 1.3 0 2.6 0 1.3-0.1 2.5-0.5 0-1.1 0-0.6 0-1.2 0zm4.8 0.1q0-1.8 0-3.7 0-1.8 0-3.6 0.6 0 1.2 0 0.6 0 1.1 0 0 0.1 0 0.2 0 0.1 0 0.2 0.4-0.3 1-0.4 0.5-0.2 1.2-0.1 0 0.5 0 1.1 0 0.6 0 1.1-1.1-0.1-1.7 0.2-0.5 0.4-0.5 1.1 0 1 0 1.9 0 1 0 2-0.6 0-1.2 0-0.5 0-1.1 0zm6.8-8.1q-0.4 0-0.8-0.2-0.3-0.2-0.5-0.5-0.2-0.3-0.2-0.7 0-0.4 0.2-0.7 0.2-0.3 0.5-0.5 0.4-0.2 0.8-0.2 0.4 0 0.7 0.2 0.3 0.2 0.5 0.5 0.2 0.3 0.2 0.7 0 0.4-0.2 0.7-0.2 0.3-0.5 0.5-0.3 0.2-0.7 0.2zm-1.2 8.1q0-1.8 0-3.6 0-1.9 0-3.7 0.6 0 1.2 0 0.5 0 1.1 0 0 1.8 0 3.7 0 1.8 0 3.6-0.6 0-1.2 0-0.6 0-1.1 0zm8.7 0q0-0.1 0-0.2 0-0.1 0-0.2-0.3 0.3-0.8 0.4-0.4 0.2-0.9 0.2-0.7 0-1.4-0.3-0.6-0.3-1.1-0.8-0.4-0.5-0.7-1.2-0.3-0.7-0.3-1.5 0-0.9 0.3-1.6 0.3-0.7 0.7-1.2 0.5-0.5 1.2-0.8 0.6-0.2 1.3-0.2 0.5 0 1 0.1 0.4 0.2 0.7 0.5 0.1-0.1 0.1-0.2-0.1-0.1 0-0.2 0.5 0 1.1 0 0.6 0 1.2 0 0 1.8-0.1 3.6 0 1.8 0 3.6-0.5 0-1.1 0-0.6 0-1.2 0zm-1.4-1.8q0.7 0 1.1-0.5 0.4-0.5 0.4-1.3 0-0.8-0.4-1.3-0.4-0.5-1.1-0.5-0.7 0-1.1 0.5-0.4 0.5-0.4 1.3 0 0.8 0.4 1.3 0.4 0.4 1.1 0.5z"/>
	</g>
	<g id="Layer">
		<path id="Layer" fill-rule="evenodd" class="s2" d="m70.4 200q0-1.7 0-3.4 0-1.7 0-3.4-0.5 0-1 0-0.5 0-1 0 0-0.5 0-1 0-0.5 0-1 1.6 0 3.2 0 1.5 0 3.1 0 0 0.5 0 1 0 0.5 0 1.1-0.5-0.1-1-0.1-0.5 0-1 0 0 1.7 0 3.4 0 1.7 0 3.4-0.6 0-1.2 0-0.5 0-1.1 0zm5 0q0-1.6 0-3.3 0-1.7 0-3.4 0.5 0 1.1 0 0.5 0 1 0 0 0.1 0 0.2 0 0.1 0 0.2 0.4-0.3 0.9-0.4 0.6-0.2 1.2-0.1 0 0.5 0 1-0.1 0.6-0.1 1.1-1-0.2-1.5 0.2-0.5 0.3-0.5 1 0 0.9 0 1.8 0 0.9 0 1.7-0.5 0-1.1 0-0.5 0-1 0zm9.5 0.1q0-0.1 0-0.2 0-0.1 0-0.2-0.3 0.2-0.7 0.4-0.4 0.1-0.9 0.1-0.7 0-1.2-0.2-0.6-0.3-1.1-0.7-0.4-0.5-0.7-1.2-0.2-0.6-0.2-1.4 0-0.8 0.2-1.5 0.3-0.6 0.7-1.1 0.5-0.4 1.1-0.7 0.6-0.3 1.2-0.2 0.5 0 0.9 0.1 0.4 0.2 0.7 0.4 0-0.1 0-0.2 0-0.1 0-0.2 0.6 0 1.1 0 0.6 0 1.1 0 0 1.7 0 3.4 0 1.7 0 3.4-0.6 0-1.1 0-0.5 0-1.1 0zm-1.3-1.8q0.6 0 1-0.4 0.4-0.5 0.4-1.2 0-0.7-0.4-1.2-0.4-0.4-1-0.4-0.6-0.1-1 0.4-0.4 0.4-0.4 1.2 0 0.7 0.4 1.2 0.4 0.4 1 0.4zm4.9 1.8q0-1.7 0-3.4 0-1.7 0-3.3 0.6 0 1.1 0 0.5 0 1.1 0 0 0.1 0 0.1 0 0.1 0 0.2 0.3-0.2 0.7-0.4 0.5-0.1 1-0.1 0.7 0 1.3 0.3 0.6 0.4 0.9 1 0.3 0.6 0.3 1.5 0 1 0 2.1 0 1 0 2-0.5 0-1.1 0-0.5 0-1.1 0 0-0.9 0-1.9 0-1 0-1.9 0.1-0.5-0.2-0.8-0.2-0.4-0.7-0.4-0.6 0-0.9 0.3-0.2 0.3-0.2 0.9 0 0.9-0.1 1.9 0 0.9 0 1.9-0.5 0-1 0-0.6 0-1.1 0zm12.8-2.1q0 0.8-0.4 1.4-0.5 0.5-1.2 0.7-0.8 0.2-1.7 0.2-0.9 0-1.9-0.3 0-0.5 0-1 0-0.6 0-1 0.6 0.2 1.1 0.4 0.6 0.1 1 0.1 0.4 0 0.7-0.1 0.3-0.1 0.3-0.3 0-0.2-0.2-0.3-0.3-0.1-0.6-0.2-0.4-0.1-0.8-0.2-0.4-0.1-0.8-0.3-0.3-0.3-0.6-0.6-0.2-0.4-0.2-1 0-0.8 0.4-1.3 0.5-0.5 1.2-0.8 0.7-0.2 1.6-0.2 0.9 0 1.8 0.3 0 0.5 0 1 0 0.5 0 1-0.7-0.3-1.4-0.5-0.6-0.1-1 0-0.4 0.1-0.4 0.4 0 0.1 0.2 0.2 0.2 0.1 0.6 0.2 0.4 0.1 0.8 0.2 0.4 0.2 0.7 0.4 0.4 0.2 0.6 0.6 0.2 0.4 0.2 1zm3.2 4.2q-0.5 0-1.1 0-0.5 0-1 0 0-2.2 0-4.4 0-2.2 0-4.4 0.5 0 1.1 0 0.5 0 1 0 0 0.1 0 0.2 0 0.1 0 0.2 0.4-0.3 0.8-0.4 0.4-0.2 0.9-0.2 0.6 0 1.2 0.3 0.6 0.2 1 0.7 0.5 0.5 0.7 1.1 0.3 0.7 0.3 1.5 0 0.8-0.3 1.4-0.2 0.7-0.7 1.1-0.4 0.5-1 0.8-0.6 0.2-1.3 0.2-0.4 0-0.9-0.1-0.4-0.2-0.7-0.5 0 0.7 0 1.3 0 0.6 0 1.2zm1.3-3.8q0.7 0 1.1-0.4 0.3-0.5 0.3-1.2 0-0.8-0.3-1.2-0.4-0.5-1-0.5-0.7 0-1 0.5-0.4 0.4-0.4 1.2 0 0.7 0.3 1.2 0.4 0.4 1 0.4zm7.8 2q-0.7 0-1.4-0.3-0.6-0.3-1.1-0.8-0.5-0.4-0.8-1.1-0.2-0.6-0.2-1.4 0-0.8 0.2-1.4 0.3-0.7 0.8-1.2 0.5-0.4 1.1-0.7 0.7-0.3 1.4-0.3 0.8 0 1.4 0.3 0.7 0.3 1.2 0.8 0.5 0.4 0.7 1.1 0.3 0.6 0.3 1.4 0 0.8-0.3 1.4-0.3 0.7-0.7 1.2-0.5 0.4-1.2 0.7-0.6 0.3-1.4 0.3zm0-2q0.7 0 1-0.4 0.4-0.5 0.4-1.2 0-0.7-0.4-1.2-0.3-0.4-1-0.4-0.6 0-1 0.4-0.4 0.5-0.4 1.2 0 0.7 0.4 1.2 0.4 0.4 1 0.4zm4.6 1.8q0-1.7 0-3.4 0-1.7 0.1-3.3 0.5 0 1 0 0.6 0 1.1 0 0 0.1 0 0.1 0 0.1 0 0.2 0.4-0.3 0.9-0.4 0.5-0.1 1.1-0.1 0 0.6 0 1.1 0 0.5 0 1-1-0.1-1.5 0.2-0.5 0.3-0.5 1 0 0.9 0 1.8 0 0.9 0 1.8-0.5 0-1.1 0-0.5 0-1.1 0zm5.9 0q0-1.2 0-2.4 0-1.2 0-2.4-0.3 0-0.6 0-0.2 0-0.5 0 0-0.5 0-1 0-0.4 0-0.9 0.3 0 0.6 0 0.2 0 0.5 0 0-0.5 0-0.9 0-0.5 0-0.9 0.5 0 1.1 0 0.5 0 1 0 0 0.4 0 0.9 0 0.4 0 0.9 0.3 0 0.6 0 0.4 0 0.7 0-0.1 0.5-0.1 1 0 0.4 0 0.9-0.3 0-0.6 0-0.3 0-0.6 0 0 1.2 0 2.4 0 1.2 0 2.4-0.5 0-1.1 0-0.5 0-1 0zm10.1-0.3q-0.9 0.4-1.8 0.5-0.9 0.1-1.7-0.1-0.8-0.2-1.4-0.7-0.6-0.4-0.9-1.1-0.4-0.7-0.4-1.7 0-0.7 0.3-1.4 0.3-0.6 0.7-1.1 0.5-0.5 1.1-0.7 0.7-0.3 1.4-0.3 0.7 0 1.3 0.2 0.5 0.2 0.9 0.7 0.4 0.3 0.6 0.9 0.3 0.5 0.4 1.2 0 0.6-0.1 1.4-1.1 0-2.2 0-1.1 0-2.1-0.1 0.2 0.5 0.8 0.8 0.6 0.2 1.4 0.1 0.8-0.1 1.7-0.4 0 0.4 0 0.9 0 0.5 0 0.9zm-2.7-4.7q-0.4 0-0.7 0.2-0.3 0.2-0.5 0.7 0.6 0 1.2 0 0.6 0 1.1 0-0.1-0.5-0.4-0.7-0.3-0.2-0.7-0.2zm9.4 3q0 0.8-0.4 1.3-0.5 0.5-1.2 0.7-0.8 0.3-1.7 0.2-1 0-1.9-0.3 0-0.5 0-1 0-0.5 0-1 0.5 0.2 1.1 0.4 0.5 0.1 1 0.2 0.4 0 0.7-0.1 0.3-0.1 0.3-0.3 0-0.2-0.3-0.3-0.2-0.1-0.6-0.2-0.3-0.1-0.7-0.2-0.4-0.2-0.8-0.4-0.4-0.2-0.6-0.6-0.2-0.4-0.2-1 0-0.7 0.4-1.2 0.4-0.6 1.1-0.8 0.8-0.3 1.6-0.3 0.9 0 1.9 0.3 0 0.5 0 1 0 0.6-0.1 1.1-0.7-0.4-1.3-0.5-0.7-0.1-1 0-0.4 0-0.4 0.3 0 0.2 0.2 0.3 0.2 0.1 0.6 0.2 0.3 0 0.7 0.2 0.5 0.1 0.8 0.3 0.4 0.3 0.6 0.7 0.2 0.4 0.2 1z"/>
	</g>
	<g id="Layer">
		<path id="Layer" fill-rule="evenodd" class="s2" d="m73.5 240.2q0-1 0.3-1.9 0.4-0.9 1-1.6 0.6-0.6 1.5-1 0.9-0.3 1.9-0.4 1.1 0 2.3 0.4 0 0.6 0 1.2 0 0.6 0 1.1-0.8-0.4-1.6-0.4-0.8-0.1-1.5 0.2-0.6 0.3-1 0.9-0.4 0.6-0.4 1.6 0 0.9 0.4 1.5 0.4 0.6 1 0.9 0.7 0.3 1.5 0.2 0.8 0 1.6-0.4 0 0.6 0 1.2 0 0.6 0 1.2-1.2 0.3-2.3 0.3-1.1 0-1.9-0.4-0.9-0.4-1.5-1-0.7-0.7-1-1.6-0.3-0.9-0.3-2zm11.8 5.1q-0.8 0-1.5-0.3-0.7-0.3-1.3-0.8-0.5-0.6-0.8-1.3-0.2-0.7-0.2-1.5 0-0.8 0.2-1.5 0.3-0.7 0.9-1.2 0.5-0.6 1.2-0.8 0.7-0.3 1.5-0.3 0.8 0 1.5 0.3 0.7 0.3 1.2 0.8 0.5 0.5 0.8 1.2 0.3 0.7 0.3 1.5 0 0.9-0.3 1.6-0.3 0.7-0.8 1.2-0.5 0.5-1.2 0.8-0.7 0.3-1.5 0.3zm0-2.1q0.7 0 1.1-0.5 0.4-0.5 0.4-1.3 0-0.8-0.4-1.2-0.4-0.5-1.1-0.5-0.7 0-1.1 0.5-0.4 0.4-0.4 1.2 0 0.8 0.4 1.3 0.4 0.5 1.1 0.5zm4.9 1.9q0-1.8 0-3.6 0.1-1.9 0.1-3.7 0.5 0 1.1 0 0.6 0 1.2 0 0 0.1 0 0.2 0 0.1 0 0.2 0.4-0.3 0.8-0.4 0.5-0.2 1-0.2 0.8 0 1.4 0.4 0.6 0.4 1 1.1 0.3 0.6 0.3 1.6 0 1.1 0 2.2 0 1.1 0 2.2-0.5 0-1.1 0-0.6 0-1.2 0 0-1 0-2.1 0-1 0-2 0-0.6-0.2-0.9-0.3-0.4-0.9-0.4-0.5 0-0.8 0.4-0.3 0.3-0.3 0.9 0 1 0 2 0 1.1-0.1 2.1-0.5 0-1.1 0-0.6 0-1.2 0zm13.9-2.2q0 0.8-0.5 1.4-0.5 0.5-1.3 0.8-0.8 0.2-1.8 0.2-1 0-2.1-0.3 0-0.6 0-1.1 0-0.6 0-1.1 0.6 0.2 1.2 0.4 0.6 0.1 1.1 0.2 0.5 0 0.8-0.1 0.2-0.1 0.2-0.4 0-0.1-0.2-0.3-0.2-0.1-0.6-0.2-0.4-0.1-0.9-0.2-0.4-0.1-0.8-0.4-0.4-0.2-0.6-0.6-0.3-0.4-0.3-1.1 0-0.8 0.5-1.3 0.4-0.6 1.2-0.9 0.8-0.3 1.7-0.3 1 0 2 0.4 0 0.5 0 1.1 0 0.5 0 1.1-0.8-0.4-1.5-0.6-0.7-0.1-1.1 0-0.4 0.1-0.4 0.4 0 0.2 0.2 0.3 0.3 0.1 0.6 0.2 0.4 0.1 0.9 0.2 0.4 0.2 0.8 0.4 0.4 0.2 0.6 0.7 0.3 0.4 0.3 1.1zm1.8 2.2q0-1.3 0-2.6 0-1.3 0.1-2.5-0.3 0-0.6 0-0.3-0.1-0.6-0.1 0-0.5 0-1 0-0.5 0-1 0.3 0 0.6 0 0.3 0 0.6 0 0-0.5 0-1 0-0.5 0-1 0.5 0.1 1.1 0.1 0.6 0 1.2 0 0 0.4 0 0.9 0 0.5 0 1 0.3 0 0.6 0 0.4 0 0.7 0 0 0.5 0 1 0 0.5 0 1.1-0.3 0-0.7 0-0.3 0-0.6 0 0 1.2 0 2.5 0 1.3-0.1 2.6-0.5 0-1.1 0-0.6 0-1.2 0zm4.8 0q0-1.8 0-3.6 0-1.8 0-3.6 0.6 0 1.2 0 0.6 0 1.1 0 0 0.1 0 0.2 0 0.1 0 0.2 0.4-0.3 1-0.5 0.5-0.1 1.2 0 0 0.5 0 1.1 0 0.6 0 1.1-1.1-0.1-1.7 0.2-0.5 0.4-0.5 1.1 0 1 0 1.9 0 1 0 1.9-0.6 0-1.2 0-0.6 0-1.1 0zm12.3-7.2q0 1.8 0 3.7 0 1.8 0 3.6-0.6 0-1.2 0-0.6 0-1.1 0 0-0.1 0-0.2 0-0.1 0-0.2-0.4 0.3-0.9 0.4-0.5 0.2-1 0.2-0.8 0-1.4-0.4-0.6-0.4-1-1.1-0.3-0.6-0.3-1.6 0-1.1 0-2.2 0-1.1 0-2.2 0.6 0 1.2 0 0.6 0 1.1 0 0 1 0 2.1 0 1 0 2 0 0.6 0.3 0.9 0.2 0.4 0.8 0.4 0.5 0 0.9-0.4 0.3-0.3 0.3-0.9 0-1 0-2 0-1.1 0-2.1 0.6 0 1.1 0 0.6 0 1.2 0zm2.6 10.5q0-0.3 0-0.6 0-0.4 0-0.7 0.9 0.3 1.4 0.3 0.6-0.1 0.6-0.3 0-0.2-0.3-0.3-0.3-0.1-1-0.1 0-0.4 0-0.8 0.1-0.5 0.1-0.8-1-0.5-1.7-1.4-0.6-0.9-0.6-2.1 0-1.1 0.5-1.9 0.4-0.8 1.2-1.3 0.7-0.5 1.8-0.6 1-0.1 2.1 0.3 0 0.5 0 1 0 0.6 0 1.1-0.8-0.4-1.5-0.3-0.8 0-1.2 0.4-0.5 0.4-0.5 1.3 0 0.8 0.5 1.2 0.4 0.5 1.2 0.5 0.7 0 1.5-0.4 0 0.6 0 1.1 0 0.6 0 1.1-0.5 0.1-1 0.2-0.5 0.1-1 0 0 0.1 0 0.2 0 0.2 0 0.3 0.6 0.1 1 0.5 0.4 0.3 0.4 0.9 0 0.6-0.5 1-0.4 0.4-1.2 0.5-0.8 0-1.8-0.3zm8.9-3q-0.8 0-1.5-0.2-0.7-0.3-1.2-0.9-0.5-0.5-0.8-1.2-0.3-0.7-0.3-1.5 0-0.8 0.3-1.5 0.3-0.7 0.8-1.3 0.5-0.5 1.2-0.8 0.7-0.2 1.5-0.2 0.9 0 1.6 0.3 0.7 0.2 1.2 0.8 0.5 0.5 0.8 1.2 0.3 0.7 0.3 1.5-0.1 0.8-0.3 1.5-0.3 0.7-0.8 1.3-0.6 0.5-1.3 0.8-0.7 0.2-1.5 0.2zm0-2q0.7 0 1.1-0.5 0.4-0.5 0.4-1.3 0-0.8-0.4-1.3-0.4-0.5-1.1-0.5-0.6 0-1.1 0.5-0.4 0.5-0.4 1.3 0 0.8 0.4 1.3 0.4 0.5 1.1 0.5zm1.3-8.6q0.3 0 0.7 0 0.3 0 0.6 0 0 0.6-0.1 1-0.1 0.4-0.3 0.7-0.2 0.3-0.5 0.5-0.3 0.1-0.6 0.1-0.5 0-0.8-0.2-0.3-0.1-0.5-0.3-0.2-0.2-0.5-0.2-0.2 0-0.3 0.2-0.1 0.2-0.1 0.4-0.3 0-0.6 0-0.4 0-0.7 0 0-0.6 0.1-1 0.1-0.4 0.3-0.7 0.2-0.3 0.5-0.5 0.3-0.1 0.6-0.1 0.5 0 0.8 0.2 0.3 0.1 0.5 0.3 0.2 0.1 0.5 0.1 0.2 0 0.3-0.1 0.1-0.2 0.1-0.4zm9.9 10.1q-1 0.4-1.9 0.5-1 0.1-1.8-0.1-0.9-0.2-1.5-0.7-0.7-0.5-1-1.2-0.4-0.8-0.4-1.8 0-0.8 0.3-1.5 0.3-0.7 0.8-1.2 0.5-0.5 1.2-0.8 0.6-0.3 1.5-0.3 0.7 0 1.3 0.2 0.6 0.3 1 0.7 0.4 0.4 0.7 1 0.2 0.6 0.3 1.3 0.1 0.7-0.1 1.5-1.1 0-2.3 0-1.1 0-2.3 0 0.3 0.5 0.9 0.7 0.6 0.3 1.5 0.2 0.8-0.1 1.8-0.5 0 0.5 0 1 0 0.5 0 1zm-2.9-5q-0.4 0-0.8 0.2-0.3 0.2-0.5 0.7 0.6 0 1.3 0 0.6 0 1.2 0-0.1-0.5-0.5-0.7-0.3-0.2-0.7-0.2zm10.2 3.1q0 0.9-0.5 1.5-0.5 0.5-1.3 0.8-0.8 0.2-1.8 0.2-1-0.1-2.1-0.4 0-0.5 0-1.1 0-0.5 0-1 0.6 0.2 1.2 0.4 0.6 0.1 1.1 0.2 0.4 0 0.7-0.1 0.3-0.1 0.3-0.4 0-0.2-0.2-0.3-0.2-0.1-0.6-0.2-0.4-0.1-0.9-0.2-0.4-0.2-0.8-0.4-0.4-0.2-0.6-0.7-0.3-0.4-0.3-1 0-0.8 0.5-1.4 0.4-0.5 1.2-0.8 0.8-0.3 1.7-0.3 1 0 2 0.3 0 0.6 0 1.1 0 0.6 0 1.1-0.8-0.4-1.5-0.5-0.7-0.1-1.1 0-0.4 0.1-0.4 0.4 0 0.2 0.2 0.3 0.3 0.1 0.6 0.2 0.4 0 0.9 0.2 0.4 0.1 0.8 0.4 0.4 0.2 0.6 0.7 0.3 0.4 0.3 1z"/>
	</g>
	<g id="Layer">
		<path id="Layer" fill-rule="evenodd" class="s2" d="m110.2 294.2q-1.1 0-1.9-0.3-0.9-0.4-1.5-1.1-0.7-0.7-1-1.6-0.3-0.9-0.3-2 0-1.1 0.3-2 0.4-0.9 1-1.5 0.6-0.7 1.5-1.1 0.9-0.3 1.9-0.3 1 0 1.9 0.4 0.8 0.3 1.5 1 0.6 0.7 1 1.6 0.3 0.9 0.3 2 0 1-0.4 2-0.3 0.9-1 1.5-0.6 0.7-1.5 1.1-0.8 0.3-1.8 0.3zm0-2.2q0.7 0 1.1-0.4 0.5-0.3 0.8-0.9 0.3-0.6 0.3-1.4 0-0.9-0.3-1.5-0.3-0.6-0.7-0.9-0.5-0.4-1.2-0.4-0.7 0-1.2 0.4-0.5 0.3-0.8 0.9-0.2 0.6-0.2 1.4 0 0.8 0.2 1.5 0.3 0.6 0.8 0.9 0.5 0.4 1.2 0.4zm12.7-5.2q0 1.8 0 3.7 0 1.8-0.1 3.6-0.5 0-1.1 0-0.6 0-1.2 0 0-0.1 0-0.2 0-0.1 0-0.2-0.3 0.3-0.8 0.4-0.5 0.1-1 0.1-0.8 0-1.4-0.3-0.6-0.4-1-1.1-0.3-0.7-0.3-1.6 0-1.1 0-2.2 0-1.1 0-2.2 0.6 0 1.2 0 0.6 0 1.1 0 0 1 0 2.1 0 1 0 2 0 0.6 0.2 0.9 0.3 0.3 0.9 0.3 0.5 0 0.8-0.3 0.3-0.3 0.4-0.9 0-1 0-2 0-1.1 0-2.1 0.5 0 1.1 0 0.6 0 1.2 0zm2.2 7.3q0-1.3 0.1-2.6 0-1.3 0-2.6-0.3 0-0.6 0-0.3 0-0.6 0 0-0.5 0-1 0-0.6 0-1.1 0.3 0 0.6 0 0.3 0 0.6 0 0-0.5 0-0.9 0-0.5 0-1 0.5 0 1.1 0 0.6 0 1.2 0 0 0.5 0 1 0 0.5 0 0.9 0.3 0 0.6 0 0.4 0 0.7 0 0 0.6 0 1.1 0 0.5 0 1-0.3 0-0.7 0-0.3 0-0.6 0 0 1.3 0 2.6 0 1.3 0 2.6-0.6 0-1.2 0-0.6 0-1.2 0zm4.8 0q0-1.8 0-3.6 0-1.9 0-3.6 0.6 0 1.2 0 0.6 0 1.1 0 0 0.1 0 0.2 0 0.1 0 0.2 0.5-0.4 1-0.5 0.5-0.2 1.2-0.1 0 0.6 0 1.1 0 0.6 0 1.2-1.1-0.2-1.7 0.2-0.5 0.3-0.5 1.1 0 0.9 0 1.9 0 0.9 0 1.9-0.6 0-1.2 0-0.5 0-1.1 0zm8.9 0.2q-0.8 0-1.5-0.2-0.7-0.3-1.3-0.9-0.5-0.5-0.8-1.2-0.2-0.7-0.2-1.5 0-0.8 0.2-1.5 0.3-0.7 0.9-1.3 0.5-0.5 1.2-0.8 0.7-0.2 1.5-0.2 0.8 0 1.5 0.3 0.7 0.2 1.2 0.8 0.5 0.5 0.8 1.2 0.3 0.7 0.3 1.5 0 0.8-0.3 1.5-0.3 0.7-0.8 1.3-0.5 0.5-1.2 0.8-0.7 0.2-1.5 0.2zm0-2q0.7 0 1.1-0.5 0.4-0.5 0.4-1.3 0-0.8-0.4-1.3-0.4-0.5-1.1-0.5-0.7 0-1.1 0.5-0.4 0.5-0.4 1.3 0 0.8 0.4 1.3 0.4 0.5 1.1 0.5zm10.5-0.4q0 0.9-0.5 1.4-0.5 0.6-1.3 0.8-0.8 0.3-1.8 0.2-1 0-2.1-0.3 0-0.5 0-1.1 0-0.5 0-1.1 0.6 0.3 1.2 0.5 0.6 0.1 1.1 0.1 0.5 0.1 0.7 0 0.3-0.2 0.3-0.4 0-0.2-0.2-0.3-0.2-0.1-0.6-0.2-0.4-0.1-0.9-0.2-0.4-0.2-0.8-0.4-0.4-0.3-0.6-0.7-0.3-0.4-0.3-1.1 0-0.7 0.5-1.3 0.4-0.5 1.2-0.8 0.8-0.3 1.7-0.3 1 0 2 0.3 0 0.5 0 1.1 0 0.6 0 1.1-0.8-0.4-1.5-0.5-0.7-0.1-1.1 0-0.4 0-0.4 0.3 0 0.2 0.2 0.3 0.3 0.1 0.6 0.2 0.4 0.1 0.9 0.3 0.4 0.1 0.8 0.4 0.4 0.2 0.6 0.6 0.3 0.4 0.3 1.1z"/>
	</g>
	<g id="Clip-Path" clip-path="url(#cp1)">
		<g id="Layer">
			<path id="Layer" class="s10" d="m67.3 180.5q0 0 0-0.1c-0.1-0.3 0.2-0.6 0.6-0.7 0.1 0 0.2 0 0.3 0.1-0.1-0.6 0.4-1.1 1-1.2 0.4 0 0.9 0.2 1.1 0.6q0.2-0.1 0.4-0.2c0.5 0 1 0.2 1.1 0.7 0.7-0.1 1.4 0.4 1.5 1 0.1 0.6-0.2 1.1-0.7 1.4q0 0 0 0.1 0.4 0.1 0.5 0.5c0 0.3-0.2 0.6-0.6 0.7-0.3 0-0.6-0.1-0.8-0.4q0 0 0 0c-0.5 0.1-1.1-0.2-1.2-0.7q-0.3 0.2-0.7 0.2c-0.5 0.1-1-0.1-1.3-0.4q-0.1 0-0.2 0.1c-0.6 0.1-1.2-0.3-1.3-0.8 0-0.4 0.1-0.7 0.3-0.9z"/>
			<path id="Layer" class="s11" d="m86.9 178.8c0-0.3-0.3-0.6-0.7-0.6h-8.6c-0.4 0-2.5 1.7-3.8 2.7v0.1c0 0.1 0 0.3 1.8 1.1 0.4 0.2 1.7 0.7 1.9 0.7l10.4 0.1c0.4 0 0.8-0.3 0.8-0.7z"/>
			<path id="Layer" class="s5" d="m86.4 179.3c0-0.3-0.3-0.6-0.7-0.6h-7.8c-0.3 0-2.3 1.5-3.4 2.5v0.1c0 0 0 0.2 1.6 0.9 0.4 0.2 1.5 0.7 1.8 0.7h9.4c0.4 0 0.7-0.2 0.7-0.5z"/>
			<path id="Layer" class="s11" d="m91.2 180.8l-16.8-0.1c-0.4 0-0.8 0.3-0.8 0.6v2.6c0 0.4 0.4 0.7 0.7 0.7h16.8c0.4 0 0.7-0.3 0.7-0.6v-2.6c0.1-0.3-0.3-0.6-0.6-0.6z"/>
			<path id="Layer" class="s12" d="m80 184.5c0 0.9-0.8 1.7-1.9 1.7-1.1 0-2-0.8-2-1.7 0-1 0.9-1.8 2-1.8 1.1 0 2 0.8 1.9 1.8z"/>
			<path id="Layer" class="s13" d="m78.8 184.5c0 0.4-0.4 0.6-0.7 0.6-0.4 0-0.7-0.2-0.7-0.6 0-0.3 0.3-0.6 0.7-0.6 0.3 0 0.7 0.3 0.7 0.6z"/>
			<path id="Layer" class="s11" d="m82.7 183.9h-0.5v-2.4h-4.5l0.1-3.2h0.6l-0.1 2.7h4.4z"/>
			<path id="Layer" class="s12" d="m90.7 184.5c0 1-0.9 1.8-2 1.8-1.1 0-2-0.8-2-1.8 0-1 0.9-1.8 2-1.8 1.1 0 2 0.8 2 1.8z"/>
			<path id="Layer" class="s13" d="m89.4 184.6c0 0.3-0.3 0.6-0.7 0.6-0.4 0-0.7-0.3-0.7-0.6 0-0.4 0.3-0.6 0.7-0.6 0.4 0 0.7 0.2 0.7 0.6z"/>
			<path id="Layer" class="s5" d="m85.2 181.9c0 0.2-0.2 0.4-0.5 0.4h-1c-0.2 0-0.4-0.2-0.4-0.4 0-0.3 0.2-0.4 0.4-0.4h1c0.3 0 0.5 0.1 0.5 0.4z"/>
			<path id="Layer" class="s5" d="m81.9 181.9c0 0.2-0.3 0.4-0.5 0.4h-1c-0.3 0-0.5-0.2-0.5-0.4 0-0.3 0.2-0.5 0.5-0.5h1c0.2 0 0.5 0.2 0.5 0.5z"/>
			<path id="Layer" class="s11" d="m82.7 181.9h-0.5v-3.2h0.5z"/>
		</g>
	</g>
	<path id="Layer" class="s1" d="m15 94h157"/>
	<path id="Layer" class="s1" d="m52 135h109"/>
	<g id="Clip-Path" clip-path="url(#cp2)">
		<g id="Layer">
			<path id="Layer" class="s12" d="m95.3 146.2h-1.2c-0.1 0-0.3 0.1-0.3 0.3v2.2c0 0.2 0.2 0.4 0.3 0.4h1.2c0.2 0 0.3-0.2 0.3-0.3v-2.3c0-0.2-0.1-0.3-0.3-0.3z"/>
			<path id="Layer" class="s14" d="m89.7 144h-1.2c-0.2 0-0.3 0.1-0.3 0.3v4.4c0 0.1 0.1 0.3 0.3 0.3h1.2c0.1 0 0.3-0.1 0.3-0.3v-4.4c0-0.1-0.1-0.3-0.3-0.3z"/>
			<path id="Layer" class="s4" d="m99.8 148.5l-11.3-0.1c-0.2 0-0.3 0.1-0.3 0.3v6.1c0 0.1 0.1 0.3 0.3 0.3h11.3c0.2 0 0.3-0.1 0.3-0.3v-6c0-0.2-0.1-0.3-0.3-0.3z"/>
			<path id="Layer" class="s12" d="m98.5 149.5l-8.1-0.1c-0.1 0-0.2 0.1-0.2 0.3v4.3c0 0.1 0.1 0.2 0.2 0.2h8.1c0.1 0 0.2-0.1 0.2-0.2v-4.3c0-0.1-0.1-0.2-0.2-0.2z"/>
			<path id="Layer" class="s4" d="m85.2 148.4h-3.9c-0.2 0-0.3 0.1-0.3 0.3v6c0 0.2 0.1 0.3 0.3 0.3h3.8c0.2 0 0.3-0.1 0.3-0.3l0.1-6c0-0.2-0.2-0.3-0.3-0.3z"/>
			<path id="Layer" class="s12" d="m84.1 151.1h-2.1c-0.1 0-0.1 0.1-0.1 0.2l-0.1 3.2c0 0.1 0.1 0.2 0.2 0.2h2.1c0.1 0 0.2-0.1 0.2-0.1v-3.3c0-0.1-0.1-0.2-0.2-0.2z"/>
			<path id="Layer" class="s15" d="m96.3 142.5c-1.3 0-2.7-0.8-4.1-1.5-1.3-0.7-2.5-1.4-3.5-1.4-0.7 0-1.2 0.3-1.6 0.9-0.1 0.1-0.2 0.2-0.4 0.1-0.1 0-0.2-0.2-0.1-0.3 0-0.1 0.3-3.3 2.6-3.3q0.4 0 0.9 0.2 3.9 1.4 6.2 1.4c1.8 0 2.2-0.7 2.2-0.7 0-0.1 0.2-0.2 0.3-0.2 0.1 0 0.2 0.1 0.2 0.3 0.1 0.1 0.4 2.3-0.6 3.6q-0.7 0.9-2.1 0.9z"/>
			<path id="Layer" class="s16" d="m98.3 145.8c-0.4 0-1-0.2-1.4-0.5-0.5-0.3-1-0.5-1.3-0.5q-0.4 0-0.6 0.3-0.1 0.1-0.2 0.1 0-0.1 0-0.2c0 0 0.1-1.2 0.9-1.2q0.2 0 0.4 0.1 1.4 0.5 2.2 0.5c0.7 0 0.8-0.2 0.8-0.2q0.1-0.1 0.1-0.1 0.1 0 0.1 0.1c0 0 0.2 0.8-0.2 1.3q-0.3 0.3-0.8 0.3z"/>
			<path id="Layer" class="s5" d="m88.5 142.7h-3.3c-0.2 0-0.3 0.1-0.3 0.3l-0.1 11.7c0 0.2 0.2 0.3 0.3 0.3h3.4c0.1 0 0.2-0.1 0.2-0.3l0.1-11.7c0-0.2-0.1-0.3-0.3-0.3z"/>
			<path id="Layer" class="s17" d="m88.2 145.4l-0.1 9.4c0 0.1-0.1 0.2-0.2 0.2h-1.4v-9.9h1.4c0.2 0 0.3 0.2 0.3 0.3z"/>
			<path id="Layer" class="s4" d="m92.7 154.5h-0.7v-5.4h0.7z"/>
			<path id="Layer" class="s4" d="m94.9 154.5h-0.8l0.1-5.3h0.7z"/>
			<path id="Layer" class="s4" d="m97 154.5h-0.7v-5.3h0.8z"/>
			<path id="Layer" class="s16" d="m96.3 141.8c-1.2 0-2.7-1-4.6-2.8-0.1-0.1-0.1-0.3 0-0.4 0-0.1 0.2-0.2 0.3-0.1 0.1 0 2.6 1.3 4.4 1.3q0.8 0 1.2-0.3 0.1-0.1 0.3 0 0.1 0.1 0.2 0.3c-0.1 0.7-0.5 2-1.8 2z"/>
		</g>
	</g>
	<g id="Layer">
		<path id="Layer" fill-rule="evenodd" class="s2" d="m109.1 153q0-0.9 0-1.8 0-1 0-1.9 0.9-0.8 1.8-1.7 1-0.9 1.9-1.8 1-1 1.6-1.7 0.5-0.6 0.8-1 0.2-0.5 0.2-0.8 0-0.8-0.9-1.1-0.9-0.4-2.2-0.2-1.4 0.1-3 0.7 0-0.9 0-1.9 0-1 0-1.9 2.3-0.8 4.2-0.8 1.9 0 3.2 0.7 1.4 0.6 2.1 1.6 0.7 1.1 0.7 2.6 0 1.4-0.8 2.6-0.7 1.3-2.3 2.8-0.5 0.5-1 1-0.5 0.5-1 1 1.2 0 2.5 0 1.2 0 2.5 0 0 0.9 0 1.8 0 0.9 0 1.8-2.6 0-5.2 0-2.6 0-5.1 0zm18.5-15.8q-0.1 3.9-0.1 7.9 0 4 0 8-1 0-2 0-1 0-2 0 0-2.9 0-5.7 0-2.9 0-5.7-0.7 0.2-1.3 0.3-0.7 0.2-1.4 0.3 0-0.9 0-1.9 0-0.9 0-1.8 1.7-0.4 3.4-0.7 1.7-0.4 3.4-0.7zm6.9 9.9q-1.4 0-2.4-0.6-1.1-0.7-1.7-1.8-0.6-1.2-0.6-2.6 0-1.4 0.6-2.5 0.6-1.2 1.7-1.8 1.1-0.7 2.4-0.7 1.1 0 1.9 0.4 0.9 0.4 1.5 1.1 0.7 0.6 1 1.6 0.3 0.9 0.3 1.9 0 1.4-0.6 2.6-0.6 1.1-1.6 1.8-1.1 0.6-2.5 0.6zm0.1 6q2.2-3.9 4.5-7.8 2.4-4 4.6-7.8 0.8 0 1.7 0 0.8 0 1.6 0-2.3 3.9-4.6 7.8-2.3 4-4.6 7.8-0.8 0-1.6 0-0.8 0-1.6 0zm-0.1-9q0.8 0 1.2-0.5 0.5-0.6 0.5-1.5 0-0.9-0.5-1.4-0.4-0.6-1.2-0.6-0.7 0-1.1 0.5-0.5 0.6-0.5 1.5 0 0.9 0.5 1.5 0.4 0.5 1.1 0.5zm12.5 9.4q-1 0-1.9-0.4-0.8-0.4-1.5-1.1-0.6-0.7-0.9-1.6-0.4-0.9-0.3-2 0-1.4 0.6-2.5 0.6-1.1 1.6-1.8 1.1-0.6 2.5-0.6 1.4 0 2.4 0.7 1.1 0.6 1.6 1.7 0.6 1.1 0.6 2.6 0 1-0.3 1.9-0.3 1-1 1.6-0.6 0.7-1.5 1.1-0.8 0.4-1.9 0.4zm0-3.1q0.8 0.1 1.2-0.5 0.5-0.5 0.5-1.4 0-1-0.5-1.5-0.4-0.5-1.2-0.5-0.7 0-1.1 0.5-0.4 0.5-0.4 1.4 0 1 0.4 1.5 0.4 0.5 1.1 0.5z"/>
	</g>
	<g id="Layer">
		<path id="Layer" fill-rule="evenodd" class="s2" d="m104.2 173.1q0 3.9 0 8 0 4 0 7.9-1 0-2 0-1 0-2.1 0 0.1-2.8 0.1-5.6 0-2.9 0-5.7-0.7 0.1-1.4 0.3-0.6 0.1-1.3 0.3 0-1 0-1.9 0-0.9 0-1.9 1.7-0.3 3.4-0.7 1.7-0.3 3.3-0.7zm2.1 13q0-0.9 0-1.9 0-0.9 0-1.8 1.1-2.2 2.3-4.5 1.2-2.3 2.3-4.5 1.5 0 3 0 1.5 0 2.9 0 0 2.3 0 4.5 0 2.3 0 4.5 0.5 0 1.1 0.1 0.6 0 1.1 0 0 0.9 0 1.8 0 0.9 0 1.8-0.6 0-1.1 0-0.6 0-1.1 0 0 0.7 0 1.5 0 0.7 0 1.5-1 0-2 0-1 0-2 0 0-0.8 0-1.5 0.1-0.8 0.1-1.5-1.7 0-3.4 0-1.6 0-3.2 0zm4.1-3.7q0.6 0 1.2 0 0.7 0 1.3 0 0-1.3 0-2.6 0-1.3 0-2.6-0.6 1.3-1.3 2.6-0.6 1.3-1.2 2.6zm14.2 0.7q-1.4 0-2.4-0.6-1.1-0.7-1.7-1.8-0.6-1.2-0.6-2.6 0-1.4 0.6-2.5 0.6-1.2 1.7-1.8 1.1-0.7 2.4-0.7 1.1 0 1.9 0.4 0.9 0.4 1.5 1.1 0.6 0.6 1 1.6 0.3 0.9 0.3 1.9 0 1.4-0.6 2.6-0.6 1.1-1.7 1.8-1 0.6-2.4 0.6zm0 6q2.3-3.9 4.6-7.8 2.3-4 4.6-7.8 0.8 0 1.6 0 0.9 0 1.7 0-2.3 3.9-4.6 7.8-2.3 4-4.6 7.8-0.8 0-1.6 0-0.9 0-1.7 0zm0-9q0.8 0 1.2-0.5 0.4-0.6 0.4-1.5 0-0.9-0.4-1.4-0.4-0.6-1.2-0.6-0.7 0-1.2 0.6-0.4 0.5-0.4 1.4 0 0.9 0.4 1.5 0.4 0.5 1.2 0.5zm12.5 9.4q-1 0-1.9-0.4-0.9-0.4-1.5-1.1-0.6-0.7-1-1.6-0.3-0.9-0.3-2 0-1.4 0.6-2.5 0.6-1.1 1.7-1.8 1.1-0.6 2.4-0.6 1.4 0 2.5 0.7 1 0.6 1.6 1.7 0.6 1.1 0.6 2.6 0 1-0.3 1.9-0.4 1-1 1.7-0.6 0.6-1.5 1-0.9 0.4-1.9 0.4zm0-3q0.8 0 1.2-0.6 0.5-0.5 0.5-1.4 0-1-0.5-1.5-0.4-0.5-1.2-0.5-0.7 0-1.1 0.5-0.5 0.5-0.5 1.4 0 1 0.4 1.5 0.5 0.6 1.2 0.6z"/>
	</g>
	<g id="Layer">
		<path id="Layer" fill-rule="evenodd" class="s2" d="m108.2 214.1q0 3.9 0 8 0 4 0 7.9-1 0-2 0-1 0-2.1 0 0.1-2.8 0.1-5.6 0-2.9 0-5.7-0.7 0.1-1.4 0.3-0.6 0.1-1.3 0.3 0-1 0-1.9 0-0.9 0-1.9 1.7-0.3 3.4-0.7 1.7-0.3 3.3-0.7zm8.9 16.3q-1.5 0-2.8-0.6-1.2-0.7-2.2-1.8-0.9-1.1-1.4-2.6-0.4-1.5-0.4-3.2 0-1.8 0.5-3.2 0.5-1.5 1.4-2.6 0.9-1.1 2.2-1.7 1.2-0.6 2.8-0.6 1.5 0 2.7 0.6 1.3 0.6 2.2 1.7 0.9 1.1 1.4 2.6 0.5 1.5 0.5 3.2 0 1.8-0.5 3.3-0.5 1.5-1.5 2.6-0.9 1.1-2.1 1.7-1.3 0.6-2.8 0.6zm0-3.8q0.9 0 1.6-0.5 0.6-0.6 0.9-1.6 0.4-1 0.4-2.3 0-1.3-0.3-2.3-0.4-0.9-1-1.5-0.6-0.5-1.6-0.5-0.9 0-1.5 0.5-0.6 0.5-1 1.5-0.3 1-0.4 2.3 0 1.3 0.4 2.3 0.3 1 1 1.6 0.6 0.5 1.5 0.5zm13-2.5q-1.4 0-2.5-0.6-1-0.7-1.6-1.8-0.6-1.2-0.6-2.6 0-1.4 0.6-2.5 0.6-1.2 1.7-1.8 1-0.7 2.4-0.7 1 0 1.9 0.4 0.8 0.4 1.5 1.1 0.6 0.7 0.9 1.6 0.4 0.9 0.4 1.9 0 1.5-0.6 2.6-0.6 1.1-1.7 1.8-1 0.6-2.4 0.6zm0 6q2.3-3.9 4.6-7.8 2.3-3.9 4.6-7.8 0.8 0 1.6 0 0.8 0 1.6 0-2.2 3.9-4.5 7.8-2.4 4-4.6 7.8-0.8 0-1.7 0-0.8 0-1.6 0zm0-9q0.7 0 1.2-0.5 0.4-0.6 0.4-1.5 0-0.9-0.4-1.4-0.5-0.6-1.2-0.6-0.8 0-1.2 0.6-0.4 0.5-0.4 1.4 0 0.9 0.4 1.5 0.4 0.5 1.2 0.5zm12.5 9.4q-1.1 0-1.9-0.4-0.9-0.4-1.5-1.1-0.6-0.7-1-1.6-0.3-0.9-0.3-2 0-1.4 0.6-2.5 0.6-1.1 1.7-1.8 1-0.6 2.4-0.6 1.4 0 2.4 0.7 1.1 0.6 1.7 1.7 0.6 1.1 0.6 2.6 0 1-0.4 2-0.3 0.9-0.9 1.6-0.7 0.6-1.5 1-0.9 0.4-1.9 0.4zm0-3q0.7 0 1.2-0.6 0.4-0.5 0.4-1.4 0-1-0.4-1.5-0.4-0.5-1.2-0.5-0.8 0-1.2 0.5-0.4 0.5-0.4 1.5 0 0.9 0.4 1.4 0.4 0.6 1.2 0.6z"/>
	</g>
	<g id="Layer">
		<path id="Layer" fill-rule="evenodd" class="s2" d="m129.4 265.7q-1.2-0.5-2.4-0.7-1.1-0.1-2.1 0.1-1 0.2-1.6 0.9-0.6 0.6-0.7 1.6 0.8-0.6 1.9-0.9 1-0.2 2.1 0 1.1 0.2 2 0.8 0.9 0.6 1.4 1.7 0.6 1 0.6 2.5 0 1.2-0.5 2.2-0.4 1-1.2 1.8-0.7 0.8-1.8 1.2-1.1 0.4-2.4 0.4-1.4 0-2.5-0.5-1.1-0.5-1.9-1.4-0.8-1-1.3-2.4-0.4-1.4-0.4-3.3 0-2 0.5-3.6 0.5-1.5 1.5-2.6 0.9-1.1 2.3-1.6 1.3-0.6 3-0.6 1.6-0.1 3.5 0.4 0 1 0 2 0 1 0 2zm-4.7 8q0.8 0 1.3-0.5 0.6-0.6 0.6-1.4 0-0.9-0.5-1.4-0.6-0.6-1.4-0.6-0.8 0-1.4 0.5-0.5 0.5-0.5 1.4 0 0.9 0.5 1.5 0.5 0.5 1.4 0.5zm11.8-2.6q-1.4 0-2.4-0.7-1.1-0.6-1.7-1.8-0.6-1.1-0.6-2.5 0-1.5 0.6-2.6 0.6-1.1 1.7-1.7 1-0.7 2.4-0.7 1.1 0 1.9 0.4 0.9 0.4 1.5 1 0.6 0.7 1 1.6 0.3 0.9 0.3 2 0 1.4-0.6 2.6-0.6 1.1-1.7 1.8-1 0.6-2.4 0.6zm0 6q2.3-3.9 4.6-7.8 2.3-4 4.6-7.8 0.8 0 1.6 0 0.9 0 1.7 0-2.3 3.8-4.6 7.8-2.3 3.9-4.6 7.8-0.8 0-1.6 0-0.9 0-1.7 0zm0-9q0.8 0 1.2-0.6 0.4-0.5 0.4-1.4 0-0.9-0.4-1.5-0.4-0.5-1.2-0.5-0.7 0-1.2 0.5-0.4 0.5-0.4 1.5 0 0.9 0.4 1.4 0.4 0.6 1.2 0.6zm12.5 9.3q-1 0-1.9-0.3-0.9-0.4-1.5-1.1-0.6-0.7-1-1.6-0.3-0.9-0.3-2 0-1.4 0.6-2.5 0.6-1.2 1.7-1.8 1.1-0.7 2.4-0.6 1.4 0 2.5 0.6 1 0.7 1.6 1.8 0.6 1.1 0.6 2.5 0 1.1-0.3 2-0.4 0.9-1 1.6-0.6 0.7-1.5 1.1-0.9 0.3-1.9 0.3zm0-3q0.8 0 1.2-0.5 0.4-0.6 0.4-1.5 0.1-0.9-0.4-1.4-0.4-0.6-1.2-0.6-0.7 0-1.2 0.6-0.4 0.5-0.4 1.4 0 0.9 0.4 1.5 0.5 0.5 1.2 0.5z"/>
	</g>
	<path id="Layer" class="s1" d="m64 204h81"/>
	<g id="Clip-Path" clip-path="url(#cp3)">
		<g id="Layer">
			<path id="Layer" class="s18" d="m91.5 219.7h-7.2c-0.7 0-1.3 0.5-1.3 1.2v9.8c0 0.7 0.5 1.2 1.3 1.2l7.2 0.1c0.7 0 1.2-0.6 1.2-1.2l0.1-9.9c0-0.7-0.6-1.2-1.3-1.2z"/>
			<path id="Layer" class="s18" d="m79.1 215.9h-4.9c-0.2 0-0.4 0.2-0.4 0.4l-0.1 15.3c0 0.2 0.2 0.4 0.5 0.4h4.8c0.3 0 0.5-0.2 0.5-0.4v-15.3c0-0.2-0.2-0.4-0.4-0.4z"/>
			<path id="Layer" class="s19" d="m85.7 206h-3.5c-0.2 0-0.4 0.2-0.4 0.4l-0.1 25.2c0 0.2 0.2 0.4 0.4 0.4h3.5c0.2 0 0.4-0.1 0.4-0.4l0.1-25.1c0-0.3-0.2-0.5-0.4-0.5z"/>
			<path id="Layer" class="s20" d="m83.8 211.6h-6.3c-0.7 0-1.3 0.6-1.3 1.2v18c0 0.7 0.5 1.2 1.2 1.2h6.3c0.7 0 1.3-0.5 1.3-1.2l0.1-18c0-0.6-0.6-1.2-1.3-1.2z"/>
			<path id="Layer" class="s21" d="m84.2 215.8l-0.1 13.7c0 0.5-0.4 0.9-0.9 0.9h-2.6v-15.5h2.6c0.5 0 1 0.4 1 0.9z"/>
			<path id="Layer" class="s22" d="m81.4 223.7l-8.8-0.1c-1.1 0-2.1 0.9-2.1 2v5.9c0 0.2 0.2 0.4 0.4 0.4h1.7c0.2 0 0.4-0.2 0.4-0.4l0.1-5.4h8.3c0.3 0 0.5-0.2 0.5-0.4v-1.6c0-0.2-0.2-0.4-0.5-0.4z"/>
		</g>
	</g>
	<path id="Layer" class="s1" d="m69 251h92"/>
	<path id="Layer" class="s10" d="m110.9 268.4q0.1-0.2 0.1-0.4c0.3-1.3-0.6-2.6-1.9-2.8-0.5-0.1-0.9 0-1.3 0.2 0.3-2.1-1.1-4.1-3.2-4.5-1.6-0.3-3.2 0.6-4 2.1-0.4-0.3-0.8-0.5-1.4-0.6-1.7-0.3-3.3 0.8-3.9 2.5-2.5-0.2-4.8 1.6-5.3 4.2-0.3 2.2 0.7 4.2 2.5 5.3q0 0.3 0 0.6c-0.8 0.3-1.4 1-1.5 1.9-0.3 1.3 0.6 2.6 1.9 2.8 1.1 0.2 2.2-0.5 2.6-1.5q0.1 0 0.2 0c1.9 0.3 3.7-0.9 4.3-2.7 0.6 0.4 1.3 0.8 2.1 0.9 1.8 0.3 3.5-0.4 4.6-1.7q0.4 0.2 0.8 0.2c2.1 0.4 4.1-1.1 4.4-3.2 0.2-1.2-0.2-2.4-1-3.3z"/>
	<path id="Layer" class="s16" d="m97 266.7q-0.8 0-1.3 0.6-0.5 0.6-0.5 1.7 0 1.2 0.4 1.8 0.5 0.5 1.4 0.5 0.4 0 0.8 0 0.3-0.1 0.7-0.2v0.8q-0.7 0.3-1.6 0.3-1.3 0-2.1-0.8-0.7-0.9-0.7-2.4 0-1 0.4-1.7 0.3-0.7 1-1.1 0.7-0.4 1.5-0.4 1 0 1.8 0.4l-0.4 0.8q-0.3-0.1-0.6-0.2-0.4-0.1-0.8-0.1z"/>
	<path id="Layer" fill-rule="evenodd" class="s16" d="m105.3 269q0 1.6-0.7 2.4-0.8 0.8-2.2 0.8-1.4 0-2.1-0.8-0.7-0.9-0.7-2.4 0-1.5 0.7-2.4 0.8-0.8 2.2-0.8 1.3 0 2.1 0.9 0.7 0.8 0.7 2.3zm-4.7 0q0 1.2 0.5 1.8 0.4 0.6 1.3 0.6 0.9 0 1.4-0.6 0.4-0.6 0.4-1.8 0.1-1.1-0.4-1.7-0.4-0.6-1.3-0.6-0.9 0-1.4 0.6-0.5 0.6-0.5 1.7z"/>
	<path id="Layer" class="s16" d="m109.3 273.1h-3.2v-0.6l1.3-1.2q0.5-0.6 0.7-0.8 0.2-0.3 0.2-0.5 0.1-0.2 0.1-0.4 0-0.3-0.2-0.5-0.2-0.2-0.5-0.2-0.3 0-0.5 0.1-0.3 0.1-0.6 0.4l-0.4-0.6q0.4-0.3 0.7-0.4 0.4-0.2 0.8-0.2 0.7 0 1.1 0.4 0.4 0.3 0.4 0.9 0 0.3-0.1 0.6-0.1 0.3-0.4 0.7-0.2 0.3-0.8 0.8l-0.8 0.8h2.2z"/>
	<path id="Layer" class="s10" d="m97.4 280.6c0 0.8-0.6 1.4-1.3 1.4-0.8 0-1.4-0.6-1.4-1.4 0-0.7 0.6-1.3 1.4-1.3 0.7 0 1.3 0.6 1.3 1.3z"/>
</svg>