<svg width="59" height="54" viewBox="0 0 59 54" fill="none" xmlns="http://www.w3.org/2000/svg">
<path fill-rule="evenodd" clip-rule="evenodd" d="M19.1399 13.9471C23.0835 12.5773 24.9311 12.3522 29.0629 12.3863C33.1947 12.4203 34.4078 14.1002 34.6039 14.7795C35.637 18.3596 30.5249 22.4031 27.5298 25.2765C22.7389 29.8725 35.915 39.4076 31.572 48.3781C29.751 52.1393 25.1091 52.2285 22.6685 50.8833C18.0388 48.3316 20.1639 42.5311 19.6313 38.5525C19.2326 35.5747 14.4392 28.395 13.4006 26.3828C11.479 22.6594 14.7216 15.4817 19.1399 13.9471Z" fill="black"/>
<path d="M17.2368 12.9949C17.371 13.8121 17.1266 14.4981 15.9765 15.2524C15.2546 15.726 14.715 15.3498 14.5156 14.7797C14.175 13.8058 14.8199 12.8572 15.7663 12.2948C16.7128 11.7325 17.1891 12.7049 17.2368 12.9949Z" fill="black"/>
<path d="M17.2368 12.9949C17.371 13.8121 17.1266 14.4981 15.9765 15.2524C15.2546 15.726 14.715 15.3498 14.5156 14.7797C14.175 13.8058 14.8199 12.8572 15.7663 12.2948C16.7128 11.7325 17.1891 12.7049 17.2368 12.9949Z" fill="black"/>
<path d="M21.3611 10.7003C21.5089 11.6217 21.229 12.3967 19.924 13.2526C19.1049 13.7899 18.4964 13.3677 18.2736 12.7253C17.8931 11.6279 18.6274 10.555 19.7009 9.91653C20.7745 9.27807 21.3086 10.3733 21.3611 10.7003Z" fill="black"/>
<path d="M21.3611 10.7003C21.5089 11.6217 21.229 12.3967 19.924 13.2526C19.1049 13.7899 18.4964 13.3677 18.2736 12.7253C17.8931 11.6279 18.6274 10.555 19.7009 9.91653C20.7745 9.27807 21.3086 10.3733 21.3611 10.7003Z" fill="black"/>
<path d="M26.0476 9.17924C26.1576 10.201 25.7812 11.083 24.2108 12.113C23.2251 12.7596 22.5476 12.3218 22.3322 11.6162C21.9643 10.4108 22.8874 9.17016 24.1749 8.39624C25.4625 7.62231 26.0086 8.81667 26.0476 9.17924Z" fill="black"/>
<path d="M26.0476 9.17924C26.1576 10.201 25.7812 11.083 24.2108 12.113C23.2251 12.7596 22.5476 12.3218 22.3322 11.6162C21.9643 10.4108 22.8874 9.17016 24.1749 8.39624C25.4625 7.62231 26.0086 8.81667 26.0476 9.17924Z" fill="black"/>
<path d="M31.4659 7.99944C31.6355 9.2838 31.2008 10.3793 29.2987 11.6269C28.1047 12.41 27.2547 11.842 26.9656 10.9512C26.4716 9.42938 27.5685 7.89952 29.1305 6.9651C30.6924 6.03068 31.4057 7.5437 31.4659 7.99944Z" fill="black"/>
<path d="M31.4659 7.99944C31.6355 9.2838 31.2008 10.3793 29.2987 11.6269C28.1047 12.41 27.2547 11.842 26.9656 10.9512C26.4716 9.42938 27.5685 7.89952 29.1305 6.9651C30.6924 6.03068 31.4057 7.5437 31.4659 7.99944Z" fill="black"/>
<path d="M39.4509 6.81989C39.7963 8.87536 39.1909 10.5975 36.3156 12.4834C34.5107 13.6672 33.154 12.7167 32.648 11.2819C31.7836 8.83066 33.3901 6.4519 35.7569 5.04676C38.1237 3.64162 39.3283 6.09053 39.4509 6.81989Z" fill="black"/>
<path d="M39.4509 6.81989C39.7963 8.87536 39.1909 10.5975 36.3156 12.4834C34.5107 13.6672 33.154 12.7167 32.648 11.2819C31.7836 8.83066 33.3901 6.4519 35.7569 5.04676C38.1237 3.64162 39.3283 6.09053 39.4509 6.81989Z" fill="black"/>
</svg>
