<svg width="1093" height="382" viewBox="0 0 1093 382" fill="none" xmlns="http://www.w3.org/2000/svg">
<g clip-path="url(#clip0_201_3)" filter="url(#filter0_d_201_3)">
<rect width="1085" height="374" transform="translate(4)" fill="white"/>
<path fill-rule="evenodd" clip-rule="evenodd" d="M-39.7838 319.368C-38.6451 275.677 -100.959 226.274 -60.83 193.689C-21.0391 161.379 55.9395 183.809 116.482 192.481C165.206 199.461 216.556 208.911 245.774 237.608C272.703 264.058 257.273 298.139 256.783 330.284C256.279 363.319 274.239 400.886 242.918 424.889C210.626 449.637 155.263 442.371 107.189 444.927C47.0399 448.126 -28.3004 474.689 -67.2857 441.384C-106.597 407.799 -40.9034 362.326 -39.7838 319.368Z" fill="#7EB31E"/>
<path fill-rule="evenodd" clip-rule="evenodd" d="M728.139 -133.941C784.587 -134.158 847.041 -262.269 889.989 -183.461C932.575 -105.318 905.272 50.727 895.381 172.939C887.421 271.295 876.327 375.072 839.898 435.458C806.321 491.115 761.976 462.048 720.452 462.907C677.779 463.789 629.652 502.05 597.976 440.459C565.319 376.958 573.505 265.238 569.165 168.738C563.734 47.9956 527.801 -101.946 569.97 -182.233C612.492 -263.192 672.638 -133.728 728.139 -133.941Z" fill="#7EB31E"/>
<path fill-rule="evenodd" clip-rule="evenodd" d="M386.896 193.366C399.089 120.596 392.467 32.7131 439.503 -15.2793C487.405 -64.1558 546.774 -41.8515 591.306 -15.201C629.599 7.71579 649.653 59.3905 659.835 116.58C668.771 166.773 659.436 222.098 643.373 277.244C626.193 336.226 608.142 402.512 567.007 435.268C525.659 468.194 480.495 456.272 443.652 436.287C411.35 418.766 391.622 380.133 380.92 334.329C370.844 291.201 378.577 243.007 386.896 193.366Z" fill="#3A88DE"/>
<path fill-rule="evenodd" clip-rule="evenodd" d="M835.398 165.025C837.03 72.2273 855.8 -21.2998 901.128 -81.8699C943.598 -138.621 1003.98 -129.116 1060.46 -135.715C1123.64 -143.098 1193.01 -182.046 1243.41 -121.866C1296.23 -58.8024 1313.78 56.4776 1306.16 157.649C1299.31 248.485 1245.5 302.657 1206.27 370.846C1163.8 444.658 1135.34 552.259 1071.45 565.601C1003.89 579.71 938.144 514.765 892.007 436.471C848.716 363.006 833.668 263.317 835.398 165.025Z" fill="#C0EEF2"/>
<path fill-rule="evenodd" clip-rule="evenodd" d="M279.854 -57.2651C332.374 -79.732 391.022 -148.196 434.384 -87.5202C478.545 -25.7267 476.569 103.334 468.299 206.422C461.187 295.067 430.318 366.609 393.467 422.531C361.123 471.612 321.18 488.568 279.854 492.386C235.654 496.469 186.261 503.49 154.644 444.593C122.864 385.39 120.915 290.402 126.344 206.422C131.105 132.791 153.123 70.1366 182.069 20.4168C209.322 -26.3972 244.028 -41.9391 279.854 -57.2651Z" fill="#6CB9EB"/>
<path fill-rule="evenodd" clip-rule="evenodd" d="M129.98 -135.952C194.622 -133.37 230.541 -24.316 266.47 57.3559C293.842 119.576 310.903 190.199 306.232 264.696C301.98 332.507 271.123 383.252 242.73 435.973C209.268 498.107 182.81 589.986 129.98 591.966C76.9465 593.954 44.4072 507.88 11.5263 444.639C-16.2329 391.248 -35.8593 332.414 -40.1768 264.696C-45.062 188.073 -41.3522 110.849 -13.879 46.1614C21.3001 -36.6706 65.1119 -138.542 129.98 -135.952Z" fill="#D3EC62"/>
</g>
<defs>
<filter id="filter0_d_201_3" x="0" y="0" width="1093" height="382" filterUnits="userSpaceOnUse" color-interpolation-filters="sRGB">
<feFlood flood-opacity="0" result="BackgroundImageFix"/>
<feColorMatrix in="SourceAlpha" type="matrix" values="0 0 0 0 0 0 0 0 0 0 0 0 0 0 0 0 0 0 127 0" result="hardAlpha"/>
<feOffset dy="4"/>
<feGaussianBlur stdDeviation="2"/>
<feComposite in2="hardAlpha" operator="out"/>
<feColorMatrix type="matrix" values="0 0 0 0 0 0 0 0 0 0 0 0 0 0 0 0 0 0 0.25 0"/>
<feBlend mode="normal" in2="BackgroundImageFix" result="effect1_dropShadow_201_3"/>
<feBlend mode="normal" in="SourceGraphic" in2="effect1_dropShadow_201_3" result="shape"/>
</filter>
<clipPath id="clip0_201_3">
<rect width="1085" height="374" fill="white" transform="translate(4)"/>
</clipPath>
</defs>
</svg>
