<svg width="90" height="90" viewBox="0 0 90 90" fill="none" xmlns="http://www.w3.org/2000/svg">
<g clip-path="url(#clip0_71_33)">
<rect width="90" height="90" rx="45" fill="white"/>
<path fill-rule="evenodd" clip-rule="evenodd" d="M73.558 -45.9663C87.3575 -45.0894 91.5492 -28.8292 99.3518 -18.5513C104.966 -11.1565 111.699 -4.2952 111.988 4.6561C112.286 13.8509 106.766 21.7222 100.899 29.2554C93.1872 39.1569 86.9953 54.1164 73.558 53.9993C60.1173 53.8822 56.776 36.8297 46.7414 28.7836C35.3921 19.6833 12.7985 18.3161 12.0203 4.6561C11.248 -8.90053 32.709 -12.9188 43.8438 -22.0785C54.0345 -30.4616 59.7841 -46.8415 73.558 -45.9663Z" fill="#C0EEF2"/>
<path fill-rule="evenodd" clip-rule="evenodd" d="M9.62512 -25.3016C23.3215 -22.6794 28.7687 -6.93507 38.1104 3.58845C46.5981 13.15 60.9785 19.6882 61 32.5727C61.0215 45.4625 48.1402 53.6557 38.2071 61.6554C29.7758 68.4455 20.3685 73.4926 9.62512 73.9475C-1.63163 74.4241 -12.929 71.6937 -21.4388 64.1808C-30.5605 56.1275 -35.4939 44.732 -37.2391 32.5727C-39.3426 17.9163 -41.3199 1.58541 -32.0633 -9.84599C-22.2864 -21.9198 -5.48473 -28.1943 9.62512 -25.3016Z" fill="#7EB31E"/>
<path fill-rule="evenodd" clip-rule="evenodd" d="M79.4425 37.0509C94.9675 37.1934 113.696 29.9689 124.115 40.0712C134.506 50.1469 125.469 65.8622 122.991 79.277C121.098 89.5278 118.427 99.031 111.651 107.544C102.898 118.54 94.7179 133.546 79.4425 133.99C64.0932 134.435 53.8925 120.486 45.0311 109.478C37.8864 100.602 37.1176 90.0393 35.4005 79.277C33.2073 65.5299 23.1461 49.4814 33.8256 39.2422C44.5147 28.9937 63.6124 36.9055 79.4425 37.0509Z" fill="#D3EC62"/>
<path fill-rule="evenodd" clip-rule="evenodd" d="M10.3397 40.2881C27.4692 37.9097 41.481 50.7432 51.5753 60.8836C60.0141 69.3609 62.596 80.0188 60.0796 90.2552C57.9494 98.9204 46.457 103.711 39.2861 110.873C29.221 120.926 27.5896 138.714 10.3397 139.935C-6.66779 141.139 -15.1526 125.377 -24.9962 115.425C-32.5674 107.77 -40.3605 99.5524 -38.7984 90.2552C-37.3554 81.6674 -24.4087 77.5505 -17.4422 70.4665C-7.3697 60.2241 -6.89229 42.6807 10.3397 40.2881Z" fill="#6CB9EB"/>
<rect width="6.66667" height="36.7742" transform="matrix(-1 0 0 1 48.3334 38.2258)" fill="black"/>
<path d="M45 15L19.0192 39.6774H70.9808L45 15Z" fill="black"/>
</g>
<defs>
<clipPath id="clip0_71_33">
<rect width="90" height="90" rx="45" fill="white"/>
</clipPath>
</defs>
</svg>
